<svg width="176" height="176" viewBox="0 0 176 176" fill="none" xmlns="http://www.w3.org/2000/svg">
<circle cx="88" cy="88" r="84" stroke="#1A242D" stroke-width="8"/>
<path d="M4 88C4 134.392 41.6081 172 88 172C134.392 172 172 134.392 172 88C172 41.6081 134.392 4 88 4" stroke="url(#paint0_linear_1_666)" stroke-width="8" stroke-linecap="square" stroke-linejoin="round"/>
<path d="M38.6523 81.0488C38.6523 79.5371 38.7578 78.0488 38.9688 76.584C39.1914 75.1191 39.5664 73.748 40.0938 72.4707C40.6211 71.1934 41.3477 70.0684 42.2734 69.0957C43.2109 68.123 44.3887 67.3613 45.8066 66.8105C47.2246 66.248 48.9297 65.9668 50.9219 65.9668C51.4375 65.9668 52.0176 65.9902 52.6621 66.0371C53.3066 66.084 53.8398 66.1602 54.2617 66.2656V69.6934C53.8047 69.5645 53.3008 69.4648 52.75 69.3945C52.2109 69.3242 51.6719 69.2891 51.1328 69.2891C48.9766 69.2891 47.2949 69.6992 46.0879 70.5195C44.8809 71.3281 44.0195 72.4414 43.5039 73.8594C42.9883 75.2656 42.6895 76.877 42.6074 78.6934H42.8184C43.1699 78.1074 43.6094 77.5859 44.1367 77.1289C44.6641 76.6719 45.3086 76.3086 46.0703 76.0391C46.832 75.7578 47.7168 75.6172 48.7246 75.6172C50.2246 75.6172 51.5312 75.9336 52.6445 76.5664C53.7578 77.1875 54.6133 78.0898 55.2109 79.2734C55.8203 80.457 56.125 81.8926 56.125 83.5801C56.125 85.3965 55.7793 86.9609 55.0879 88.2734C54.4082 89.5859 53.4355 90.5938 52.1699 91.2969C50.916 92 49.4219 92.3516 47.6875 92.3516C46.4102 92.3516 45.2207 92.1172 44.1191 91.6484C43.0293 91.1797 42.0742 90.4766 41.2539 89.5391C40.4336 88.6016 39.7949 87.4297 39.3379 86.0234C38.8809 84.6055 38.6523 82.9473 38.6523 81.0488ZM47.6172 88.9414C48.9531 88.9414 50.0254 88.5078 50.834 87.6406C51.6543 86.7617 52.0645 85.4199 52.0645 83.6152C52.0645 82.1504 51.7012 80.9902 50.9746 80.1348C50.2598 79.2793 49.1816 78.8516 47.7402 78.8516C46.7559 78.8516 45.8945 79.0625 45.1562 79.4844C44.418 79.9062 43.8438 80.4395 43.4336 81.084C43.0352 81.7285 42.8359 82.3848 42.8359 83.0527C42.8359 83.7324 42.9355 84.418 43.1348 85.1094C43.334 85.8008 43.6328 86.4395 44.0312 87.0254C44.4297 87.5996 44.9277 88.0625 45.5254 88.4141C46.123 88.7656 46.8203 88.9414 47.6172 88.9414ZM67.9551 75.9336C69.6074 75.9336 71.0605 76.2324 72.3145 76.8301C73.5801 77.416 74.5645 78.2832 75.2676 79.4316C75.9707 80.5684 76.3223 81.9629 76.3223 83.6152C76.3223 85.4199 75.9414 86.9785 75.1797 88.291C74.418 89.5918 73.2988 90.5938 71.8223 91.2969C70.3457 92 68.5469 92.3516 66.4258 92.3516C65.0781 92.3516 63.8184 92.2344 62.6465 92C61.4863 91.7656 60.4844 91.4141 59.6406 90.9453V87.2188C60.5195 87.7109 61.5742 88.1152 62.8047 88.4316C64.0352 88.7363 65.2129 88.8887 66.3379 88.8887C67.5332 88.8887 68.5586 88.7129 69.4141 88.3613C70.2695 88.0098 70.9258 87.4707 71.3828 86.7441C71.8516 86.0176 72.0859 85.0977 72.0859 83.9844C72.0859 82.5078 71.6113 81.3711 70.6621 80.5742C69.7246 79.7656 68.2539 79.3613 66.25 79.3613C65.5469 79.3613 64.7969 79.4258 64 79.5547C63.2148 79.6719 62.5586 79.8008 62.0312 79.9414L60.2207 78.8691L61.1875 66.3008H74.5469V69.9395H64.8262L64.2637 76.3379C64.6855 76.2441 65.1895 76.1562 65.7754 76.0742C66.3613 75.9805 67.0879 75.9336 67.9551 75.9336ZM97.2227 92H79.8203V88.8887L86.4824 82.1387C87.7715 80.8262 88.832 79.6953 89.6641 78.7461C90.4961 77.7852 91.1113 76.877 91.5098 76.0215C91.9199 75.166 92.125 74.2344 92.125 73.2266C92.125 71.9844 91.7676 71.0469 91.0527 70.4141C90.3379 69.7695 89.3945 69.4473 88.2227 69.4473C87.1094 69.4473 86.0781 69.6699 85.1289 70.1152C84.1914 70.5488 83.2188 71.1699 82.2109 71.9785L79.9434 69.2539C80.6582 68.6445 81.4199 68.0879 82.2285 67.584C83.0488 67.0801 83.9629 66.6816 84.9707 66.3887C85.9785 66.084 87.127 65.9316 88.416 65.9316C90.0449 65.9316 91.4512 66.2246 92.6348 66.8105C93.8184 67.3848 94.7266 68.1875 95.3594 69.2188C96.0039 70.25 96.3262 71.4512 96.3262 72.8223C96.3262 74.2051 96.0508 75.4824 95.5 76.6543C94.9492 77.8262 94.1641 78.9863 93.1445 80.1348C92.125 81.2715 90.9121 82.5078 89.5059 83.8438L85.0586 88.1855V88.3789H97.2227V92Z" fill="white"/>
<path d="M115.551 78.0117C114.73 78.0117 113.996 78.1602 113.348 78.457C112.707 78.7539 112.164 79.1836 111.719 79.7461C111.273 80.3008 110.934 80.9766 110.699 81.7734C110.465 82.5625 110.348 83.4531 110.348 84.4453C110.348 85.7734 110.535 86.918 110.91 87.8789C111.285 88.832 111.855 89.5664 112.621 90.082C113.387 90.5898 114.355 90.8438 115.527 90.8438C116.254 90.8438 116.961 90.7734 117.648 90.6328C118.336 90.4922 119.047 90.3008 119.781 90.0586V92.4492C119.086 92.7227 118.383 92.9219 117.672 93.0469C116.961 93.1719 116.141 93.2344 115.211 93.2344C113.461 93.2344 112.008 92.8711 110.852 92.1445C109.703 91.418 108.844 90.3945 108.273 89.0742C107.711 87.7539 107.43 86.207 107.43 84.4336C107.43 83.1367 107.609 81.9492 107.969 80.8711C108.328 79.793 108.852 78.8633 109.539 78.082C110.227 77.293 111.074 76.6875 112.082 76.2656C113.098 75.8359 114.258 75.6211 115.562 75.6211C116.422 75.6211 117.266 75.7188 118.094 75.9141C118.93 76.1016 119.703 76.3711 120.414 76.7227L119.43 79.043C118.836 78.7617 118.215 78.5195 117.566 78.3164C116.918 78.1133 116.246 78.0117 115.551 78.0117ZM128.266 79.7812C129.906 79.7812 131.145 80.1445 131.98 80.8711C132.824 81.5977 133.246 82.7305 133.246 84.2695V93H131.289L130.762 91.1602H130.668C130.301 91.6289 129.922 92.0156 129.531 92.3203C129.141 92.625 128.688 92.8516 128.172 93C127.664 93.1562 127.043 93.2344 126.309 93.2344C125.535 93.2344 124.844 93.0938 124.234 92.8125C123.625 92.5234 123.145 92.0859 122.793 91.5C122.441 90.9141 122.266 90.1719 122.266 89.2734C122.266 87.9375 122.762 86.9336 123.754 86.2617C124.754 85.5898 126.262 85.2188 128.277 85.1484L130.527 85.0664V84.3867C130.527 83.4883 130.316 82.8477 129.895 82.4648C129.48 82.082 128.895 81.8906 128.137 81.8906C127.488 81.8906 126.859 81.9844 126.25 82.1719C125.641 82.3594 125.047 82.5898 124.469 82.8633L123.578 80.918C124.211 80.582 124.93 80.3086 125.734 80.0977C126.547 79.8867 127.391 79.7812 128.266 79.7812ZM130.516 86.8008L128.84 86.8594C127.465 86.9062 126.5 87.1406 125.945 87.5625C125.391 87.9844 125.113 88.5625 125.113 89.2969C125.113 89.9375 125.305 90.4062 125.688 90.7031C126.07 90.9922 126.574 91.1367 127.199 91.1367C128.152 91.1367 128.941 90.8672 129.566 90.3281C130.199 89.7812 130.516 88.9805 130.516 87.9258V86.8008ZM139.867 93H137.102V74.7656H139.867V93Z" fill="white"/>
<path d="M45.0903 108L43.9478 105.055H40.228L39.0918 108H38L41.6309 98.6816H42.6021L46.2075 108H45.0903ZM43.624 104.096L42.5386 101.17C42.5132 101.094 42.4709 100.969 42.4116 100.795C42.3566 100.622 42.2995 100.442 42.2402 100.256C42.181 100.07 42.1323 99.9194 42.0942 99.8052C42.0519 99.9787 42.0054 100.152 41.9546 100.326C41.908 100.495 41.8615 100.654 41.8149 100.802C41.7684 100.946 41.7282 101.068 41.6943 101.17L40.5898 104.096H43.624ZM50.124 108.127C49.4977 108.127 48.9455 107.998 48.4673 107.74C47.9891 107.482 47.6167 107.088 47.3501 106.559C47.0835 106.03 46.9502 105.364 46.9502 104.56C46.9502 103.717 47.0898 103.03 47.3691 102.497C47.6527 101.959 48.042 101.561 48.5371 101.303C49.0322 101.045 49.5951 100.916 50.2256 100.916C50.5726 100.916 50.9069 100.952 51.2285 101.024C51.5544 101.092 51.821 101.178 52.0283 101.284L51.7109 102.167C51.4993 102.082 51.2539 102.006 50.9746 101.938C50.6995 101.87 50.4414 101.836 50.2002 101.836C49.7178 101.836 49.3158 101.94 48.9941 102.147C48.6768 102.355 48.4377 102.66 48.2769 103.062C48.1203 103.464 48.042 103.959 48.042 104.547C48.042 105.11 48.1182 105.59 48.2705 105.988C48.4271 106.386 48.6577 106.69 48.9624 106.902C49.2713 107.109 49.6564 107.213 50.1177 107.213C50.4858 107.213 50.818 107.175 51.1143 107.099C51.4105 107.018 51.6792 106.925 51.9204 106.819V107.759C51.6877 107.877 51.4274 107.968 51.1396 108.032C50.8561 108.095 50.5176 108.127 50.124 108.127ZM55.8179 107.264C55.9914 107.264 56.1691 107.249 56.3511 107.219C56.533 107.19 56.6812 107.154 56.7954 107.111V107.93C56.6727 107.985 56.5013 108.032 56.2812 108.07C56.0654 108.108 55.8538 108.127 55.6465 108.127C55.2783 108.127 54.944 108.063 54.6436 107.937C54.3431 107.805 54.1019 107.585 53.9199 107.276C53.7422 106.967 53.6533 106.54 53.6533 105.994V101.868H52.6631V101.354L53.6597 100.941L54.0786 99.4307H54.7134V101.043H56.751V101.868H54.7134V105.962C54.7134 106.398 54.8128 106.724 55.0117 106.94C55.2148 107.156 55.4836 107.264 55.8179 107.264ZM59.2583 101.043V108H58.2046V101.043H59.2583ZM58.7441 98.4404C58.9176 98.4404 59.0658 98.4976 59.1885 98.6118C59.3154 98.7218 59.3789 98.8953 59.3789 99.1323C59.3789 99.3651 59.3154 99.5386 59.1885 99.6528C59.0658 99.7671 58.9176 99.8242 58.7441 99.8242C58.5622 99.8242 58.4098 99.7671 58.2871 99.6528C58.1686 99.5386 58.1094 99.3651 58.1094 99.1323C58.1094 98.8953 58.1686 98.7218 58.2871 98.6118C58.4098 98.4976 58.5622 98.4404 58.7441 98.4404ZM63.0225 108L60.3818 101.043H61.5117L63.0415 105.251C63.1473 105.539 63.2552 105.857 63.3652 106.204C63.4753 106.551 63.5514 106.83 63.5938 107.042H63.6382C63.689 106.83 63.7736 106.551 63.8921 106.204C64.0106 105.852 64.1185 105.535 64.2158 105.251L65.7456 101.043H66.8755L64.2285 108H63.0225ZM70.6714 100.916C71.2638 100.916 71.7716 101.047 72.1948 101.31C72.618 101.572 72.9417 101.94 73.166 102.414C73.3903 102.884 73.5024 103.434 73.5024 104.064V104.718H68.6973C68.71 105.535 68.9131 106.157 69.3066 106.584C69.7002 107.012 70.2546 107.226 70.9697 107.226C71.4098 107.226 71.7992 107.185 72.1377 107.105C72.4762 107.025 72.8275 106.906 73.1914 106.75V107.676C72.8402 107.833 72.491 107.947 72.144 108.019C71.8013 108.091 71.395 108.127 70.9253 108.127C70.2567 108.127 69.6727 107.992 69.1733 107.721C68.6782 107.446 68.2931 107.044 68.0181 106.515C67.743 105.986 67.6055 105.338 67.6055 104.572C67.6055 103.823 67.7303 103.176 67.98 102.63C68.2339 102.08 68.5894 101.657 69.0464 101.36C69.5076 101.064 70.0493 100.916 70.6714 100.916ZM70.6587 101.779C70.0959 101.779 69.6473 101.963 69.313 102.332C68.9787 102.7 68.7798 103.214 68.7163 103.874H72.3979C72.3937 103.459 72.3281 103.095 72.2012 102.782C72.0785 102.465 71.8901 102.219 71.6362 102.046C71.3823 101.868 71.0565 101.779 70.6587 101.779ZM82.7954 99.5386C82.2834 99.5386 81.8221 99.6274 81.4116 99.8052C81.0054 99.9787 80.6584 100.233 80.3706 100.567C80.0871 100.897 79.8691 101.297 79.7168 101.767C79.5645 102.236 79.4883 102.765 79.4883 103.354C79.4883 104.132 79.6089 104.809 79.8501 105.385C80.0955 105.956 80.4595 106.398 80.9419 106.711C81.4285 107.025 82.0358 107.181 82.7637 107.181C83.1784 107.181 83.5677 107.147 83.9316 107.08C84.2998 107.008 84.6574 106.919 85.0044 106.813V107.752C84.6659 107.879 84.3104 107.972 83.938 108.032C83.5656 108.095 83.1234 108.127 82.6113 108.127C81.6676 108.127 80.8784 107.932 80.2437 107.543C79.6131 107.149 79.1392 106.595 78.8218 105.88C78.5086 105.165 78.3521 104.32 78.3521 103.347C78.3521 102.645 78.4494 102.004 78.644 101.424C78.8429 100.84 79.1307 100.336 79.5073 99.9131C79.8882 99.4899 80.3537 99.1641 80.9038 98.9355C81.4582 98.7028 82.0929 98.5864 82.8081 98.5864C83.2778 98.5864 83.7306 98.633 84.1665 98.7261C84.6024 98.8192 84.9959 98.9525 85.3472 99.126L84.9155 100.04C84.6193 99.9046 84.2935 99.7882 83.938 99.6909C83.5868 99.5894 83.2059 99.5386 82.7954 99.5386ZM89.4604 100.929C90.2899 100.929 90.9056 101.115 91.3076 101.487C91.7096 101.86 91.9106 102.454 91.9106 103.271V108H91.1426L90.9395 106.972H90.8887C90.694 107.226 90.4909 107.439 90.2793 107.613C90.0677 107.782 89.8223 107.911 89.543 108C89.2679 108.085 88.9294 108.127 88.5273 108.127C88.1042 108.127 87.7275 108.053 87.3975 107.905C87.0716 107.757 86.8135 107.532 86.623 107.232C86.4368 106.931 86.3438 106.551 86.3438 106.089C86.3438 105.395 86.6188 104.862 87.1689 104.49C87.7191 104.117 88.557 103.914 89.6826 103.88L90.8823 103.83V103.404C90.8823 102.803 90.7533 102.382 90.4951 102.141C90.237 101.9 89.873 101.779 89.4033 101.779C89.0394 101.779 88.6924 101.832 88.3623 101.938C88.0322 102.044 87.7191 102.169 87.4229 102.312L87.0991 101.513C87.4123 101.352 87.772 101.214 88.1782 101.1C88.5845 100.986 89.0119 100.929 89.4604 100.929ZM90.8696 104.572L89.8096 104.617C88.9421 104.651 88.3306 104.792 87.9751 105.042C87.6196 105.292 87.4419 105.645 87.4419 106.102C87.4419 106.5 87.5625 106.794 87.8037 106.984C88.0449 107.175 88.3644 107.27 88.7622 107.27C89.38 107.27 89.8857 107.099 90.2793 106.756C90.6729 106.413 90.8696 105.899 90.8696 105.213V104.572ZM95.1416 108H94.0815V98.123H95.1416V108ZM103.368 104.509C103.368 105.08 103.294 105.59 103.146 106.039C102.998 106.487 102.784 106.866 102.505 107.175C102.226 107.484 101.887 107.721 101.489 107.886C101.096 108.047 100.649 108.127 100.15 108.127C99.6844 108.127 99.257 108.047 98.8677 107.886C98.4826 107.721 98.1483 107.484 97.8647 107.175C97.5854 106.866 97.3675 106.487 97.2109 106.039C97.0586 105.59 96.9824 105.08 96.9824 104.509C96.9824 103.747 97.1115 103.1 97.3696 102.566C97.6278 102.029 97.9959 101.621 98.4741 101.341C98.9565 101.058 99.5299 100.916 100.194 100.916C100.829 100.916 101.383 101.058 101.857 101.341C102.336 101.625 102.706 102.035 102.968 102.573C103.235 103.106 103.368 103.751 103.368 104.509ZM98.0742 104.509C98.0742 105.067 98.1483 105.552 98.2964 105.962C98.4445 106.373 98.673 106.69 98.9819 106.915C99.2909 107.139 99.6886 107.251 100.175 107.251C100.658 107.251 101.053 107.139 101.362 106.915C101.675 106.69 101.906 106.373 102.054 105.962C102.202 105.552 102.276 105.067 102.276 104.509C102.276 103.954 102.202 103.476 102.054 103.074C101.906 102.668 101.678 102.355 101.369 102.135C101.06 101.915 100.66 101.805 100.169 101.805C99.4453 101.805 98.9142 102.044 98.5757 102.522C98.2414 103 98.0742 103.662 98.0742 104.509ZM108.351 100.916C108.491 100.916 108.637 100.924 108.789 100.941C108.941 100.954 109.077 100.973 109.195 100.999L109.062 101.976C108.948 101.946 108.821 101.923 108.681 101.906C108.542 101.889 108.41 101.881 108.288 101.881C108.008 101.881 107.744 101.938 107.494 102.052C107.249 102.162 107.033 102.323 106.847 102.535C106.66 102.742 106.514 102.994 106.409 103.29C106.303 103.582 106.25 103.908 106.25 104.268V108H105.19V101.043H106.066L106.18 102.325H106.225C106.368 102.067 106.542 101.832 106.745 101.621C106.948 101.405 107.183 101.233 107.45 101.106C107.721 100.979 108.021 100.916 108.351 100.916ZM111.563 101.043V108H110.509V101.043H111.563ZM111.049 98.4404C111.222 98.4404 111.37 98.4976 111.493 98.6118C111.62 98.7218 111.684 98.8953 111.684 99.1323C111.684 99.3651 111.62 99.5386 111.493 99.6528C111.37 99.7671 111.222 99.8242 111.049 99.8242C110.867 99.8242 110.715 99.7671 110.592 99.6528C110.473 99.5386 110.414 99.3651 110.414 99.1323C110.414 98.8953 110.473 98.7218 110.592 98.6118C110.715 98.4976 110.867 98.4404 111.049 98.4404ZM116.476 100.916C117.069 100.916 117.576 101.047 118 101.31C118.423 101.572 118.746 101.94 118.971 102.414C119.195 102.884 119.307 103.434 119.307 104.064V104.718H114.502C114.515 105.535 114.718 106.157 115.111 106.584C115.505 107.012 116.059 107.226 116.774 107.226C117.215 107.226 117.604 107.185 117.942 107.105C118.281 107.025 118.632 106.906 118.996 106.75V107.676C118.645 107.833 118.296 107.947 117.949 108.019C117.606 108.091 117.2 108.127 116.73 108.127C116.061 108.127 115.477 107.992 114.978 107.721C114.483 107.446 114.098 107.044 113.823 106.515C113.548 105.986 113.41 105.338 113.41 104.572C113.41 103.823 113.535 103.176 113.785 102.63C114.039 102.08 114.394 101.657 114.851 101.36C115.312 101.064 115.854 100.916 116.476 100.916ZM116.463 101.779C115.901 101.779 115.452 101.963 115.118 102.332C114.783 102.7 114.584 103.214 114.521 103.874H118.203C118.198 103.459 118.133 103.095 118.006 102.782C117.883 102.465 117.695 102.219 117.441 102.046C117.187 101.868 116.861 101.779 116.463 101.779ZM125.598 106.096C125.598 106.54 125.486 106.915 125.261 107.219C125.041 107.52 124.724 107.746 124.309 107.898C123.899 108.051 123.408 108.127 122.836 108.127C122.35 108.127 121.929 108.089 121.573 108.013C121.218 107.937 120.907 107.829 120.64 107.689V106.718C120.924 106.857 121.262 106.984 121.656 107.099C122.049 107.213 122.451 107.27 122.862 107.27C123.463 107.27 123.899 107.173 124.169 106.978C124.44 106.783 124.576 106.519 124.576 106.185C124.576 105.994 124.521 105.827 124.411 105.683C124.305 105.535 124.125 105.393 123.871 105.258C123.617 105.118 123.266 104.966 122.817 104.801C122.373 104.632 121.988 104.464 121.662 104.299C121.34 104.13 121.091 103.925 120.913 103.684C120.74 103.442 120.653 103.129 120.653 102.744C120.653 102.156 120.89 101.705 121.364 101.392C121.842 101.075 122.468 100.916 123.243 100.916C123.662 100.916 124.053 100.958 124.417 101.043C124.785 101.123 125.128 101.233 125.445 101.373L125.09 102.217C124.802 102.095 124.495 101.991 124.169 101.906C123.844 101.822 123.511 101.779 123.173 101.779C122.686 101.779 122.312 101.86 122.049 102.021C121.791 102.181 121.662 102.401 121.662 102.681C121.662 102.896 121.721 103.074 121.84 103.214C121.963 103.354 122.157 103.485 122.424 103.607C122.69 103.73 123.042 103.874 123.478 104.039C123.913 104.2 124.29 104.367 124.607 104.541C124.925 104.71 125.168 104.917 125.337 105.163C125.511 105.404 125.598 105.715 125.598 106.096Z" fill="white"/>
<defs>
<linearGradient id="paint0_linear_1_666" x1="88" y1="4" x2="88" y2="172" gradientUnits="userSpaceOnUse">
<stop stop-color="#D0FD3E"/>
<stop offset="1" stop-color="#FF2424"/>
</linearGradient>
</defs>
</svg>
