<svg width="327" height="73" viewBox="0 0 327 73" fill="none" xmlns="http://www.w3.org/2000/svg">
<rect width="327" height="73" rx="12" fill="#1A242D"/>
<path d="M23.564 54H22.5356V47.4238C22.5356 47.1742 22.5356 46.9604 22.5356 46.7827C22.5399 46.6007 22.5441 46.4357 22.5483 46.2876C22.5568 46.1353 22.5674 45.9808 22.5801 45.8242C22.4489 45.9596 22.3262 46.076 22.2119 46.1733C22.0977 46.2664 21.9559 46.3828 21.7866 46.5225L20.7266 47.373L20.1743 46.6558L22.688 44.7197H23.564V54ZM33.2124 49.3472C33.2124 50.1004 33.1553 50.7733 33.041 51.3657C32.9268 51.9582 32.7469 52.4596 32.5015 52.8701C32.256 53.2806 31.9386 53.5938 31.5493 53.8096C31.16 54.0212 30.6924 54.127 30.1465 54.127C29.4567 54.127 28.8854 53.9386 28.4326 53.562C27.984 53.1854 27.6476 52.6416 27.4233 51.9307C27.2033 51.2155 27.0933 50.3543 27.0933 49.3472C27.0933 48.3569 27.1927 47.5063 27.3916 46.7954C27.5947 46.0802 27.9206 45.5322 28.3691 45.1514C28.8177 44.7663 29.4102 44.5737 30.1465 44.5737C30.8447 44.5737 31.4202 44.7642 31.873 45.145C32.3258 45.5216 32.6623 46.0675 32.8823 46.7827C33.1024 47.4937 33.2124 48.3485 33.2124 49.3472ZM28.1533 49.3472C28.1533 50.2104 28.2189 50.9299 28.3501 51.5054C28.4813 52.0809 28.6929 52.5125 28.9849 52.8003C29.2811 53.0838 29.6683 53.2256 30.1465 53.2256C30.6247 53.2256 31.0098 53.0838 31.3018 52.8003C31.598 52.5168 31.8117 52.0872 31.9429 51.5117C32.0783 50.9362 32.146 50.2147 32.146 49.3472C32.146 48.4966 32.0804 47.7856 31.9492 47.2144C31.818 46.6388 31.6064 46.2072 31.3145 45.9194C31.0225 45.6274 30.6331 45.4814 30.1465 45.4814C29.6598 45.4814 29.2705 45.6274 28.9785 45.9194C28.6865 46.2072 28.4749 46.6388 28.3438 47.2144C28.2168 47.7856 28.1533 48.4966 28.1533 49.3472ZM34.8311 53.3398C34.8311 53.0436 34.903 52.8341 35.0469 52.7114C35.1908 52.5845 35.3664 52.521 35.5737 52.521C35.7896 52.521 35.9715 52.5845 36.1196 52.7114C36.2677 52.8341 36.3418 53.0436 36.3418 53.3398C36.3418 53.6318 36.2677 53.8455 36.1196 53.981C35.9715 54.1121 35.7896 54.1777 35.5737 54.1777C35.3664 54.1777 35.1908 54.1121 35.0469 53.981C34.903 53.8455 34.8311 53.6318 34.8311 53.3398ZM34.8311 47.7095C34.8311 47.4048 34.903 47.1911 35.0469 47.0684C35.1908 46.9414 35.3664 46.8779 35.5737 46.8779C35.7896 46.8779 35.9715 46.9414 36.1196 47.0684C36.2677 47.1911 36.3418 47.4048 36.3418 47.7095C36.3418 47.9972 36.2677 48.2067 36.1196 48.3379C35.9715 48.4691 35.7896 48.5347 35.5737 48.5347C35.3664 48.5347 35.1908 48.4691 35.0469 48.3379C34.903 48.2067 34.8311 47.9972 34.8311 47.7095ZM44.0669 49.3472C44.0669 50.1004 44.0098 50.7733 43.8955 51.3657C43.7812 51.9582 43.6014 52.4596 43.356 52.8701C43.1105 53.2806 42.7931 53.5938 42.4038 53.8096C42.0145 54.0212 41.5469 54.127 41.001 54.127C40.3112 54.127 39.7399 53.9386 39.2871 53.562C38.8385 53.1854 38.5021 52.6416 38.2778 51.9307C38.0578 51.2155 37.9478 50.3543 37.9478 49.3472C37.9478 48.3569 38.0472 47.5063 38.2461 46.7954C38.4492 46.0802 38.7751 45.5322 39.2236 45.1514C39.6722 44.7663 40.2646 44.5737 41.001 44.5737C41.6992 44.5737 42.2747 44.7642 42.7275 45.145C43.1803 45.5216 43.5168 46.0675 43.7368 46.7827C43.9569 47.4937 44.0669 48.3485 44.0669 49.3472ZM39.0078 49.3472C39.0078 50.2104 39.0734 50.9299 39.2046 51.5054C39.3358 52.0809 39.5474 52.5125 39.8394 52.8003C40.1356 53.0838 40.5228 53.2256 41.001 53.2256C41.4792 53.2256 41.8643 53.0838 42.1562 52.8003C42.4525 52.5168 42.6662 52.0872 42.7974 51.5117C42.9328 50.9362 43.0005 50.2147 43.0005 49.3472C43.0005 48.4966 42.9349 47.7856 42.8037 47.2144C42.6725 46.6388 42.4609 46.2072 42.1689 45.9194C41.877 45.6274 41.4876 45.4814 41.001 45.4814C40.5143 45.4814 40.125 45.6274 39.833 45.9194C39.541 46.2072 39.3294 46.6388 39.1982 47.2144C39.0713 47.7856 39.0078 48.4966 39.0078 49.3472ZM51.5063 49.3472C51.5063 50.1004 51.4492 50.7733 51.335 51.3657C51.2207 51.9582 51.0409 52.4596 50.7954 52.8701C50.55 53.2806 50.2326 53.5938 49.8433 53.8096C49.4539 54.0212 48.9863 54.127 48.4404 54.127C47.7507 54.127 47.1794 53.9386 46.7266 53.562C46.278 53.1854 45.9416 52.6416 45.7173 51.9307C45.4972 51.2155 45.3872 50.3543 45.3872 49.3472C45.3872 48.3569 45.4867 47.5063 45.6855 46.7954C45.8887 46.0802 46.2145 45.5322 46.6631 45.1514C47.1117 44.7663 47.7041 44.5737 48.4404 44.5737C49.1387 44.5737 49.7142 44.7642 50.167 45.145C50.6198 45.5216 50.9562 46.0675 51.1763 46.7827C51.3963 47.4937 51.5063 48.3485 51.5063 49.3472ZM46.4473 49.3472C46.4473 50.2104 46.5129 50.9299 46.644 51.5054C46.7752 52.0809 46.9868 52.5125 47.2788 52.8003C47.575 53.0838 47.9622 53.2256 48.4404 53.2256C48.9186 53.2256 49.3037 53.0838 49.5957 52.8003C49.8919 52.5168 50.1056 52.0872 50.2368 51.5117C50.3722 50.9362 50.4399 50.2147 50.4399 49.3472C50.4399 48.4966 50.3743 47.7856 50.2432 47.2144C50.112 46.6388 49.9004 46.2072 49.6084 45.9194C49.3164 45.6274 48.9271 45.4814 48.4404 45.4814C47.9538 45.4814 47.5645 45.6274 47.2725 45.9194C46.9805 46.2072 46.7689 46.6388 46.6377 47.2144C46.5107 47.7856 46.4473 48.4966 46.4473 49.3472Z" fill="#F12C4C"/>
<path d="M24.5996 30.6963C24.5996 31.4157 24.4225 32.0355 24.0684 32.5557C23.7197 33.0758 23.2161 33.4743 22.5576 33.751C21.9046 34.0277 21.1243 34.166 20.2168 34.166C19.7741 34.166 19.3507 34.1411 18.9468 34.0913C18.5428 34.0415 18.161 33.9696 17.8013 33.8755C17.4471 33.7759 17.1234 33.6569 16.8301 33.5186V31.6426C17.3226 31.8584 17.8732 32.0549 18.4819 32.2319C19.0907 32.4035 19.7104 32.4893 20.3413 32.4893C20.856 32.4893 21.2821 32.4229 21.6196 32.29C21.9627 32.1517 22.2173 31.958 22.3833 31.709C22.5493 31.4544 22.6323 31.1584 22.6323 30.8208C22.6323 30.4611 22.5355 30.1567 22.3418 29.9077C22.1481 29.6587 21.8548 29.4318 21.4619 29.2271C21.0745 29.0168 20.5876 28.7926 20.001 28.5547C19.6025 28.3942 19.2207 28.2116 18.8555 28.0068C18.4958 27.8021 18.1748 27.5614 17.8926 27.2847C17.6104 27.008 17.3862 26.6815 17.2202 26.3052C17.0597 25.9233 16.9795 25.4751 16.9795 24.9604C16.9795 24.2743 17.1427 23.6877 17.4692 23.2007C17.8013 22.7137 18.2661 22.3402 18.8638 22.0801C19.467 21.82 20.1698 21.6899 20.9722 21.6899C21.6086 21.6899 22.2062 21.7563 22.7651 21.8892C23.3296 22.022 23.883 22.2101 24.4253 22.4536L23.7944 24.0557C23.2964 23.8509 22.8122 23.6877 22.3418 23.5659C21.877 23.4442 21.401 23.3833 20.9141 23.3833C20.4935 23.3833 20.1366 23.4469 19.8433 23.5742C19.55 23.7015 19.3258 23.8813 19.1709 24.1138C19.0215 24.3407 18.9468 24.6118 18.9468 24.9272C18.9468 25.2814 19.0326 25.5802 19.2041 25.8237C19.3812 26.0617 19.6523 26.2803 20.0176 26.4795C20.3883 26.6787 20.8643 26.9001 21.4453 27.1436C22.1149 27.4202 22.6821 27.7108 23.147 28.0151C23.6174 28.3195 23.9771 28.6847 24.2261 29.1108C24.4751 29.5314 24.5996 30.0599 24.5996 30.6963ZM30.1611 32.5889C30.4157 32.5889 30.6675 32.5667 30.9165 32.5225C31.1655 32.4727 31.3924 32.4146 31.5972 32.3481V33.8257C31.3813 33.9198 31.1019 34 30.7588 34.0664C30.4157 34.1328 30.0588 34.166 29.688 34.166C29.1678 34.166 28.7002 34.0802 28.2852 33.9087C27.8701 33.7316 27.5409 33.43 27.2974 33.0039C27.0539 32.5778 26.9321 31.9884 26.9321 31.2358V26.2969H25.6787V25.4253L27.0234 24.7363L27.6626 22.769H28.8911V24.811H31.5225V26.2969H28.8911V31.2109C28.8911 31.6758 29.0073 32.0216 29.2397 32.2485C29.4722 32.4754 29.7793 32.5889 30.1611 32.5889ZM37.0674 24.6367C38.2295 24.6367 39.1066 24.894 39.6987 25.4087C40.2964 25.9233 40.5952 26.7257 40.5952 27.8159V34H39.209L38.8354 32.6968H38.769C38.509 33.0288 38.2406 33.3027 37.9639 33.5186C37.6872 33.7344 37.3662 33.8949 37.001 34C36.6413 34.1107 36.2013 34.166 35.6812 34.166C35.1333 34.166 34.6436 34.0664 34.2119 33.8672C33.7803 33.6624 33.4399 33.3525 33.1909 32.9375C32.9419 32.5225 32.8174 31.9967 32.8174 31.3604C32.8174 30.4141 33.1688 29.703 33.8716 29.2271C34.5799 28.7511 35.6479 28.4883 37.0757 28.4385L38.6694 28.3804V27.8989C38.6694 27.2625 38.52 26.8088 38.2212 26.5376C37.9279 26.2664 37.5129 26.1309 36.9761 26.1309C36.5168 26.1309 36.0713 26.1973 35.6396 26.3301C35.208 26.4629 34.7874 26.6261 34.3779 26.8198L33.7471 25.4419C34.1953 25.2039 34.7044 25.0103 35.2744 24.8608C35.8499 24.7114 36.4476 24.6367 37.0674 24.6367ZM38.6611 29.6089L37.4741 29.6504C36.5002 29.6836 35.8167 29.8496 35.4238 30.1484C35.0309 30.4473 34.8345 30.8568 34.8345 31.377C34.8345 31.8307 34.9701 32.1628 35.2412 32.373C35.5124 32.5778 35.8693 32.6802 36.312 32.6802C36.9871 32.6802 37.5461 32.4893 37.9888 32.1074C38.437 31.7201 38.6611 31.1528 38.6611 30.4058V29.6089ZM45.2769 21.084V24.1968C45.2769 24.5565 45.2658 24.9106 45.2437 25.2593C45.2271 25.6024 45.2104 25.8708 45.1938 26.0645H45.2769C45.5259 25.666 45.8717 25.3312 46.3145 25.0601C46.7627 24.7834 47.3354 24.645 48.0327 24.645C49.1229 24.645 50 25.0462 50.6641 25.8486C51.3281 26.6455 51.6602 27.827 51.6602 29.3931C51.6602 30.4334 51.508 31.3078 51.2036 32.0161C50.8993 32.7244 50.4704 33.2612 49.917 33.6265C49.3691 33.9862 48.7244 34.166 47.9829 34.166C47.2856 34.166 46.7212 34.0387 46.2896 33.7842C45.8634 33.5241 45.5286 33.2225 45.2852 32.8794H45.144L44.7871 34H43.3262V21.084H45.2769ZM47.5181 26.2305C46.9647 26.2305 46.5247 26.3411 46.1982 26.5625C45.8773 26.7839 45.6449 27.1159 45.501 27.5586C45.3571 27.9958 45.2824 28.5519 45.2769 29.2271V29.4014C45.2769 30.4251 45.4373 31.2082 45.7583 31.7505C46.0848 32.2928 46.6769 32.564 47.5347 32.564C48.2153 32.564 48.7383 32.29 49.1035 31.7422C49.4688 31.1888 49.6514 30.3975 49.6514 29.3682C49.6514 28.3278 49.4688 27.5448 49.1035 27.019C48.7438 26.4933 48.2153 26.2305 47.5181 26.2305ZM55.8687 24.811V34H53.918V24.811H55.8687ZM54.9058 21.2915C55.2046 21.2915 55.4619 21.3717 55.6777 21.5322C55.8991 21.6927 56.0098 21.9694 56.0098 22.3623C56.0098 22.7497 55.8991 23.0264 55.6777 23.1924C55.4619 23.3529 55.2046 23.4331 54.9058 23.4331C54.5959 23.4331 54.333 23.3529 54.1172 23.1924C53.9069 23.0264 53.8018 22.7497 53.8018 22.3623C53.8018 21.9694 53.9069 21.6927 54.1172 21.5322C54.333 21.3717 54.5959 21.2915 54.9058 21.2915ZM60.625 34H58.666V21.084H60.625V34ZM65.3647 24.811V34H63.4141V24.811H65.3647ZM64.4019 21.2915C64.7007 21.2915 64.958 21.3717 65.1738 21.5322C65.3952 21.6927 65.5059 21.9694 65.5059 22.3623C65.5059 22.7497 65.3952 23.0264 65.1738 23.1924C64.958 23.3529 64.7007 23.4331 64.4019 23.4331C64.092 23.4331 63.8291 23.3529 63.6133 23.1924C63.403 23.0264 63.2979 22.7497 63.2979 22.3623C63.2979 21.9694 63.403 21.6927 63.6133 21.5322C63.8291 21.3717 64.092 21.2915 64.4019 21.2915ZM71.582 32.5889C71.8366 32.5889 72.0884 32.5667 72.3374 32.5225C72.5864 32.4727 72.8133 32.4146 73.0181 32.3481V33.8257C72.8022 33.9198 72.5228 34 72.1797 34.0664C71.8366 34.1328 71.4797 34.166 71.1089 34.166C70.5887 34.166 70.1211 34.0802 69.7061 33.9087C69.291 33.7316 68.9618 33.43 68.7183 33.0039C68.4748 32.5778 68.353 31.9884 68.353 31.2358V26.2969H67.0996V25.4253L68.4443 24.7363L69.0835 22.769H70.312V24.811H72.9434V26.2969H70.312V31.2109C70.312 31.6758 70.4282 32.0216 70.6606 32.2485C70.8931 32.4754 71.2002 32.5889 71.582 32.5889ZM73.4995 24.811H75.6245L77.5088 30.0571C77.5918 30.2951 77.6665 30.5303 77.7329 30.7627C77.8049 30.9896 77.8657 31.2137 77.9155 31.4351C77.9709 31.6564 78.0151 31.8778 78.0483 32.0991H78.0981C78.1535 31.8114 78.231 31.4904 78.3306 31.1362C78.4357 30.7765 78.5519 30.4168 78.6792 30.0571L80.4888 24.811H82.5889L78.646 35.2617C78.4191 35.8594 78.1396 36.3685 77.8076 36.7891C77.4811 37.2152 77.0938 37.5361 76.6455 37.752C76.1973 37.9733 75.6854 38.084 75.1099 38.084C74.8332 38.084 74.5924 38.0674 74.3877 38.0342C74.1829 38.0065 74.0086 37.9761 73.8647 37.9429V36.3823C73.981 36.41 74.1276 36.4349 74.3047 36.457C74.4818 36.4792 74.6644 36.4902 74.8525 36.4902C75.2012 36.4902 75.5028 36.4211 75.7573 36.2827C76.0119 36.1444 76.2277 35.9479 76.4048 35.6934C76.5819 35.4443 76.7285 35.1593 76.8447 34.8384L77.1685 33.9751L73.4995 24.811ZM92.8071 34H90.8066V23.5576H87.2539V21.8643H96.3516V23.5576H92.8071V34ZM102.668 24.6367C102.823 24.6367 102.992 24.645 103.175 24.6616C103.357 24.6782 103.515 24.7004 103.648 24.728L103.465 26.5542C103.349 26.521 103.205 26.4961 103.034 26.4795C102.868 26.4629 102.718 26.4546 102.585 26.4546C102.237 26.4546 101.905 26.5127 101.589 26.6289C101.274 26.7396 100.994 26.9111 100.751 27.1436C100.507 27.3704 100.317 27.6554 100.178 27.9985C100.04 28.3416 99.9707 28.7401 99.9707 29.1938V34H98.0117V24.811H99.5391L99.8047 26.4297H99.896C100.079 26.1032 100.306 25.8044 100.577 25.5332C100.848 25.262 101.158 25.0462 101.506 24.8857C101.861 24.7197 102.248 24.6367 102.668 24.6367ZM108.952 24.6367C110.114 24.6367 110.991 24.894 111.583 25.4087C112.181 25.9233 112.48 26.7257 112.48 27.8159V34H111.094L110.72 32.6968H110.654C110.394 33.0288 110.125 33.3027 109.849 33.5186C109.572 33.7344 109.251 33.8949 108.886 34C108.526 34.1107 108.086 34.166 107.566 34.166C107.018 34.166 106.528 34.0664 106.097 33.8672C105.665 33.6624 105.325 33.3525 105.076 32.9375C104.827 32.5225 104.702 31.9967 104.702 31.3604C104.702 30.4141 105.054 29.703 105.756 29.2271C106.465 28.7511 107.533 28.4883 108.96 28.4385L110.554 28.3804V27.8989C110.554 27.2625 110.405 26.8088 110.106 26.5376C109.813 26.2664 109.398 26.1309 108.861 26.1309C108.402 26.1309 107.956 26.1973 107.524 26.3301C107.093 26.4629 106.672 26.6261 106.263 26.8198L105.632 25.4419C106.08 25.2039 106.589 25.0103 107.159 24.8608C107.735 24.7114 108.332 24.6367 108.952 24.6367ZM110.546 29.6089L109.359 29.6504C108.385 29.6836 107.701 29.8496 107.309 30.1484C106.916 30.4473 106.719 30.8568 106.719 31.377C106.719 31.8307 106.855 32.1628 107.126 32.373C107.397 32.5778 107.754 32.6802 108.197 32.6802C108.872 32.6802 109.431 32.4893 109.874 32.1074C110.322 31.7201 110.546 31.1528 110.546 30.4058V29.6089ZM117.162 24.811V34H115.211V24.811H117.162ZM116.199 21.2915C116.498 21.2915 116.755 21.3717 116.971 21.5322C117.192 21.6927 117.303 21.9694 117.303 22.3623C117.303 22.7497 117.192 23.0264 116.971 23.1924C116.755 23.3529 116.498 23.4331 116.199 23.4331C115.889 23.4331 115.626 23.3529 115.41 23.1924C115.2 23.0264 115.095 22.7497 115.095 22.3623C115.095 21.9694 115.2 21.6927 115.41 21.5322C115.626 21.3717 115.889 21.2915 116.199 21.2915ZM124.749 24.6367C125.783 24.6367 126.589 24.9051 127.164 25.4419C127.745 25.9731 128.036 26.8281 128.036 28.0068V34H126.085V28.3721C126.085 27.6582 125.938 27.1242 125.645 26.77C125.352 26.4103 124.898 26.2305 124.284 26.2305C123.393 26.2305 122.773 26.5044 122.424 27.0522C122.081 27.6001 121.91 28.3942 121.91 29.4346V34H119.959V24.811H121.478L121.752 26.0562H121.86C122.059 25.7352 122.305 25.4723 122.599 25.2676C122.897 25.0573 123.229 24.8996 123.595 24.7944C123.965 24.6893 124.35 24.6367 124.749 24.6367ZM132.717 24.811V34H130.767V24.811H132.717ZM131.754 21.2915C132.053 21.2915 132.311 21.3717 132.526 21.5322C132.748 21.6927 132.858 21.9694 132.858 22.3623C132.858 22.7497 132.748 23.0264 132.526 23.1924C132.311 23.3529 132.053 23.4331 131.754 23.4331C131.444 23.4331 131.182 23.3529 130.966 23.1924C130.756 23.0264 130.65 22.7497 130.65 22.3623C130.65 21.9694 130.756 21.6927 130.966 21.5322C131.182 21.3717 131.444 21.2915 131.754 21.2915ZM140.304 24.6367C141.339 24.6367 142.144 24.9051 142.72 25.4419C143.301 25.9731 143.591 26.8281 143.591 28.0068V34H141.641V28.3721C141.641 27.6582 141.494 27.1242 141.201 26.77C140.907 26.4103 140.454 26.2305 139.839 26.2305C138.948 26.2305 138.329 26.5044 137.98 27.0522C137.637 27.6001 137.465 28.3942 137.465 29.4346V34H135.515V24.811H137.034L137.308 26.0562H137.416C137.615 25.7352 137.861 25.4723 138.154 25.2676C138.453 25.0573 138.785 24.8996 139.15 24.7944C139.521 24.6893 139.906 24.6367 140.304 24.6367ZM148.945 38.084C147.7 38.084 146.746 37.8599 146.082 37.4116C145.417 36.9634 145.085 36.3353 145.085 35.5273C145.085 34.9629 145.263 34.4842 145.617 34.0913C145.971 33.7039 146.477 33.4355 147.136 33.2861C146.887 33.1755 146.671 33.0039 146.488 32.7715C146.311 32.5335 146.223 32.2707 146.223 31.9829C146.223 31.6398 146.319 31.3465 146.513 31.103C146.707 30.8595 146.997 30.6243 147.385 30.3975C146.903 30.1927 146.516 29.8607 146.223 29.4014C145.935 28.9365 145.791 28.3914 145.791 27.7661C145.791 27.1021 145.932 26.5376 146.214 26.0728C146.497 25.6024 146.909 25.2454 147.451 25.002C147.993 24.7529 148.649 24.6284 149.418 24.6284C149.584 24.6284 149.764 24.6395 149.958 24.6616C150.157 24.6782 150.34 24.7004 150.506 24.728C150.677 24.7502 150.807 24.7751 150.896 24.8027H154.075V25.8901L152.515 26.1807C152.664 26.391 152.783 26.6317 152.872 26.9028C152.96 27.1685 153.004 27.459 153.004 27.7744C153.004 28.7262 152.675 29.4761 152.017 30.0239C151.364 30.5662 150.462 30.8374 149.311 30.8374C149.034 30.8263 148.765 30.8042 148.505 30.771C148.306 30.8927 148.154 31.0283 148.049 31.1777C147.944 31.3216 147.891 31.4849 147.891 31.6675C147.891 31.8169 147.944 31.9386 148.049 32.0327C148.154 32.1213 148.309 32.1877 148.514 32.2319C148.724 32.2762 148.979 32.2983 149.277 32.2983H150.863C151.87 32.2983 152.639 32.5114 153.17 32.9375C153.702 33.3636 153.967 33.9889 153.967 34.8135C153.967 35.8594 153.536 36.6646 152.672 37.229C151.809 37.799 150.567 38.084 148.945 38.084ZM149.02 36.7144C149.701 36.7144 150.273 36.6479 150.738 36.5151C151.203 36.3823 151.555 36.1914 151.792 35.9424C152.03 35.6989 152.149 35.4084 152.149 35.0708C152.149 34.772 152.075 34.5423 151.925 34.3818C151.776 34.2214 151.552 34.1107 151.253 34.0498C150.954 33.9889 150.583 33.9585 150.141 33.9585H148.696C148.337 33.9585 148.018 34.0138 147.742 34.1245C147.465 34.2407 147.249 34.4067 147.094 34.6226C146.945 34.8384 146.87 35.0985 146.87 35.4028C146.87 35.8234 147.056 36.1471 147.426 36.374C147.803 36.6009 148.334 36.7144 149.02 36.7144ZM149.402 29.5591C149.972 29.5591 150.395 29.4041 150.672 29.0942C150.949 28.7788 151.087 28.3361 151.087 27.7661C151.087 27.1463 150.943 26.6815 150.655 26.3716C150.373 26.0617 149.952 25.9067 149.394 25.9067C148.846 25.9067 148.428 26.0645 148.14 26.3799C147.858 26.6953 147.717 27.1629 147.717 27.7827C147.717 28.3416 147.858 28.7788 148.14 29.0942C148.428 29.4041 148.848 29.5591 149.402 29.5591Z" fill="white"/>
<path d="M303.34 26.9999H294.67C291.28 26.9999 289 29.3799 289 32.9199V41.0909C289 44.6199 291.28 46.9999 294.67 46.9999H303.34C306.73 46.9999 309 44.6199 309 41.0909V32.9199C309 29.3799 306.73 26.9999 303.34 26.9999Z" fill="#F12C4C"/>
<path d="M303.615 35.495L298.865 40.245C298.695 40.415 298.475 40.495 298.245 40.495C298.025 40.495 297.805 40.415 297.635 40.245L295.255 37.875C294.915 37.525 294.915 36.975 295.255 36.635C295.595 36.295 296.155 36.295 296.495 36.635L298.245 38.385L302.375 34.255C302.715 33.915 303.275 33.915 303.615 34.255C303.955 34.605 303.955 35.155 303.615 35.495Z" fill="white"/>
</svg>
