<svg width="327" height="73" viewBox="0 0 327 73" fill="none" xmlns="http://www.w3.org/2000/svg">
<rect width="327" height="73" rx="12" fill="#1A242D"/>
<path d="M25.7222 54H19.6411V53.1177L22.123 50.5977C22.5843 50.1322 22.9715 49.7174 23.2847 49.3535C23.6021 48.9896 23.8433 48.632 24.0083 48.2808C24.1733 47.9253 24.2559 47.536 24.2559 47.1128C24.2559 46.5881 24.0993 46.1882 23.7861 45.9131C23.4772 45.6338 23.0688 45.4941 22.561 45.4941C22.1167 45.4941 21.7231 45.5703 21.3804 45.7227C21.0376 45.875 20.6864 46.0908 20.3267 46.3701L19.7617 45.6592C20.0072 45.4518 20.2738 45.2677 20.5615 45.1069C20.8535 44.9461 21.1646 44.8192 21.4946 44.7261C21.8289 44.633 22.1844 44.5864 22.561 44.5864C23.1323 44.5864 23.6253 44.6859 24.04 44.8848C24.4548 45.0837 24.7743 45.3672 24.9985 45.7354C25.2271 46.1035 25.3413 46.5415 25.3413 47.0493C25.3413 47.5402 25.244 47.9972 25.0493 48.4204C24.8547 48.8394 24.5817 49.2562 24.2305 49.6709C23.8792 50.0814 23.4688 50.5173 22.999 50.9785L20.9805 52.9907V53.0352H25.7222V54ZM30.0132 48.3252C30.6437 48.3252 31.1917 48.4331 31.6572 48.6489C32.1227 48.8605 32.4824 49.1694 32.7363 49.5757C32.9945 49.9819 33.1235 50.4749 33.1235 51.0547C33.1235 51.6895 32.986 52.2375 32.7109 52.6987C32.4359 53.1558 32.0402 53.5091 31.5239 53.7588C31.0076 54.0042 30.3898 54.127 29.6704 54.127C29.188 54.127 28.7394 54.0846 28.3247 54C27.91 53.9154 27.5609 53.7884 27.2773 53.6191V52.6162C27.5863 52.8024 27.9608 52.9505 28.4009 53.0605C28.841 53.1706 29.2684 53.2256 29.6831 53.2256C30.1528 53.2256 30.5633 53.1515 30.9146 53.0034C31.27 52.8511 31.5451 52.6226 31.7397 52.3179C31.9386 52.009 32.0381 51.6217 32.0381 51.1562C32.0381 50.5384 31.8477 50.0623 31.4668 49.728C31.0902 49.3895 30.4935 49.2202 29.6768 49.2202C29.4144 49.2202 29.1266 49.2414 28.8135 49.2837C28.5003 49.326 28.2422 49.3726 28.0391 49.4233L27.5059 49.0742L27.8613 44.7197H32.4761V45.6846H28.7627L28.5278 48.4839C28.6886 48.45 28.896 48.4162 29.1499 48.3823C29.4038 48.3442 29.6916 48.3252 30.0132 48.3252ZM34.8311 53.3398C34.8311 53.0436 34.903 52.8341 35.0469 52.7114C35.1908 52.5845 35.3664 52.521 35.5737 52.521C35.7896 52.521 35.9715 52.5845 36.1196 52.7114C36.2677 52.8341 36.3418 53.0436 36.3418 53.3398C36.3418 53.6318 36.2677 53.8455 36.1196 53.981C35.9715 54.1121 35.7896 54.1777 35.5737 54.1777C35.3664 54.1777 35.1908 54.1121 35.0469 53.981C34.903 53.8455 34.8311 53.6318 34.8311 53.3398ZM34.8311 47.7095C34.8311 47.4048 34.903 47.1911 35.0469 47.0684C35.1908 46.9414 35.3664 46.8779 35.5737 46.8779C35.7896 46.8779 35.9715 46.9414 36.1196 47.0684C36.2677 47.1911 36.3418 47.4048 36.3418 47.7095C36.3418 47.9972 36.2677 48.2067 36.1196 48.3379C35.9715 48.4691 35.7896 48.5347 35.5737 48.5347C35.3664 48.5347 35.1908 48.4691 35.0469 48.3379C34.903 48.2067 34.8311 47.9972 34.8311 47.7095ZM44.0669 49.3472C44.0669 50.1004 44.0098 50.7733 43.8955 51.3657C43.7812 51.9582 43.6014 52.4596 43.356 52.8701C43.1105 53.2806 42.7931 53.5938 42.4038 53.8096C42.0145 54.0212 41.5469 54.127 41.001 54.127C40.3112 54.127 39.7399 53.9386 39.2871 53.562C38.8385 53.1854 38.5021 52.6416 38.2778 51.9307C38.0578 51.2155 37.9478 50.3543 37.9478 49.3472C37.9478 48.3569 38.0472 47.5063 38.2461 46.7954C38.4492 46.0802 38.7751 45.5322 39.2236 45.1514C39.6722 44.7663 40.2646 44.5737 41.001 44.5737C41.6992 44.5737 42.2747 44.7642 42.7275 45.145C43.1803 45.5216 43.5168 46.0675 43.7368 46.7827C43.9569 47.4937 44.0669 48.3485 44.0669 49.3472ZM39.0078 49.3472C39.0078 50.2104 39.0734 50.9299 39.2046 51.5054C39.3358 52.0809 39.5474 52.5125 39.8394 52.8003C40.1356 53.0838 40.5228 53.2256 41.001 53.2256C41.4792 53.2256 41.8643 53.0838 42.1562 52.8003C42.4525 52.5168 42.6662 52.0872 42.7974 51.5117C42.9328 50.9362 43.0005 50.2147 43.0005 49.3472C43.0005 48.4966 42.9349 47.7856 42.8037 47.2144C42.6725 46.6388 42.4609 46.2072 42.1689 45.9194C41.877 45.6274 41.4876 45.4814 41.001 45.4814C40.5143 45.4814 40.125 45.6274 39.833 45.9194C39.541 46.2072 39.3294 46.6388 39.1982 47.2144C39.0713 47.7856 39.0078 48.4966 39.0078 49.3472ZM51.5063 49.3472C51.5063 50.1004 51.4492 50.7733 51.335 51.3657C51.2207 51.9582 51.0409 52.4596 50.7954 52.8701C50.55 53.2806 50.2326 53.5938 49.8433 53.8096C49.4539 54.0212 48.9863 54.127 48.4404 54.127C47.7507 54.127 47.1794 53.9386 46.7266 53.562C46.278 53.1854 45.9416 52.6416 45.7173 51.9307C45.4972 51.2155 45.3872 50.3543 45.3872 49.3472C45.3872 48.3569 45.4867 47.5063 45.6855 46.7954C45.8887 46.0802 46.2145 45.5322 46.6631 45.1514C47.1117 44.7663 47.7041 44.5737 48.4404 44.5737C49.1387 44.5737 49.7142 44.7642 50.167 45.145C50.6198 45.5216 50.9562 46.0675 51.1763 46.7827C51.3963 47.4937 51.5063 48.3485 51.5063 49.3472ZM46.4473 49.3472C46.4473 50.2104 46.5129 50.9299 46.644 51.5054C46.7752 52.0809 46.9868 52.5125 47.2788 52.8003C47.575 53.0838 47.9622 53.2256 48.4404 53.2256C48.9186 53.2256 49.3037 53.0838 49.5957 52.8003C49.8919 52.5168 50.1056 52.0872 50.2368 51.5117C50.3722 50.9362 50.4399 50.2147 50.4399 49.3472C50.4399 48.4966 50.3743 47.7856 50.2432 47.2144C50.112 46.6388 49.9004 46.2072 49.6084 45.9194C49.3164 45.6274 48.9271 45.4814 48.4404 45.4814C47.9538 45.4814 47.5645 45.6274 47.2725 45.9194C46.9805 46.2072 46.7689 46.6388 46.6377 47.2144C46.5107 47.7856 46.4473 48.4966 46.4473 49.3472Z" fill="#F12C4C"/>
<path d="M19.5693 34H17.5938V21.8643H24.4502V23.541H19.5693V27.3262H24.1348V28.9946H19.5693V34ZM28.418 34H26.459V21.084H28.418V34ZM34.8096 24.6367C35.9717 24.6367 36.8488 24.894 37.4409 25.4087C38.0386 25.9233 38.3374 26.7257 38.3374 27.8159V34H36.9512L36.5776 32.6968H36.5112C36.2511 33.0288 35.9827 33.3027 35.7061 33.5186C35.4294 33.7344 35.1084 33.8949 34.7432 34C34.3835 34.1107 33.9435 34.166 33.4233 34.166C32.8755 34.166 32.3857 34.0664 31.9541 33.8672C31.5225 33.6624 31.1821 33.3525 30.9331 32.9375C30.6841 32.5225 30.5596 31.9967 30.5596 31.3604C30.5596 30.4141 30.911 29.703 31.6138 29.2271C32.3221 28.7511 33.3901 28.4883 34.8179 28.4385L36.4116 28.3804V27.8989C36.4116 27.2625 36.2622 26.8088 35.9634 26.5376C35.6701 26.2664 35.255 26.1309 34.7183 26.1309C34.259 26.1309 33.8135 26.1973 33.3818 26.3301C32.9502 26.4629 32.5296 26.6261 32.1201 26.8198L31.4893 25.4419C31.9375 25.2039 32.4466 25.0103 33.0166 24.8608C33.5921 24.7114 34.1898 24.6367 34.8096 24.6367ZM36.4033 29.6089L35.2163 29.6504C34.2424 29.6836 33.5589 29.8496 33.166 30.1484C32.7731 30.4473 32.5767 30.8568 32.5767 31.377C32.5767 31.8307 32.7122 32.1628 32.9834 32.373C33.2546 32.5778 33.6115 32.6802 34.0542 32.6802C34.7293 32.6802 35.2882 32.4893 35.731 32.1074C36.1792 31.7201 36.4033 31.1528 36.4033 30.4058V29.6089ZM47.2441 31.377C47.2441 31.9801 47.0975 32.4893 46.8042 32.9043C46.5109 33.3193 46.082 33.6348 45.5176 33.8506C44.9587 34.0609 44.2725 34.166 43.459 34.166C42.8171 34.166 42.2637 34.119 41.7988 34.0249C41.3395 33.9364 40.9051 33.798 40.4956 33.6099V31.9248C40.9328 32.1296 41.4225 32.3066 41.9648 32.4561C42.5127 32.6055 43.0301 32.6802 43.5171 32.6802C44.159 32.6802 44.6211 32.5806 44.9033 32.3813C45.1855 32.1766 45.3267 31.9054 45.3267 31.5679C45.3267 31.3687 45.2686 31.1916 45.1523 31.0366C45.0417 30.8761 44.8314 30.7129 44.5215 30.5469C44.2171 30.3753 43.7689 30.1706 43.1768 29.9326C42.5957 29.7002 42.106 29.4678 41.7075 29.2354C41.3091 29.0029 41.0075 28.7235 40.8027 28.397C40.598 28.0649 40.4956 27.6416 40.4956 27.127C40.4956 26.3135 40.8166 25.6965 41.4585 25.2759C42.106 24.8498 42.9609 24.6367 44.0234 24.6367C44.5879 24.6367 45.1191 24.6948 45.6172 24.811C46.1208 24.9217 46.6133 25.085 47.0947 25.3008L46.4805 26.77C46.0654 26.5874 45.6476 26.438 45.2271 26.3218C44.812 26.2 44.3887 26.1392 43.957 26.1392C43.4535 26.1392 43.0688 26.2166 42.8032 26.3716C42.5431 26.5265 42.4131 26.7479 42.4131 27.0356C42.4131 27.2515 42.4767 27.4341 42.604 27.5835C42.7313 27.7329 42.9499 27.8823 43.2598 28.0317C43.5752 28.1812 44.0124 28.3665 44.5713 28.5879C45.1191 28.7982 45.5923 29.0195 45.9907 29.252C46.3947 29.4788 46.7046 29.7583 46.9204 30.0903C47.1362 30.4224 47.2441 30.8512 47.2441 31.377ZM51.3032 21.084V24.3296C51.3032 24.6672 51.2922 24.9964 51.27 25.3174C51.2534 25.6383 51.234 25.8874 51.2119 26.0645H51.3198C51.5135 25.7435 51.7515 25.4806 52.0337 25.2759C52.3159 25.0656 52.6313 24.9079 52.98 24.8027C53.3341 24.6976 53.7104 24.645 54.1089 24.645C54.8117 24.645 55.4093 24.764 55.9019 25.002C56.3944 25.2344 56.7707 25.5968 57.0308 26.0894C57.2964 26.5819 57.4292 27.221 57.4292 28.0068V34H55.4785V28.3721C55.4785 27.6582 55.3319 27.1242 55.0386 26.77C54.7453 26.4103 54.2915 26.2305 53.6772 26.2305C53.0851 26.2305 52.6147 26.355 52.2661 26.604C51.923 26.8475 51.6768 27.21 51.5273 27.6914C51.3779 28.1673 51.3032 28.7484 51.3032 29.4346V34H49.3525V21.084H51.3032ZM69.9468 23.3833C69.3657 23.3833 68.8455 23.4884 68.3862 23.6987C67.9325 23.909 67.5479 24.2134 67.2324 24.6118C66.917 25.0047 66.6763 25.4834 66.5103 26.0479C66.3442 26.6068 66.2612 27.2376 66.2612 27.9404C66.2612 28.8812 66.394 29.6919 66.6597 30.3726C66.9253 31.0477 67.3293 31.5679 67.8716 31.9331C68.4139 32.2928 69.1001 32.4727 69.9302 32.4727C70.4448 32.4727 70.9456 32.4229 71.4326 32.3232C71.9196 32.2236 72.4232 32.0881 72.9434 31.9165V33.6099C72.4508 33.8035 71.9528 33.9447 71.4492 34.0332C70.9456 34.1217 70.3646 34.166 69.7061 34.166C68.4665 34.166 67.4372 33.9087 66.6182 33.394C65.8047 32.8794 65.196 32.1545 64.792 31.2192C64.3936 30.284 64.1943 29.1883 64.1943 27.9321C64.1943 27.0135 64.3216 26.1724 64.5762 25.4087C64.8307 24.645 65.2015 23.9865 65.6885 23.4331C66.1755 22.8742 66.7759 22.4453 67.4897 22.1465C68.2091 21.8421 69.0309 21.6899 69.9551 21.6899C70.5638 21.6899 71.1615 21.7591 71.748 21.8975C72.3402 22.0303 72.888 22.2212 73.3916 22.4702L72.6943 24.1138C72.2738 23.9146 71.8338 23.743 71.3745 23.5991C70.9152 23.4552 70.4393 23.3833 69.9468 23.3833ZM73.9644 24.811H76.0894L77.9736 30.0571C78.0566 30.2951 78.1313 30.5303 78.1978 30.7627C78.2697 30.9896 78.3306 31.2137 78.3804 31.4351C78.4357 31.6564 78.48 31.8778 78.5132 32.0991H78.563C78.6183 31.8114 78.6958 31.4904 78.7954 31.1362C78.9006 30.7765 79.0168 30.4168 79.144 30.0571L80.9536 24.811H83.0537L79.1108 35.2617C78.884 35.8594 78.6045 36.3685 78.2725 36.7891C77.946 37.2152 77.5586 37.5361 77.1104 37.752C76.6621 37.9733 76.1502 38.084 75.5747 38.084C75.298 38.084 75.0573 38.0674 74.8525 38.0342C74.6478 38.0065 74.4735 37.9761 74.3296 37.9429V36.3823C74.4458 36.41 74.5924 36.4349 74.7695 36.457C74.9466 36.4792 75.1292 36.4902 75.3174 36.4902C75.666 36.4902 75.9676 36.4211 76.2222 36.2827C76.4767 36.1444 76.6925 35.9479 76.8696 35.6934C77.0467 35.4443 77.1934 35.1593 77.3096 34.8384L77.6333 33.9751L73.9644 24.811ZM88.1504 34.166C87.2816 34.166 86.529 33.9972 85.8926 33.6597C85.2562 33.3221 84.7664 32.8047 84.4233 32.1074C84.0802 31.4102 83.9087 30.5247 83.9087 29.4512C83.9087 28.3333 84.0968 27.4202 84.4731 26.7119C84.8494 26.0036 85.3696 25.4806 86.0337 25.1431C86.7033 24.8055 87.4697 24.6367 88.333 24.6367C88.8809 24.6367 89.3761 24.6921 89.8188 24.8027C90.2671 24.9079 90.6462 25.0379 90.9561 25.1929L90.375 26.7534C90.0374 26.6151 89.6916 26.4989 89.3374 26.4048C88.9832 26.3107 88.6429 26.2637 88.3164 26.2637C87.7796 26.2637 87.3314 26.3826 86.9717 26.6206C86.6175 26.8586 86.3519 27.2127 86.1748 27.6831C86.0033 28.1535 85.9175 28.7373 85.9175 29.4346C85.9175 30.1097 86.006 30.6797 86.1831 31.1445C86.3602 31.6038 86.623 31.9525 86.9717 32.1904C87.3203 32.4229 87.7492 32.5391 88.2583 32.5391C88.7619 32.5391 89.2129 32.4782 89.6113 32.3564C90.0098 32.2347 90.3861 32.077 90.7402 31.8833V33.5767C90.3916 33.7759 90.0181 33.9225 89.6196 34.0166C89.2212 34.1162 88.7314 34.166 88.1504 34.166ZM94.8574 34H92.8984V21.084H94.8574V34ZM99.5972 24.811V34H97.6465V24.811H99.5972ZM98.6343 21.2915C98.9331 21.2915 99.1904 21.3717 99.4062 21.5322C99.6276 21.6927 99.7383 21.9694 99.7383 22.3623C99.7383 22.7497 99.6276 23.0264 99.4062 23.1924C99.1904 23.3529 98.9331 23.4331 98.6343 23.4331C98.3244 23.4331 98.0615 23.3529 97.8457 23.1924C97.6354 23.0264 97.5303 22.7497 97.5303 22.3623C97.5303 21.9694 97.6354 21.6927 97.8457 21.5322C98.0615 21.3717 98.3244 21.2915 98.6343 21.2915ZM107.184 24.6367C108.219 24.6367 109.024 24.9051 109.6 25.4419C110.181 25.9731 110.471 26.8281 110.471 28.0068V34H108.521V28.3721C108.521 27.6582 108.374 27.1242 108.081 26.77C107.787 26.4103 107.333 26.2305 106.719 26.2305C105.828 26.2305 105.208 26.5044 104.86 27.0522C104.517 27.6001 104.345 28.3942 104.345 29.4346V34H102.395V24.811H103.914L104.188 26.0562H104.295C104.495 25.7352 104.741 25.4723 105.034 25.2676C105.333 25.0573 105.665 24.8996 106.03 24.7944C106.401 24.6893 106.786 24.6367 107.184 24.6367ZM115.825 38.084C114.58 38.084 113.625 37.8599 112.961 37.4116C112.297 36.9634 111.965 36.3353 111.965 35.5273C111.965 34.9629 112.142 34.4842 112.497 34.0913C112.851 33.7039 113.357 33.4355 114.016 33.2861C113.767 33.1755 113.551 33.0039 113.368 32.7715C113.191 32.5335 113.103 32.2707 113.103 31.9829C113.103 31.6398 113.199 31.3465 113.393 31.103C113.587 30.8595 113.877 30.6243 114.265 30.3975C113.783 30.1927 113.396 29.8607 113.103 29.4014C112.815 28.9365 112.671 28.3914 112.671 27.7661C112.671 27.1021 112.812 26.5376 113.094 26.0728C113.376 25.6024 113.789 25.2454 114.331 25.002C114.873 24.7529 115.529 24.6284 116.298 24.6284C116.464 24.6284 116.644 24.6395 116.838 24.6616C117.037 24.6782 117.22 24.7004 117.386 24.728C117.557 24.7502 117.687 24.7751 117.776 24.8027H120.955V25.8901L119.395 26.1807C119.544 26.391 119.663 26.6317 119.751 26.9028C119.84 27.1685 119.884 27.459 119.884 27.7744C119.884 28.7262 119.555 29.4761 118.896 30.0239C118.243 30.5662 117.341 30.8374 116.19 30.8374C115.914 30.8263 115.645 30.8042 115.385 30.771C115.186 30.8927 115.034 31.0283 114.929 31.1777C114.824 31.3216 114.771 31.4849 114.771 31.6675C114.771 31.8169 114.824 31.9386 114.929 32.0327C115.034 32.1213 115.189 32.1877 115.394 32.2319C115.604 32.2762 115.858 32.2983 116.157 32.2983H117.743C118.75 32.2983 119.519 32.5114 120.05 32.9375C120.582 33.3636 120.847 33.9889 120.847 34.8135C120.847 35.8594 120.416 36.6646 119.552 37.229C118.689 37.799 117.447 38.084 115.825 38.084ZM115.9 36.7144C116.581 36.7144 117.153 36.6479 117.618 36.5151C118.083 36.3823 118.434 36.1914 118.672 35.9424C118.91 35.6989 119.029 35.4084 119.029 35.0708C119.029 34.772 118.955 34.5423 118.805 34.3818C118.656 34.2214 118.432 34.1107 118.133 34.0498C117.834 33.9889 117.463 33.9585 117.021 33.9585H115.576C115.216 33.9585 114.898 34.0138 114.622 34.1245C114.345 34.2407 114.129 34.4067 113.974 34.6226C113.825 34.8384 113.75 35.0985 113.75 35.4028C113.75 35.8234 113.935 36.1471 114.306 36.374C114.682 36.6009 115.214 36.7144 115.9 36.7144ZM116.282 29.5591C116.852 29.5591 117.275 29.4041 117.552 29.0942C117.828 28.7788 117.967 28.3361 117.967 27.7661C117.967 27.1463 117.823 26.6815 117.535 26.3716C117.253 26.0617 116.832 25.9067 116.273 25.9067C115.726 25.9067 115.308 26.0645 115.02 26.3799C114.738 26.6953 114.597 27.1629 114.597 27.7827C114.597 28.3416 114.738 28.7788 115.02 29.0942C115.308 29.4041 115.728 29.5591 116.282 29.5591Z" fill="white"/>
<path d="M303.34 26.9999H294.67C291.28 26.9999 289 29.3799 289 32.9199V41.0909C289 44.6199 291.28 46.9999 294.67 46.9999H303.34C306.73 46.9999 309 44.6199 309 41.0909V32.9199C309 29.3799 306.73 26.9999 303.34 26.9999Z" fill="#F12C4C"/>
<path d="M303.615 35.495L298.865 40.245C298.695 40.415 298.475 40.495 298.245 40.495C298.025 40.495 297.805 40.415 297.635 40.245L295.255 37.875C294.915 37.525 294.915 36.975 295.255 36.635C295.595 36.295 296.155 36.295 296.495 36.635L298.245 38.385L302.375 34.255C302.715 33.915 303.275 33.915 303.615 34.255C303.955 34.605 303.955 35.155 303.615 35.495Z" fill="white"/>
</svg>
