<svg width="97" height="97" viewBox="0 0 97 97" fill="none" xmlns="http://www.w3.org/2000/svg">
<circle cx="48.5" cy="48.5" r="46.5" stroke="#1A242D" stroke-width="4"/>
<path d="M2 48.5C2 74.1812 22.8188 95 48.5 95C74.1812 95 95 74.1812 95 48.5C95 22.8188 74.1812 2 48.5 2" stroke="#E79332" stroke-width="4"/>
<path d="M35.3027 29H34.2236V24.6265H29.3486V29H28.2695V19.7197H29.3486V23.6743H34.2236V19.7197H35.3027V29ZM40.3745 21.916C40.967 21.916 41.4748 22.0472 41.8979 22.3096C42.3211 22.5719 42.6449 22.9401 42.8691 23.4141C43.0934 23.8838 43.2056 24.4339 43.2056 25.0645V25.7183H38.4004C38.4131 26.535 38.6162 27.1571 39.0098 27.5845C39.4033 28.0119 39.9577 28.2256 40.6729 28.2256C41.113 28.2256 41.5023 28.1854 41.8408 28.105C42.1794 28.0246 42.5306 27.9061 42.8945 27.7495V28.6763C42.5433 28.8328 42.1942 28.9471 41.8472 29.019C41.5044 29.091 41.0981 29.127 40.6284 29.127C39.9598 29.127 39.3758 28.9915 38.8765 28.7207C38.3813 28.4456 37.9963 28.0436 37.7212 27.5146C37.4461 26.9857 37.3086 26.3382 37.3086 25.5723C37.3086 24.8232 37.4334 24.1758 37.6831 23.6299C37.937 23.0798 38.2925 22.6566 38.7495 22.3604C39.2108 22.0641 39.7524 21.916 40.3745 21.916ZM40.3618 22.7793C39.799 22.7793 39.3504 22.9634 39.0161 23.3315C38.6818 23.6997 38.4829 24.2139 38.4194 24.874H42.1011C42.0968 24.4593 42.0312 24.0954 41.9043 23.7822C41.7816 23.4648 41.5933 23.2194 41.3394 23.0459C41.0854 22.8682 40.7596 22.7793 40.3618 22.7793ZM47.5981 21.9287C48.4276 21.9287 49.0433 22.1149 49.4453 22.4873C49.8473 22.8597 50.0483 23.4543 50.0483 24.271V29H49.2803L49.0771 27.9717H49.0264C48.8317 28.2256 48.6286 28.4393 48.417 28.6128C48.2054 28.7821 47.96 28.9111 47.6807 29C47.4056 29.0846 47.0671 29.127 46.665 29.127C46.2419 29.127 45.8652 29.0529 45.5352 28.9048C45.2093 28.7567 44.9512 28.5324 44.7607 28.2319C44.5745 27.9315 44.4814 27.5506 44.4814 27.0894C44.4814 26.3953 44.7565 25.8621 45.3066 25.4897C45.8568 25.1174 46.6947 24.9142 47.8203 24.8804L49.02 24.8296V24.4043C49.02 23.8034 48.891 23.3823 48.6328 23.1411C48.3747 22.8999 48.0107 22.7793 47.541 22.7793C47.1771 22.7793 46.8301 22.8322 46.5 22.938C46.1699 23.0438 45.8568 23.1686 45.5605 23.3125L45.2368 22.5127C45.55 22.3519 45.9097 22.2144 46.3159 22.1001C46.7222 21.9858 47.1496 21.9287 47.5981 21.9287ZM49.0073 25.5723L47.9473 25.6167C47.0798 25.6506 46.4683 25.7923 46.1128 26.042C45.7573 26.2917 45.5796 26.645 45.5796 27.1021C45.5796 27.4998 45.7002 27.7939 45.9414 27.9844C46.1826 28.1748 46.5021 28.27 46.8999 28.27C47.5177 28.27 48.0234 28.0986 48.417 27.7559C48.8105 27.4131 49.0073 26.8989 49.0073 26.2134V25.5723ZM55.3804 21.916C55.52 21.916 55.666 21.9245 55.8184 21.9414C55.9707 21.9541 56.1061 21.9731 56.2246 21.9985L56.0913 22.9761C55.9771 22.9465 55.8501 22.9232 55.7104 22.9062C55.5708 22.8893 55.4396 22.8809 55.3169 22.8809C55.0376 22.8809 54.7731 22.938 54.5234 23.0522C54.278 23.1623 54.0622 23.3231 53.876 23.5347C53.6898 23.742 53.5438 23.9938 53.438 24.29C53.3322 24.582 53.2793 24.9079 53.2793 25.2676V29H52.2192V22.043H53.0952L53.2095 23.3252H53.2539C53.3978 23.0671 53.5713 22.8322 53.7744 22.6206C53.9775 22.4048 54.2124 22.2334 54.479 22.1064C54.7498 21.9795 55.0503 21.916 55.3804 21.916ZM59.7856 28.2637C59.9591 28.2637 60.1369 28.2489 60.3188 28.2192C60.5008 28.1896 60.6489 28.1536 60.7632 28.1113V28.9302C60.6405 28.9852 60.4691 29.0317 60.249 29.0698C60.0332 29.1079 59.8216 29.127 59.6143 29.127C59.2461 29.127 58.9118 29.0635 58.6113 28.9365C58.3109 28.8053 58.0697 28.5853 57.8877 28.2764C57.71 27.9674 57.6211 27.54 57.6211 26.9941V22.8682H56.6309V22.354L57.6274 21.9414L58.0464 20.4307H58.6812V22.043H60.7188V22.8682H58.6812V26.9624C58.6812 27.3983 58.7806 27.7241 58.9795 27.9399C59.1826 28.1558 59.4513 28.2637 59.7856 28.2637Z" fill="white"/>
<path d="M24.7822 67L30.9482 53.5078H22.7949V51.2949H33.666V53.0244L27.5 67H24.7822ZM46.2129 67H35.5781V65.0986L39.6494 60.9736C40.4372 60.1715 41.0853 59.4805 41.5938 58.9004C42.1022 58.3132 42.4782 57.7581 42.7217 57.2354C42.9723 56.7126 43.0977 56.1432 43.0977 55.5273C43.0977 54.7682 42.8792 54.1953 42.4424 53.8086C42.0055 53.4147 41.429 53.2178 40.7129 53.2178C40.0326 53.2178 39.4023 53.3538 38.8223 53.626C38.2493 53.891 37.6549 54.2705 37.0391 54.7646L35.6533 53.0996C36.0902 52.7272 36.5557 52.387 37.0498 52.0791C37.5511 51.7712 38.1097 51.5277 38.7256 51.3486C39.3415 51.1624 40.0433 51.0693 40.8311 51.0693C41.8265 51.0693 42.6859 51.2484 43.4092 51.6064C44.1325 51.9574 44.6875 52.4479 45.0742 53.0781C45.4681 53.7083 45.665 54.4424 45.665 55.2803C45.665 56.1253 45.4967 56.9059 45.1602 57.6221C44.8236 58.3382 44.3438 59.0472 43.7207 59.749C43.0977 60.4437 42.3564 61.1992 41.4971 62.0156L38.7793 64.6689V64.7871H46.2129V67Z" fill="white"/>
<path d="M55.1646 56.123V58.5923C55.1646 58.8758 55.1561 59.1509 55.1392 59.4175C55.1265 59.6841 55.1159 59.8914 55.1074 60.0396H55.1646C55.355 59.7264 55.63 59.4619 55.9897 59.2461C56.3494 59.0303 56.8086 58.9224 57.3672 58.9224C58.2389 58.9224 58.9329 59.2249 59.4492 59.8301C59.9697 60.431 60.23 61.326 60.23 62.5151C60.23 63.298 60.1115 63.9582 59.8745 64.4956C59.6375 65.033 59.3032 65.4393 58.8716 65.7144C58.4399 65.9894 57.93 66.127 57.3418 66.127C56.7917 66.127 56.3389 66.0254 55.9834 65.8223C55.6322 65.6149 55.3613 65.3631 55.1709 65.0669H55.0884L54.8726 66H54.1108V56.123H55.1646ZM57.1958 59.8047C56.6922 59.8047 56.2923 59.9041 55.9961 60.103C55.6999 60.2977 55.4862 60.5939 55.355 60.9917C55.228 61.3853 55.1646 61.8846 55.1646 62.4897V62.5469C55.1646 63.4229 55.3105 64.0936 55.6025 64.5591C55.8945 65.0203 56.4256 65.251 57.1958 65.251C57.8433 65.251 58.3278 65.014 58.6494 64.54C58.9753 64.0661 59.1382 63.389 59.1382 62.5088C59.1382 61.6117 58.9774 60.9367 58.6558 60.4839C58.3384 60.0311 57.8517 59.8047 57.1958 59.8047ZM65.3398 58.916C66.2074 58.916 66.8993 59.2144 67.4155 59.811C67.9318 60.4077 68.1899 61.3049 68.1899 62.5024C68.1899 63.2938 68.0715 63.9582 67.8345 64.4956C67.5975 65.033 67.2632 65.4393 66.8315 65.7144C66.4041 65.9894 65.8984 66.127 65.3145 66.127C64.9463 66.127 64.6226 66.0783 64.3433 65.981C64.064 65.8836 63.8249 65.7524 63.626 65.5874C63.4271 65.4224 63.262 65.2425 63.1309 65.0479H63.0547C63.0674 65.2129 63.0822 65.4118 63.0991 65.6445C63.1203 65.8773 63.1309 66.0804 63.1309 66.2539V69.1104H62.0708V59.043H62.9404L63.0801 60.0713H63.1309C63.2663 59.8597 63.4313 59.6672 63.626 59.4937C63.8206 59.3159 64.0576 59.1763 64.3369 59.0747C64.6204 58.9689 64.9548 58.916 65.3398 58.916ZM65.1558 59.8047C64.6733 59.8047 64.284 59.8978 63.9878 60.084C63.6958 60.2702 63.4821 60.5495 63.3467 60.9219C63.2113 61.29 63.1393 61.7534 63.1309 62.312V62.5151C63.1309 63.1034 63.1943 63.6006 63.3213 64.0068C63.4525 64.4131 63.6662 64.722 63.9624 64.9336C64.2629 65.1452 64.6649 65.251 65.1685 65.251C65.6001 65.251 65.9598 65.1346 66.2476 64.9019C66.5353 64.6691 66.749 64.3454 66.8887 63.9307C67.0326 63.5117 67.1045 63.0314 67.1045 62.4897C67.1045 61.6688 66.9437 61.0171 66.6221 60.5347C66.3047 60.048 65.8159 59.8047 65.1558 59.8047ZM77.5845 58.916C78.3504 58.916 78.9281 59.117 79.3174 59.519C79.7067 59.9168 79.9014 60.5579 79.9014 61.4424V66H78.8604V61.4932C78.8604 60.9303 78.7376 60.5093 78.4922 60.23C78.251 59.9465 77.8913 59.8047 77.4131 59.8047C76.7402 59.8047 76.2515 59.9993 75.9468 60.3887C75.6421 60.778 75.4897 61.3514 75.4897 62.1089V66H74.4424V61.4932C74.4424 61.1165 74.3874 60.8034 74.2773 60.5537C74.1715 60.304 74.0107 60.1178 73.7949 59.9951C73.5833 59.8682 73.3146 59.8047 72.9888 59.8047C72.5275 59.8047 72.1572 59.8999 71.8779 60.0903C71.5986 60.2808 71.3955 60.5643 71.2686 60.9409C71.1458 61.3133 71.0845 61.7725 71.0845 62.3184V66H70.0308V59.043H70.8813L71.04 60.0269H71.0972C71.2368 59.7856 71.4124 59.5825 71.624 59.4175C71.8356 59.2524 72.0726 59.1276 72.335 59.043C72.5973 58.9583 72.8766 58.916 73.1729 58.916C73.7018 58.916 74.144 59.0155 74.4995 59.2144C74.8592 59.409 75.1195 59.7074 75.2803 60.1094H75.3374C75.5659 59.7074 75.8791 59.409 76.2769 59.2144C76.6746 59.0155 77.1105 58.916 77.5845 58.916Z" fill="white"/>
</svg>
