<svg width="117" height="104" viewBox="0 0 117 104" fill="none" xmlns="http://www.w3.org/2000/svg">
<path d="M1 0V103.5" stroke="#1A242D"/>
<path d="M24.9409 47.0679C24.7619 47.0679 24.6043 47.0553 24.4683 47.0303C24.3322 47.0052 24.2158 46.9712 24.1191 46.9282V46.1494C24.2337 46.1852 24.3573 46.2121 24.4897 46.23C24.6222 46.2515 24.7655 46.2622 24.9194 46.2622C25.12 46.2622 25.3044 46.2228 25.4727 46.144C25.641 46.0653 25.7752 45.931 25.8755 45.7412C25.9757 45.5514 26.0259 45.29 26.0259 44.957V37.1475H26.9443V44.8872C26.9443 45.3778 26.862 45.7842 26.6973 46.1064C26.5361 46.4287 26.3052 46.6686 26.0044 46.8262C25.7072 46.9873 25.3527 47.0679 24.9409 47.0679ZM33.9697 42.0459C33.9697 42.5293 33.9071 42.9608 33.7817 43.3403C33.6564 43.7199 33.4756 44.0404 33.2393 44.3018C33.0029 44.5632 32.7165 44.7637 32.3799 44.9033C32.0469 45.0394 31.6691 45.1074 31.2466 45.1074C30.8527 45.1074 30.491 45.0394 30.1616 44.9033C29.8358 44.7637 29.5529 44.5632 29.313 44.3018C29.0767 44.0404 28.8923 43.7199 28.7598 43.3403C28.6309 42.9608 28.5664 42.5293 28.5664 42.0459C28.5664 41.4014 28.6756 40.8535 28.894 40.4023C29.1125 39.9476 29.424 39.6021 29.8286 39.3657C30.2368 39.1258 30.722 39.0059 31.2842 39.0059C31.8213 39.0059 32.2904 39.1258 32.6914 39.3657C33.096 39.6056 33.4093 39.953 33.6313 40.4077C33.8569 40.8589 33.9697 41.4049 33.9697 42.0459ZM29.4902 42.0459C29.4902 42.5186 29.5529 42.9285 29.6782 43.2759C29.8035 43.6232 29.9969 43.8918 30.2583 44.0815C30.5197 44.2713 30.8563 44.3662 31.2681 44.3662C31.6763 44.3662 32.0111 44.2713 32.2725 44.0815C32.5374 43.8918 32.7326 43.6232 32.8579 43.2759C32.9832 42.9285 33.0459 42.5186 33.0459 42.0459C33.0459 41.5768 32.9832 41.1722 32.8579 40.832C32.7326 40.4883 32.5392 40.2233 32.2778 40.0371C32.0164 39.8509 31.6781 39.7578 31.2627 39.7578C30.6504 39.7578 30.201 39.9601 29.9146 40.3647C29.6317 40.7694 29.4902 41.3298 29.4902 42.0459ZM36.4028 39.1133V45H35.5112V39.1133H36.4028ZM35.9678 36.9111C36.1146 36.9111 36.2399 36.9595 36.3438 37.0562C36.4512 37.1493 36.5049 37.2961 36.5049 37.4966C36.5049 37.6935 36.4512 37.8403 36.3438 37.937C36.2399 38.0337 36.1146 38.082 35.9678 38.082C35.8138 38.082 35.6849 38.0337 35.5811 37.937C35.4808 37.8403 35.4307 37.6935 35.4307 37.4966C35.4307 37.2961 35.4808 37.1493 35.5811 37.0562C35.6849 36.9595 35.8138 36.9111 35.9678 36.9111ZM41.0811 39.0059C41.7793 39.0059 42.3075 39.1777 42.6655 39.5215C43.0236 39.8617 43.2026 40.4095 43.2026 41.165V45H42.3218V41.2241C42.3218 40.7336 42.209 40.3665 41.9834 40.123C41.7614 39.8796 41.4194 39.7578 40.9575 39.7578C40.3058 39.7578 39.8475 39.9422 39.5825 40.311C39.3175 40.6799 39.1851 41.2152 39.1851 41.917V45H38.2935V39.1133H39.0132L39.1475 39.9619H39.1958C39.3211 39.7542 39.4805 39.5806 39.6738 39.4409C39.8672 39.2977 40.0838 39.1903 40.3237 39.1187C40.5636 39.0435 40.8161 39.0059 41.0811 39.0059ZM47.3062 39.0059C47.8075 39.0059 48.2371 39.1169 48.5952 39.3389C48.9533 39.5609 49.2272 39.8724 49.417 40.2734C49.6068 40.6709 49.7017 41.1364 49.7017 41.6699V42.2231H45.6357C45.6465 42.9142 45.8184 43.4406 46.1514 43.8022C46.4844 44.1639 46.9535 44.3447 47.5586 44.3447C47.931 44.3447 48.2604 44.3107 48.5469 44.2427C48.8333 44.1746 49.1305 44.0744 49.4385 43.9419V44.7261C49.1413 44.8586 48.8459 44.9552 48.5522 45.0161C48.2622 45.077 47.9185 45.1074 47.521 45.1074C46.9552 45.1074 46.4611 44.9928 46.0386 44.7637C45.6196 44.5309 45.2938 44.1908 45.061 43.7432C44.8283 43.2956 44.7119 42.7477 44.7119 42.0996C44.7119 41.4658 44.8175 40.918 45.0288 40.4561C45.2437 39.9906 45.5444 39.6325 45.9312 39.3818C46.3215 39.1312 46.7798 39.0059 47.3062 39.0059ZM47.2954 39.7363C46.8192 39.7363 46.4396 39.8921 46.1567 40.2036C45.8739 40.5151 45.7056 40.9502 45.6519 41.5088H48.7671C48.7635 41.1579 48.708 40.8499 48.6006 40.585C48.4967 40.3164 48.3374 40.1087 48.1226 39.9619C47.9077 39.8115 47.632 39.7363 47.2954 39.7363ZM53.311 45.1074C52.5662 45.1074 51.9754 44.8532 51.5386 44.3447C51.1053 43.8363 50.8887 43.0807 50.8887 42.0781C50.8887 41.0648 51.1107 40.3003 51.5547 39.7847C51.9987 39.2655 52.5895 39.0059 53.3271 39.0059C53.6387 39.0059 53.9108 39.047 54.1436 39.1294C54.3763 39.2118 54.5768 39.3228 54.7451 39.4624C54.9134 39.5985 55.0549 39.7542 55.1694 39.9297H55.2339C55.2196 39.8187 55.2052 39.6665 55.1909 39.4731C55.1766 39.2798 55.1694 39.1222 55.1694 39.0005V36.6426H56.061V45H55.3413L55.207 44.1621H55.1694C55.0584 44.3376 54.917 44.4969 54.7451 44.6401C54.5768 44.7834 54.3745 44.8979 54.1382 44.9839C53.9054 45.0662 53.6297 45.1074 53.311 45.1074ZM53.4507 44.3662C54.0809 44.3662 54.5267 44.1872 54.7881 43.8291C55.0495 43.471 55.1802 42.9393 55.1802 42.2339V42.0728C55.1802 41.3244 55.0549 40.7497 54.8042 40.3486C54.5571 39.9476 54.106 39.7471 53.4507 39.7471C52.9028 39.7471 52.4928 39.9583 52.2207 40.3809C51.9486 40.7998 51.8125 41.3727 51.8125 42.0996C51.8125 42.8229 51.9468 43.3815 52.2153 43.7754C52.4875 44.1693 52.8993 44.3662 53.4507 44.3662Z" fill="#505050"/>
<path d="M32.9248 66H25.6738V64.7036L28.4497 61.8911C28.9868 61.3442 29.4287 60.873 29.7754 60.4775C30.1221 60.0771 30.3784 59.6987 30.5444 59.3423C30.7153 58.9858 30.8008 58.5977 30.8008 58.1777C30.8008 57.6602 30.6519 57.2695 30.354 57.0059C30.0562 56.7373 29.6631 56.603 29.1748 56.603C28.7109 56.603 28.2812 56.6958 27.8857 56.8813C27.4951 57.062 27.0898 57.3208 26.6699 57.6577L25.7251 56.5225C26.0229 56.2686 26.3403 56.0366 26.6772 55.8267C27.019 55.6167 27.3999 55.4507 27.8198 55.3286C28.2397 55.2017 28.7183 55.1382 29.2554 55.1382C29.9341 55.1382 30.52 55.2603 31.0132 55.5044C31.5063 55.7437 31.8848 56.0781 32.1484 56.5078C32.417 56.9375 32.5513 57.438 32.5513 58.0093C32.5513 58.5854 32.4365 59.1177 32.207 59.606C31.9775 60.0942 31.6504 60.5776 31.2256 61.0562C30.8008 61.5298 30.2954 62.0449 29.7095 62.6016L27.8564 64.4106V64.4912H32.9248V66ZM47.8735 57.7383C48.7817 57.7383 49.4653 57.9727 49.9243 58.4414C50.3882 58.9102 50.6201 59.6621 50.6201 60.6973V66H48.8989V61.0049C48.8989 60.3896 48.7793 59.9258 48.54 59.6133C48.3008 59.3008 47.937 59.1445 47.4487 59.1445C46.7651 59.1445 46.272 59.3643 45.9692 59.8037C45.6714 60.2383 45.5225 60.8706 45.5225 61.7007V66H43.8013V61.0049C43.8013 60.5947 43.7476 60.2529 43.6401 59.9795C43.5376 59.7012 43.3789 59.4937 43.1641 59.3569C42.9492 59.2153 42.6782 59.1445 42.3511 59.1445C41.8774 59.1445 41.499 59.252 41.2158 59.4668C40.9375 59.6816 40.7373 59.999 40.6152 60.4189C40.4932 60.834 40.4321 61.3442 40.4321 61.9497V66H38.7109V57.8921H40.0513L40.293 58.9834H40.3882C40.5542 58.7002 40.7593 58.4683 41.0034 58.2876C41.2524 58.1021 41.5283 57.9653 41.8311 57.8774C42.1338 57.7847 42.4487 57.7383 42.7759 57.7383C43.3813 57.7383 43.8916 57.8457 44.3066 58.0605C44.7217 58.2705 45.0317 58.5928 45.2368 59.0273H45.3687C45.6226 58.5879 45.9766 58.2632 46.4307 58.0532C46.8848 57.8433 47.3657 57.7383 47.8735 57.7383ZM60.2002 61.9277C60.2002 62.6016 60.1123 63.1997 59.9365 63.7222C59.7607 64.2446 59.5044 64.6865 59.1675 65.0479C58.8306 65.4043 58.4253 65.6777 57.9517 65.8682C57.478 66.0537 56.9434 66.1465 56.3477 66.1465C55.791 66.1465 55.2808 66.0537 54.8169 65.8682C54.353 65.6777 53.9502 65.4043 53.6084 65.0479C53.2715 64.6865 53.0103 64.2446 52.8247 63.7222C52.6392 63.1997 52.5464 62.6016 52.5464 61.9277C52.5464 61.0342 52.7002 60.2773 53.0078 59.6572C53.3203 59.0322 53.7646 58.5562 54.3408 58.229C54.917 57.9019 55.603 57.7383 56.3989 57.7383C57.146 57.7383 57.8052 57.9019 58.3765 58.229C58.9478 58.5562 59.3945 59.0322 59.7168 59.6572C60.0391 60.2822 60.2002 61.0391 60.2002 61.9277ZM54.3188 61.9277C54.3188 62.5186 54.3896 63.0239 54.5312 63.4438C54.6777 63.8638 54.9023 64.186 55.2051 64.4106C55.5078 64.6304 55.8984 64.7402 56.377 64.7402C56.8555 64.7402 57.2461 64.6304 57.5488 64.4106C57.8516 64.186 58.0737 63.8638 58.2153 63.4438C58.3569 63.0239 58.4277 62.5186 58.4277 61.9277C58.4277 61.3369 58.3569 60.8364 58.2153 60.4263C58.0737 60.0112 57.8516 59.6963 57.5488 59.4814C57.2461 59.2617 56.853 59.1519 56.3696 59.1519C55.6567 59.1519 55.1367 59.3911 54.8096 59.8696C54.4824 60.3481 54.3188 61.0342 54.3188 61.9277ZM66.4038 57.7383C67.3169 57.7383 68.0273 57.9751 68.5352 58.4487C69.0479 58.9175 69.3042 59.6719 69.3042 60.7119V66H67.583V61.0342C67.583 60.4043 67.4536 59.9331 67.1948 59.6206C66.936 59.3032 66.5356 59.1445 65.9937 59.1445C65.2075 59.1445 64.6606 59.3862 64.353 59.8696C64.0503 60.353 63.8989 61.0537 63.8989 61.9717V66H62.1777V57.8921H63.5181L63.7598 58.9907H63.855C64.0308 58.7075 64.248 58.4756 64.5068 58.2949C64.7705 58.1094 65.0635 57.9702 65.3857 57.8774C65.7129 57.7847 66.0522 57.7383 66.4038 57.7383ZM74.7314 64.7549C74.9561 64.7549 75.1782 64.7354 75.3979 64.6963C75.6177 64.6523 75.8179 64.6011 75.9985 64.5425V65.8462C75.8081 65.9292 75.5615 66 75.2588 66.0586C74.9561 66.1172 74.6411 66.1465 74.314 66.1465C73.855 66.1465 73.4424 66.0708 73.0762 65.9194C72.71 65.7632 72.4194 65.4971 72.2046 65.1211C71.9897 64.7451 71.8823 64.2251 71.8823 63.561V59.2031H70.7764V58.4341L71.9629 57.8262L72.5269 56.0903H73.6108V57.8921H75.9326V59.2031H73.6108V63.5391C73.6108 63.9492 73.7134 64.2544 73.9185 64.4546C74.1235 64.6548 74.3945 64.7549 74.7314 64.7549ZM79.3677 54.6035V57.4673C79.3677 57.7651 79.3579 58.0557 79.3384 58.3389C79.3237 58.6221 79.3066 58.8418 79.2871 58.998H79.3823C79.5532 58.7148 79.7632 58.4829 80.0122 58.3022C80.2612 58.1167 80.5396 57.9775 80.8472 57.8848C81.1597 57.792 81.4917 57.7456 81.8433 57.7456C82.4634 57.7456 82.9907 57.8506 83.4253 58.0605C83.8599 58.2656 84.1919 58.5854 84.4214 59.02C84.6558 59.4546 84.7729 60.0186 84.7729 60.7119V66H83.0518V61.0342C83.0518 60.4043 82.9224 59.9331 82.6636 59.6206C82.4048 59.3032 82.0044 59.1445 81.4624 59.1445C80.9399 59.1445 80.5249 59.2544 80.2173 59.4741C79.9146 59.689 79.6973 60.0088 79.5654 60.4336C79.4336 60.8535 79.3677 61.3662 79.3677 61.9717V66H77.6465V54.6035H79.3677ZM94.2578 57.7383C95.2832 57.7383 96.0571 57.9653 96.5796 58.4194C97.1069 58.8735 97.3706 59.5815 97.3706 60.5435V66H96.1475L95.8179 64.8501H95.7593C95.5298 65.1431 95.293 65.3848 95.0488 65.5752C94.8047 65.7656 94.5215 65.9072 94.1992 66C93.8818 66.0977 93.4937 66.1465 93.0347 66.1465C92.5513 66.1465 92.1191 66.0586 91.7383 65.8828C91.3574 65.7021 91.0571 65.4287 90.8374 65.0625C90.6177 64.6963 90.5078 64.2324 90.5078 63.6709C90.5078 62.8359 90.8179 62.2085 91.438 61.7886C92.063 61.3687 93.0054 61.1367 94.2651 61.0928L95.6714 61.0415V60.6167C95.6714 60.0552 95.5396 59.6548 95.2759 59.4155C95.0171 59.1763 94.6509 59.0566 94.1772 59.0566C93.772 59.0566 93.3789 59.1152 92.998 59.2324C92.6172 59.3496 92.2461 59.4937 91.8848 59.6646L91.3281 58.4487C91.7236 58.2388 92.1729 58.0679 92.6758 57.936C93.1836 57.8042 93.7109 57.7383 94.2578 57.7383ZM95.6641 62.1255L94.6167 62.1621C93.7573 62.1914 93.1543 62.3379 92.8076 62.6016C92.4609 62.8652 92.2876 63.2266 92.2876 63.6855C92.2876 64.0859 92.4072 64.3789 92.6465 64.5645C92.8857 64.7451 93.2007 64.8354 93.5913 64.8354C94.187 64.8354 94.6802 64.667 95.0708 64.3301C95.4663 63.9883 95.6641 63.4878 95.6641 62.8286V62.1255ZM102.095 69.6035C100.996 69.6035 100.154 69.4058 99.5679 69.0103C98.9819 68.6147 98.689 68.0605 98.689 67.3477C98.689 66.8496 98.8452 66.4272 99.1577 66.0806C99.4702 65.7388 99.917 65.502 100.498 65.3701C100.278 65.2725 100.088 65.1211 99.9268 64.916C99.7705 64.7061 99.6924 64.4741 99.6924 64.2202C99.6924 63.9175 99.7778 63.6587 99.9487 63.4438C100.12 63.229 100.376 63.0215 100.718 62.8213C100.293 62.6406 99.9512 62.3477 99.6924 61.9424C99.4385 61.5322 99.3115 61.0513 99.3115 60.4995C99.3115 59.9136 99.436 59.4155 99.6851 59.0054C99.9341 58.5903 100.298 58.2754 100.776 58.0605C101.255 57.8408 101.833 57.731 102.512 57.731C102.659 57.731 102.817 57.7407 102.988 57.7603C103.164 57.7749 103.325 57.7944 103.472 57.8188C103.623 57.8384 103.738 57.8604 103.816 57.8848H106.621V58.8442L105.244 59.1006C105.376 59.2861 105.481 59.4985 105.559 59.7378C105.637 59.9722 105.676 60.2285 105.676 60.5068C105.676 61.3467 105.386 62.0083 104.805 62.4917C104.229 62.9702 103.433 63.2095 102.417 63.2095C102.173 63.1997 101.936 63.1802 101.707 63.1509C101.531 63.2583 101.396 63.3779 101.304 63.5098C101.211 63.6367 101.165 63.7808 101.165 63.9419C101.165 64.0737 101.211 64.1812 101.304 64.2642C101.396 64.3423 101.533 64.4009 101.714 64.4399C101.899 64.479 102.124 64.4985 102.388 64.4985H103.787C104.675 64.4985 105.354 64.6865 105.823 65.0625C106.292 65.4385 106.526 65.9902 106.526 66.7178C106.526 67.6406 106.145 68.3511 105.383 68.8491C104.622 69.3521 103.525 69.6035 102.095 69.6035ZM102.161 68.395C102.761 68.395 103.267 68.3364 103.677 68.2192C104.087 68.1021 104.397 67.9336 104.607 67.7139C104.817 67.499 104.922 67.2427 104.922 66.9448C104.922 66.6812 104.856 66.4785 104.724 66.3369C104.592 66.1953 104.395 66.0977 104.131 66.0439C103.867 65.9902 103.54 65.9634 103.149 65.9634H101.875C101.558 65.9634 101.277 66.0122 101.033 66.1099C100.789 66.2124 100.598 66.3589 100.461 66.5493C100.33 66.7397 100.264 66.9692 100.264 67.2378C100.264 67.6089 100.427 67.8945 100.754 68.0947C101.086 68.2949 101.555 68.395 102.161 68.395ZM102.498 62.0815C103 62.0815 103.374 61.9448 103.618 61.6714C103.862 61.3931 103.984 61.0024 103.984 60.4995C103.984 59.9526 103.857 59.5425 103.604 59.269C103.354 58.9956 102.983 58.8589 102.49 58.8589C102.007 58.8589 101.638 58.998 101.384 59.2764C101.135 59.5547 101.011 59.9673 101.011 60.5142C101.011 61.0073 101.135 61.3931 101.384 61.6714C101.638 61.9448 102.009 62.0815 102.498 62.0815ZM115.278 61.9277C115.278 62.6016 115.19 63.1997 115.015 63.7222C114.839 64.2446 114.583 64.6865 114.246 65.0479C113.909 65.4043 113.503 65.6777 113.03 65.8682C112.556 66.0537 112.021 66.1465 111.426 66.1465C110.869 66.1465 110.359 66.0537 109.895 65.8682C109.431 65.6777 109.028 65.4043 108.687 65.0479C108.35 64.6865 108.088 64.2446 107.903 63.7222C107.717 63.1997 107.625 62.6016 107.625 61.9277C107.625 61.0342 107.778 60.2773 108.086 59.6572C108.398 59.0322 108.843 58.5562 109.419 58.229C109.995 57.9019 110.681 57.7383 111.477 57.7383C112.224 57.7383 112.883 57.9019 113.455 58.229C114.026 58.5562 114.473 59.0322 114.795 59.6572C115.117 60.2822 115.278 61.0391 115.278 61.9277ZM109.397 61.9277C109.397 62.5186 109.468 63.0239 109.609 63.4438C109.756 63.8638 109.98 64.186 110.283 64.4106C110.586 64.6304 110.977 64.7402 111.455 64.7402C111.934 64.7402 112.324 64.6304 112.627 64.4106C112.93 64.186 113.152 63.8638 113.293 63.4438C113.435 63.0239 113.506 62.5186 113.506 61.9277C113.506 61.3369 113.435 60.8364 113.293 60.4263C113.152 60.0112 112.93 59.6963 112.627 59.4814C112.324 59.2617 111.931 59.1519 111.448 59.1519C110.735 59.1519 110.215 59.3911 109.888 59.8696C109.561 60.3481 109.397 61.0342 109.397 61.9277Z" fill="white"/>
</svg>
