<svg width="327" height="64" viewBox="0 0 327 64" fill="none" xmlns="http://www.w3.org/2000/svg">
<circle cx="4" cy="9" r="4" fill="#F12C4C"/>
<path d="M21.9692 5.63232C21.4565 5.63232 20.9976 5.7251 20.5923 5.91064C20.1919 6.09619 19.8525 6.36475 19.5742 6.71631C19.2959 7.06299 19.0835 7.48535 18.937 7.9834C18.7905 8.47656 18.7173 9.0332 18.7173 9.65332C18.7173 10.4834 18.8345 11.1987 19.0688 11.7993C19.3032 12.395 19.6597 12.854 20.1382 13.1763C20.6167 13.4937 21.2222 13.6523 21.9546 13.6523C22.4087 13.6523 22.8506 13.6084 23.2803 13.5205C23.71 13.4326 24.1543 13.313 24.6133 13.1616V14.6558C24.1787 14.8267 23.7393 14.9512 23.2949 15.0293C22.8506 15.1074 22.3379 15.1465 21.7568 15.1465C20.6631 15.1465 19.7549 14.9194 19.0322 14.4653C18.3145 14.0112 17.7773 13.3716 17.4209 12.5464C17.0693 11.7212 16.8936 10.7544 16.8936 9.646C16.8936 8.83545 17.0059 8.09326 17.2305 7.41943C17.4551 6.74561 17.7822 6.16455 18.2119 5.67627C18.6416 5.18311 19.1714 4.80469 19.8013 4.54102C20.436 4.27246 21.1611 4.13818 21.9766 4.13818C22.5137 4.13818 23.041 4.19922 23.5586 4.32129C24.0811 4.43848 24.5645 4.60693 25.0088 4.82666L24.3936 6.27686C24.0225 6.10107 23.6343 5.94971 23.229 5.82275C22.8237 5.6958 22.4038 5.63232 21.9692 5.63232ZM33.915 10.9277C33.915 11.6016 33.8271 12.1997 33.6514 12.7222C33.4756 13.2446 33.2192 13.6865 32.8823 14.0479C32.5454 14.4043 32.1401 14.6777 31.6665 14.8682C31.1929 15.0537 30.6582 15.1465 30.0625 15.1465C29.5059 15.1465 28.9956 15.0537 28.5317 14.8682C28.0679 14.6777 27.665 14.4043 27.3232 14.0479C26.9863 13.6865 26.7251 13.2446 26.5396 12.7222C26.354 12.1997 26.2612 11.6016 26.2612 10.9277C26.2612 10.0342 26.415 9.27734 26.7227 8.65723C27.0352 8.03223 27.4795 7.55615 28.0557 7.229C28.6318 6.90186 29.3179 6.73828 30.1138 6.73828C30.8608 6.73828 31.52 6.90186 32.0913 7.229C32.6626 7.55615 33.1094 8.03223 33.4316 8.65723C33.7539 9.28223 33.915 10.0391 33.915 10.9277ZM28.0337 10.9277C28.0337 11.5186 28.1045 12.0239 28.2461 12.4438C28.3926 12.8638 28.6172 13.186 28.9199 13.4106C29.2227 13.6304 29.6133 13.7402 30.0918 13.7402C30.5703 13.7402 30.9609 13.6304 31.2637 13.4106C31.5664 13.186 31.7886 12.8638 31.9302 12.4438C32.0718 12.0239 32.1426 11.5186 32.1426 10.9277C32.1426 10.3369 32.0718 9.83643 31.9302 9.42627C31.7886 9.01123 31.5664 8.69629 31.2637 8.48145C30.9609 8.26172 30.5679 8.15186 30.0845 8.15186C29.3716 8.15186 28.8516 8.39111 28.5244 8.86963C28.1973 9.34814 28.0337 10.0342 28.0337 10.9277ZM40.1187 6.73828C41.0317 6.73828 41.7422 6.9751 42.25 7.44873C42.7627 7.91748 43.019 8.67188 43.019 9.71191V15H41.2979V10.0342C41.2979 9.4043 41.1685 8.93311 40.9097 8.62061C40.6509 8.30322 40.2505 8.14453 39.7085 8.14453C38.9224 8.14453 38.3755 8.38623 38.0679 8.86963C37.7651 9.35303 37.6138 10.0537 37.6138 10.9717V15H35.8926V6.89209H37.2329L37.4746 7.99072H37.5698C37.7456 7.70752 37.9629 7.47559 38.2217 7.29492C38.4854 7.10938 38.7783 6.97021 39.1006 6.87744C39.4277 6.78467 39.7671 6.73828 40.1187 6.73828ZM47.7432 18.6035C46.6445 18.6035 45.8022 18.4058 45.2163 18.0103C44.6304 17.6147 44.3374 17.0605 44.3374 16.3477C44.3374 15.8496 44.4937 15.4272 44.8062 15.0806C45.1187 14.7388 45.5654 14.502 46.1465 14.3701C45.9268 14.2725 45.7363 14.1211 45.5752 13.916C45.4189 13.7061 45.3408 13.4741 45.3408 13.2202C45.3408 12.9175 45.4263 12.6587 45.5972 12.4438C45.7681 12.229 46.0244 12.0215 46.3662 11.8213C45.9414 11.6406 45.5996 11.3477 45.3408 10.9424C45.0869 10.5322 44.96 10.0513 44.96 9.49951C44.96 8.91357 45.0845 8.41553 45.3335 8.00537C45.5825 7.59033 45.9463 7.27539 46.4248 7.06055C46.9033 6.84082 47.4819 6.73096 48.1606 6.73096C48.3071 6.73096 48.4658 6.74072 48.6367 6.76025C48.8125 6.7749 48.9736 6.79443 49.1201 6.81885C49.2715 6.83838 49.3862 6.86035 49.4644 6.88477H52.2695V7.84424L50.8926 8.10059C51.0244 8.28613 51.1294 8.49854 51.2075 8.73779C51.2856 8.97217 51.3247 9.22852 51.3247 9.50684C51.3247 10.3467 51.0342 11.0083 50.4531 11.4917C49.877 11.9702 49.0811 12.2095 48.0654 12.2095C47.8213 12.1997 47.5845 12.1802 47.355 12.1509C47.1792 12.2583 47.0449 12.3779 46.9521 12.5098C46.8594 12.6367 46.813 12.7808 46.813 12.9419C46.813 13.0737 46.8594 13.1812 46.9521 13.2642C47.0449 13.3423 47.1816 13.4009 47.3623 13.4399C47.5479 13.479 47.7725 13.4985 48.0361 13.4985H49.4351C50.3237 13.4985 51.0024 13.6865 51.4712 14.0625C51.9399 14.4385 52.1743 14.9902 52.1743 15.7178C52.1743 16.6406 51.7935 17.3511 51.0317 17.8491C50.27 18.3521 49.1738 18.6035 47.7432 18.6035ZM47.8091 17.395C48.4097 17.395 48.915 17.3364 49.3252 17.2192C49.7354 17.1021 50.0454 16.9336 50.2554 16.7139C50.4653 16.499 50.5703 16.2427 50.5703 15.9448C50.5703 15.6812 50.5044 15.4785 50.3726 15.3369C50.2407 15.1953 50.043 15.0977 49.7793 15.0439C49.5156 14.9902 49.1885 14.9634 48.7979 14.9634H47.5234C47.2061 14.9634 46.9253 15.0122 46.6812 15.1099C46.437 15.2124 46.2466 15.3589 46.1099 15.5493C45.978 15.7397 45.9121 15.9692 45.9121 16.2378C45.9121 16.6089 46.0757 16.8945 46.4028 17.0947C46.7349 17.2949 47.2036 17.395 47.8091 17.395ZM48.146 11.0815C48.6489 11.0815 49.0225 10.9448 49.2666 10.6714C49.5107 10.3931 49.6328 10.0024 49.6328 9.49951C49.6328 8.95264 49.5059 8.54248 49.252 8.26904C49.0029 7.99561 48.6318 7.85889 48.1387 7.85889C47.6553 7.85889 47.2866 7.99805 47.0327 8.27637C46.7837 8.55469 46.6592 8.96729 46.6592 9.51416C46.6592 10.0073 46.7837 10.3931 47.0327 10.6714C47.2866 10.9448 47.6577 11.0815 48.146 11.0815ZM57.8579 6.73828C57.9946 6.73828 58.1436 6.74561 58.3047 6.76025C58.4658 6.7749 58.605 6.79443 58.7222 6.81885L58.561 8.43018C58.4585 8.40088 58.3315 8.37891 58.1802 8.36426C58.0337 8.34961 57.9019 8.34229 57.7847 8.34229C57.4771 8.34229 57.1841 8.39355 56.9058 8.49609C56.6274 8.59375 56.3809 8.74512 56.166 8.9502C55.9512 9.15039 55.7827 9.40186 55.6606 9.70459C55.5386 10.0073 55.4775 10.3589 55.4775 10.7593V15H53.749V6.89209H55.0967L55.3311 8.32031H55.4116C55.5728 8.03223 55.7729 7.76855 56.0122 7.5293C56.2515 7.29004 56.5249 7.09961 56.8325 6.95801C57.145 6.81152 57.4868 6.73828 57.8579 6.73828ZM63.4023 6.73828C64.4277 6.73828 65.2017 6.96533 65.7241 7.41943C66.2515 7.87354 66.5151 8.58154 66.5151 9.54346V15H65.292L64.9624 13.8501H64.9038C64.6743 14.1431 64.4375 14.3848 64.1934 14.5752C63.9492 14.7656 63.666 14.9072 63.3438 15C63.0264 15.0977 62.6382 15.1465 62.1792 15.1465C61.6958 15.1465 61.2637 15.0586 60.8828 14.8828C60.502 14.7021 60.2017 14.4287 59.9819 14.0625C59.7622 13.6963 59.6523 13.2324 59.6523 12.6709C59.6523 11.8359 59.9624 11.2085 60.5825 10.7886C61.2075 10.3687 62.1499 10.1367 63.4097 10.0928L64.8159 10.0415V9.6167C64.8159 9.05518 64.6841 8.65479 64.4204 8.41553C64.1616 8.17627 63.7954 8.05664 63.3218 8.05664C62.9165 8.05664 62.5234 8.11523 62.1426 8.23242C61.7617 8.34961 61.3906 8.49365 61.0293 8.66455L60.4727 7.44873C60.8682 7.23877 61.3174 7.06787 61.8203 6.93604C62.3281 6.8042 62.8555 6.73828 63.4023 6.73828ZM64.8086 11.1255L63.7612 11.1621C62.9019 11.1914 62.2988 11.3379 61.9521 11.6016C61.6055 11.8652 61.4321 12.2266 61.4321 12.6855C61.4321 13.0859 61.5518 13.3789 61.791 13.5645C62.0303 13.7451 62.3452 13.8354 62.7358 13.8354C63.3315 13.8354 63.8247 13.667 64.2153 13.3301C64.6108 12.9883 64.8086 12.4878 64.8086 11.8286V11.1255ZM71.9424 13.7549C72.167 13.7549 72.3892 13.7354 72.6089 13.6963C72.8286 13.6523 73.0288 13.6011 73.2095 13.5425V14.8462C73.019 14.9292 72.7725 15 72.4697 15.0586C72.167 15.1172 71.8521 15.1465 71.5249 15.1465C71.0659 15.1465 70.6533 15.0708 70.2871 14.9194C69.9209 14.7632 69.6304 14.4971 69.4155 14.1211C69.2007 13.7451 69.0933 13.2251 69.0933 12.561V8.20312H67.9873V7.43408L69.1738 6.82617L69.7378 5.09033H70.8218V6.89209H73.1436V8.20312H70.8218V12.5391C70.8218 12.9492 70.9243 13.2544 71.1294 13.4546C71.3345 13.6548 71.6055 13.7549 71.9424 13.7549ZM81.9253 6.89209V15H80.5703L80.3359 13.9087H80.2407C80.0698 14.187 79.8525 14.4189 79.5889 14.6045C79.3252 14.7852 79.0322 14.9194 78.71 15.0073C78.3877 15.1001 78.0483 15.1465 77.6919 15.1465C77.0815 15.1465 76.5591 15.0439 76.1245 14.8389C75.6948 14.6289 75.3652 14.3066 75.1357 13.8721C74.9062 13.4375 74.7915 12.876 74.7915 12.1875V6.89209H76.52V11.8652C76.52 12.4951 76.647 12.9663 76.9009 13.2788C77.1597 13.5913 77.5601 13.7476 78.1021 13.7476C78.6245 13.7476 79.0396 13.6401 79.3472 13.4253C79.6548 13.2104 79.8721 12.8931 79.999 12.4731C80.1309 12.0532 80.1968 11.5381 80.1968 10.9277V6.89209H81.9253ZM86.1221 15H84.3936V3.60352H86.1221V15ZM91.7617 6.73828C92.7871 6.73828 93.561 6.96533 94.0835 7.41943C94.6108 7.87354 94.8745 8.58154 94.8745 9.54346V15H93.6514L93.3218 13.8501H93.2632C93.0337 14.1431 92.7969 14.3848 92.5527 14.5752C92.3086 14.7656 92.0254 14.9072 91.7031 15C91.3857 15.0977 90.9976 15.1465 90.5386 15.1465C90.0552 15.1465 89.623 15.0586 89.2422 14.8828C88.8613 14.7021 88.561 14.4287 88.3413 14.0625C88.1216 13.6963 88.0117 13.2324 88.0117 12.6709C88.0117 11.8359 88.3218 11.2085 88.9419 10.7886C89.5669 10.3687 90.5093 10.1367 91.769 10.0928L93.1753 10.0415V9.6167C93.1753 9.05518 93.0435 8.65479 92.7798 8.41553C92.521 8.17627 92.1548 8.05664 91.6812 8.05664C91.2759 8.05664 90.8828 8.11523 90.502 8.23242C90.1211 8.34961 89.75 8.49365 89.3887 8.66455L88.832 7.44873C89.2275 7.23877 89.6768 7.06787 90.1797 6.93604C90.6875 6.8042 91.2148 6.73828 91.7617 6.73828ZM93.168 11.1255L92.1206 11.1621C91.2612 11.1914 90.6582 11.3379 90.3115 11.6016C89.9648 11.8652 89.7915 12.2266 89.7915 12.6855C89.7915 13.0859 89.9111 13.3789 90.1504 13.5645C90.3896 13.7451 90.7046 13.8354 91.0952 13.8354C91.6909 13.8354 92.1841 13.667 92.5747 13.3301C92.9702 12.9883 93.168 12.4878 93.168 11.8286V11.1255ZM100.302 13.7549C100.526 13.7549 100.749 13.7354 100.968 13.6963C101.188 13.6523 101.388 13.6011 101.569 13.5425V14.8462C101.378 14.9292 101.132 15 100.829 15.0586C100.526 15.1172 100.211 15.1465 99.8843 15.1465C99.4253 15.1465 99.0127 15.0708 98.6465 14.9194C98.2803 14.7632 97.9897 14.4971 97.7749 14.1211C97.5601 13.7451 97.4526 13.2251 97.4526 12.561V8.20312H96.3467V7.43408L97.5332 6.82617L98.0972 5.09033H99.1812V6.89209H101.503V8.20312H99.1812V12.5391C99.1812 12.9492 99.2837 13.2544 99.4888 13.4546C99.6938 13.6548 99.9648 13.7549 100.302 13.7549ZM104.938 6.89209V15H103.217V6.89209H104.938ZM104.088 3.78662C104.352 3.78662 104.579 3.85742 104.77 3.99902C104.965 4.14062 105.062 4.38477 105.062 4.73145C105.062 5.07324 104.965 5.31738 104.77 5.46387C104.579 5.60547 104.352 5.67627 104.088 5.67627C103.815 5.67627 103.583 5.60547 103.393 5.46387C103.207 5.31738 103.114 5.07324 103.114 4.73145C103.114 4.38477 103.207 4.14062 103.393 3.99902C103.583 3.85742 103.815 3.78662 104.088 3.78662ZM114.584 10.9277C114.584 11.6016 114.496 12.1997 114.32 12.7222C114.145 13.2446 113.888 13.6865 113.551 14.0479C113.214 14.4043 112.809 14.6777 112.335 14.8682C111.862 15.0537 111.327 15.1465 110.731 15.1465C110.175 15.1465 109.665 15.0537 109.201 14.8682C108.737 14.6777 108.334 14.4043 107.992 14.0479C107.655 13.6865 107.394 13.2446 107.208 12.7222C107.023 12.1997 106.93 11.6016 106.93 10.9277C106.93 10.0342 107.084 9.27734 107.392 8.65723C107.704 8.03223 108.148 7.55615 108.725 7.229C109.301 6.90186 109.987 6.73828 110.783 6.73828C111.53 6.73828 112.189 6.90186 112.76 7.229C113.332 7.55615 113.778 8.03223 114.101 8.65723C114.423 9.28223 114.584 10.0391 114.584 10.9277ZM108.703 10.9277C108.703 11.5186 108.773 12.0239 108.915 12.4438C109.062 12.8638 109.286 13.186 109.589 13.4106C109.892 13.6304 110.282 13.7402 110.761 13.7402C111.239 13.7402 111.63 13.6304 111.933 13.4106C112.235 13.186 112.458 12.8638 112.599 12.4438C112.741 12.0239 112.812 11.5186 112.812 10.9277C112.812 10.3369 112.741 9.83643 112.599 9.42627C112.458 9.01123 112.235 8.69629 111.933 8.48145C111.63 8.26172 111.237 8.15186 110.753 8.15186C110.041 8.15186 109.521 8.39111 109.193 8.86963C108.866 9.34814 108.703 10.0342 108.703 10.9277ZM120.788 6.73828C121.701 6.73828 122.411 6.9751 122.919 7.44873C123.432 7.91748 123.688 8.67188 123.688 9.71191V15H121.967V10.0342C121.967 9.4043 121.837 8.93311 121.579 8.62061C121.32 8.30322 120.919 8.14453 120.377 8.14453C119.591 8.14453 119.044 8.38623 118.737 8.86963C118.434 9.35303 118.283 10.0537 118.283 10.9717V15H116.562V6.89209H117.902L118.144 7.99072H118.239C118.415 7.70752 118.632 7.47559 118.891 7.29492C119.154 7.10938 119.447 6.97021 119.77 6.87744C120.097 6.78467 120.436 6.73828 120.788 6.73828ZM131.547 12.6855C131.547 13.2178 131.417 13.667 131.159 14.0332C130.9 14.3994 130.521 14.6777 130.023 14.8682C129.53 15.0537 128.925 15.1465 128.207 15.1465C127.641 15.1465 127.152 15.105 126.742 15.022C126.337 14.9438 125.954 14.8218 125.592 14.6558V13.1689C125.978 13.3496 126.41 13.5059 126.889 13.6377C127.372 13.7695 127.829 13.8354 128.258 13.8354C128.825 13.8354 129.232 13.7476 129.481 13.5718C129.73 13.3911 129.855 13.1519 129.855 12.854C129.855 12.6782 129.804 12.522 129.701 12.3853C129.604 12.2437 129.418 12.0996 129.145 11.9531C128.876 11.8018 128.48 11.6211 127.958 11.4111C127.445 11.2061 127.013 11.001 126.662 10.7959C126.31 10.5908 126.044 10.3442 125.863 10.0562C125.683 9.76318 125.592 9.38965 125.592 8.93555C125.592 8.21777 125.875 7.67334 126.442 7.30225C127.013 6.92627 127.768 6.73828 128.705 6.73828C129.203 6.73828 129.672 6.78955 130.111 6.89209C130.556 6.98975 130.99 7.13379 131.415 7.32422L130.873 8.62061C130.507 8.45947 130.138 8.32764 129.767 8.2251C129.401 8.11768 129.027 8.06396 128.646 8.06396C128.202 8.06396 127.863 8.13232 127.628 8.26904C127.399 8.40576 127.284 8.60107 127.284 8.85498C127.284 9.04541 127.34 9.20654 127.453 9.33838C127.565 9.47021 127.758 9.60205 128.031 9.73389C128.31 9.86572 128.695 10.0293 129.188 10.2246C129.672 10.4102 130.089 10.6055 130.441 10.8105C130.797 11.0107 131.071 11.2573 131.261 11.5503C131.452 11.8433 131.547 12.2217 131.547 12.6855Z" fill="white"/>
<path d="M284.706 8.67432C284.706 9.23714 284.665 9.78516 284.585 10.3184C284.509 10.8516 284.375 11.3488 284.185 11.8101C283.999 12.2713 283.745 12.6755 283.423 13.0225C283.102 13.3695 282.698 13.6424 282.211 13.8413C281.729 14.036 281.151 14.1333 280.478 14.1333C280.296 14.1333 280.089 14.1206 279.856 14.0952C279.623 14.0741 279.433 14.0423 279.285 14V13.0859C279.441 13.141 279.625 13.1854 279.837 13.2192C280.049 13.2489 280.256 13.2637 280.459 13.2637C281.25 13.2637 281.872 13.0944 282.325 12.7559C282.778 12.4131 283.104 11.9497 283.303 11.3657C283.502 10.7775 283.614 10.1174 283.639 9.38525H283.563C283.436 9.58838 283.269 9.77669 283.062 9.9502C282.858 10.1195 282.611 10.257 282.319 10.3628C282.027 10.4644 281.686 10.5151 281.297 10.5151C280.759 10.5151 280.29 10.4051 279.888 10.1851C279.49 9.96501 279.179 9.64551 278.955 9.22656C278.735 8.80762 278.625 8.30192 278.625 7.70947C278.625 7.07048 278.745 6.51823 278.986 6.05273C279.232 5.58301 279.575 5.22119 280.015 4.96729C280.455 4.71338 280.973 4.58643 281.57 4.58643C282.027 4.58643 282.446 4.67318 282.827 4.84668C283.208 5.02018 283.538 5.28044 283.817 5.62744C284.1 5.97021 284.318 6.39551 284.471 6.90332C284.627 7.41113 284.706 8.00146 284.706 8.67432ZM281.57 5.48145C281.007 5.48145 280.55 5.66553 280.199 6.03369C279.852 6.40186 279.678 6.95622 279.678 7.69678C279.678 8.31038 279.828 8.79492 280.129 9.15039C280.429 9.50586 280.893 9.68359 281.519 9.68359C281.951 9.68359 282.323 9.59684 282.636 9.42334C282.954 9.24984 283.197 9.02979 283.366 8.76318C283.54 8.49658 283.626 8.22363 283.626 7.94434C283.626 7.66504 283.584 7.38151 283.5 7.09375C283.419 6.80599 283.294 6.5415 283.125 6.30029C282.956 6.05485 282.742 5.85807 282.484 5.70996C282.226 5.55762 281.921 5.48145 281.57 5.48145ZM286.362 13.3398C286.362 13.0436 286.434 12.8341 286.578 12.7114C286.722 12.5845 286.898 12.521 287.105 12.521C287.321 12.521 287.503 12.5845 287.651 12.7114C287.799 12.8341 287.873 13.0436 287.873 13.3398C287.873 13.6318 287.799 13.8455 287.651 13.981C287.503 14.1121 287.321 14.1777 287.105 14.1777C286.898 14.1777 286.722 14.1121 286.578 13.981C286.434 13.8455 286.362 13.6318 286.362 13.3398ZM286.362 7.70947C286.362 7.40479 286.434 7.19108 286.578 7.06836C286.722 6.94141 286.898 6.87793 287.105 6.87793C287.321 6.87793 287.503 6.94141 287.651 7.06836C287.799 7.19108 287.873 7.40479 287.873 7.70947C287.873 7.99723 287.799 8.20671 287.651 8.33789C287.503 8.46908 287.321 8.53467 287.105 8.53467C286.898 8.53467 286.722 8.46908 286.578 8.33789C286.434 8.20671 286.362 7.99723 286.362 7.70947ZM296.011 11.8481H294.621V14H293.592V11.8481H289.104V10.9595L293.522 4.66895H294.621V10.896H296.011V11.8481ZM293.592 10.896V7.86182C293.592 7.62907 293.594 7.4196 293.599 7.2334C293.603 7.04297 293.609 6.86735 293.618 6.70654C293.626 6.5415 293.632 6.38493 293.637 6.23682C293.645 6.0887 293.652 5.94271 293.656 5.79883H293.605C293.525 5.9681 293.431 6.14795 293.326 6.33838C293.224 6.52458 293.12 6.69173 293.015 6.83984L290.152 10.896H293.592ZM299.838 8.3252C300.469 8.3252 301.017 8.43311 301.482 8.64893C301.948 8.86051 302.308 9.16943 302.562 9.57568C302.82 9.98193 302.949 10.4749 302.949 11.0547C302.949 11.6895 302.811 12.2375 302.536 12.6987C302.261 13.1558 301.865 13.5091 301.349 13.7588C300.833 14.0042 300.215 14.127 299.496 14.127C299.013 14.127 298.565 14.0846 298.15 14C297.735 13.9154 297.386 13.7884 297.103 13.6191V12.6162C297.411 12.8024 297.786 12.9505 298.226 13.0605C298.666 13.1706 299.094 13.2256 299.508 13.2256C299.978 13.2256 300.389 13.1515 300.74 13.0034C301.095 12.8511 301.37 12.6226 301.565 12.3179C301.764 12.009 301.863 11.6217 301.863 11.1562C301.863 10.5384 301.673 10.0623 301.292 9.72803C300.915 9.38949 300.319 9.22021 299.502 9.22021C299.24 9.22021 298.952 9.24137 298.639 9.28369C298.326 9.32601 298.067 9.37256 297.864 9.42334L297.331 9.07422L297.687 4.71973H302.301V5.68457H298.588L298.353 8.48389C298.514 8.45003 298.721 8.41618 298.975 8.38232C299.229 8.34424 299.517 8.3252 299.838 8.3252ZM314.171 14L313.029 11.0547H309.309L308.173 14H307.081L310.712 4.68164H311.683L315.289 14H314.171ZM312.705 10.0962L311.62 7.16992C311.594 7.09375 311.552 6.96891 311.493 6.79541C311.438 6.62191 311.381 6.44206 311.321 6.25586C311.262 6.06966 311.213 5.91943 311.175 5.80518C311.133 5.97868 311.086 6.15218 311.036 6.32568C310.989 6.49495 310.943 6.65365 310.896 6.80176C310.849 6.94564 310.809 7.06836 310.775 7.16992L309.671 10.0962H312.705ZM320.659 14L317.542 5.78613H317.491C317.508 5.95964 317.523 6.17122 317.536 6.4209C317.548 6.67057 317.559 6.94352 317.567 7.23975C317.576 7.53174 317.58 7.83008 317.58 8.13477V14H316.577V4.71973H318.177L321.116 12.4385H321.16L324.144 4.71973H325.73V14H324.664V8.05859C324.664 7.78353 324.668 7.50846 324.677 7.2334C324.685 6.9541 324.696 6.69173 324.708 6.44629C324.721 6.19661 324.734 5.98079 324.747 5.79883H324.696L321.541 14H320.659Z" fill="white"/>
<path d="M7.36084 33.7896C7.36084 34.2681 7.26807 34.6831 7.08252 35.0347C6.89697 35.3862 6.63818 35.6743 6.30615 35.8989C5.97412 36.1187 5.5835 36.2725 5.13428 36.3604V36.4189C5.98389 36.5264 6.62109 36.7998 7.0459 37.2393C7.47559 37.6787 7.69043 38.2549 7.69043 38.9678C7.69043 39.5879 7.54395 40.1372 7.25098 40.6157C6.96289 41.0942 6.51855 41.4702 5.91797 41.7437C5.32227 42.0122 4.55811 42.1465 3.62549 42.1465C3.05908 42.1465 2.53418 42.1001 2.05078 42.0073C1.57227 41.9194 1.11328 41.7705 0.673828 41.5605V40.418C1.11816 40.6377 1.60156 40.811 2.12402 40.938C2.64648 41.0601 3.15186 41.1211 3.64014 41.1211C4.6167 41.1211 5.32227 40.9282 5.75684 40.5425C6.19141 40.1519 6.40869 39.6196 6.40869 38.9458C6.40869 38.4819 6.28662 38.1084 6.04248 37.8252C5.80322 37.5371 5.45654 37.3271 5.00244 37.1953C4.55322 37.0586 4.01123 36.9902 3.37646 36.9902H2.30713V35.9502H3.38379C3.96484 35.9502 4.45801 35.8647 4.86328 35.6938C5.26855 35.5229 5.57617 35.2837 5.78613 34.9761C6.00098 34.6636 6.1084 34.2949 6.1084 33.8701C6.1084 33.3281 5.92773 32.9106 5.56641 32.6177C5.20508 32.3198 4.71436 32.1709 4.09424 32.1709C3.71338 32.1709 3.3667 32.21 3.0542 32.2881C2.7417 32.3662 2.44873 32.4736 2.17529 32.6104C1.90186 32.7471 1.62842 32.9058 1.35498 33.0864L0.739746 32.2515C1.13037 31.9487 1.60645 31.6875 2.16797 31.4678C2.72949 31.248 3.3667 31.1382 4.07959 31.1382C5.17334 31.1382 5.99365 31.3872 6.54053 31.8853C7.0874 32.3833 7.36084 33.0181 7.36084 33.7896ZM12.7075 35.4521C13.4351 35.4521 14.0674 35.5767 14.6045 35.8257C15.1416 36.0698 15.5566 36.4263 15.8496 36.895C16.1475 37.3638 16.2964 37.9326 16.2964 38.6016C16.2964 39.334 16.1377 39.9663 15.8203 40.4985C15.5029 41.0259 15.0464 41.4336 14.4507 41.7217C13.855 42.0049 13.1421 42.1465 12.312 42.1465C11.7554 42.1465 11.2378 42.0977 10.7593 42C10.2808 41.9023 9.87793 41.7559 9.55078 41.5605V40.4033C9.90723 40.6182 10.3394 40.7891 10.8472 40.916C11.355 41.043 11.8481 41.1064 12.3267 41.1064C12.8687 41.1064 13.3423 41.021 13.7476 40.8501C14.1577 40.6743 14.4751 40.4106 14.6997 40.0591C14.9292 39.7026 15.0439 39.2559 15.0439 38.7188C15.0439 38.0059 14.8242 37.4565 14.3848 37.0708C13.9502 36.6802 13.2617 36.4849 12.3193 36.4849C12.0166 36.4849 11.6846 36.5093 11.3232 36.5581C10.9619 36.6069 10.6641 36.6606 10.4297 36.7192L9.81445 36.3164L10.2246 31.292H15.5493V32.4053H11.2646L10.9937 35.6353C11.1792 35.5962 11.4185 35.5571 11.7114 35.5181C12.0044 35.4741 12.3364 35.4521 12.7075 35.4521ZM20.0903 31.1382C20.8228 31.1382 21.377 31.4312 21.7529 32.0171C22.1338 32.5981 22.3242 33.4209 22.3242 34.4854C22.3242 35.5498 22.1411 36.3799 21.7749 36.9756C21.4087 37.5664 20.8472 37.8618 20.0903 37.8618C19.3872 37.8618 18.8477 37.5664 18.4717 36.9756C18.1006 36.3799 17.915 35.5498 17.915 34.4854C17.915 33.4209 18.0933 32.5981 18.4497 32.0171C18.8062 31.4312 19.353 31.1382 20.0903 31.1382ZM20.0903 32.0098C19.6948 32.0098 19.4043 32.2173 19.2188 32.6323C19.0332 33.0425 18.9404 33.6602 18.9404 34.4854C18.9404 35.3105 19.0332 35.9331 19.2188 36.353C19.4043 36.7729 19.6948 36.9829 20.0903 36.9829C20.5005 36.9829 20.8057 36.7729 21.0059 36.353C21.2061 35.9331 21.3062 35.3105 21.3062 34.4854C21.3062 33.665 21.2061 33.0474 21.0059 32.6323C20.8105 32.2173 20.5054 32.0098 20.0903 32.0098ZM26.8726 31.292L20.9326 42H19.8633L25.8032 31.292H26.8726ZM26.5869 35.4302C27.3145 35.4302 27.8687 35.7231 28.2495 36.3091C28.6304 36.8901 28.8208 37.7129 28.8208 38.7773C28.8208 39.8369 28.6377 40.6646 28.2715 41.2603C27.9053 41.8511 27.3438 42.1465 26.5869 42.1465C25.8789 42.1465 25.3394 41.8511 24.9683 41.2603C24.5972 40.6646 24.4116 39.8369 24.4116 38.7773C24.4116 37.7129 24.5874 36.8901 24.939 36.3091C25.2954 35.7231 25.8447 35.4302 26.5869 35.4302ZM26.5869 36.3091C26.1914 36.3091 25.9009 36.5142 25.7153 36.9243C25.5298 37.3345 25.437 37.9521 25.437 38.7773C25.437 39.6025 25.5298 40.2251 25.7153 40.645C25.9009 41.0601 26.1914 41.2676 26.5869 41.2676C26.9971 41.2676 27.3022 41.0625 27.5024 40.6523C27.7026 40.2373 27.8027 39.6123 27.8027 38.7773C27.8027 37.957 27.7026 37.3418 27.5024 36.9316C27.3071 36.5166 27.002 36.3091 26.5869 36.3091ZM33.4863 33.9727H34.79L36.5625 38.6309C36.665 38.9043 36.7603 39.168 36.8481 39.4219C36.936 39.6709 37.0142 39.9102 37.0825 40.1396C37.1509 40.3691 37.2046 40.5913 37.2437 40.8062H37.2949C37.3633 40.562 37.4609 40.2422 37.5879 39.8467C37.7148 39.4463 37.8516 39.0386 37.998 38.6235L39.6753 33.9727H40.9863L37.4927 43.1792C37.3071 43.6724 37.0898 44.1021 36.8408 44.4683C36.5967 44.8345 36.2988 45.1152 35.9473 45.3105C35.5957 45.5107 35.1709 45.6108 34.6729 45.6108C34.4434 45.6108 34.2407 45.5962 34.0649 45.5669C33.8892 45.5425 33.7378 45.5132 33.6108 45.479V44.5049C33.7183 44.5293 33.8477 44.5513 33.999 44.5708C34.1553 44.5903 34.3164 44.6001 34.4824 44.6001C34.7852 44.6001 35.0464 44.5415 35.2661 44.4243C35.4907 44.312 35.6836 44.146 35.8447 43.9263C36.0059 43.7065 36.145 43.4453 36.2622 43.1426L36.7017 42.0146L33.4863 33.9727ZM49.1895 37.9717C49.1895 38.6309 49.104 39.2192 48.9331 39.7368C48.7622 40.2544 48.5156 40.6914 48.1934 41.0479C47.8711 41.4043 47.4805 41.6777 47.0215 41.8682C46.5674 42.0537 46.0522 42.1465 45.4761 42.1465C44.939 42.1465 44.4458 42.0537 43.9966 41.8682C43.5522 41.6777 43.1665 41.4043 42.8394 41.0479C42.5171 40.6914 42.2656 40.2544 42.085 39.7368C41.9092 39.2192 41.8213 38.6309 41.8213 37.9717C41.8213 37.0928 41.9702 36.3457 42.2681 35.7305C42.5659 35.1104 42.9907 34.6392 43.5425 34.3169C44.0991 33.9897 44.7607 33.8262 45.5273 33.8262C46.2598 33.8262 46.8994 33.9897 47.4463 34.3169C47.998 34.644 48.4253 35.1177 48.728 35.7378C49.0356 36.353 49.1895 37.0977 49.1895 37.9717ZM43.0811 37.9717C43.0811 38.6162 43.1665 39.1753 43.3374 39.6489C43.5083 40.1226 43.772 40.4888 44.1284 40.7476C44.4849 41.0063 44.9438 41.1357 45.5054 41.1357C46.062 41.1357 46.5186 41.0063 46.875 40.7476C47.2363 40.4888 47.5024 40.1226 47.6733 39.6489C47.8442 39.1753 47.9297 38.6162 47.9297 37.9717C47.9297 37.332 47.8442 36.7803 47.6733 36.3164C47.5024 35.8477 47.2388 35.4863 46.8823 35.2324C46.5259 34.9785 46.0645 34.8516 45.498 34.8516C44.6631 34.8516 44.0503 35.1274 43.6597 35.6792C43.2739 36.231 43.0811 36.9951 43.0811 37.9717ZM57.9199 33.9727V42H56.9238L56.748 40.8721H56.6821C56.5161 41.1504 56.3013 41.3848 56.0376 41.5752C55.7739 41.7656 55.4761 41.9072 55.144 42C54.8169 42.0977 54.4678 42.1465 54.0967 42.1465C53.4619 42.1465 52.9297 42.0439 52.5 41.8389C52.0703 41.6338 51.7456 41.3164 51.5259 40.8867C51.311 40.457 51.2036 39.9053 51.2036 39.2314V33.9727H52.4341V39.1436C52.4341 39.8125 52.5854 40.313 52.8882 40.645C53.1909 40.9722 53.6523 41.1357 54.2725 41.1357C54.8682 41.1357 55.3418 41.0234 55.6934 40.7988C56.0498 40.5742 56.3062 40.2446 56.4624 39.8101C56.6187 39.3706 56.6968 38.8335 56.6968 38.1987V33.9727H57.9199ZM64.1382 33.8262C64.2993 33.8262 64.4678 33.8359 64.6436 33.8555C64.8193 33.8701 64.9756 33.8921 65.1123 33.9214L64.9585 35.0493C64.8267 35.0151 64.6802 34.9883 64.519 34.9688C64.3579 34.9492 64.2065 34.9395 64.0649 34.9395C63.7427 34.9395 63.4375 35.0054 63.1494 35.1372C62.8662 35.2642 62.6172 35.4497 62.4023 35.6938C62.1875 35.9331 62.019 36.2236 61.897 36.5654C61.7749 36.9023 61.7139 37.2783 61.7139 37.6934V42H60.4907V33.9727H61.5015L61.6333 35.4521H61.6846C61.8506 35.1543 62.0508 34.8833 62.2852 34.6392C62.5195 34.3901 62.7905 34.1924 63.0981 34.0459C63.4106 33.8994 63.7573 33.8262 64.1382 33.8262ZM73.3813 42.1465C72.3657 42.1465 71.5601 41.7998 70.9644 41.1064C70.3735 40.4131 70.0781 39.3828 70.0781 38.0156C70.0781 36.6338 70.3809 35.5913 70.9863 34.8882C71.5918 34.1802 72.3975 33.8262 73.4033 33.8262C73.8281 33.8262 74.1992 33.8823 74.5166 33.9946C74.834 34.1069 75.1074 34.2583 75.3369 34.4487C75.5664 34.6343 75.7593 34.8467 75.9155 35.0859H76.0034C75.9839 34.9346 75.9644 34.7271 75.9448 34.4634C75.9253 34.1997 75.9155 33.9849 75.9155 33.8188V30.6035H77.1313V42H76.1499L75.9668 40.8574H75.9155C75.7642 41.0967 75.5713 41.314 75.3369 41.5093C75.1074 41.7046 74.8315 41.8608 74.5093 41.978C74.1919 42.0903 73.8159 42.1465 73.3813 42.1465ZM73.5718 41.1357C74.4312 41.1357 75.0391 40.8916 75.3955 40.4033C75.752 39.915 75.9302 39.1899 75.9302 38.228V38.0083C75.9302 36.9878 75.7593 36.2041 75.4175 35.6572C75.0806 35.1104 74.4653 34.8369 73.5718 34.8369C72.8247 34.8369 72.2656 35.125 71.8945 35.7012C71.5234 36.2725 71.3379 37.0537 71.3379 38.0449C71.3379 39.0312 71.521 39.793 71.8872 40.3301C72.2583 40.8672 72.8198 41.1357 73.5718 41.1357ZM82.7124 33.8408C83.6694 33.8408 84.3799 34.0557 84.8438 34.4854C85.3076 34.915 85.5396 35.6011 85.5396 36.5435V42H84.6533L84.4189 40.8135H84.3604C84.1357 41.1064 83.9014 41.353 83.6572 41.5532C83.4131 41.7485 83.1299 41.8975 82.8076 42C82.4902 42.0977 82.0996 42.1465 81.6357 42.1465C81.1475 42.1465 80.7129 42.061 80.332 41.8901C79.9561 41.7192 79.6582 41.4604 79.4385 41.1138C79.2236 40.7671 79.1162 40.3276 79.1162 39.7954C79.1162 38.9946 79.4336 38.3794 80.0684 37.9497C80.7031 37.52 81.6699 37.2856 82.9688 37.2466L84.353 37.188V36.6973C84.353 36.0039 84.2041 35.5181 83.9062 35.2397C83.6084 34.9614 83.1885 34.8223 82.6465 34.8223C82.2266 34.8223 81.8262 34.8833 81.4453 35.0054C81.0645 35.1274 80.7031 35.2715 80.3613 35.4375L79.9878 34.5146C80.3491 34.3291 80.7642 34.1704 81.2329 34.0386C81.7017 33.9067 82.1948 33.8408 82.7124 33.8408ZM84.3384 38.0449L83.1152 38.0962C82.1143 38.1353 81.4087 38.2988 80.9985 38.5869C80.5884 38.875 80.3833 39.2827 80.3833 39.8101C80.3833 40.269 80.5225 40.6084 80.8008 40.8281C81.0791 41.0479 81.4478 41.1577 81.9067 41.1577C82.6196 41.1577 83.2031 40.96 83.6572 40.5645C84.1113 40.1689 84.3384 39.5757 84.3384 38.7847V38.0449ZM89.2603 33.9727V42H88.0444V33.9727H89.2603ZM88.667 30.9697C88.8672 30.9697 89.0381 31.0356 89.1797 31.1675C89.3262 31.2944 89.3994 31.4946 89.3994 31.7681C89.3994 32.0366 89.3262 32.2368 89.1797 32.3687C89.0381 32.5005 88.8672 32.5664 88.667 32.5664C88.457 32.5664 88.2812 32.5005 88.1396 32.3687C88.0029 32.2368 87.9346 32.0366 87.9346 31.7681C87.9346 31.4946 88.0029 31.2944 88.1396 31.1675C88.2812 31.0356 88.457 30.9697 88.667 30.9697ZM93.0615 42H91.8384V30.6035H93.0615V42ZM94.3652 33.9727H95.6689L97.4414 38.6309C97.5439 38.9043 97.6392 39.168 97.7271 39.4219C97.8149 39.6709 97.8931 39.9102 97.9614 40.1396C98.0298 40.3691 98.0835 40.5913 98.1226 40.8062H98.1738C98.2422 40.562 98.3398 40.2422 98.4668 39.8467C98.5938 39.4463 98.7305 39.0386 98.877 38.6235L100.554 33.9727H101.865L98.3716 43.1792C98.186 43.6724 97.9688 44.1021 97.7197 44.4683C97.4756 44.8345 97.1777 45.1152 96.8262 45.3105C96.4746 45.5107 96.0498 45.6108 95.5518 45.6108C95.3223 45.6108 95.1196 45.5962 94.9438 45.5669C94.7681 45.5425 94.6167 45.5132 94.4897 45.479V44.5049C94.5972 44.5293 94.7266 44.5513 94.8779 44.5708C95.0342 44.5903 95.1953 44.6001 95.3613 44.6001C95.6641 44.6001 95.9253 44.5415 96.145 44.4243C96.3696 44.312 96.5625 44.146 96.7236 43.9263C96.8848 43.7065 97.0239 43.4453 97.1411 43.1426L97.5806 42.0146L94.3652 33.9727ZM110.259 42.1465C109.536 42.1465 108.899 41.9976 108.347 41.6997C107.795 41.4019 107.366 40.9478 107.058 40.3374C106.75 39.7271 106.597 38.958 106.597 38.0303C106.597 37.0586 106.758 36.2651 107.08 35.6499C107.407 35.0298 107.856 34.5708 108.428 34.2729C108.999 33.9751 109.648 33.8262 110.376 33.8262C110.776 33.8262 111.162 33.8677 111.533 33.9507C111.909 34.0288 112.217 34.1289 112.456 34.251L112.09 35.269C111.846 35.1714 111.562 35.0835 111.24 35.0054C110.923 34.9272 110.625 34.8882 110.347 34.8882C109.79 34.8882 109.326 35.0078 108.955 35.2471C108.589 35.4863 108.313 35.8379 108.127 36.3018C107.947 36.7656 107.856 37.3369 107.856 38.0156C107.856 38.665 107.944 39.2192 108.12 39.6782C108.301 40.1372 108.567 40.4888 108.918 40.7329C109.275 40.9722 109.719 41.0918 110.251 41.0918C110.676 41.0918 111.06 41.0479 111.401 40.96C111.743 40.8672 112.053 40.7598 112.332 40.6377V41.7217C112.063 41.8584 111.763 41.9634 111.431 42.0366C111.104 42.1099 110.713 42.1465 110.259 42.1465ZM115.452 30.6035V34.0093C115.452 34.2046 115.447 34.4023 115.437 34.6025C115.427 34.7979 115.41 34.9785 115.386 35.1445H115.466C115.632 34.8613 115.842 34.6245 116.096 34.4341C116.355 34.2388 116.648 34.0923 116.975 33.9946C117.302 33.8921 117.649 33.8408 118.015 33.8408C118.66 33.8408 119.197 33.9434 119.626 34.1484C120.061 34.3535 120.386 34.6709 120.601 35.1006C120.82 35.5303 120.93 36.0869 120.93 36.7705V42H119.729V36.8511C119.729 36.1821 119.575 35.6816 119.268 35.3496C118.965 35.0176 118.499 34.8516 117.869 34.8516C117.273 34.8516 116.797 34.9663 116.44 35.1958C116.089 35.4204 115.835 35.7524 115.679 36.1919C115.527 36.6313 115.452 37.1685 115.452 37.8032V42H114.236V30.6035H115.452ZM126.438 33.8408C127.395 33.8408 128.105 34.0557 128.569 34.4854C129.033 34.915 129.265 35.6011 129.265 36.5435V42H128.379L128.145 40.8135H128.086C127.861 41.1064 127.627 41.353 127.383 41.5532C127.139 41.7485 126.855 41.8975 126.533 42C126.216 42.0977 125.825 42.1465 125.361 42.1465C124.873 42.1465 124.438 42.061 124.058 41.8901C123.682 41.7192 123.384 41.4604 123.164 41.1138C122.949 40.7671 122.842 40.3276 122.842 39.7954C122.842 38.9946 123.159 38.3794 123.794 37.9497C124.429 37.52 125.396 37.2856 126.694 37.2466L128.079 37.188V36.6973C128.079 36.0039 127.93 35.5181 127.632 35.2397C127.334 34.9614 126.914 34.8223 126.372 34.8223C125.952 34.8223 125.552 34.8833 125.171 35.0054C124.79 35.1274 124.429 35.2715 124.087 35.4375L123.713 34.5146C124.075 34.3291 124.49 34.1704 124.958 34.0386C125.427 33.9067 125.92 33.8408 126.438 33.8408ZM128.064 38.0449L126.841 38.0962C125.84 38.1353 125.134 38.2988 124.724 38.5869C124.314 38.875 124.109 39.2827 124.109 39.8101C124.109 40.269 124.248 40.6084 124.526 40.8281C124.805 41.0479 125.173 41.1577 125.632 41.1577C126.345 41.1577 126.929 40.96 127.383 40.5645C127.837 40.1689 128.064 39.5757 128.064 38.7847V38.0449ZM132.993 42H131.77V30.6035H132.993V42ZM136.787 42H135.564V30.6035H136.787V42ZM142.449 33.8262C143.132 33.8262 143.718 33.9775 144.207 34.2803C144.695 34.583 145.068 35.0078 145.327 35.5547C145.586 36.0967 145.715 36.7314 145.715 37.459V38.2134H140.171C140.186 39.1558 140.42 39.8735 140.874 40.3667C141.328 40.8599 141.968 41.1064 142.793 41.1064C143.301 41.1064 143.75 41.0601 144.141 40.9673C144.531 40.8745 144.937 40.7378 145.356 40.5571V41.6265C144.951 41.8071 144.548 41.939 144.148 42.022C143.752 42.105 143.284 42.1465 142.742 42.1465C141.97 42.1465 141.296 41.9902 140.72 41.6777C140.149 41.3604 139.705 40.8965 139.387 40.2861C139.07 39.6758 138.911 38.9287 138.911 38.0449C138.911 37.1807 139.055 36.4336 139.343 35.8037C139.636 35.1689 140.046 34.6807 140.574 34.3389C141.106 33.9971 141.731 33.8262 142.449 33.8262ZM142.434 34.8223C141.785 34.8223 141.267 35.0347 140.881 35.4595C140.496 35.8843 140.266 36.4775 140.193 37.2393H144.441C144.436 36.7607 144.36 36.3408 144.214 35.9795C144.072 35.6133 143.855 35.3301 143.562 35.1299C143.269 34.9248 142.893 34.8223 142.434 34.8223ZM151.582 33.8262C152.534 33.8262 153.254 34.0605 153.743 34.5293C154.231 34.9932 154.475 35.7402 154.475 36.7705V42H153.274V36.8511C153.274 36.1821 153.12 35.6816 152.812 35.3496C152.51 35.0176 152.043 34.8516 151.414 34.8516C150.525 34.8516 149.9 35.103 149.539 35.606C149.177 36.1089 148.997 36.8389 148.997 37.7959V42H147.781V33.9727H148.762L148.945 35.1299H149.011C149.182 34.8467 149.399 34.6099 149.663 34.4194C149.927 34.2241 150.222 34.0776 150.549 33.98C150.876 33.8774 151.221 33.8262 151.582 33.8262ZM159.221 45.6035C158.167 45.6035 157.354 45.4058 156.782 45.0103C156.211 44.6196 155.925 44.0703 155.925 43.3623C155.925 42.8594 156.084 42.4297 156.401 42.0732C156.724 41.7168 157.168 41.48 157.734 41.3628C157.524 41.2651 157.344 41.1187 157.192 40.9233C157.046 40.728 156.973 40.5034 156.973 40.2495C156.973 39.9565 157.053 39.7002 157.214 39.4805C157.38 39.2559 157.632 39.041 157.969 38.8359C157.549 38.665 157.207 38.377 156.943 37.9717C156.685 37.5615 156.555 37.0854 156.555 36.5435C156.555 35.9673 156.675 35.4766 156.914 35.0713C157.153 34.6611 157.5 34.3486 157.954 34.1338C158.408 33.9189 158.958 33.8115 159.602 33.8115C159.744 33.8115 159.885 33.8188 160.027 33.8335C160.173 33.8433 160.312 33.8604 160.444 33.8848C160.576 33.9043 160.691 33.9287 160.789 33.958H163.542V34.7417L162.063 34.9248C162.209 35.1152 162.332 35.3447 162.429 35.6133C162.527 35.8818 162.576 36.1797 162.576 36.5068C162.576 37.3076 162.305 37.9448 161.763 38.4185C161.221 38.8872 160.476 39.1216 159.529 39.1216C159.304 39.1216 159.075 39.1021 158.84 39.063C158.601 39.1948 158.418 39.3413 158.291 39.5024C158.169 39.6636 158.108 39.8491 158.108 40.0591C158.108 40.2153 158.154 40.3398 158.247 40.4326C158.345 40.5254 158.484 40.5938 158.665 40.6377C158.845 40.6768 159.062 40.6963 159.316 40.6963H160.73C161.604 40.6963 162.273 40.8794 162.737 41.2456C163.206 41.6118 163.44 42.1465 163.44 42.8496C163.44 43.7383 163.079 44.4194 162.356 44.8931C161.633 45.3667 160.588 45.6035 159.221 45.6035ZM159.258 44.6514C159.922 44.6514 160.471 44.583 160.906 44.4463C161.345 44.3145 161.672 44.1216 161.887 43.8677C162.107 43.6187 162.217 43.3208 162.217 42.9741C162.217 42.6519 162.144 42.4077 161.997 42.2417C161.851 42.0806 161.636 41.9731 161.353 41.9194C161.069 41.8608 160.723 41.8315 160.312 41.8315H158.921C158.56 41.8315 158.245 41.8877 157.976 42C157.708 42.1123 157.5 42.2783 157.354 42.498C157.212 42.7178 157.141 42.9912 157.141 43.3184C157.141 43.7529 157.324 44.0825 157.69 44.3071C158.057 44.5366 158.579 44.6514 159.258 44.6514ZM159.573 38.2354C160.154 38.2354 160.591 38.0889 160.884 37.7959C161.177 37.5029 161.323 37.0757 161.323 36.5142C161.323 35.9136 161.174 35.4644 160.876 35.1665C160.579 34.8638 160.139 34.7124 159.558 34.7124C159.001 34.7124 158.572 34.8687 158.269 35.1812C157.971 35.4888 157.822 35.9404 157.822 36.5361C157.822 37.083 157.974 37.5029 158.276 37.7959C158.579 38.0889 159.011 38.2354 159.573 38.2354ZM168.215 33.8262C168.899 33.8262 169.485 33.9775 169.973 34.2803C170.461 34.583 170.835 35.0078 171.094 35.5547C171.353 36.0967 171.482 36.7314 171.482 37.459V38.2134H165.938C165.952 39.1558 166.187 39.8735 166.641 40.3667C167.095 40.8599 167.734 41.1064 168.56 41.1064C169.067 41.1064 169.517 41.0601 169.907 40.9673C170.298 40.8745 170.703 40.7378 171.123 40.5571V41.6265C170.718 41.8071 170.315 41.939 169.915 42.022C169.519 42.105 169.05 42.1465 168.508 42.1465C167.737 42.1465 167.063 41.9902 166.487 41.6777C165.916 41.3604 165.471 40.8965 165.154 40.2861C164.836 39.6758 164.678 38.9287 164.678 38.0449C164.678 37.1807 164.822 36.4336 165.11 35.8037C165.403 35.1689 165.813 34.6807 166.34 34.3389C166.873 33.9971 167.498 33.8262 168.215 33.8262ZM168.201 34.8223C167.551 34.8223 167.034 35.0347 166.648 35.4595C166.262 35.8843 166.033 36.4775 165.959 37.2393H170.208C170.203 36.7607 170.127 36.3408 169.98 35.9795C169.839 35.6133 169.622 35.3301 169.329 35.1299C169.036 34.9248 168.66 34.8223 168.201 34.8223ZM180.659 42.1465C179.937 42.1465 179.299 41.9976 178.748 41.6997C178.196 41.4019 177.766 40.9478 177.458 40.3374C177.151 39.7271 176.997 38.958 176.997 38.0303C176.997 37.0586 177.158 36.2651 177.48 35.6499C177.808 35.0298 178.257 34.5708 178.828 34.2729C179.399 33.9751 180.049 33.8262 180.776 33.8262C181.177 33.8262 181.562 33.8677 181.934 33.9507C182.31 34.0288 182.617 34.1289 182.856 34.251L182.49 35.269C182.246 35.1714 181.963 35.0835 181.641 35.0054C181.323 34.9272 181.025 34.8882 180.747 34.8882C180.19 34.8882 179.727 35.0078 179.355 35.2471C178.989 35.4863 178.713 35.8379 178.528 36.3018C178.347 36.7656 178.257 37.3369 178.257 38.0156C178.257 38.665 178.345 39.2192 178.521 39.6782C178.701 40.1372 178.967 40.4888 179.319 40.7329C179.675 40.9722 180.12 41.0918 180.652 41.0918C181.077 41.0918 181.46 41.0479 181.802 40.96C182.144 40.8672 182.454 40.7598 182.732 40.6377V41.7217C182.463 41.8584 182.163 41.9634 181.831 42.0366C181.504 42.1099 181.113 42.1465 180.659 42.1465ZM191.558 37.9717C191.558 38.6309 191.472 39.2192 191.301 39.7368C191.13 40.2544 190.884 40.6914 190.562 41.0479C190.239 41.4043 189.849 41.6777 189.39 41.8682C188.936 42.0537 188.42 42.1465 187.844 42.1465C187.307 42.1465 186.814 42.0537 186.365 41.8682C185.92 41.6777 185.535 41.4043 185.208 41.0479C184.885 40.6914 184.634 40.2544 184.453 39.7368C184.277 39.2192 184.189 38.6309 184.189 37.9717C184.189 37.0928 184.338 36.3457 184.636 35.7305C184.934 35.1104 185.359 34.6392 185.911 34.3169C186.467 33.9897 187.129 33.8262 187.896 33.8262C188.628 33.8262 189.268 33.9897 189.814 34.3169C190.366 34.644 190.793 35.1177 191.096 35.7378C191.404 36.353 191.558 37.0977 191.558 37.9717ZM185.449 37.9717C185.449 38.6162 185.535 39.1753 185.706 39.6489C185.876 40.1226 186.14 40.4888 186.497 40.7476C186.853 41.0063 187.312 41.1357 187.874 41.1357C188.43 41.1357 188.887 41.0063 189.243 40.7476C189.604 40.4888 189.871 40.1226 190.042 39.6489C190.212 39.1753 190.298 38.6162 190.298 37.9717C190.298 37.332 190.212 36.7803 190.042 36.3164C189.871 35.8477 189.607 35.4863 189.25 35.2324C188.894 34.9785 188.433 34.8516 187.866 34.8516C187.031 34.8516 186.418 35.1274 186.028 35.6792C185.642 36.231 185.449 36.9951 185.449 37.9717ZM202.375 33.8262C203.259 33.8262 203.926 34.0581 204.375 34.522C204.824 34.981 205.049 35.7207 205.049 36.7412V42H203.848V36.7998C203.848 36.1504 203.706 35.6646 203.423 35.3423C203.145 35.0151 202.729 34.8516 202.178 34.8516C201.401 34.8516 200.837 35.0762 200.486 35.5254C200.134 35.9746 199.958 36.6362 199.958 37.5103V42H198.75V36.7998C198.75 36.3652 198.687 36.0039 198.56 35.7158C198.438 35.4277 198.252 35.2129 198.003 35.0713C197.759 34.9248 197.449 34.8516 197.073 34.8516C196.541 34.8516 196.113 34.9614 195.791 35.1812C195.469 35.4009 195.234 35.728 195.088 36.1626C194.946 36.5923 194.875 37.1221 194.875 37.752V42H193.66V33.9727H194.641L194.824 35.1079H194.89C195.051 34.8296 195.254 34.5952 195.498 34.4048C195.742 34.2144 196.016 34.0703 196.318 33.9727C196.621 33.875 196.943 33.8262 197.285 33.8262C197.896 33.8262 198.406 33.9409 198.816 34.1704C199.231 34.395 199.531 34.7393 199.717 35.2031H199.783C200.046 34.7393 200.408 34.395 200.867 34.1704C201.326 33.9409 201.829 33.8262 202.375 33.8262ZM211.318 33.8262C212.319 33.8262 213.118 34.1704 213.713 34.8589C214.309 35.5474 214.607 36.5825 214.607 37.9644C214.607 38.8774 214.47 39.644 214.197 40.2642C213.923 40.8843 213.538 41.353 213.04 41.6704C212.546 41.9878 211.963 42.1465 211.289 42.1465C210.864 42.1465 210.491 42.0903 210.168 41.978C209.846 41.8657 209.57 41.7144 209.341 41.5239C209.111 41.3335 208.921 41.126 208.77 40.9014H208.682C208.696 41.0918 208.713 41.3213 208.733 41.5898C208.757 41.8584 208.77 42.0928 208.77 42.293V45.5889H207.546V33.9727H208.55L208.711 35.1592H208.77C208.926 34.915 209.116 34.6929 209.341 34.4927C209.565 34.2876 209.839 34.1265 210.161 34.0093C210.488 33.8872 210.874 33.8262 211.318 33.8262ZM211.106 34.8516C210.549 34.8516 210.1 34.959 209.758 35.1738C209.421 35.3887 209.175 35.7109 209.019 36.1406C208.862 36.5654 208.779 37.1001 208.77 37.7446V37.979C208.77 38.6577 208.843 39.2314 208.989 39.7002C209.141 40.1689 209.387 40.5254 209.729 40.7695C210.076 41.0137 210.54 41.1357 211.121 41.1357C211.619 41.1357 212.034 41.0015 212.366 40.7329C212.698 40.4644 212.944 40.0908 213.105 39.6123C213.271 39.1289 213.354 38.5747 213.354 37.9497C213.354 37.0024 213.169 36.2505 212.798 35.6938C212.432 35.1323 211.868 34.8516 211.106 34.8516ZM217.954 42H216.731V30.6035H217.954V42ZM223.616 33.8262C224.299 33.8262 224.885 33.9775 225.374 34.2803C225.862 34.583 226.235 35.0078 226.494 35.5547C226.753 36.0967 226.882 36.7314 226.882 37.459V38.2134H221.338C221.353 39.1558 221.587 39.8735 222.041 40.3667C222.495 40.8599 223.135 41.1064 223.96 41.1064C224.468 41.1064 224.917 41.0601 225.308 40.9673C225.698 40.8745 226.104 40.7378 226.523 40.5571V41.6265C226.118 41.8071 225.715 41.939 225.315 42.022C224.919 42.105 224.451 42.1465 223.909 42.1465C223.137 42.1465 222.463 41.9902 221.887 41.6777C221.316 41.3604 220.872 40.8965 220.554 40.2861C220.237 39.6758 220.078 38.9287 220.078 38.0449C220.078 37.1807 220.222 36.4336 220.51 35.8037C220.803 35.1689 221.213 34.6807 221.741 34.3389C222.273 33.9971 222.898 33.8262 223.616 33.8262ZM223.601 34.8223C222.952 34.8223 222.434 35.0347 222.048 35.4595C221.663 35.8843 221.433 36.4775 221.36 37.2393H225.608C225.603 36.7607 225.527 36.3408 225.381 35.9795C225.239 35.6133 225.022 35.3301 224.729 35.1299C224.436 34.9248 224.06 34.8223 223.601 34.8223ZM231.541 41.1504C231.741 41.1504 231.946 41.1333 232.156 41.0991C232.366 41.0649 232.537 41.0234 232.668 40.9746V41.9194C232.527 41.9829 232.329 42.0366 232.075 42.0806C231.826 42.1245 231.582 42.1465 231.343 42.1465C230.918 42.1465 230.532 42.0732 230.186 41.9268C229.839 41.7754 229.561 41.5215 229.351 41.165C229.146 40.8086 229.043 40.3154 229.043 39.6855V34.9248H227.9V34.3315L229.05 33.8555L229.534 32.1123H230.266V33.9727H232.617V34.9248H230.266V39.6489C230.266 40.1519 230.381 40.5278 230.61 40.7769C230.845 41.0259 231.155 41.1504 231.541 41.1504ZM237.385 33.8262C238.069 33.8262 238.655 33.9775 239.143 34.2803C239.631 34.583 240.005 35.0078 240.264 35.5547C240.522 36.0967 240.652 36.7314 240.652 37.459V38.2134H235.107C235.122 39.1558 235.356 39.8735 235.811 40.3667C236.265 40.8599 236.904 41.1064 237.729 41.1064C238.237 41.1064 238.687 41.0601 239.077 40.9673C239.468 40.8745 239.873 40.7378 240.293 40.5571V41.6265C239.888 41.8071 239.485 41.939 239.084 42.022C238.689 42.105 238.22 42.1465 237.678 42.1465C236.907 42.1465 236.233 41.9902 235.657 41.6777C235.085 41.3604 234.641 40.8965 234.324 40.2861C234.006 39.6758 233.848 38.9287 233.848 38.0449C233.848 37.1807 233.992 36.4336 234.28 35.8037C234.573 35.1689 234.983 34.6807 235.51 34.3389C236.042 33.9971 236.667 33.8262 237.385 33.8262ZM237.371 34.8223C236.721 34.8223 236.204 35.0347 235.818 35.4595C235.432 35.8843 235.203 36.4775 235.129 37.2393H239.377C239.373 36.7607 239.297 36.3408 239.15 35.9795C239.009 35.6133 238.792 35.3301 238.499 35.1299C238.206 34.9248 237.83 34.8223 237.371 34.8223ZM245.574 42.1465C244.558 42.1465 243.752 41.7998 243.157 41.1064C242.566 40.4131 242.271 39.3828 242.271 38.0156C242.271 36.6338 242.573 35.5913 243.179 34.8882C243.784 34.1802 244.59 33.8262 245.596 33.8262C246.021 33.8262 246.392 33.8823 246.709 33.9946C247.026 34.1069 247.3 34.2583 247.529 34.4487C247.759 34.6343 247.952 34.8467 248.108 35.0859H248.196C248.176 34.9346 248.157 34.7271 248.137 34.4634C248.118 34.1997 248.108 33.9849 248.108 33.8188V30.6035H249.324V42H248.342L248.159 40.8574H248.108C247.957 41.0967 247.764 41.314 247.529 41.5093C247.3 41.7046 247.024 41.8608 246.702 41.978C246.384 42.0903 246.008 42.1465 245.574 42.1465ZM245.764 41.1357C246.624 41.1357 247.231 40.8916 247.588 40.4033C247.944 39.915 248.123 39.1899 248.123 38.228V38.0083C248.123 36.9878 247.952 36.2041 247.61 35.6572C247.273 35.1104 246.658 34.8369 245.764 34.8369C245.017 34.8369 244.458 35.125 244.087 35.7012C243.716 36.2725 243.53 37.0537 243.53 38.0449C243.53 39.0312 243.713 39.793 244.08 40.3301C244.451 40.8672 245.012 41.1357 245.764 41.1357Z" fill="white"/>
<path d="M0 63H327" stroke="#1A242D"/>
</svg>
