<svg width="327" height="85" viewBox="0 0 327 85" fill="none" xmlns="http://www.w3.org/2000/svg">
<path d="M8.04199 15L6.99463 12.0264H2.90039L1.85303 15H0L3.98438 4.24805H5.93262L9.90967 15H8.04199ZM6.54053 10.5176L5.52246 7.58789C5.4834 7.46094 5.42725 7.28271 5.354 7.05322C5.28076 6.81885 5.20752 6.58203 5.13428 6.34277C5.06104 6.09863 5 5.89355 4.95117 5.72754C4.90234 5.92773 4.84131 6.15234 4.76807 6.40137C4.69971 6.64551 4.63135 6.875 4.56299 7.08984C4.49951 7.30469 4.45068 7.4707 4.4165 7.58789L3.39111 10.5176H6.54053ZM14.165 13.7549C14.3896 13.7549 14.6118 13.7354 14.8315 13.6963C15.0513 13.6523 15.2515 13.6011 15.4321 13.5425V14.8462C15.2417 14.9292 14.9951 15 14.6924 15.0586C14.3896 15.1172 14.0747 15.1465 13.7476 15.1465C13.2886 15.1465 12.876 15.0708 12.5098 14.9194C12.1436 14.7632 11.853 14.4971 11.6382 14.1211C11.4233 13.7451 11.3159 13.2251 11.3159 12.561V8.20312H10.21V7.43408L11.3965 6.82617L11.9604 5.09033H13.0444V6.89209H15.3662V8.20312H13.0444V12.5391C13.0444 12.9492 13.147 13.2544 13.3521 13.4546C13.5571 13.6548 13.8281 13.7549 14.165 13.7549ZM20.0977 13.7549C20.3223 13.7549 20.5444 13.7354 20.7642 13.6963C20.9839 13.6523 21.1841 13.6011 21.3647 13.5425V14.8462C21.1743 14.9292 20.9277 15 20.625 15.0586C20.3223 15.1172 20.0073 15.1465 19.6802 15.1465C19.2212 15.1465 18.8086 15.0708 18.4424 14.9194C18.0762 14.7632 17.7856 14.4971 17.5708 14.1211C17.356 13.7451 17.2485 13.2251 17.2485 12.561V8.20312H16.1426V7.43408L17.3291 6.82617L17.8931 5.09033H18.9771V6.89209H21.2988V8.20312H18.9771V12.5391C18.9771 12.9492 19.0796 13.2544 19.2847 13.4546C19.4897 13.6548 19.7607 13.7549 20.0977 13.7549ZM26.2427 6.73828C26.9653 6.73828 27.5854 6.88721 28.103 7.18506C28.6206 7.48291 29.0186 7.90527 29.2969 8.45215C29.5752 8.99902 29.7144 9.65332 29.7144 10.415V11.3379H24.3018C24.3213 12.124 24.5312 12.7295 24.9316 13.1543C25.3369 13.5791 25.9033 13.7915 26.6309 13.7915C27.1484 13.7915 27.6123 13.7427 28.0225 13.645C28.4375 13.5425 28.8647 13.3936 29.3042 13.1982V14.5972C28.8989 14.7876 28.4863 14.9268 28.0664 15.0146C27.6465 15.1025 27.1436 15.1465 26.5576 15.1465C25.7617 15.1465 25.061 14.9927 24.4556 14.6851C23.855 14.3726 23.3838 13.9087 23.042 13.2935C22.7051 12.6782 22.5366 11.9141 22.5366 11.001C22.5366 10.0928 22.6904 9.32129 22.998 8.68652C23.3057 8.05176 23.7378 7.56836 24.2944 7.23633C24.8511 6.9043 25.5005 6.73828 26.2427 6.73828ZM26.2427 8.03467C25.7007 8.03467 25.2612 8.21045 24.9243 8.56201C24.5923 8.91357 24.397 9.42871 24.3384 10.1074H28.0298C28.0249 9.70215 27.9565 9.34326 27.8247 9.03076C27.6978 8.71826 27.5024 8.47412 27.2388 8.29834C26.98 8.12256 26.6479 8.03467 26.2427 8.03467ZM35.8813 6.73828C36.7944 6.73828 37.5049 6.9751 38.0127 7.44873C38.5254 7.91748 38.7817 8.67188 38.7817 9.71191V15H37.0605V10.0342C37.0605 9.4043 36.9312 8.93311 36.6724 8.62061C36.4136 8.30322 36.0132 8.14453 35.4712 8.14453C34.6851 8.14453 34.1382 8.38623 33.8306 8.86963C33.5278 9.35303 33.3765 10.0537 33.3765 10.9717V15H31.6553V6.89209H32.9956L33.2373 7.99072H33.3325C33.5083 7.70752 33.7256 7.47559 33.9844 7.29492C34.248 7.10938 34.541 6.97021 34.8633 6.87744C35.1904 6.78467 35.5298 6.73828 35.8813 6.73828ZM44.209 13.7549C44.4336 13.7549 44.6558 13.7354 44.8755 13.6963C45.0952 13.6523 45.2954 13.6011 45.4761 13.5425V14.8462C45.2856 14.9292 45.0391 15 44.7363 15.0586C44.4336 15.1172 44.1187 15.1465 43.7915 15.1465C43.3325 15.1465 42.9199 15.0708 42.5537 14.9194C42.1875 14.7632 41.897 14.4971 41.6821 14.1211C41.4673 13.7451 41.3599 13.2251 41.3599 12.561V8.20312H40.2539V7.43408L41.4404 6.82617L42.0044 5.09033H43.0884V6.89209H45.4102V8.20312H43.0884V12.5391C43.0884 12.9492 43.1909 13.2544 43.396 13.4546C43.6011 13.6548 43.8721 13.7549 44.209 13.7549ZM48.8452 6.89209V15H47.124V6.89209H48.8452ZM47.9956 3.78662C48.2593 3.78662 48.4863 3.85742 48.6768 3.99902C48.8721 4.14062 48.9697 4.38477 48.9697 4.73145C48.9697 5.07324 48.8721 5.31738 48.6768 5.46387C48.4863 5.60547 48.2593 5.67627 47.9956 5.67627C47.7222 5.67627 47.4902 5.60547 47.2998 5.46387C47.1143 5.31738 47.0215 5.07324 47.0215 4.73145C47.0215 4.38477 47.1143 4.14062 47.2998 3.99902C47.4902 3.85742 47.7222 3.78662 47.9956 3.78662ZM58.4912 10.9277C58.4912 11.6016 58.4033 12.1997 58.2275 12.7222C58.0518 13.2446 57.7954 13.6865 57.4585 14.0479C57.1216 14.4043 56.7163 14.6777 56.2427 14.8682C55.769 15.0537 55.2344 15.1465 54.6387 15.1465C54.082 15.1465 53.5718 15.0537 53.1079 14.8682C52.644 14.6777 52.2412 14.4043 51.8994 14.0479C51.5625 13.6865 51.3013 13.2446 51.1157 12.7222C50.9302 12.1997 50.8374 11.6016 50.8374 10.9277C50.8374 10.0342 50.9912 9.27734 51.2988 8.65723C51.6113 8.03223 52.0557 7.55615 52.6318 7.229C53.208 6.90186 53.894 6.73828 54.6899 6.73828C55.437 6.73828 56.0962 6.90186 56.6675 7.229C57.2388 7.55615 57.6855 8.03223 58.0078 8.65723C58.3301 9.28223 58.4912 10.0391 58.4912 10.9277ZM52.6099 10.9277C52.6099 11.5186 52.6807 12.0239 52.8223 12.4438C52.9688 12.8638 53.1934 13.186 53.4961 13.4106C53.7988 13.6304 54.1895 13.7402 54.668 13.7402C55.1465 13.7402 55.5371 13.6304 55.8398 13.4106C56.1426 13.186 56.3647 12.8638 56.5063 12.4438C56.6479 12.0239 56.7188 11.5186 56.7188 10.9277C56.7188 10.3369 56.6479 9.83643 56.5063 9.42627C56.3647 9.01123 56.1426 8.69629 55.8398 8.48145C55.5371 8.26172 55.144 8.15186 54.6606 8.15186C53.9478 8.15186 53.4277 8.39111 53.1006 8.86963C52.7734 9.34814 52.6099 10.0342 52.6099 10.9277ZM64.6948 6.73828C65.6079 6.73828 66.3184 6.9751 66.8262 7.44873C67.3389 7.91748 67.5952 8.67188 67.5952 9.71191V15H65.874V10.0342C65.874 9.4043 65.7446 8.93311 65.4858 8.62061C65.2271 8.30322 64.8267 8.14453 64.2847 8.14453C63.4985 8.14453 62.9517 8.38623 62.644 8.86963C62.3413 9.35303 62.1899 10.0537 62.1899 10.9717V15H60.4688V6.89209H61.8091L62.0508 7.99072H62.146C62.3218 7.70752 62.5391 7.47559 62.7979 7.29492C63.0615 7.10938 63.3545 6.97021 63.6768 6.87744C64.0039 6.78467 64.3433 6.73828 64.6948 6.73828Z" fill="white"/>
<path d="M284.706 8.67432C284.706 9.23714 284.665 9.78516 284.585 10.3184C284.509 10.8516 284.375 11.3488 284.185 11.8101C283.999 12.2713 283.745 12.6755 283.423 13.0225C283.102 13.3695 282.698 13.6424 282.211 13.8413C281.729 14.036 281.151 14.1333 280.478 14.1333C280.296 14.1333 280.089 14.1206 279.856 14.0952C279.623 14.0741 279.433 14.0423 279.285 14V13.0859C279.441 13.141 279.625 13.1854 279.837 13.2192C280.049 13.2489 280.256 13.2637 280.459 13.2637C281.25 13.2637 281.872 13.0944 282.325 12.7559C282.778 12.4131 283.104 11.9497 283.303 11.3657C283.502 10.7775 283.614 10.1174 283.639 9.38525H283.563C283.436 9.58838 283.269 9.77669 283.062 9.9502C282.858 10.1195 282.611 10.257 282.319 10.3628C282.027 10.4644 281.686 10.5151 281.297 10.5151C280.759 10.5151 280.29 10.4051 279.888 10.1851C279.49 9.96501 279.179 9.64551 278.955 9.22656C278.735 8.80762 278.625 8.30192 278.625 7.70947C278.625 7.07048 278.745 6.51823 278.986 6.05273C279.232 5.58301 279.575 5.22119 280.015 4.96729C280.455 4.71338 280.973 4.58643 281.57 4.58643C282.027 4.58643 282.446 4.67318 282.827 4.84668C283.208 5.02018 283.538 5.28044 283.817 5.62744C284.1 5.97021 284.318 6.39551 284.471 6.90332C284.627 7.41113 284.706 8.00146 284.706 8.67432ZM281.57 5.48145C281.007 5.48145 280.55 5.66553 280.199 6.03369C279.852 6.40186 279.678 6.95622 279.678 7.69678C279.678 8.31038 279.828 8.79492 280.129 9.15039C280.429 9.50586 280.893 9.68359 281.519 9.68359C281.951 9.68359 282.323 9.59684 282.636 9.42334C282.954 9.24984 283.197 9.02979 283.366 8.76318C283.54 8.49658 283.626 8.22363 283.626 7.94434C283.626 7.66504 283.584 7.38151 283.5 7.09375C283.419 6.80599 283.294 6.5415 283.125 6.30029C282.956 6.05485 282.742 5.85807 282.484 5.70996C282.226 5.55762 281.921 5.48145 281.57 5.48145ZM286.362 13.3398C286.362 13.0436 286.434 12.8341 286.578 12.7114C286.722 12.5845 286.898 12.521 287.105 12.521C287.321 12.521 287.503 12.5845 287.651 12.7114C287.799 12.8341 287.873 13.0436 287.873 13.3398C287.873 13.6318 287.799 13.8455 287.651 13.981C287.503 14.1121 287.321 14.1777 287.105 14.1777C286.898 14.1777 286.722 14.1121 286.578 13.981C286.434 13.8455 286.362 13.6318 286.362 13.3398ZM286.362 7.70947C286.362 7.40479 286.434 7.19108 286.578 7.06836C286.722 6.94141 286.898 6.87793 287.105 6.87793C287.321 6.87793 287.503 6.94141 287.651 7.06836C287.799 7.19108 287.873 7.40479 287.873 7.70947C287.873 7.99723 287.799 8.20671 287.651 8.33789C287.503 8.46908 287.321 8.53467 287.105 8.53467C286.898 8.53467 286.722 8.46908 286.578 8.33789C286.434 8.20671 286.362 7.99723 286.362 7.70947ZM295.205 6.88428C295.205 7.29899 295.124 7.65869 294.963 7.96338C294.803 8.26807 294.578 8.51774 294.291 8.7124C294.003 8.90283 293.664 9.03613 293.275 9.1123V9.16309C294.011 9.25618 294.563 9.49316 294.932 9.87402C295.304 10.2549 295.49 10.7542 295.49 11.3721C295.49 11.9095 295.363 12.3856 295.109 12.8003C294.86 13.215 294.475 13.5409 293.954 13.7778C293.438 14.0106 292.776 14.127 291.967 14.127C291.476 14.127 291.021 14.0868 290.603 14.0063C290.188 13.9302 289.79 13.8011 289.409 13.6191V12.6289C289.794 12.8193 290.213 12.9696 290.666 13.0796C291.119 13.1854 291.557 13.2383 291.98 13.2383C292.826 13.2383 293.438 13.0711 293.814 12.7368C294.191 12.3983 294.379 11.937 294.379 11.353C294.379 10.951 294.274 10.6273 294.062 10.3818C293.855 10.1322 293.554 9.9502 293.161 9.83594C292.771 9.71745 292.302 9.6582 291.751 9.6582H290.825V8.75684H291.758C292.261 8.75684 292.689 8.68278 293.04 8.53467C293.391 8.38656 293.658 8.1792 293.84 7.9126C294.026 7.64176 294.119 7.32227 294.119 6.9541C294.119 6.48438 293.963 6.12256 293.649 5.86865C293.336 5.61051 292.911 5.48145 292.374 5.48145C292.043 5.48145 291.743 5.5153 291.472 5.58301C291.201 5.65072 290.947 5.74382 290.71 5.8623C290.473 5.98079 290.236 6.11833 290 6.2749L289.466 5.55127C289.805 5.2889 290.217 5.0625 290.704 4.87207C291.191 4.68164 291.743 4.58643 292.361 4.58643C293.309 4.58643 294.02 4.80225 294.494 5.23389C294.968 5.66553 295.205 6.21566 295.205 6.88428ZM299.972 4.58643C300.509 4.58643 300.985 4.67106 301.4 4.84033C301.815 5.0096 302.138 5.25928 302.371 5.58936C302.608 5.9152 302.727 6.31722 302.727 6.79541C302.727 7.17204 302.644 7.50212 302.479 7.78564C302.318 8.06494 302.1 8.31038 301.825 8.52197C301.55 8.72933 301.245 8.91553 300.911 9.08057C301.309 9.26253 301.667 9.46777 301.984 9.69629C302.306 9.9248 302.559 10.1935 302.746 10.5024C302.932 10.8114 303.025 11.1774 303.025 11.6006C303.025 12.1211 302.898 12.5718 302.644 12.9526C302.394 13.3293 302.043 13.6191 301.59 13.8223C301.138 14.0254 300.606 14.127 299.997 14.127C299.341 14.127 298.783 14.0296 298.321 13.835C297.864 13.6361 297.515 13.3525 297.274 12.9844C297.037 12.612 296.918 12.1655 296.918 11.645C296.918 11.2176 297.009 10.8473 297.191 10.5342C297.373 10.2168 297.615 9.94385 297.915 9.71533C298.215 9.48682 298.543 9.29427 298.899 9.1377C298.59 8.96842 298.306 8.77588 298.048 8.56006C297.794 8.34424 297.591 8.09245 297.439 7.80469C297.291 7.5127 297.217 7.17415 297.217 6.78906C297.217 6.31934 297.335 5.92155 297.572 5.5957C297.813 5.26562 298.141 5.01595 298.556 4.84668C298.975 4.67318 299.447 4.58643 299.972 4.58643ZM297.953 11.6514C297.953 12.1253 298.12 12.5168 298.455 12.8257C298.789 13.1304 299.295 13.2827 299.972 13.2827C300.615 13.2827 301.112 13.1304 301.463 12.8257C301.815 12.5168 301.99 12.1126 301.99 11.6133C301.99 11.3044 301.91 11.0335 301.749 10.8008C301.588 10.5638 301.36 10.3522 301.063 10.166C300.767 9.97982 300.418 9.81055 300.016 9.6582L299.788 9.57568C299.398 9.73649 299.066 9.91634 298.791 10.1152C298.52 10.3099 298.313 10.5321 298.169 10.7817C298.025 11.0314 297.953 11.3213 297.953 11.6514ZM299.959 5.44971C299.46 5.44971 299.051 5.57031 298.734 5.81152C298.417 6.0485 298.258 6.39128 298.258 6.83984C298.258 7.16146 298.334 7.43441 298.486 7.65869C298.643 7.87874 298.854 8.06917 299.121 8.22998C299.388 8.38656 299.686 8.53255 300.016 8.66797C300.338 8.53255 300.623 8.38444 300.873 8.22363C301.123 8.05859 301.319 7.86393 301.463 7.63965C301.607 7.41536 301.679 7.14665 301.679 6.8335C301.679 6.38493 301.521 6.04215 301.203 5.80518C300.89 5.5682 300.475 5.44971 299.959 5.44971ZM314.171 14L313.029 11.0547H309.309L308.173 14H307.081L310.712 4.68164H311.683L315.289 14H314.171ZM312.705 10.0962L311.62 7.16992C311.594 7.09375 311.552 6.96891 311.493 6.79541C311.438 6.62191 311.381 6.44206 311.321 6.25586C311.262 6.06966 311.213 5.91943 311.175 5.80518C311.133 5.97868 311.086 6.15218 311.036 6.32568C310.989 6.49495 310.943 6.65365 310.896 6.80176C310.849 6.94564 310.809 7.06836 310.775 7.16992L309.671 10.0962H312.705ZM320.659 14L317.542 5.78613H317.491C317.508 5.95964 317.523 6.17122 317.536 6.4209C317.548 6.67057 317.559 6.94352 317.567 7.23975C317.576 7.53174 317.58 7.83008 317.58 8.13477V14H316.577V4.71973H318.177L321.116 12.4385H321.16L324.144 4.71973H325.73V14H324.664V8.05859C324.664 7.78353 324.668 7.50846 324.677 7.2334C324.685 6.9541 324.696 6.69173 324.708 6.44629C324.721 6.19661 324.734 5.98079 324.747 5.79883H324.696L321.541 14H320.659Z" fill="white"/>
<path d="M4.19678 36.6606L7.0459 31.292H8.38623L4.81934 37.8472V42H3.57422V37.9058L0 31.292H1.3623L4.19678 36.6606ZM16.5967 37.9717C16.5967 38.6309 16.5112 39.2192 16.3403 39.7368C16.1694 40.2544 15.9229 40.6914 15.6006 41.0479C15.2783 41.4043 14.8877 41.6777 14.4287 41.8682C13.9746 42.0537 13.4595 42.1465 12.8833 42.1465C12.3462 42.1465 11.853 42.0537 11.4038 41.8682C10.9595 41.6777 10.5737 41.4043 10.2466 41.0479C9.92432 40.6914 9.67285 40.2544 9.49219 39.7368C9.31641 39.2192 9.22852 38.6309 9.22852 37.9717C9.22852 37.0928 9.37744 36.3457 9.67529 35.7305C9.97314 35.1104 10.3979 34.6392 10.9497 34.3169C11.5063 33.9897 12.168 33.8262 12.9346 33.8262C13.667 33.8262 14.3066 33.9897 14.8535 34.3169C15.4053 34.644 15.8325 35.1177 16.1353 35.7378C16.4429 36.353 16.5967 37.0977 16.5967 37.9717ZM10.4883 37.9717C10.4883 38.6162 10.5737 39.1753 10.7446 39.6489C10.9155 40.1226 11.1792 40.4888 11.5356 40.7476C11.8921 41.0063 12.3511 41.1357 12.9126 41.1357C13.4692 41.1357 13.9258 41.0063 14.2822 40.7476C14.6436 40.4888 14.9097 40.1226 15.0806 39.6489C15.2515 39.1753 15.3369 38.6162 15.3369 37.9717C15.3369 37.332 15.2515 36.7803 15.0806 36.3164C14.9097 35.8477 14.646 35.4863 14.2896 35.2324C13.9331 34.9785 13.4717 34.8516 12.9053 34.8516C12.0703 34.8516 11.4575 35.1274 11.0669 35.6792C10.6812 36.231 10.4883 36.9951 10.4883 37.9717ZM25.3271 33.9727V42H24.3311L24.1553 40.8721H24.0894C23.9233 41.1504 23.7085 41.3848 23.4448 41.5752C23.1812 41.7656 22.8833 41.9072 22.5513 42C22.2241 42.0977 21.875 42.1465 21.5039 42.1465C20.8691 42.1465 20.3369 42.0439 19.9072 41.8389C19.4775 41.6338 19.1528 41.3164 18.9331 40.8867C18.7183 40.457 18.6108 39.9053 18.6108 39.2314V33.9727H19.8413V39.1436C19.8413 39.8125 19.9927 40.313 20.2954 40.645C20.5981 40.9722 21.0596 41.1357 21.6797 41.1357C22.2754 41.1357 22.749 41.0234 23.1006 40.7988C23.457 40.5742 23.7134 40.2446 23.8696 39.8101C24.0259 39.3706 24.104 38.8335 24.104 38.1987V33.9727H25.3271ZM31.5454 33.8262C31.7065 33.8262 31.875 33.8359 32.0508 33.8555C32.2266 33.8701 32.3828 33.8921 32.5195 33.9214L32.3657 35.0493C32.2339 35.0151 32.0874 34.9883 31.9263 34.9688C31.7651 34.9492 31.6138 34.9395 31.4722 34.9395C31.1499 34.9395 30.8447 35.0054 30.5566 35.1372C30.2734 35.2642 30.0244 35.4497 29.8096 35.6938C29.5947 35.9331 29.4263 36.2236 29.3042 36.5654C29.1821 36.9023 29.1211 37.2783 29.1211 37.6934V42H27.8979V33.9727H28.9087L29.0405 35.4521H29.0918C29.2578 35.1543 29.458 34.8833 29.6924 34.6392C29.9268 34.3901 30.1978 34.1924 30.5054 34.0459C30.8179 33.8994 31.1646 33.8262 31.5454 33.8262ZM43.125 39.8027C43.125 40.3154 42.9956 40.7476 42.7368 41.0991C42.4829 41.4458 42.1167 41.707 41.6382 41.8828C41.1646 42.0586 40.5981 42.1465 39.939 42.1465C39.3774 42.1465 38.8916 42.1025 38.4814 42.0146C38.0713 41.9268 37.7124 41.8022 37.4048 41.6411V40.5205C37.7319 40.6816 38.1226 40.8281 38.5767 40.96C39.0308 41.0918 39.4946 41.1577 39.9683 41.1577C40.6616 41.1577 41.1646 41.0454 41.4771 40.8208C41.7896 40.5962 41.9458 40.291 41.9458 39.9053C41.9458 39.6855 41.8823 39.4927 41.7554 39.3267C41.6333 39.1558 41.4258 38.9922 41.1328 38.8359C40.8398 38.6748 40.4346 38.499 39.917 38.3086C39.4043 38.1133 38.96 37.9204 38.584 37.73C38.2129 37.5347 37.9248 37.2979 37.7197 37.0195C37.5195 36.7412 37.4194 36.3799 37.4194 35.9355C37.4194 35.2568 37.6929 34.7368 38.2397 34.3755C38.7915 34.0093 39.5142 33.8262 40.4077 33.8262C40.8911 33.8262 41.3428 33.875 41.7627 33.9727C42.1875 34.0654 42.583 34.1924 42.9492 34.3535L42.5391 35.3276C42.207 35.186 41.853 35.0664 41.4771 34.9688C41.1011 34.8711 40.7178 34.8223 40.3271 34.8223C39.7656 34.8223 39.3335 34.915 39.0308 35.1006C38.7329 35.2861 38.584 35.54 38.584 35.8623C38.584 36.1113 38.6523 36.3164 38.7891 36.4775C38.9307 36.6387 39.1553 36.79 39.4629 36.9316C39.7705 37.0732 40.1758 37.2393 40.6787 37.4297C41.1816 37.6152 41.6162 37.8081 41.9824 38.0083C42.3486 38.2036 42.6294 38.4429 42.8247 38.7261C43.0249 39.0044 43.125 39.3633 43.125 39.8027ZM51.709 33.9727V42H50.7129L50.5371 40.8721H50.4712C50.3052 41.1504 50.0903 41.3848 49.8267 41.5752C49.563 41.7656 49.2651 41.9072 48.9331 42C48.606 42.0977 48.2568 42.1465 47.8857 42.1465C47.251 42.1465 46.7188 42.0439 46.2891 41.8389C45.8594 41.6338 45.5347 41.3164 45.3149 40.8867C45.1001 40.457 44.9927 39.9053 44.9927 39.2314V33.9727H46.2231V39.1436C46.2231 39.8125 46.3745 40.313 46.6772 40.645C46.98 40.9722 47.4414 41.1357 48.0615 41.1357C48.6572 41.1357 49.1309 41.0234 49.4824 40.7988C49.8389 40.5742 50.0952 40.2446 50.2515 39.8101C50.4077 39.3706 50.4858 38.8335 50.4858 38.1987V33.9727H51.709ZM55.4956 30.6035V33.4526C55.4956 33.7798 55.4858 34.0972 55.4663 34.4048C55.4517 34.7124 55.4395 34.9517 55.4297 35.1226H55.4956C55.7153 34.7612 56.0327 34.4561 56.4478 34.207C56.8628 33.958 57.3926 33.8335 58.0371 33.8335C59.043 33.8335 59.8438 34.1826 60.4395 34.8809C61.04 35.5742 61.3403 36.6069 61.3403 37.979C61.3403 38.8823 61.2036 39.644 60.9302 40.2642C60.6567 40.8843 60.271 41.353 59.7729 41.6704C59.2749 41.9878 58.6865 42.1465 58.0078 42.1465C57.373 42.1465 56.8506 42.0293 56.4404 41.7949C56.0352 41.5557 55.7227 41.2651 55.5029 40.9233H55.4077L55.1587 42H54.2798V30.6035H55.4956ZM57.8394 34.8516C57.2583 34.8516 56.7969 34.9663 56.4551 35.1958C56.1133 35.4204 55.8667 35.7622 55.7153 36.2212C55.5688 36.6753 55.4956 37.2515 55.4956 37.9497V38.0156C55.4956 39.0264 55.6641 39.8003 56.001 40.3374C56.3379 40.8696 56.9507 41.1357 57.8394 41.1357C58.5864 41.1357 59.1455 40.8623 59.5166 40.3154C59.8926 39.7686 60.0806 38.9873 60.0806 37.9717C60.0806 36.9365 59.895 36.1577 59.5239 35.6353C59.1577 35.1128 58.5962 34.8516 57.8394 34.8516ZM68.6572 39.8027C68.6572 40.3154 68.5278 40.7476 68.269 41.0991C68.0151 41.4458 67.6489 41.707 67.1704 41.8828C66.6968 42.0586 66.1304 42.1465 65.4712 42.1465C64.9097 42.1465 64.4238 42.1025 64.0137 42.0146C63.6035 41.9268 63.2446 41.8022 62.937 41.6411V40.5205C63.2642 40.6816 63.6548 40.8281 64.1089 40.96C64.563 41.0918 65.0269 41.1577 65.5005 41.1577C66.1938 41.1577 66.6968 41.0454 67.0093 40.8208C67.3218 40.5962 67.478 40.291 67.478 39.9053C67.478 39.6855 67.4146 39.4927 67.2876 39.3267C67.1655 39.1558 66.958 38.9922 66.665 38.8359C66.3721 38.6748 65.9668 38.499 65.4492 38.3086C64.9365 38.1133 64.4922 37.9204 64.1162 37.73C63.7451 37.5347 63.457 37.2979 63.252 37.0195C63.0518 36.7412 62.9517 36.3799 62.9517 35.9355C62.9517 35.2568 63.2251 34.7368 63.772 34.3755C64.3237 34.0093 65.0464 33.8262 65.9399 33.8262C66.4233 33.8262 66.875 33.875 67.2949 33.9727C67.7197 34.0654 68.1152 34.1924 68.4814 34.3535L68.0713 35.3276C67.7393 35.186 67.3853 35.0664 67.0093 34.9688C66.6333 34.8711 66.25 34.8223 65.8594 34.8223C65.2979 34.8223 64.8657 34.915 64.563 35.1006C64.2651 35.2861 64.1162 35.54 64.1162 35.8623C64.1162 36.1113 64.1846 36.3164 64.3213 36.4775C64.4629 36.6387 64.6875 36.79 64.9951 36.9316C65.3027 37.0732 65.708 37.2393 66.2109 37.4297C66.7139 37.6152 67.1484 37.8081 67.5146 38.0083C67.8809 38.2036 68.1616 38.4429 68.3569 38.7261C68.5571 39.0044 68.6572 39.3633 68.6572 39.8027ZM73.8281 42.1465C73.1055 42.1465 72.4683 41.9976 71.9165 41.6997C71.3647 41.4019 70.9351 40.9478 70.6274 40.3374C70.3198 39.7271 70.166 38.958 70.166 38.0303C70.166 37.0586 70.3271 36.2651 70.6494 35.6499C70.9766 35.0298 71.4258 34.5708 71.9971 34.2729C72.5684 33.9751 73.2178 33.8262 73.9453 33.8262C74.3457 33.8262 74.7314 33.8677 75.1025 33.9507C75.4785 34.0288 75.7861 34.1289 76.0254 34.251L75.6592 35.269C75.415 35.1714 75.1318 35.0835 74.8096 35.0054C74.4922 34.9272 74.1943 34.8882 73.916 34.8882C73.3594 34.8882 72.8955 35.0078 72.5244 35.2471C72.1582 35.4863 71.8823 35.8379 71.6968 36.3018C71.5161 36.7656 71.4258 37.3369 71.4258 38.0156C71.4258 38.665 71.5137 39.2192 71.6895 39.6782C71.8701 40.1372 72.1362 40.4888 72.4878 40.7329C72.8442 40.9722 73.2886 41.0918 73.8208 41.0918C74.2456 41.0918 74.6289 41.0479 74.9707 40.96C75.3125 40.8672 75.6226 40.7598 75.9009 40.6377V41.7217C75.6323 41.8584 75.332 41.9634 75 42.0366C74.6729 42.1099 74.2822 42.1465 73.8281 42.1465ZM81.4526 33.8262C81.6138 33.8262 81.7822 33.8359 81.958 33.8555C82.1338 33.8701 82.29 33.8921 82.4268 33.9214L82.2729 35.0493C82.1411 35.0151 81.9946 34.9883 81.8335 34.9688C81.6724 34.9492 81.521 34.9395 81.3794 34.9395C81.0571 34.9395 80.752 35.0054 80.4639 35.1372C80.1807 35.2642 79.9316 35.4497 79.7168 35.6938C79.502 35.9331 79.3335 36.2236 79.2114 36.5654C79.0894 36.9023 79.0283 37.2783 79.0283 37.6934V42H77.8052V33.9727H78.8159L78.9478 35.4521H78.999C79.165 35.1543 79.3652 34.8833 79.5996 34.6392C79.834 34.3901 80.105 34.1924 80.4126 34.0459C80.7251 33.8994 81.0718 33.8262 81.4526 33.8262ZM85.1587 33.9727V42H83.9429V33.9727H85.1587ZM84.5654 30.9697C84.7656 30.9697 84.9365 31.0356 85.0781 31.1675C85.2246 31.2944 85.2979 31.4946 85.2979 31.7681C85.2979 32.0366 85.2246 32.2368 85.0781 32.3687C84.9365 32.5005 84.7656 32.5664 84.5654 32.5664C84.3555 32.5664 84.1797 32.5005 84.0381 32.3687C83.9014 32.2368 83.833 32.0366 83.833 31.7681C83.833 31.4946 83.9014 31.2944 84.0381 31.1675C84.1797 31.0356 84.3555 30.9697 84.5654 30.9697ZM91.5088 33.8262C92.5098 33.8262 93.3081 34.1704 93.9038 34.8589C94.4995 35.5474 94.7974 36.5825 94.7974 37.9644C94.7974 38.8774 94.6606 39.644 94.3872 40.2642C94.1138 40.8843 93.728 41.353 93.23 41.6704C92.7368 41.9878 92.1533 42.1465 91.4795 42.1465C91.0547 42.1465 90.6812 42.0903 90.3589 41.978C90.0366 41.8657 89.7607 41.7144 89.5312 41.5239C89.3018 41.3335 89.1113 41.126 88.96 40.9014H88.8721C88.8867 41.0918 88.9038 41.3213 88.9233 41.5898C88.9478 41.8584 88.96 42.0928 88.96 42.293V45.5889H87.7368V33.9727H88.7402L88.9014 35.1592H88.96C89.1162 34.915 89.3066 34.6929 89.5312 34.4927C89.7559 34.2876 90.0293 34.1265 90.3516 34.0093C90.6787 33.8872 91.0645 33.8262 91.5088 33.8262ZM91.2964 34.8516C90.7397 34.8516 90.2905 34.959 89.9487 35.1738C89.6118 35.3887 89.3652 35.7109 89.209 36.1406C89.0527 36.5654 88.9697 37.1001 88.96 37.7446V37.979C88.96 38.6577 89.0332 39.2314 89.1797 39.7002C89.3311 40.1689 89.5776 40.5254 89.9194 40.7695C90.2661 41.0137 90.73 41.1357 91.311 41.1357C91.8091 41.1357 92.2241 41.0015 92.5562 40.7329C92.8882 40.4644 93.1348 40.0908 93.2959 39.6123C93.4619 39.1289 93.5449 38.5747 93.5449 37.9497C93.5449 37.0024 93.3594 36.2505 92.9883 35.6938C92.6221 35.1323 92.0581 34.8516 91.2964 34.8516ZM99.5142 41.1504C99.7144 41.1504 99.9194 41.1333 100.129 41.0991C100.339 41.0649 100.51 41.0234 100.642 40.9746V41.9194C100.5 41.9829 100.303 42.0366 100.049 42.0806C99.7998 42.1245 99.5557 42.1465 99.3164 42.1465C98.8916 42.1465 98.5059 42.0732 98.1592 41.9268C97.8125 41.7754 97.5342 41.5215 97.3242 41.165C97.1191 40.8086 97.0166 40.3154 97.0166 39.6855V34.9248H95.874V34.3315L97.0239 33.8555L97.5073 32.1123H98.2397V33.9727H100.591V34.9248H98.2397V39.6489C98.2397 40.1519 98.3545 40.5278 98.584 40.7769C98.8184 41.0259 99.1284 41.1504 99.5142 41.1504ZM103.484 33.9727V42H102.268V33.9727H103.484ZM102.891 30.9697C103.091 30.9697 103.262 31.0356 103.403 31.1675C103.55 31.2944 103.623 31.4946 103.623 31.7681C103.623 32.0366 103.55 32.2368 103.403 32.3687C103.262 32.5005 103.091 32.5664 102.891 32.5664C102.681 32.5664 102.505 32.5005 102.363 32.3687C102.227 32.2368 102.158 32.0366 102.158 31.7681C102.158 31.4946 102.227 31.2944 102.363 31.1675C102.505 31.0356 102.681 30.9697 102.891 30.9697ZM112.983 37.9717C112.983 38.6309 112.898 39.2192 112.727 39.7368C112.556 40.2544 112.31 40.6914 111.987 41.0479C111.665 41.4043 111.274 41.6777 110.815 41.8682C110.361 42.0537 109.846 42.1465 109.27 42.1465C108.733 42.1465 108.24 42.0537 107.791 41.8682C107.346 41.6777 106.96 41.4043 106.633 41.0479C106.311 40.6914 106.06 40.2544 105.879 39.7368C105.703 39.2192 105.615 38.6309 105.615 37.9717C105.615 37.0928 105.764 36.3457 106.062 35.7305C106.36 35.1104 106.785 34.6392 107.336 34.3169C107.893 33.9897 108.555 33.8262 109.321 33.8262C110.054 33.8262 110.693 33.9897 111.24 34.3169C111.792 34.644 112.219 35.1177 112.522 35.7378C112.83 36.353 112.983 37.0977 112.983 37.9717ZM106.875 37.9717C106.875 38.6162 106.96 39.1753 107.131 39.6489C107.302 40.1226 107.566 40.4888 107.922 40.7476C108.279 41.0063 108.738 41.1357 109.299 41.1357C109.856 41.1357 110.312 41.0063 110.669 40.7476C111.03 40.4888 111.296 40.1226 111.467 39.6489C111.638 39.1753 111.724 38.6162 111.724 37.9717C111.724 37.332 111.638 36.7803 111.467 36.3164C111.296 35.8477 111.033 35.4863 110.676 35.2324C110.32 34.9785 109.858 34.8516 109.292 34.8516C108.457 34.8516 107.844 35.1274 107.454 35.6792C107.068 36.231 106.875 36.9951 106.875 37.9717ZM118.887 33.8262C119.839 33.8262 120.559 34.0605 121.047 34.5293C121.536 34.9932 121.78 35.7402 121.78 36.7705V42H120.579V36.8511C120.579 36.1821 120.425 35.6816 120.117 35.3496C119.814 35.0176 119.348 34.8516 118.718 34.8516C117.83 34.8516 117.205 35.103 116.843 35.606C116.482 36.1089 116.301 36.8389 116.301 37.7959V42H115.085V33.9727H116.067L116.25 35.1299H116.316C116.487 34.8467 116.704 34.6099 116.968 34.4194C117.231 34.2241 117.527 34.0776 117.854 33.98C118.181 33.8774 118.525 33.8262 118.887 33.8262ZM129.397 33.9727V42H128.181V33.9727H129.397ZM128.804 30.9697C129.004 30.9697 129.175 31.0356 129.316 31.1675C129.463 31.2944 129.536 31.4946 129.536 31.7681C129.536 32.0366 129.463 32.2368 129.316 32.3687C129.175 32.5005 129.004 32.5664 128.804 32.5664C128.594 32.5664 128.418 32.5005 128.276 32.3687C128.14 32.2368 128.071 32.0366 128.071 31.7681C128.071 31.4946 128.14 31.2944 128.276 31.1675C128.418 31.0356 128.594 30.9697 128.804 30.9697ZM137.168 39.8027C137.168 40.3154 137.039 40.7476 136.78 41.0991C136.526 41.4458 136.16 41.707 135.681 41.8828C135.208 42.0586 134.641 42.1465 133.982 42.1465C133.42 42.1465 132.935 42.1025 132.524 42.0146C132.114 41.9268 131.755 41.8022 131.448 41.6411V40.5205C131.775 40.6816 132.166 40.8281 132.62 40.96C133.074 41.0918 133.538 41.1577 134.011 41.1577C134.705 41.1577 135.208 41.0454 135.52 40.8208C135.833 40.5962 135.989 40.291 135.989 39.9053C135.989 39.6855 135.925 39.4927 135.798 39.3267C135.676 39.1558 135.469 38.9922 135.176 38.8359C134.883 38.6748 134.478 38.499 133.96 38.3086C133.447 38.1133 133.003 37.9204 132.627 37.73C132.256 37.5347 131.968 37.2979 131.763 37.0195C131.562 36.7412 131.462 36.3799 131.462 35.9355C131.462 35.2568 131.736 34.7368 132.283 34.3755C132.834 34.0093 133.557 33.8262 134.451 33.8262C134.934 33.8262 135.386 33.875 135.806 33.9727C136.23 34.0654 136.626 34.1924 136.992 34.3535L136.582 35.3276C136.25 35.186 135.896 35.0664 135.52 34.9688C135.144 34.8711 134.761 34.8223 134.37 34.8223C133.809 34.8223 133.376 34.915 133.074 35.1006C132.776 35.2861 132.627 35.54 132.627 35.8623C132.627 36.1113 132.695 36.3164 132.832 36.4775C132.974 36.6387 133.198 36.79 133.506 36.9316C133.813 37.0732 134.219 37.2393 134.722 37.4297C135.225 37.6152 135.659 37.8081 136.025 38.0083C136.392 38.2036 136.672 38.4429 136.868 38.7261C137.068 39.0044 137.168 39.3633 137.168 39.8027ZM145.261 45.6035C144.207 45.6035 143.394 45.4058 142.822 45.0103C142.251 44.6196 141.965 44.0703 141.965 43.3623C141.965 42.8594 142.124 42.4297 142.441 42.0732C142.764 41.7168 143.208 41.48 143.774 41.3628C143.564 41.2651 143.384 41.1187 143.232 40.9233C143.086 40.728 143.013 40.5034 143.013 40.2495C143.013 39.9565 143.093 39.7002 143.254 39.4805C143.42 39.2559 143.672 39.041 144.009 38.8359C143.589 38.665 143.247 38.377 142.983 37.9717C142.725 37.5615 142.595 37.0854 142.595 36.5435C142.595 35.9673 142.715 35.4766 142.954 35.0713C143.193 34.6611 143.54 34.3486 143.994 34.1338C144.448 33.9189 144.998 33.8115 145.642 33.8115C145.784 33.8115 145.925 33.8188 146.067 33.8335C146.213 33.8433 146.353 33.8604 146.484 33.8848C146.616 33.9043 146.731 33.9287 146.829 33.958H149.583V34.7417L148.103 34.9248C148.25 35.1152 148.372 35.3447 148.469 35.6133C148.567 35.8818 148.616 36.1797 148.616 36.5068C148.616 37.3076 148.345 37.9448 147.803 38.4185C147.261 38.8872 146.516 39.1216 145.569 39.1216C145.344 39.1216 145.115 39.1021 144.88 39.063C144.641 39.1948 144.458 39.3413 144.331 39.5024C144.209 39.6636 144.148 39.8491 144.148 40.0591C144.148 40.2153 144.194 40.3398 144.287 40.4326C144.385 40.5254 144.524 40.5938 144.705 40.6377C144.885 40.6768 145.103 40.6963 145.356 40.6963H146.77C147.644 40.6963 148.313 40.8794 148.777 41.2456C149.246 41.6118 149.48 42.1465 149.48 42.8496C149.48 43.7383 149.119 44.4194 148.396 44.8931C147.673 45.3667 146.628 45.6035 145.261 45.6035ZM145.298 44.6514C145.962 44.6514 146.511 44.583 146.946 44.4463C147.385 44.3145 147.712 44.1216 147.927 43.8677C148.147 43.6187 148.257 43.3208 148.257 42.9741C148.257 42.6519 148.184 42.4077 148.037 42.2417C147.891 42.0806 147.676 41.9731 147.393 41.9194C147.109 41.8608 146.763 41.8315 146.353 41.8315H144.961C144.6 41.8315 144.285 41.8877 144.016 42C143.748 42.1123 143.54 42.2783 143.394 42.498C143.252 42.7178 143.181 42.9912 143.181 43.3184C143.181 43.7529 143.364 44.0825 143.73 44.3071C144.097 44.5366 144.619 44.6514 145.298 44.6514ZM145.613 38.2354C146.194 38.2354 146.631 38.0889 146.924 37.7959C147.217 37.5029 147.363 37.0757 147.363 36.5142C147.363 35.9136 147.214 35.4644 146.917 35.1665C146.619 34.8638 146.179 34.7124 145.598 34.7124C145.042 34.7124 144.612 34.8687 144.309 35.1812C144.011 35.4888 143.862 35.9404 143.862 36.5361C143.862 37.083 144.014 37.5029 144.316 37.7959C144.619 38.0889 145.051 38.2354 145.613 38.2354ZM158.086 37.9717C158.086 38.6309 158 39.2192 157.83 39.7368C157.659 40.2544 157.412 40.6914 157.09 41.0479C156.768 41.4043 156.377 41.6777 155.918 41.8682C155.464 42.0537 154.949 42.1465 154.373 42.1465C153.835 42.1465 153.342 42.0537 152.893 41.8682C152.449 41.6777 152.063 41.4043 151.736 41.0479C151.414 40.6914 151.162 40.2544 150.981 39.7368C150.806 39.2192 150.718 38.6309 150.718 37.9717C150.718 37.0928 150.867 36.3457 151.165 35.7305C151.462 35.1104 151.887 34.6392 152.439 34.3169C152.996 33.9897 153.657 33.8262 154.424 33.8262C155.156 33.8262 155.796 33.9897 156.343 34.3169C156.895 34.644 157.322 35.1177 157.625 35.7378C157.932 36.353 158.086 37.0977 158.086 37.9717ZM151.978 37.9717C151.978 38.6162 152.063 39.1753 152.234 39.6489C152.405 40.1226 152.668 40.4888 153.025 40.7476C153.381 41.0063 153.84 41.1357 154.402 41.1357C154.958 41.1357 155.415 41.0063 155.771 40.7476C156.133 40.4888 156.399 40.1226 156.57 39.6489C156.741 39.1753 156.826 38.6162 156.826 37.9717C156.826 37.332 156.741 36.7803 156.57 36.3164C156.399 35.8477 156.135 35.4863 155.779 35.2324C155.422 34.9785 154.961 34.8516 154.395 34.8516C153.56 34.8516 152.947 35.1274 152.556 35.6792C152.17 36.231 151.978 36.9951 151.978 37.9717ZM161.404 33.9727V42H160.188V33.9727H161.404ZM160.811 30.9697C161.011 30.9697 161.182 31.0356 161.323 31.1675C161.47 31.2944 161.543 31.4946 161.543 31.7681C161.543 32.0366 161.47 32.2368 161.323 32.3687C161.182 32.5005 161.011 32.5664 160.811 32.5664C160.601 32.5664 160.425 32.5005 160.283 32.3687C160.146 32.2368 160.078 32.0366 160.078 31.7681C160.078 31.4946 160.146 31.2944 160.283 31.1675C160.425 31.0356 160.601 30.9697 160.811 30.9697ZM167.783 33.8262C168.735 33.8262 169.456 34.0605 169.944 34.5293C170.432 34.9932 170.676 35.7402 170.676 36.7705V42H169.475V36.8511C169.475 36.1821 169.321 35.6816 169.014 35.3496C168.711 35.0176 168.245 34.8516 167.615 34.8516C166.726 34.8516 166.101 35.103 165.74 35.606C165.378 36.1089 165.198 36.8389 165.198 37.7959V42H163.982V33.9727H164.963L165.146 35.1299H165.212C165.383 34.8467 165.601 34.6099 165.864 34.4194C166.128 34.2241 166.423 34.0776 166.75 33.98C167.078 33.8774 167.422 33.8262 167.783 33.8262ZM175.422 45.6035C174.368 45.6035 173.555 45.4058 172.983 45.0103C172.412 44.6196 172.126 44.0703 172.126 43.3623C172.126 42.8594 172.285 42.4297 172.603 42.0732C172.925 41.7168 173.369 41.48 173.936 41.3628C173.726 41.2651 173.545 41.1187 173.394 40.9233C173.247 40.728 173.174 40.5034 173.174 40.2495C173.174 39.9565 173.254 39.7002 173.416 39.4805C173.582 39.2559 173.833 39.041 174.17 38.8359C173.75 38.665 173.408 38.377 173.145 37.9717C172.886 37.5615 172.756 37.0854 172.756 36.5435C172.756 35.9673 172.876 35.4766 173.115 35.0713C173.354 34.6611 173.701 34.3486 174.155 34.1338C174.609 33.9189 175.159 33.8115 175.803 33.8115C175.945 33.8115 176.086 33.8188 176.228 33.8335C176.375 33.8433 176.514 33.8604 176.646 33.8848C176.777 33.9043 176.892 33.9287 176.99 33.958H179.744V34.7417L178.264 34.9248C178.411 35.1152 178.533 35.3447 178.63 35.6133C178.728 35.8818 178.777 36.1797 178.777 36.5068C178.777 37.3076 178.506 37.9448 177.964 38.4185C177.422 38.8872 176.677 39.1216 175.73 39.1216C175.505 39.1216 175.276 39.1021 175.042 39.063C174.802 39.1948 174.619 39.3413 174.492 39.5024C174.37 39.6636 174.309 39.8491 174.309 40.0591C174.309 40.2153 174.355 40.3398 174.448 40.4326C174.546 40.5254 174.685 40.5938 174.866 40.6377C175.046 40.6768 175.264 40.6963 175.518 40.6963H176.931C177.805 40.6963 178.474 40.8794 178.938 41.2456C179.407 41.6118 179.641 42.1465 179.641 42.8496C179.641 43.7383 179.28 44.4194 178.557 44.8931C177.834 45.3667 176.79 45.6035 175.422 45.6035ZM175.459 44.6514C176.123 44.6514 176.672 44.583 177.107 44.4463C177.546 44.3145 177.874 44.1216 178.088 43.8677C178.308 43.6187 178.418 43.3208 178.418 42.9741C178.418 42.6519 178.345 42.4077 178.198 42.2417C178.052 42.0806 177.837 41.9731 177.554 41.9194C177.271 41.8608 176.924 41.8315 176.514 41.8315H175.122C174.761 41.8315 174.446 41.8877 174.177 42C173.909 42.1123 173.701 42.2783 173.555 42.498C173.413 42.7178 173.342 42.9912 173.342 43.3184C173.342 43.7529 173.525 44.0825 173.892 44.3071C174.258 44.5366 174.78 44.6514 175.459 44.6514ZM175.774 38.2354C176.355 38.2354 176.792 38.0889 177.085 37.7959C177.378 37.5029 177.524 37.0757 177.524 36.5142C177.524 35.9136 177.375 35.4644 177.078 35.1665C176.78 34.8638 176.34 34.7124 175.759 34.7124C175.203 34.7124 174.773 34.8687 174.47 35.1812C174.172 35.4888 174.023 35.9404 174.023 36.5361C174.023 37.083 174.175 37.5029 174.478 37.7959C174.78 38.0889 175.212 38.2354 175.774 38.2354ZM187.815 41.1504C188.015 41.1504 188.22 41.1333 188.43 41.0991C188.64 41.0649 188.811 41.0234 188.943 40.9746V41.9194C188.801 41.9829 188.604 42.0366 188.35 42.0806C188.101 42.1245 187.856 42.1465 187.617 42.1465C187.192 42.1465 186.807 42.0732 186.46 41.9268C186.113 41.7754 185.835 41.5215 185.625 41.165C185.42 40.8086 185.317 40.3154 185.317 39.6855V34.9248H184.175V34.3315L185.325 33.8555L185.808 32.1123H186.541V33.9727H188.892V34.9248H186.541V39.6489C186.541 40.1519 186.655 40.5278 186.885 40.7769C187.119 41.0259 187.429 41.1504 187.815 41.1504ZM197.49 37.9717C197.49 38.6309 197.405 39.2192 197.234 39.7368C197.063 40.2544 196.816 40.6914 196.494 41.0479C196.172 41.4043 195.781 41.6777 195.322 41.8682C194.868 42.0537 194.353 42.1465 193.777 42.1465C193.24 42.1465 192.747 42.0537 192.297 41.8682C191.853 41.6777 191.467 41.4043 191.14 41.0479C190.818 40.6914 190.566 40.2544 190.386 39.7368C190.21 39.2192 190.122 38.6309 190.122 37.9717C190.122 37.0928 190.271 36.3457 190.569 35.7305C190.867 35.1104 191.292 34.6392 191.843 34.3169C192.4 33.9897 193.062 33.8262 193.828 33.8262C194.561 33.8262 195.2 33.9897 195.747 34.3169C196.299 34.644 196.726 35.1177 197.029 35.7378C197.336 36.353 197.49 37.0977 197.49 37.9717ZM191.382 37.9717C191.382 38.6162 191.467 39.1753 191.638 39.6489C191.809 40.1226 192.073 40.4888 192.429 40.7476C192.786 41.0063 193.245 41.1357 193.806 41.1357C194.363 41.1357 194.819 41.0063 195.176 40.7476C195.537 40.4888 195.803 40.1226 195.974 39.6489C196.145 39.1753 196.23 38.6162 196.23 37.9717C196.23 37.332 196.145 36.7803 195.974 36.3164C195.803 35.8477 195.54 35.4863 195.183 35.2324C194.827 34.9785 194.365 34.8516 193.799 34.8516C192.964 34.8516 192.351 35.1274 191.96 35.6792C191.575 36.231 191.382 36.9951 191.382 37.9717ZM206.58 33.8262C207.263 33.8262 207.849 33.9775 208.337 34.2803C208.826 34.583 209.199 35.0078 209.458 35.5547C209.717 36.0967 209.846 36.7314 209.846 37.459V38.2134H204.302C204.316 39.1558 204.551 39.8735 205.005 40.3667C205.459 40.8599 206.099 41.1064 206.924 41.1064C207.432 41.1064 207.881 41.0601 208.271 40.9673C208.662 40.8745 209.067 40.7378 209.487 40.5571V41.6265C209.082 41.8071 208.679 41.939 208.279 42.022C207.883 42.105 207.415 42.1465 206.873 42.1465C206.101 42.1465 205.427 41.9902 204.851 41.6777C204.28 41.3604 203.835 40.8965 203.518 40.2861C203.201 39.6758 203.042 38.9287 203.042 38.0449C203.042 37.1807 203.186 36.4336 203.474 35.8037C203.767 35.1689 204.177 34.6807 204.705 34.3389C205.237 33.9971 205.862 33.8262 206.58 33.8262ZM206.565 34.8223C205.916 34.8223 205.398 35.0347 205.012 35.4595C204.626 35.8843 204.397 36.4775 204.324 37.2393H208.572C208.567 36.7607 208.491 36.3408 208.345 35.9795C208.203 35.6133 207.986 35.3301 207.693 35.1299C207.4 34.9248 207.024 34.8223 206.565 34.8223ZM213.823 37.8911L211.047 33.9727H212.439L214.556 37.0635L216.665 33.9727H218.042L215.266 37.8911L218.196 42H216.804L214.556 38.7261L212.292 42H210.916L213.823 37.8911ZM223.535 33.8262C224.536 33.8262 225.334 34.1704 225.93 34.8589C226.526 35.5474 226.824 36.5825 226.824 37.9644C226.824 38.8774 226.687 39.644 226.414 40.2642C226.14 40.8843 225.754 41.353 225.256 41.6704C224.763 41.9878 224.18 42.1465 223.506 42.1465C223.081 42.1465 222.708 42.0903 222.385 41.978C222.063 41.8657 221.787 41.7144 221.558 41.5239C221.328 41.3335 221.138 41.126 220.986 40.9014H220.898C220.913 41.0918 220.93 41.3213 220.95 41.5898C220.974 41.8584 220.986 42.0928 220.986 42.293V45.5889H219.763V33.9727H220.767L220.928 35.1592H220.986C221.143 34.915 221.333 34.6929 221.558 34.4927C221.782 34.2876 222.056 34.1265 222.378 34.0093C222.705 33.8872 223.091 33.8262 223.535 33.8262ZM223.323 34.8516C222.766 34.8516 222.317 34.959 221.975 35.1738C221.638 35.3887 221.392 35.7109 221.235 36.1406C221.079 36.5654 220.996 37.1001 220.986 37.7446V37.979C220.986 38.6577 221.06 39.2314 221.206 39.7002C221.357 40.1689 221.604 40.5254 221.946 40.7695C222.292 41.0137 222.756 41.1357 223.337 41.1357C223.835 41.1357 224.25 41.0015 224.583 40.7329C224.915 40.4644 225.161 40.0908 225.322 39.6123C225.488 39.1289 225.571 38.5747 225.571 37.9497C225.571 37.0024 225.386 36.2505 225.015 35.6938C224.648 35.1323 224.084 34.8516 223.323 34.8516ZM230.164 33.9727V42H228.948V33.9727H230.164ZM229.57 30.9697C229.771 30.9697 229.941 31.0356 230.083 31.1675C230.229 31.2944 230.303 31.4946 230.303 31.7681C230.303 32.0366 230.229 32.2368 230.083 32.3687C229.941 32.5005 229.771 32.5664 229.57 32.5664C229.36 32.5664 229.185 32.5005 229.043 32.3687C228.906 32.2368 228.838 32.0366 228.838 31.7681C228.838 31.4946 228.906 31.2944 229.043 31.1675C229.185 31.0356 229.36 30.9697 229.57 30.9697ZM236.389 33.8262C236.55 33.8262 236.719 33.8359 236.895 33.8555C237.07 33.8701 237.227 33.8921 237.363 33.9214L237.209 35.0493C237.078 35.0151 236.931 34.9883 236.77 34.9688C236.609 34.9492 236.458 34.9395 236.316 34.9395C235.994 34.9395 235.688 35.0054 235.4 35.1372C235.117 35.2642 234.868 35.4497 234.653 35.6938C234.438 35.9331 234.27 36.2236 234.148 36.5654C234.026 36.9023 233.965 37.2783 233.965 37.6934V42H232.742V33.9727H233.752L233.884 35.4521H233.936C234.102 35.1543 234.302 34.8833 234.536 34.6392C234.771 34.3901 235.042 34.1924 235.349 34.0459C235.662 33.8994 236.008 33.8262 236.389 33.8262ZM241.97 33.8262C242.654 33.8262 243.24 33.9775 243.728 34.2803C244.216 34.583 244.59 35.0078 244.849 35.5547C245.107 36.0967 245.237 36.7314 245.237 37.459V38.2134H239.692C239.707 39.1558 239.941 39.8735 240.396 40.3667C240.85 40.8599 241.489 41.1064 242.314 41.1064C242.822 41.1064 243.271 41.0601 243.662 40.9673C244.053 40.8745 244.458 40.7378 244.878 40.5571V41.6265C244.473 41.8071 244.07 41.939 243.669 42.022C243.274 42.105 242.805 42.1465 242.263 42.1465C241.492 42.1465 240.818 41.9902 240.242 41.6777C239.67 41.3604 239.226 40.8965 238.909 40.2861C238.591 39.6758 238.433 38.9287 238.433 38.0449C238.433 37.1807 238.577 36.4336 238.865 35.8037C239.158 35.1689 239.568 34.6807 240.095 34.3389C240.627 33.9971 241.252 33.8262 241.97 33.8262ZM241.956 34.8223C241.306 34.8223 240.789 35.0347 240.403 35.4595C240.017 35.8843 239.788 36.4775 239.714 37.2393H243.962C243.958 36.7607 243.882 36.3408 243.735 35.9795C243.594 35.6133 243.376 35.3301 243.083 35.1299C242.791 34.9248 242.415 34.8223 241.956 34.8223ZM3.04688 63L0 54.9727H1.30371L3.06885 59.8286C3.19092 60.1606 3.31543 60.5269 3.44238 60.9272C3.56934 61.3276 3.65723 61.6499 3.70605 61.894H3.75732C3.81592 61.6499 3.91357 61.3276 4.05029 60.9272C4.18701 60.522 4.31152 60.1558 4.42383 59.8286L6.18896 54.9727H7.49268L4.43848 63H3.04688ZM11.8726 54.8262C12.5562 54.8262 13.1421 54.9775 13.6304 55.2803C14.1187 55.583 14.4922 56.0078 14.751 56.5547C15.0098 57.0967 15.1392 57.7314 15.1392 58.459V59.2134H9.59473C9.60938 60.1558 9.84375 60.8735 10.2979 61.3667C10.752 61.8599 11.3916 62.1064 12.2168 62.1064C12.7246 62.1064 13.1738 62.0601 13.5645 61.9673C13.9551 61.8745 14.3604 61.7378 14.7803 61.5571V62.6265C14.375 62.8071 13.9722 62.939 13.5718 63.022C13.1763 63.105 12.7075 63.1465 12.1655 63.1465C11.394 63.1465 10.7202 62.9902 10.144 62.6777C9.57275 62.3604 9.12842 61.8965 8.81104 61.2861C8.49365 60.6758 8.33496 59.9287 8.33496 59.0449C8.33496 58.1807 8.479 57.4336 8.76709 56.8037C9.06006 56.1689 9.47021 55.6807 9.99756 55.3389C10.5298 54.9971 11.1548 54.8262 11.8726 54.8262ZM11.8579 55.8223C11.2085 55.8223 10.6909 56.0347 10.3052 56.4595C9.91943 56.8843 9.68994 57.4775 9.6167 58.2393H13.8647C13.8599 57.7607 13.7842 57.3408 13.6377 56.9795C13.4961 56.6133 13.2788 56.3301 12.9858 56.1299C12.6929 55.9248 12.3169 55.8223 11.8579 55.8223ZM20.8521 54.8262C21.0132 54.8262 21.1816 54.8359 21.3574 54.8555C21.5332 54.8701 21.6895 54.8921 21.8262 54.9214L21.6724 56.0493C21.5405 56.0151 21.394 55.9883 21.2329 55.9688C21.0718 55.9492 20.9204 55.9395 20.7788 55.9395C20.4565 55.9395 20.1514 56.0054 19.8633 56.1372C19.5801 56.2642 19.3311 56.4497 19.1162 56.6938C18.9014 56.9331 18.7329 57.2236 18.6108 57.5654C18.4888 57.9023 18.4277 58.2783 18.4277 58.6934V63H17.2046V54.9727H18.2153L18.3472 56.4521H18.3984C18.5645 56.1543 18.7646 55.8833 18.999 55.6392C19.2334 55.3901 19.5044 55.1924 19.812 55.0459C20.1245 54.8994 20.4712 54.8262 20.8521 54.8262ZM22.0752 54.9727H23.3789L25.1514 59.6309C25.2539 59.9043 25.3491 60.168 25.437 60.4219C25.5249 60.6709 25.603 60.9102 25.6714 61.1396C25.7397 61.3691 25.7935 61.5913 25.8325 61.8062H25.8838C25.9521 61.562 26.0498 61.2422 26.1768 60.8467C26.3037 60.4463 26.4404 60.0386 26.5869 59.6235L28.2642 54.9727H29.5752L26.0815 64.1792C25.896 64.6724 25.6787 65.1021 25.4297 65.4683C25.1855 65.8345 24.8877 66.1152 24.5361 66.3105C24.1846 66.5107 23.7598 66.6108 23.2617 66.6108C23.0322 66.6108 22.8296 66.5962 22.6538 66.5669C22.478 66.5425 22.3267 66.5132 22.1997 66.479V65.5049C22.3071 65.5293 22.4365 65.5513 22.5879 65.5708C22.7441 65.5903 22.9053 65.6001 23.0713 65.6001C23.374 65.6001 23.6353 65.5415 23.855 65.4243C24.0796 65.312 24.2725 65.146 24.4336 64.9263C24.5947 64.7065 24.7339 64.4453 24.8511 64.1426L25.2905 63.0146L22.0752 54.9727ZM39.9463 60.8027C39.9463 61.3154 39.8169 61.7476 39.5581 62.0991C39.3042 62.4458 38.938 62.707 38.4595 62.8828C37.9858 63.0586 37.4194 63.1465 36.7603 63.1465C36.1987 63.1465 35.7129 63.1025 35.3027 63.0146C34.8926 62.9268 34.5337 62.8022 34.2261 62.6411V61.5205C34.5532 61.6816 34.9438 61.8281 35.3979 61.96C35.8521 62.0918 36.3159 62.1577 36.7896 62.1577C37.4829 62.1577 37.9858 62.0454 38.2983 61.8208C38.6108 61.5962 38.7671 61.291 38.7671 60.9053C38.7671 60.6855 38.7036 60.4927 38.5767 60.3267C38.4546 60.1558 38.2471 59.9922 37.9541 59.8359C37.6611 59.6748 37.2559 59.499 36.7383 59.3086C36.2256 59.1133 35.7812 58.9204 35.4053 58.73C35.0342 58.5347 34.7461 58.2979 34.541 58.0195C34.3408 57.7412 34.2407 57.3799 34.2407 56.9355C34.2407 56.2568 34.5142 55.7368 35.061 55.3755C35.6128 55.0093 36.3354 54.8262 37.229 54.8262C37.7124 54.8262 38.1641 54.875 38.584 54.9727C39.0088 55.0654 39.4043 55.1924 39.7705 55.3535L39.3604 56.3276C39.0283 56.186 38.6743 56.0664 38.2983 55.9688C37.9224 55.8711 37.5391 55.8223 37.1484 55.8223C36.5869 55.8223 36.1548 55.915 35.8521 56.1006C35.5542 56.2861 35.4053 56.54 35.4053 56.8623C35.4053 57.1113 35.4736 57.3164 35.6104 57.4775C35.752 57.6387 35.9766 57.79 36.2842 57.9316C36.5918 58.0732 36.9971 58.2393 37.5 58.4297C38.0029 58.6152 38.4375 58.8081 38.8037 59.0083C39.1699 59.2036 39.4507 59.4429 39.646 59.7261C39.8462 60.0044 39.9463 60.3633 39.9463 60.8027ZM48.8232 58.9717C48.8232 59.6309 48.7378 60.2192 48.5669 60.7368C48.396 61.2544 48.1494 61.6914 47.8271 62.0479C47.5049 62.4043 47.1143 62.6777 46.6553 62.8682C46.2012 63.0537 45.686 63.1465 45.1099 63.1465C44.5728 63.1465 44.0796 63.0537 43.6304 62.8682C43.186 62.6777 42.8003 62.4043 42.4731 62.0479C42.1509 61.6914 41.8994 61.2544 41.7188 60.7368C41.543 60.2192 41.4551 59.6309 41.4551 58.9717C41.4551 58.0928 41.604 57.3457 41.9019 56.7305C42.1997 56.1104 42.6245 55.6392 43.1763 55.3169C43.7329 54.9897 44.3945 54.8262 45.1611 54.8262C45.8936 54.8262 46.5332 54.9897 47.0801 55.3169C47.6318 55.644 48.0591 56.1177 48.3618 56.7378C48.6694 57.353 48.8232 58.0977 48.8232 58.9717ZM42.7148 58.9717C42.7148 59.6162 42.8003 60.1753 42.9712 60.6489C43.1421 61.1226 43.4058 61.4888 43.7622 61.7476C44.1187 62.0063 44.5776 62.1357 45.1392 62.1357C45.6958 62.1357 46.1523 62.0063 46.5088 61.7476C46.8701 61.4888 47.1362 61.1226 47.3071 60.6489C47.478 60.1753 47.5635 59.6162 47.5635 58.9717C47.5635 58.332 47.478 57.7803 47.3071 57.3164C47.1362 56.8477 46.8726 56.4863 46.5161 56.2324C46.1597 55.9785 45.6982 55.8516 45.1318 55.8516C44.2969 55.8516 43.6841 56.1274 43.2935 56.6792C42.9077 57.231 42.7148 57.9951 42.7148 58.9717ZM57.8467 58.9717C57.8467 59.6309 57.7612 60.2192 57.5903 60.7368C57.4194 61.2544 57.1729 61.6914 56.8506 62.0479C56.5283 62.4043 56.1377 62.6777 55.6787 62.8682C55.2246 63.0537 54.7095 63.1465 54.1333 63.1465C53.5962 63.1465 53.103 63.0537 52.6538 62.8682C52.2095 62.6777 51.8237 62.4043 51.4966 62.0479C51.1743 61.6914 50.9229 61.2544 50.7422 60.7368C50.5664 60.2192 50.4785 59.6309 50.4785 58.9717C50.4785 58.0928 50.6274 57.3457 50.9253 56.7305C51.2231 56.1104 51.6479 55.6392 52.1997 55.3169C52.7563 54.9897 53.418 54.8262 54.1846 54.8262C54.917 54.8262 55.5566 54.9897 56.1035 55.3169C56.6553 55.644 57.0825 56.1177 57.3853 56.7378C57.6929 57.353 57.8467 58.0977 57.8467 58.9717ZM51.7383 58.9717C51.7383 59.6162 51.8237 60.1753 51.9946 60.6489C52.1655 61.1226 52.4292 61.4888 52.7856 61.7476C53.1421 62.0063 53.6011 62.1357 54.1626 62.1357C54.7192 62.1357 55.1758 62.0063 55.5322 61.7476C55.8936 61.4888 56.1597 61.1226 56.3306 60.6489C56.5015 60.1753 56.5869 59.6162 56.5869 58.9717C56.5869 58.332 56.5015 57.7803 56.3306 57.3164C56.1597 56.8477 55.896 56.4863 55.5396 56.2324C55.1831 55.9785 54.7217 55.8516 54.1553 55.8516C53.3203 55.8516 52.7075 56.1274 52.3169 56.6792C51.9312 57.231 51.7383 57.9951 51.7383 58.9717ZM63.75 54.8262C64.7021 54.8262 65.4224 55.0605 65.9106 55.5293C66.3989 55.9932 66.6431 56.7402 66.6431 57.7705V63H65.4419V57.8511C65.4419 57.1821 65.2881 56.6816 64.9805 56.3496C64.6777 56.0176 64.2114 55.8516 63.5815 55.8516C62.6929 55.8516 62.0679 56.103 61.7065 56.606C61.3452 57.1089 61.1646 57.8389 61.1646 58.7959V63H59.9487V54.9727H60.9302L61.1133 56.1299H61.1792C61.3501 55.8467 61.5674 55.6099 61.8311 55.4194C62.0947 55.2241 62.3901 55.0776 62.7173 54.98C63.0444 54.8774 63.3887 54.8262 63.75 54.8262ZM68.9648 62.2383C68.9648 61.8965 69.0479 61.6548 69.2139 61.5132C69.3799 61.3667 69.5825 61.2935 69.8218 61.2935C70.0708 61.2935 70.2808 61.3667 70.4517 61.5132C70.6226 61.6548 70.708 61.8965 70.708 62.2383C70.708 62.5752 70.6226 62.8218 70.4517 62.978C70.2808 63.1294 70.0708 63.2051 69.8218 63.2051C69.5825 63.2051 69.3799 63.1294 69.2139 62.978C69.0479 62.8218 68.9648 62.5752 68.9648 62.2383ZM83.2104 60.1509C83.2104 60.7856 83.0518 61.3276 82.7344 61.7769C82.4219 62.2212 81.9824 62.5605 81.416 62.7949C80.8496 63.0293 80.1831 63.1465 79.4165 63.1465C79.0112 63.1465 78.6279 63.127 78.2666 63.0879C77.9053 63.0488 77.5732 62.9927 77.2705 62.9194C76.9678 62.8462 76.7017 62.7559 76.4722 62.6484V61.4546C76.8384 61.606 77.2852 61.7476 77.8125 61.8794C78.3398 62.0063 78.8916 62.0698 79.4678 62.0698C80.0049 62.0698 80.459 61.999 80.8301 61.8574C81.2012 61.7109 81.4819 61.5034 81.6724 61.2349C81.8677 60.9614 81.9653 60.6343 81.9653 60.2534C81.9653 59.8872 81.8848 59.582 81.7236 59.3379C81.5625 59.0889 81.2939 58.8643 80.918 58.6641C80.5469 58.459 80.0391 58.2417 79.3945 58.0122C78.9404 57.8511 78.54 57.6753 78.1934 57.4849C77.8467 57.2896 77.5562 57.0698 77.3218 56.8257C77.0874 56.5815 76.9092 56.2983 76.7871 55.9761C76.6699 55.6538 76.6113 55.2852 76.6113 54.8701C76.6113 54.2988 76.7554 53.8105 77.0435 53.4053C77.3364 52.9951 77.7393 52.6826 78.252 52.4678C78.7695 52.248 79.3628 52.1382 80.0317 52.1382C80.603 52.1382 81.1304 52.1919 81.6138 52.2993C82.1021 52.4067 82.5488 52.5508 82.9541 52.7314L82.5659 53.8008C82.1802 53.6396 81.77 53.5054 81.3354 53.3979C80.9058 53.2905 80.4614 53.2368 80.0024 53.2368C79.5435 53.2368 79.1553 53.3052 78.8379 53.4419C78.5254 53.5737 78.2861 53.7617 78.1201 54.0059C77.9541 54.25 77.8711 54.5405 77.8711 54.8774C77.8711 55.2534 77.9492 55.5659 78.1055 55.8149C78.2666 56.064 78.5205 56.2861 78.8672 56.4814C79.2188 56.6719 79.6826 56.8721 80.2588 57.082C80.8887 57.3115 81.4233 57.5557 81.8628 57.8145C82.3022 58.0684 82.6367 58.3809 82.8662 58.752C83.0957 59.1182 83.2104 59.5845 83.2104 60.1509ZM91.8457 54.9727V63H90.8496L90.6738 61.8721H90.6079C90.4419 62.1504 90.2271 62.3848 89.9634 62.5752C89.6997 62.7656 89.4019 62.9072 89.0698 63C88.7427 63.0977 88.3936 63.1465 88.0225 63.1465C87.3877 63.1465 86.8555 63.0439 86.4258 62.8389C85.9961 62.6338 85.6714 62.3164 85.4517 61.8867C85.2368 61.457 85.1294 60.9053 85.1294 60.2314V54.9727H86.3599V60.1436C86.3599 60.8125 86.5112 61.313 86.814 61.645C87.1167 61.9722 87.5781 62.1357 88.1982 62.1357C88.7939 62.1357 89.2676 62.0234 89.6191 61.7988C89.9756 61.5742 90.2319 61.2446 90.3882 60.8101C90.5444 60.3706 90.6226 59.8335 90.6226 59.1987V54.9727H91.8457ZM95.6323 51.6035V54.4526C95.6323 54.7798 95.6226 55.0972 95.603 55.4048C95.5884 55.7124 95.5762 55.9517 95.5664 56.1226H95.6323C95.8521 55.7612 96.1694 55.4561 96.5845 55.207C96.9995 54.958 97.5293 54.8335 98.1738 54.8335C99.1797 54.8335 99.9805 55.1826 100.576 55.8809C101.177 56.5742 101.477 57.6069 101.477 58.979C101.477 59.8823 101.34 60.644 101.067 61.2642C100.793 61.8843 100.408 62.353 99.9097 62.6704C99.4116 62.9878 98.8232 63.1465 98.1445 63.1465C97.5098 63.1465 96.9873 63.0293 96.5771 62.7949C96.1719 62.5557 95.8594 62.2651 95.6396 61.9233H95.5444L95.2954 63H94.4165V51.6035H95.6323ZM97.9761 55.8516C97.395 55.8516 96.9336 55.9663 96.5918 56.1958C96.25 56.4204 96.0034 56.7622 95.8521 57.2212C95.7056 57.6753 95.6323 58.2515 95.6323 58.9497V59.0156C95.6323 60.0264 95.8008 60.8003 96.1377 61.3374C96.4746 61.8696 97.0874 62.1357 97.9761 62.1357C98.7231 62.1357 99.2822 61.8623 99.6533 61.3154C100.029 60.7686 100.217 59.9873 100.217 58.9717C100.217 57.9365 100.032 57.1577 99.6606 56.6353C99.2944 56.1128 98.7329 55.8516 97.9761 55.8516ZM108.794 60.8027C108.794 61.3154 108.665 61.7476 108.406 62.0991C108.152 62.4458 107.786 62.707 107.307 62.8828C106.833 63.0586 106.267 63.1465 105.608 63.1465C105.046 63.1465 104.561 63.1025 104.15 63.0146C103.74 62.9268 103.381 62.8022 103.074 62.6411V61.5205C103.401 61.6816 103.792 61.8281 104.246 61.96C104.7 62.0918 105.164 62.1577 105.637 62.1577C106.331 62.1577 106.833 62.0454 107.146 61.8208C107.458 61.5962 107.615 61.291 107.615 60.9053C107.615 60.6855 107.551 60.4927 107.424 60.3267C107.302 60.1558 107.095 59.9922 106.802 59.8359C106.509 59.6748 106.104 59.499 105.586 59.3086C105.073 59.1133 104.629 58.9204 104.253 58.73C103.882 58.5347 103.594 58.2979 103.389 58.0195C103.188 57.7412 103.088 57.3799 103.088 56.9355C103.088 56.2568 103.362 55.7368 103.909 55.3755C104.46 55.0093 105.183 54.8262 106.077 54.8262C106.56 54.8262 107.012 54.875 107.432 54.9727C107.856 55.0654 108.252 55.1924 108.618 55.3535L108.208 56.3276C107.876 56.186 107.522 56.0664 107.146 55.9688C106.77 55.8711 106.387 55.8223 105.996 55.8223C105.435 55.8223 105.002 55.915 104.7 56.1006C104.402 56.2861 104.253 56.54 104.253 56.8623C104.253 57.1113 104.321 57.3164 104.458 57.4775C104.6 57.6387 104.824 57.79 105.132 57.9316C105.439 58.0732 105.845 58.2393 106.348 58.4297C106.851 58.6152 107.285 58.8081 107.651 59.0083C108.018 59.2036 108.298 59.4429 108.494 59.7261C108.694 60.0044 108.794 60.3633 108.794 60.8027ZM113.965 63.1465C113.242 63.1465 112.605 62.9976 112.053 62.6997C111.501 62.4019 111.072 61.9478 110.764 61.3374C110.457 60.7271 110.303 59.958 110.303 59.0303C110.303 58.0586 110.464 57.2651 110.786 56.6499C111.113 56.0298 111.562 55.5708 112.134 55.2729C112.705 54.9751 113.354 54.8262 114.082 54.8262C114.482 54.8262 114.868 54.8677 115.239 54.9507C115.615 55.0288 115.923 55.1289 116.162 55.251L115.796 56.269C115.552 56.1714 115.269 56.0835 114.946 56.0054C114.629 55.9272 114.331 55.8882 114.053 55.8882C113.496 55.8882 113.032 56.0078 112.661 56.2471C112.295 56.4863 112.019 56.8379 111.833 57.3018C111.653 57.7656 111.562 58.3369 111.562 59.0156C111.562 59.665 111.65 60.2192 111.826 60.6782C112.007 61.1372 112.273 61.4888 112.625 61.7329C112.981 61.9722 113.425 62.0918 113.958 62.0918C114.382 62.0918 114.766 62.0479 115.107 61.96C115.449 61.8672 115.759 61.7598 116.038 61.6377V62.7217C115.769 62.8584 115.469 62.9634 115.137 63.0366C114.81 63.1099 114.419 63.1465 113.965 63.1465ZM121.589 54.8262C121.75 54.8262 121.919 54.8359 122.095 54.8555C122.271 54.8701 122.427 54.8921 122.563 54.9214L122.41 56.0493C122.278 56.0151 122.131 55.9883 121.97 55.9688C121.809 55.9492 121.658 55.9395 121.516 55.9395C121.194 55.9395 120.889 56.0054 120.601 56.1372C120.317 56.2642 120.068 56.4497 119.854 56.6938C119.639 56.9331 119.47 57.2236 119.348 57.5654C119.226 57.9023 119.165 58.2783 119.165 58.6934V63H117.942V54.9727H118.953L119.084 56.4521H119.136C119.302 56.1543 119.502 55.8833 119.736 55.6392C119.971 55.3901 120.242 55.1924 120.549 55.0459C120.862 54.8994 121.208 54.8262 121.589 54.8262ZM125.295 54.9727V63H124.08V54.9727H125.295ZM124.702 51.9697C124.902 51.9697 125.073 52.0356 125.215 52.1675C125.361 52.2944 125.435 52.4946 125.435 52.7681C125.435 53.0366 125.361 53.2368 125.215 53.3687C125.073 53.5005 124.902 53.5664 124.702 53.5664C124.492 53.5664 124.316 53.5005 124.175 53.3687C124.038 53.2368 123.97 53.0366 123.97 52.7681C123.97 52.4946 124.038 52.2944 124.175 52.1675C124.316 52.0356 124.492 51.9697 124.702 51.9697ZM129.089 51.6035V54.4526C129.089 54.7798 129.08 55.0972 129.06 55.4048C129.045 55.7124 129.033 55.9517 129.023 56.1226H129.089C129.309 55.7612 129.626 55.4561 130.042 55.207C130.457 54.958 130.986 54.8335 131.631 54.8335C132.637 54.8335 133.438 55.1826 134.033 55.8809C134.634 56.5742 134.934 57.6069 134.934 58.979C134.934 59.8823 134.797 60.644 134.524 61.2642C134.25 61.8843 133.865 62.353 133.367 62.6704C132.869 62.9878 132.28 63.1465 131.602 63.1465C130.967 63.1465 130.444 63.0293 130.034 62.7949C129.629 62.5557 129.316 62.2651 129.097 61.9233H129.001L128.752 63H127.874V51.6035H129.089ZM131.433 55.8516C130.852 55.8516 130.391 55.9663 130.049 56.1958C129.707 56.4204 129.46 56.7622 129.309 57.2212C129.163 57.6753 129.089 58.2515 129.089 58.9497V59.0156C129.089 60.0264 129.258 60.8003 129.595 61.3374C129.932 61.8696 130.544 62.1357 131.433 62.1357C132.18 62.1357 132.739 61.8623 133.11 61.3154C133.486 60.7686 133.674 59.9873 133.674 58.9717C133.674 57.9365 133.489 57.1577 133.118 56.6353C132.751 56.1128 132.19 55.8516 131.433 55.8516ZM140.149 54.8262C140.833 54.8262 141.418 54.9775 141.907 55.2803C142.395 55.583 142.769 56.0078 143.027 56.5547C143.286 57.0967 143.416 57.7314 143.416 58.459V59.2134H137.871C137.886 60.1558 138.12 60.8735 138.574 61.3667C139.028 61.8599 139.668 62.1064 140.493 62.1064C141.001 62.1064 141.45 62.0601 141.841 61.9673C142.231 61.8745 142.637 61.7378 143.057 61.5571V62.6265C142.651 62.8071 142.249 62.939 141.848 63.022C141.453 63.105 140.984 63.1465 140.442 63.1465C139.67 63.1465 138.997 62.9902 138.42 62.6777C137.849 62.3604 137.405 61.8965 137.087 61.2861C136.77 60.6758 136.611 59.9287 136.611 59.0449C136.611 58.1807 136.755 57.4336 137.043 56.8037C137.336 56.1689 137.747 55.6807 138.274 55.3389C138.806 54.9971 139.431 54.8262 140.149 54.8262ZM140.134 55.8223C139.485 55.8223 138.967 56.0347 138.582 56.4595C138.196 56.8843 137.966 57.4775 137.893 58.2393H142.141C142.136 57.7607 142.061 57.3408 141.914 56.9795C141.772 56.6133 141.555 56.3301 141.262 56.1299C140.969 55.9248 140.593 55.8223 140.134 55.8223ZM153.179 54.8262C154.131 54.8262 154.851 55.0605 155.339 55.5293C155.828 55.9932 156.072 56.7402 156.072 57.7705V63H154.871V57.8511C154.871 57.1821 154.717 56.6816 154.409 56.3496C154.106 56.0176 153.64 55.8516 153.01 55.8516C152.122 55.8516 151.497 56.103 151.135 56.606C150.774 57.1089 150.593 57.8389 150.593 58.7959V63H149.377V54.9727H150.359L150.542 56.1299H150.608C150.779 55.8467 150.996 55.6099 151.26 55.4194C151.523 55.2241 151.819 55.0776 152.146 54.98C152.473 54.8774 152.817 54.8262 153.179 54.8262ZM165.498 58.9717C165.498 59.6309 165.413 60.2192 165.242 60.7368C165.071 61.2544 164.824 61.6914 164.502 62.0479C164.18 62.4043 163.789 62.6777 163.33 62.8682C162.876 63.0537 162.361 63.1465 161.785 63.1465C161.248 63.1465 160.754 63.0537 160.305 62.8682C159.861 62.6777 159.475 62.4043 159.148 62.0479C158.826 61.6914 158.574 61.2544 158.394 60.7368C158.218 60.2192 158.13 59.6309 158.13 58.9717C158.13 58.0928 158.279 57.3457 158.577 56.7305C158.875 56.1104 159.299 55.6392 159.851 55.3169C160.408 54.9897 161.069 54.8262 161.836 54.8262C162.568 54.8262 163.208 54.9897 163.755 55.3169C164.307 55.644 164.734 56.1177 165.037 56.7378C165.344 57.353 165.498 58.0977 165.498 58.9717ZM159.39 58.9717C159.39 59.6162 159.475 60.1753 159.646 60.6489C159.817 61.1226 160.081 61.4888 160.437 61.7476C160.793 62.0063 161.252 62.1357 161.814 62.1357C162.371 62.1357 162.827 62.0063 163.184 61.7476C163.545 61.4888 163.811 61.1226 163.982 60.6489C164.153 60.1753 164.238 59.6162 164.238 58.9717C164.238 58.332 164.153 57.7803 163.982 57.3164C163.811 56.8477 163.547 56.4863 163.191 56.2324C162.834 55.9785 162.373 55.8516 161.807 55.8516C160.972 55.8516 160.359 56.1274 159.968 56.6792C159.583 57.231 159.39 57.9951 159.39 58.9717ZM174.133 62.9854L172.705 58.3125C172.642 58.1123 172.581 57.917 172.522 57.7266C172.468 57.5312 172.417 57.3457 172.368 57.1699C172.324 56.9893 172.283 56.8232 172.244 56.6719C172.209 56.5156 172.18 56.3813 172.156 56.269H172.104C172.085 56.3813 172.058 56.5156 172.024 56.6719C171.99 56.8232 171.948 56.9893 171.899 57.1699C171.855 57.3506 171.807 57.541 171.753 57.7412C171.699 57.9365 171.638 58.1343 171.57 58.3345L170.076 62.9854H168.706L166.494 54.958H167.754L168.911 59.3892C168.989 59.6821 169.062 59.9727 169.131 60.2607C169.204 60.5439 169.265 60.8125 169.314 61.0664C169.368 61.3154 169.407 61.5327 169.431 61.7183H169.49C169.519 61.5962 169.551 61.4497 169.585 61.2788C169.624 61.1079 169.666 60.9272 169.709 60.7368C169.758 60.5415 169.81 60.3486 169.863 60.1582C169.917 59.9629 169.971 59.7798 170.024 59.6089L171.504 54.958H172.815L174.243 59.6016C174.316 59.8359 174.387 60.0801 174.456 60.334C174.529 60.5879 174.595 60.8345 174.653 61.0737C174.712 61.3081 174.753 61.5181 174.778 61.7036H174.836C174.856 61.5376 174.893 61.3325 174.946 61.0884C175 60.8442 175.061 60.5757 175.129 60.2827C175.203 59.9897 175.278 59.6919 175.356 59.3892L176.528 54.958H177.766L175.547 62.9854H174.133ZM179.048 62.2383C179.048 61.8965 179.131 61.6548 179.297 61.5132C179.463 61.3667 179.666 61.2935 179.905 61.2935C180.154 61.2935 180.364 61.3667 180.535 61.5132C180.706 61.6548 180.791 61.8965 180.791 62.2383C180.791 62.5752 180.706 62.8218 180.535 62.978C180.364 63.1294 180.154 63.2051 179.905 63.2051C179.666 63.2051 179.463 63.1294 179.297 62.978C179.131 62.8218 179.048 62.5752 179.048 62.2383Z" fill="white"/>
<path d="M0 84H327" stroke="#1A242D"/>
</svg>
