<svg width="327" height="47" viewBox="0 0 327 47" fill="none" xmlns="http://www.w3.org/2000/svg">
<path d="M10.1001 9.54346C10.1001 10.7495 9.87549 11.7578 9.42627 12.5684C8.97705 13.374 8.3252 13.9819 7.4707 14.3921C6.61621 14.7974 5.58594 15 4.37988 15H1.40625V4.29199H4.70215C5.81055 4.29199 6.76758 4.49219 7.57324 4.89258C8.37891 5.28809 9.00146 5.87646 9.44092 6.65771C9.88037 7.43408 10.1001 8.396 10.1001 9.54346ZM8.26904 9.59473C8.26904 8.71582 8.12988 7.99316 7.85156 7.42676C7.57813 6.86035 7.17285 6.44043 6.63574 6.16699C6.10352 5.88867 5.44678 5.74951 4.66553 5.74951H3.16406V13.5278H4.40918C5.70312 13.5278 6.66992 13.1982 7.30957 12.5391C7.94922 11.8799 8.26904 10.8984 8.26904 9.59473ZM15.4102 6.73828C16.4355 6.73828 17.2095 6.96533 17.7319 7.41943C18.2593 7.87354 18.5229 8.58154 18.5229 9.54346V15H17.2998L16.9702 13.8501H16.9116C16.6821 14.1431 16.4453 14.3848 16.2012 14.5752C15.957 14.7656 15.6738 14.9072 15.3516 15C15.0342 15.0977 14.646 15.1465 14.187 15.1465C13.7036 15.1465 13.2715 15.0586 12.8906 14.8828C12.5098 14.7021 12.2095 14.4287 11.9897 14.0625C11.77 13.6963 11.6602 13.2324 11.6602 12.6709C11.6602 11.8359 11.9702 11.2085 12.5903 10.7886C13.2153 10.3687 14.1577 10.1367 15.4175 10.0928L16.8237 10.0415V9.6167C16.8237 9.05518 16.6919 8.65479 16.4282 8.41553C16.1694 8.17627 15.8032 8.05664 15.3296 8.05664C14.9243 8.05664 14.5312 8.11523 14.1504 8.23242C13.7695 8.34961 13.3984 8.49365 13.0371 8.66455L12.4805 7.44873C12.876 7.23877 13.3252 7.06787 13.8281 6.93604C14.3359 6.8042 14.8633 6.73828 15.4102 6.73828ZM16.8164 11.1255L15.769 11.1621C14.9097 11.1914 14.3066 11.3379 13.96 11.6016C13.6133 11.8652 13.4399 12.2266 13.4399 12.6855C13.4399 13.0859 13.5596 13.3789 13.7988 13.5645C14.0381 13.7451 14.353 13.8354 14.7437 13.8354C15.3394 13.8354 15.8325 13.667 16.2231 13.3301C16.6187 12.9883 16.8164 12.4878 16.8164 11.8286V11.1255ZM22.6538 6.89209V15H20.9326V6.89209H22.6538ZM21.8042 3.78662C22.0679 3.78662 22.2949 3.85742 22.4854 3.99902C22.6807 4.14062 22.7783 4.38477 22.7783 4.73145C22.7783 5.07324 22.6807 5.31738 22.4854 5.46387C22.2949 5.60547 22.0679 5.67627 21.8042 5.67627C21.5308 5.67627 21.2988 5.60547 21.1084 5.46387C20.9229 5.31738 20.8301 5.07324 20.8301 4.73145C20.8301 4.38477 20.9229 4.14062 21.1084 3.99902C21.2988 3.85742 21.5308 3.78662 21.8042 3.78662ZM26.8506 15H25.1221V3.60352H26.8506V15ZM28.0884 6.89209H29.9634L31.626 11.521C31.6992 11.731 31.7651 11.9385 31.8237 12.1436C31.8872 12.3438 31.9409 12.5415 31.9849 12.7368C32.0337 12.9321 32.0728 13.1274 32.1021 13.3228H32.146C32.1948 13.0688 32.2632 12.7856 32.3511 12.4731C32.4438 12.1558 32.5464 11.8384 32.6587 11.521L34.2554 6.89209H36.1084L32.6294 16.1133C32.4292 16.6406 32.1826 17.0898 31.8896 17.4609C31.6016 17.8369 31.2598 18.1201 30.8643 18.3105C30.4688 18.5059 30.0171 18.6035 29.5093 18.6035C29.2651 18.6035 29.0527 18.5889 28.8721 18.5596C28.6914 18.5352 28.5376 18.5083 28.4106 18.479V17.1021C28.5132 17.1265 28.6426 17.1484 28.7988 17.168C28.9551 17.1875 29.1162 17.1973 29.2822 17.1973C29.5898 17.1973 29.856 17.1362 30.0806 17.0142C30.3052 16.8921 30.4956 16.7188 30.6519 16.4941C30.8081 16.2744 30.9375 16.0229 31.04 15.7397L31.3257 14.978L28.0884 6.89209ZM48.0469 15L46.9995 12.0264H42.9053L41.8579 15H40.0049L43.9893 4.24805H45.9375L49.9146 15H48.0469ZM46.5454 10.5176L45.5273 7.58789C45.4883 7.46094 45.4321 7.28271 45.3589 7.05322C45.2856 6.81885 45.2124 6.58203 45.1392 6.34277C45.0659 6.09863 45.0049 5.89355 44.9561 5.72754C44.9072 5.92773 44.8462 6.15234 44.7729 6.40137C44.7046 6.64551 44.6362 6.875 44.5679 7.08984C44.5044 7.30469 44.4556 7.4707 44.4214 7.58789L43.396 10.5176H46.5454ZM54.4189 15.1465C53.6523 15.1465 52.9883 14.9976 52.4268 14.6997C51.8652 14.4019 51.4331 13.9453 51.1304 13.3301C50.8276 12.7148 50.6763 11.9336 50.6763 10.9863C50.6763 10 50.8423 9.19434 51.1743 8.56934C51.5063 7.94434 51.9653 7.48291 52.5513 7.18506C53.1421 6.88721 53.8184 6.73828 54.5801 6.73828C55.0635 6.73828 55.5005 6.78711 55.8911 6.88477C56.2866 6.97754 56.6211 7.09229 56.8945 7.229L56.3818 8.60596C56.084 8.48389 55.7788 8.38135 55.4663 8.29834C55.1538 8.21533 54.8535 8.17383 54.5654 8.17383C54.0918 8.17383 53.6963 8.27881 53.3789 8.48877C53.0664 8.69873 52.832 9.01123 52.6758 9.42627C52.5244 9.84131 52.4487 10.3564 52.4487 10.9717C52.4487 11.5674 52.5269 12.0703 52.6831 12.4805C52.8394 12.8857 53.0713 13.1934 53.3789 13.4033C53.6865 13.6084 54.0649 13.7109 54.5142 13.7109C54.9585 13.7109 55.3564 13.6572 55.708 13.5498C56.0596 13.4424 56.3916 13.3032 56.7041 13.1323V14.6265C56.3965 14.8022 56.0669 14.9316 55.7153 15.0146C55.3638 15.1025 54.9316 15.1465 54.4189 15.1465ZM61.626 13.7549C61.8506 13.7549 62.0728 13.7354 62.2925 13.6963C62.5122 13.6523 62.7124 13.6011 62.8931 13.5425V14.8462C62.7026 14.9292 62.4561 15 62.1533 15.0586C61.8506 15.1172 61.5356 15.1465 61.2085 15.1465C60.7495 15.1465 60.3369 15.0708 59.9707 14.9194C59.6045 14.7632 59.314 14.4971 59.0991 14.1211C58.8843 13.7451 58.7769 13.2251 58.7769 12.561V8.20312H57.6709V7.43408L58.8574 6.82617L59.4214 5.09033H60.5054V6.89209H62.8271V8.20312H60.5054V12.5391C60.5054 12.9492 60.6079 13.2544 60.813 13.4546C61.0181 13.6548 61.2891 13.7549 61.626 13.7549ZM66.2622 6.89209V15H64.541V6.89209H66.2622ZM65.4126 3.78662C65.6763 3.78662 65.9033 3.85742 66.0938 3.99902C66.2891 4.14062 66.3867 4.38477 66.3867 4.73145C66.3867 5.07324 66.2891 5.31738 66.0938 5.46387C65.9033 5.60547 65.6763 5.67627 65.4126 5.67627C65.1392 5.67627 64.9072 5.60547 64.7168 5.46387C64.5312 5.31738 64.4385 5.07324 64.4385 4.73145C64.4385 4.38477 64.5312 4.14062 64.7168 3.99902C64.9072 3.85742 65.1392 3.78662 65.4126 3.78662ZM70.5835 15L67.5 6.89209H69.3237L70.9937 11.6528C71.1011 11.9556 71.1987 12.2827 71.2866 12.6343C71.3745 12.9858 71.4355 13.2812 71.4697 13.5205H71.5283C71.5625 13.2715 71.6284 12.9736 71.7261 12.627C71.8237 12.2754 71.9238 11.9507 72.0264 11.6528L73.6963 6.89209H75.5127L72.4292 15H70.5835ZM78.4644 6.89209V15H76.7432V6.89209H78.4644ZM77.6147 3.78662C77.8784 3.78662 78.1055 3.85742 78.2959 3.99902C78.4912 4.14062 78.5889 4.38477 78.5889 4.73145C78.5889 5.07324 78.4912 5.31738 78.2959 5.46387C78.1055 5.60547 77.8784 5.67627 77.6147 5.67627C77.3413 5.67627 77.1094 5.60547 76.9189 5.46387C76.7334 5.31738 76.6406 5.07324 76.6406 4.73145C76.6406 4.38477 76.7334 4.14062 76.9189 3.99902C77.1094 3.85742 77.3413 3.78662 77.6147 3.78662ZM83.9502 13.7549C84.1748 13.7549 84.397 13.7354 84.6167 13.6963C84.8364 13.6523 85.0366 13.6011 85.2173 13.5425V14.8462C85.0269 14.9292 84.7803 15 84.4775 15.0586C84.1748 15.1172 83.8599 15.1465 83.5327 15.1465C83.0737 15.1465 82.6611 15.0708 82.2949 14.9194C81.9287 14.7632 81.6382 14.4971 81.4233 14.1211C81.2085 13.7451 81.1011 13.2251 81.1011 12.561V8.20312H79.9951V7.43408L81.1816 6.82617L81.7456 5.09033H82.8296V6.89209H85.1514V8.20312H82.8296V12.5391C82.8296 12.9492 82.9321 13.2544 83.1372 13.4546C83.3423 13.6548 83.6133 13.7549 83.9502 13.7549ZM85.6421 6.89209H87.5171L89.1797 11.521C89.2529 11.731 89.3188 11.9385 89.3774 12.1436C89.4409 12.3438 89.4946 12.5415 89.5386 12.7368C89.5874 12.9321 89.6265 13.1274 89.6558 13.3228H89.6997C89.7485 13.0688 89.8169 12.7856 89.9048 12.4731C89.9976 12.1558 90.1001 11.8384 90.2124 11.521L91.8091 6.89209H93.6621L90.1831 16.1133C89.9829 16.6406 89.7363 17.0898 89.4434 17.4609C89.1553 17.8369 88.8135 18.1201 88.418 18.3105C88.0225 18.5059 87.5708 18.6035 87.063 18.6035C86.8188 18.6035 86.6064 18.5889 86.4258 18.5596C86.2451 18.5352 86.0913 18.5083 85.9644 18.479V17.1021C86.0669 17.1265 86.1963 17.1484 86.3525 17.168C86.5088 17.1875 86.6699 17.1973 86.8359 17.1973C87.1436 17.1973 87.4097 17.1362 87.6343 17.0142C87.8589 16.8921 88.0493 16.7188 88.2056 16.4941C88.3618 16.2744 88.4912 16.0229 88.5938 15.7397L88.8794 14.978L85.6421 6.89209Z" fill="white"/>
<path d="M281.678 4.58643C282.215 4.58643 282.691 4.67106 283.106 4.84033C283.521 5.0096 283.844 5.25928 284.077 5.58936C284.314 5.9152 284.433 6.31722 284.433 6.79541C284.433 7.17204 284.35 7.50212 284.185 7.78564C284.024 8.06494 283.806 8.31038 283.531 8.52197C283.256 8.72933 282.951 8.91553 282.617 9.08057C283.015 9.26253 283.373 9.46777 283.69 9.69629C284.012 9.9248 284.265 10.1935 284.452 10.5024C284.638 10.8114 284.731 11.1774 284.731 11.6006C284.731 12.1211 284.604 12.5718 284.35 12.9526C284.1 13.3293 283.749 13.6191 283.296 13.8223C282.844 14.0254 282.312 14.127 281.703 14.127C281.047 14.127 280.489 14.0296 280.027 13.835C279.57 13.6361 279.221 13.3525 278.98 12.9844C278.743 12.612 278.625 12.1655 278.625 11.645C278.625 11.2176 278.715 10.8473 278.897 10.5342C279.079 10.2168 279.321 9.94385 279.621 9.71533C279.922 9.48682 280.25 9.29427 280.605 9.1377C280.296 8.96842 280.013 8.77588 279.754 8.56006C279.5 8.34424 279.297 8.09245 279.145 7.80469C278.997 7.5127 278.923 7.17415 278.923 6.78906C278.923 6.31934 279.041 5.92155 279.278 5.5957C279.52 5.26562 279.847 5.01595 280.262 4.84668C280.681 4.67318 281.153 4.58643 281.678 4.58643ZM279.659 11.6514C279.659 12.1253 279.826 12.5168 280.161 12.8257C280.495 13.1304 281.001 13.2827 281.678 13.2827C282.321 13.2827 282.818 13.1304 283.169 12.8257C283.521 12.5168 283.696 12.1126 283.696 11.6133C283.696 11.3044 283.616 11.0335 283.455 10.8008C283.294 10.5638 283.066 10.3522 282.77 10.166C282.473 9.97982 282.124 9.81055 281.722 9.6582L281.494 9.57568C281.104 9.73649 280.772 9.91634 280.497 10.1152C280.226 10.3099 280.019 10.5321 279.875 10.7817C279.731 11.0314 279.659 11.3213 279.659 11.6514ZM281.665 5.44971C281.166 5.44971 280.757 5.57031 280.44 5.81152C280.123 6.0485 279.964 6.39128 279.964 6.83984C279.964 7.16146 280.04 7.43441 280.192 7.65869C280.349 7.87874 280.561 8.06917 280.827 8.22998C281.094 8.38656 281.392 8.53255 281.722 8.66797C282.044 8.53255 282.329 8.38444 282.579 8.22363C282.829 8.05859 283.026 7.86393 283.169 7.63965C283.313 7.41536 283.385 7.14665 283.385 6.8335C283.385 6.38493 283.227 6.04215 282.909 5.80518C282.596 5.5682 282.181 5.44971 281.665 5.44971ZM286.362 13.3398C286.362 13.0436 286.434 12.8341 286.578 12.7114C286.722 12.5845 286.898 12.521 287.105 12.521C287.321 12.521 287.503 12.5845 287.651 12.7114C287.799 12.8341 287.873 13.0436 287.873 13.3398C287.873 13.6318 287.799 13.8455 287.651 13.981C287.503 14.1121 287.321 14.1777 287.105 14.1777C286.898 14.1777 286.722 14.1121 286.578 13.981C286.434 13.8455 286.362 13.6318 286.362 13.3398ZM286.362 7.70947C286.362 7.40479 286.434 7.19108 286.578 7.06836C286.722 6.94141 286.898 6.87793 287.105 6.87793C287.321 6.87793 287.503 6.94141 287.651 7.06836C287.799 7.19108 287.873 7.40479 287.873 7.70947C287.873 7.99723 287.799 8.20671 287.651 8.33789C287.503 8.46908 287.321 8.53467 287.105 8.53467C286.898 8.53467 286.722 8.46908 286.578 8.33789C286.434 8.20671 286.362 7.99723 286.362 7.70947ZM295.547 14H289.466V13.1177L291.948 10.5977C292.41 10.1322 292.797 9.71745 293.11 9.35352C293.427 8.98958 293.668 8.632 293.833 8.28076C293.999 7.92529 294.081 7.53597 294.081 7.11279C294.081 6.58805 293.924 6.18815 293.611 5.91309C293.302 5.63379 292.894 5.49414 292.386 5.49414C291.942 5.49414 291.548 5.57031 291.206 5.72266C290.863 5.875 290.512 6.09082 290.152 6.37012L289.587 5.65918C289.832 5.45182 290.099 5.26774 290.387 5.10693C290.679 4.94613 290.99 4.81917 291.32 4.72607C291.654 4.63298 292.01 4.58643 292.386 4.58643C292.958 4.58643 293.451 4.68587 293.865 4.88477C294.28 5.08366 294.599 5.36719 294.824 5.73535C295.052 6.10352 295.167 6.5415 295.167 7.04932C295.167 7.5402 295.069 7.99723 294.875 8.42041C294.68 8.83936 294.407 9.25618 294.056 9.6709C293.704 10.0814 293.294 10.5173 292.824 10.9785L290.806 12.9907V13.0352H295.547V14ZM299.838 8.3252C300.469 8.3252 301.017 8.43311 301.482 8.64893C301.948 8.86051 302.308 9.16943 302.562 9.57568C302.82 9.98193 302.949 10.4749 302.949 11.0547C302.949 11.6895 302.811 12.2375 302.536 12.6987C302.261 13.1558 301.865 13.5091 301.349 13.7588C300.833 14.0042 300.215 14.127 299.496 14.127C299.013 14.127 298.565 14.0846 298.15 14C297.735 13.9154 297.386 13.7884 297.103 13.6191V12.6162C297.411 12.8024 297.786 12.9505 298.226 13.0605C298.666 13.1706 299.094 13.2256 299.508 13.2256C299.978 13.2256 300.389 13.1515 300.74 13.0034C301.095 12.8511 301.37 12.6226 301.565 12.3179C301.764 12.009 301.863 11.6217 301.863 11.1562C301.863 10.5384 301.673 10.0623 301.292 9.72803C300.915 9.38949 300.319 9.22021 299.502 9.22021C299.24 9.22021 298.952 9.24137 298.639 9.28369C298.326 9.32601 298.067 9.37256 297.864 9.42334L297.331 9.07422L297.687 4.71973H302.301V5.68457H298.588L298.353 8.48389C298.514 8.45003 298.721 8.41618 298.975 8.38232C299.229 8.34424 299.517 8.3252 299.838 8.3252ZM314.171 14L313.029 11.0547H309.309L308.173 14H307.081L310.712 4.68164H311.683L315.289 14H314.171ZM312.705 10.0962L311.62 7.16992C311.594 7.09375 311.552 6.96891 311.493 6.79541C311.438 6.62191 311.381 6.44206 311.321 6.25586C311.262 6.06966 311.213 5.91943 311.175 5.80518C311.133 5.97868 311.086 6.15218 311.036 6.32568C310.989 6.49495 310.943 6.65365 310.896 6.80176C310.849 6.94564 310.809 7.06836 310.775 7.16992L309.671 10.0962H312.705ZM320.659 14L317.542 5.78613H317.491C317.508 5.95964 317.523 6.17122 317.536 6.4209C317.548 6.67057 317.559 6.94352 317.567 7.23975C317.576 7.53174 317.58 7.83008 317.58 8.13477V14H316.577V4.71973H318.177L321.116 12.4385H321.16L324.144 4.71973H325.73V14H324.664V8.05859C324.664 7.78353 324.668 7.50846 324.677 7.2334C324.685 6.9541 324.696 6.69173 324.708 6.44629C324.721 6.19661 324.734 5.98079 324.747 5.79883H324.696L321.541 14H320.659Z" fill="white"/>
<path d="M4.75342 42H3.50098V32.3906H0.131836V31.292H8.10791V32.3906H4.75342V42ZM10.7593 33.9727V42H9.54346V33.9727H10.7593ZM10.166 30.9697C10.3662 30.9697 10.5371 31.0356 10.6787 31.1675C10.8252 31.2944 10.8984 31.4946 10.8984 31.7681C10.8984 32.0366 10.8252 32.2368 10.6787 32.3687C10.5371 32.5005 10.3662 32.5664 10.166 32.5664C9.95605 32.5664 9.78027 32.5005 9.63867 32.3687C9.50195 32.2368 9.43359 32.0366 9.43359 31.7681C9.43359 31.4946 9.50195 31.2944 9.63867 31.1675C9.78027 31.0356 9.95605 30.9697 10.166 30.9697ZM22.0532 33.8262C22.937 33.8262 23.6035 34.0581 24.0527 34.522C24.502 34.981 24.7266 35.7207 24.7266 36.7412V42H23.5254V36.7998C23.5254 36.1504 23.3838 35.6646 23.1006 35.3423C22.8223 35.0151 22.4072 34.8516 21.8555 34.8516C21.0791 34.8516 20.5151 35.0762 20.1636 35.5254C19.812 35.9746 19.6362 36.6362 19.6362 37.5103V42H18.4277V36.7998C18.4277 36.3652 18.3643 36.0039 18.2373 35.7158C18.1152 35.4277 17.9297 35.2129 17.6807 35.0713C17.4365 34.9248 17.1265 34.8516 16.7505 34.8516C16.2183 34.8516 15.791 34.9614 15.4688 35.1812C15.1465 35.4009 14.9121 35.728 14.7656 36.1626C14.624 36.5923 14.5532 37.1221 14.5532 37.752V42H13.3374V33.9727H14.3188L14.502 35.1079H14.5679C14.729 34.8296 14.9316 34.5952 15.1758 34.4048C15.4199 34.2144 15.6934 34.0703 15.9961 33.9727C16.2988 33.875 16.6211 33.8262 16.9629 33.8262C17.5732 33.8262 18.0835 33.9409 18.4937 34.1704C18.9087 34.395 19.209 34.7393 19.3945 35.2031H19.4604C19.7241 34.7393 20.0854 34.395 20.5444 34.1704C21.0034 33.9409 21.5063 33.8262 22.0532 33.8262ZM30.3149 33.8262C30.9985 33.8262 31.5845 33.9775 32.0728 34.2803C32.561 34.583 32.9346 35.0078 33.1934 35.5547C33.4521 36.0967 33.5815 36.7314 33.5815 37.459V38.2134H28.0371C28.0518 39.1558 28.2861 39.8735 28.7402 40.3667C29.1943 40.8599 29.834 41.1064 30.6592 41.1064C31.167 41.1064 31.6162 41.0601 32.0068 40.9673C32.3975 40.8745 32.8027 40.7378 33.2227 40.5571V41.6265C32.8174 41.8071 32.4146 41.939 32.0142 42.022C31.6187 42.105 31.1499 42.1465 30.6079 42.1465C29.8364 42.1465 29.1626 41.9902 28.5864 41.6777C28.0151 41.3604 27.5708 40.8965 27.2534 40.2861C26.936 39.6758 26.7773 38.9287 26.7773 38.0449C26.7773 37.1807 26.9214 36.4336 27.2095 35.8037C27.5024 35.1689 27.9126 34.6807 28.4399 34.3389C28.9722 33.9971 29.5972 33.8262 30.3149 33.8262ZM30.3003 34.8223C29.6509 34.8223 29.1333 35.0347 28.7476 35.4595C28.3618 35.8843 28.1323 36.4775 28.0591 37.2393H32.3071C32.3022 36.7607 32.2266 36.3408 32.0801 35.9795C31.9385 35.6133 31.7212 35.3301 31.4282 35.1299C31.1353 34.9248 30.7593 34.8223 30.3003 34.8223ZM43.1177 34.9248H41.1182V42H39.9023V34.9248H38.4814V34.3389L39.9023 33.936V33.4014C39.9023 32.7275 40.0024 32.1807 40.2026 31.7607C40.4028 31.3359 40.6934 31.0234 41.0742 30.8232C41.4551 30.623 41.9189 30.5229 42.4658 30.5229C42.7734 30.5229 43.0542 30.5498 43.3081 30.6035C43.5669 30.6572 43.7939 30.7183 43.9893 30.7866L43.6743 31.7461C43.5083 31.6924 43.3203 31.6436 43.1104 31.5996C42.9053 31.5508 42.6953 31.5264 42.4805 31.5264C42.0166 31.5264 41.6724 31.6777 41.4478 31.9805C41.228 32.2783 41.1182 32.7471 41.1182 33.3867V33.9727H43.1177V34.9248ZM51.5186 37.9717C51.5186 38.6309 51.4331 39.2192 51.2622 39.7368C51.0913 40.2544 50.8447 40.6914 50.5225 41.0479C50.2002 41.4043 49.8096 41.6777 49.3506 41.8682C48.8965 42.0537 48.3813 42.1465 47.8052 42.1465C47.2681 42.1465 46.7749 42.0537 46.3257 41.8682C45.8813 41.6777 45.4956 41.4043 45.1685 41.0479C44.8462 40.6914 44.5947 40.2544 44.4141 39.7368C44.2383 39.2192 44.1504 38.6309 44.1504 37.9717C44.1504 37.0928 44.2993 36.3457 44.5972 35.7305C44.895 35.1104 45.3198 34.6392 45.8716 34.3169C46.4282 33.9897 47.0898 33.8262 47.8564 33.8262C48.5889 33.8262 49.2285 33.9897 49.7754 34.3169C50.3271 34.644 50.7544 35.1177 51.0571 35.7378C51.3647 36.353 51.5186 37.0977 51.5186 37.9717ZM45.4102 37.9717C45.4102 38.6162 45.4956 39.1753 45.6665 39.6489C45.8374 40.1226 46.1011 40.4888 46.4575 40.7476C46.814 41.0063 47.2729 41.1357 47.8345 41.1357C48.3911 41.1357 48.8477 41.0063 49.2041 40.7476C49.5654 40.4888 49.8315 40.1226 50.0024 39.6489C50.1733 39.1753 50.2588 38.6162 50.2588 37.9717C50.2588 37.332 50.1733 36.7803 50.0024 36.3164C49.8315 35.8477 49.5679 35.4863 49.2114 35.2324C48.855 34.9785 48.3936 34.8516 47.8271 34.8516C46.9922 34.8516 46.3794 35.1274 45.9888 35.6792C45.603 36.231 45.4102 36.9951 45.4102 37.9717ZM57.2681 33.8262C57.4292 33.8262 57.5977 33.8359 57.7734 33.8555C57.9492 33.8701 58.1055 33.8921 58.2422 33.9214L58.0884 35.0493C57.9565 35.0151 57.8101 34.9883 57.6489 34.9688C57.4878 34.9492 57.3364 34.9395 57.1948 34.9395C56.8726 34.9395 56.5674 35.0054 56.2793 35.1372C55.9961 35.2642 55.7471 35.4497 55.5322 35.6938C55.3174 35.9331 55.1489 36.2236 55.0269 36.5654C54.9048 36.9023 54.8438 37.2783 54.8438 37.6934V42H53.6206V33.9727H54.6313L54.7632 35.4521H54.8145C54.9805 35.1543 55.1807 34.8833 55.415 34.6392C55.6494 34.3901 55.9204 34.1924 56.228 34.0459C56.5405 33.8994 56.8872 33.8262 57.2681 33.8262ZM62.3877 33.9727H63.6914L65.4639 38.6309C65.5664 38.9043 65.6616 39.168 65.7495 39.4219C65.8374 39.6709 65.9155 39.9102 65.9839 40.1396C66.0522 40.3691 66.106 40.5913 66.145 40.8062H66.1963C66.2646 40.562 66.3623 40.2422 66.4893 39.8467C66.6162 39.4463 66.7529 39.0386 66.8994 38.6235L68.5767 33.9727H69.8877L66.394 43.1792C66.2085 43.6724 65.9912 44.1021 65.7422 44.4683C65.498 44.8345 65.2002 45.1152 64.8486 45.3105C64.4971 45.5107 64.0723 45.6108 63.5742 45.6108C63.3447 45.6108 63.1421 45.5962 62.9663 45.5669C62.7905 45.5425 62.6392 45.5132 62.5122 45.479V44.5049C62.6196 44.5293 62.749 44.5513 62.9004 44.5708C63.0566 44.5903 63.2178 44.6001 63.3838 44.6001C63.6865 44.6001 63.9478 44.5415 64.1675 44.4243C64.3921 44.312 64.585 44.146 64.7461 43.9263C64.9072 43.7065 65.0464 43.4453 65.1636 43.1426L65.603 42.0146L62.3877 33.9727ZM78.0908 37.9717C78.0908 38.6309 78.0054 39.2192 77.8345 39.7368C77.6636 40.2544 77.417 40.6914 77.0947 41.0479C76.7725 41.4043 76.3818 41.6777 75.9229 41.8682C75.4688 42.0537 74.9536 42.1465 74.3774 42.1465C73.8403 42.1465 73.3472 42.0537 72.8979 41.8682C72.4536 41.6777 72.0679 41.4043 71.7407 41.0479C71.4185 40.6914 71.167 40.2544 70.9863 39.7368C70.8105 39.2192 70.7227 38.6309 70.7227 37.9717C70.7227 37.0928 70.8716 36.3457 71.1694 35.7305C71.4673 35.1104 71.8921 34.6392 72.4438 34.3169C73.0005 33.9897 73.6621 33.8262 74.4287 33.8262C75.1611 33.8262 75.8008 33.9897 76.3477 34.3169C76.8994 34.644 77.3267 35.1177 77.6294 35.7378C77.937 36.353 78.0908 37.0977 78.0908 37.9717ZM71.9824 37.9717C71.9824 38.6162 72.0679 39.1753 72.2388 39.6489C72.4097 40.1226 72.6733 40.4888 73.0298 40.7476C73.3862 41.0063 73.8452 41.1357 74.4067 41.1357C74.9634 41.1357 75.4199 41.0063 75.7764 40.7476C76.1377 40.4888 76.4038 40.1226 76.5747 39.6489C76.7456 39.1753 76.8311 38.6162 76.8311 37.9717C76.8311 37.332 76.7456 36.7803 76.5747 36.3164C76.4038 35.8477 76.1401 35.4863 75.7837 35.2324C75.4272 34.9785 74.9658 34.8516 74.3994 34.8516C73.5645 34.8516 72.9517 35.1274 72.561 35.6792C72.1753 36.231 71.9824 36.9951 71.9824 37.9717ZM86.8213 33.9727V42H85.8252L85.6494 40.8721H85.5835C85.4175 41.1504 85.2026 41.3848 84.939 41.5752C84.6753 41.7656 84.3774 41.9072 84.0454 42C83.7183 42.0977 83.3691 42.1465 82.998 42.1465C82.3633 42.1465 81.8311 42.0439 81.4014 41.8389C80.9717 41.6338 80.647 41.3164 80.4272 40.8867C80.2124 40.457 80.105 39.9053 80.105 39.2314V33.9727H81.3354V39.1436C81.3354 39.8125 81.4868 40.313 81.7896 40.645C82.0923 40.9722 82.5537 41.1357 83.1738 41.1357C83.7695 41.1357 84.2432 41.0234 84.5947 40.7988C84.9512 40.5742 85.2075 40.2446 85.3638 39.8101C85.52 39.3706 85.5981 38.8335 85.5981 38.1987V33.9727H86.8213ZM93.0396 33.8262C93.2007 33.8262 93.3691 33.8359 93.5449 33.8555C93.7207 33.8701 93.877 33.8921 94.0137 33.9214L93.8599 35.0493C93.728 35.0151 93.5815 34.9883 93.4204 34.9688C93.2593 34.9492 93.1079 34.9395 92.9663 34.9395C92.644 34.9395 92.3389 35.0054 92.0508 35.1372C91.7676 35.2642 91.5186 35.4497 91.3037 35.6938C91.0889 35.9331 90.9204 36.2236 90.7983 36.5654C90.6763 36.9023 90.6152 37.2783 90.6152 37.6934V42H89.3921V33.9727H90.4028L90.5347 35.4521H90.5859C90.752 35.1543 90.9521 34.8833 91.1865 34.6392C91.4209 34.3901 91.6919 34.1924 91.9995 34.0459C92.312 33.8994 92.6587 33.8262 93.0396 33.8262ZM105.959 41.9854L104.531 37.3125C104.468 37.1123 104.407 36.917 104.348 36.7266C104.294 36.5312 104.243 36.3457 104.194 36.1699C104.15 35.9893 104.109 35.8232 104.07 35.6719C104.036 35.5156 104.006 35.3813 103.982 35.269H103.931C103.911 35.3813 103.884 35.5156 103.85 35.6719C103.816 35.8232 103.774 35.9893 103.726 36.1699C103.682 36.3506 103.633 36.541 103.579 36.7412C103.525 36.9365 103.464 37.1343 103.396 37.3345L101.902 41.9854H100.532L98.3203 33.958H99.5801L100.737 38.3892C100.815 38.6821 100.889 38.9727 100.957 39.2607C101.03 39.5439 101.091 39.8125 101.14 40.0664C101.194 40.3154 101.233 40.5327 101.257 40.7183H101.316C101.345 40.5962 101.377 40.4497 101.411 40.2788C101.45 40.1079 101.492 39.9272 101.536 39.7368C101.584 39.5415 101.636 39.3486 101.689 39.1582C101.743 38.9629 101.797 38.7798 101.851 38.6089L103.33 33.958H104.641L106.069 38.6016C106.143 38.8359 106.213 39.0801 106.282 39.334C106.355 39.5879 106.421 39.8345 106.479 40.0737C106.538 40.3081 106.58 40.5181 106.604 40.7036H106.663C106.682 40.5376 106.719 40.3325 106.772 40.0884C106.826 39.8442 106.887 39.5757 106.956 39.2827C107.029 38.9897 107.104 38.6919 107.183 38.3892L108.354 33.958H109.592L107.373 41.9854H105.959ZM117.979 37.9717C117.979 38.6309 117.893 39.2192 117.722 39.7368C117.551 40.2544 117.305 40.6914 116.982 41.0479C116.66 41.4043 116.27 41.6777 115.811 41.8682C115.356 42.0537 114.841 42.1465 114.265 42.1465C113.728 42.1465 113.235 42.0537 112.786 41.8682C112.341 41.6777 111.956 41.4043 111.628 41.0479C111.306 40.6914 111.055 40.2544 110.874 39.7368C110.698 39.2192 110.61 38.6309 110.61 37.9717C110.61 37.0928 110.759 36.3457 111.057 35.7305C111.355 35.1104 111.78 34.6392 112.332 34.3169C112.888 33.9897 113.55 33.8262 114.316 33.8262C115.049 33.8262 115.688 33.9897 116.235 34.3169C116.787 34.644 117.214 35.1177 117.517 35.7378C117.825 36.353 117.979 37.0977 117.979 37.9717ZM111.87 37.9717C111.87 38.6162 111.956 39.1753 112.126 39.6489C112.297 40.1226 112.561 40.4888 112.917 40.7476C113.274 41.0063 113.733 41.1357 114.294 41.1357C114.851 41.1357 115.308 41.0063 115.664 40.7476C116.025 40.4888 116.292 40.1226 116.462 39.6489C116.633 39.1753 116.719 38.6162 116.719 37.9717C116.719 37.332 116.633 36.7803 116.462 36.3164C116.292 35.8477 116.028 35.4863 115.671 35.2324C115.315 34.9785 114.854 34.8516 114.287 34.8516C113.452 34.8516 112.839 35.1274 112.449 35.6792C112.063 36.231 111.87 36.9951 111.87 37.9717ZM123.728 33.8262C123.889 33.8262 124.058 33.8359 124.233 33.8555C124.409 33.8701 124.565 33.8921 124.702 33.9214L124.548 35.0493C124.417 35.0151 124.27 34.9883 124.109 34.9688C123.948 34.9492 123.796 34.9395 123.655 34.9395C123.333 34.9395 123.027 35.0054 122.739 35.1372C122.456 35.2642 122.207 35.4497 121.992 35.6938C121.777 35.9331 121.609 36.2236 121.487 36.5654C121.365 36.9023 121.304 37.2783 121.304 37.6934V42H120.081V33.9727H121.091L121.223 35.4521H121.274C121.44 35.1543 121.641 34.8833 121.875 34.6392C122.109 34.3901 122.38 34.1924 122.688 34.0459C123 33.8994 123.347 33.8262 123.728 33.8262ZM127.427 30.6035V36.5215C127.427 36.7168 127.419 36.9561 127.405 37.2393C127.39 37.5176 127.378 37.7642 127.368 37.979H127.419C127.522 37.8521 127.671 37.6641 127.866 37.415C128.066 37.166 128.235 36.9658 128.372 36.8145L131.038 33.9727H132.466L129.236 37.4004L132.7 42H131.235L128.401 38.1987L127.427 39.0923V42H126.218V30.6035H127.427ZM141.021 37.9717C141.021 38.6309 140.935 39.2192 140.764 39.7368C140.593 40.2544 140.347 40.6914 140.024 41.0479C139.702 41.4043 139.312 41.6777 138.853 41.8682C138.398 42.0537 137.883 42.1465 137.307 42.1465C136.77 42.1465 136.277 42.0537 135.828 41.8682C135.383 41.6777 134.998 41.4043 134.67 41.0479C134.348 40.6914 134.097 40.2544 133.916 39.7368C133.74 39.2192 133.652 38.6309 133.652 37.9717C133.652 37.0928 133.801 36.3457 134.099 35.7305C134.397 35.1104 134.822 34.6392 135.374 34.3169C135.93 33.9897 136.592 33.8262 137.358 33.8262C138.091 33.8262 138.73 33.9897 139.277 34.3169C139.829 34.644 140.256 35.1177 140.559 35.7378C140.867 36.353 141.021 37.0977 141.021 37.9717ZM134.912 37.9717C134.912 38.6162 134.998 39.1753 135.168 39.6489C135.339 40.1226 135.603 40.4888 135.959 40.7476C136.316 41.0063 136.775 41.1357 137.336 41.1357C137.893 41.1357 138.35 41.0063 138.706 40.7476C139.067 40.4888 139.333 40.1226 139.504 39.6489C139.675 39.1753 139.761 38.6162 139.761 37.9717C139.761 37.332 139.675 36.7803 139.504 36.3164C139.333 35.8477 139.07 35.4863 138.713 35.2324C138.357 34.9785 137.896 34.8516 137.329 34.8516C136.494 34.8516 135.881 35.1274 135.491 35.6792C135.105 36.231 134.912 36.9951 134.912 37.9717ZM149.751 33.9727V42H148.755L148.579 40.8721H148.513C148.347 41.1504 148.132 41.3848 147.869 41.5752C147.605 41.7656 147.307 41.9072 146.975 42C146.648 42.0977 146.299 42.1465 145.928 42.1465C145.293 42.1465 144.761 42.0439 144.331 41.8389C143.901 41.6338 143.577 41.3164 143.357 40.8867C143.142 40.457 143.035 39.9053 143.035 39.2314V33.9727H144.265V39.1436C144.265 39.8125 144.417 40.313 144.719 40.645C145.022 40.9722 145.483 41.1357 146.104 41.1357C146.699 41.1357 147.173 41.0234 147.524 40.7988C147.881 40.5742 148.137 40.2446 148.293 39.8101C148.45 39.3706 148.528 38.8335 148.528 38.1987V33.9727H149.751ZM154.915 41.1504C155.115 41.1504 155.32 41.1333 155.53 41.0991C155.74 41.0649 155.911 41.0234 156.042 40.9746V41.9194C155.901 41.9829 155.703 42.0366 155.449 42.0806C155.2 42.1245 154.956 42.1465 154.717 42.1465C154.292 42.1465 153.906 42.0732 153.56 41.9268C153.213 41.7754 152.935 41.5215 152.725 41.165C152.52 40.8086 152.417 40.3154 152.417 39.6855V34.9248H151.274V34.3315L152.424 33.8555L152.908 32.1123H153.64V33.9727H155.991V34.9248H153.64V39.6489C153.64 40.1519 153.755 40.5278 153.984 40.7769C154.219 41.0259 154.529 41.1504 154.915 41.1504ZM166.758 39.8027C166.758 40.3154 166.628 40.7476 166.37 41.0991C166.116 41.4458 165.75 41.707 165.271 41.8828C164.797 42.0586 164.231 42.1465 163.572 42.1465C163.01 42.1465 162.524 42.1025 162.114 42.0146C161.704 41.9268 161.345 41.8022 161.038 41.6411V40.5205C161.365 40.6816 161.755 40.8281 162.209 40.96C162.664 41.0918 163.127 41.1577 163.601 41.1577C164.294 41.1577 164.797 41.0454 165.11 40.8208C165.422 40.5962 165.579 40.291 165.579 39.9053C165.579 39.6855 165.515 39.4927 165.388 39.3267C165.266 39.1558 165.059 38.9922 164.766 38.8359C164.473 38.6748 164.067 38.499 163.55 38.3086C163.037 38.1133 162.593 37.9204 162.217 37.73C161.846 37.5347 161.558 37.2979 161.353 37.0195C161.152 36.7412 161.052 36.3799 161.052 35.9355C161.052 35.2568 161.326 34.7368 161.873 34.3755C162.424 34.0093 163.147 33.8262 164.041 33.8262C164.524 33.8262 164.976 33.875 165.396 33.9727C165.82 34.0654 166.216 34.1924 166.582 34.3535L166.172 35.3276C165.84 35.186 165.486 35.0664 165.11 34.9688C164.734 34.8711 164.351 34.8223 163.96 34.8223C163.398 34.8223 162.966 34.915 162.664 35.1006C162.366 35.2861 162.217 35.54 162.217 35.8623C162.217 36.1113 162.285 36.3164 162.422 36.4775C162.563 36.6387 162.788 36.79 163.096 36.9316C163.403 37.0732 163.809 37.2393 164.312 37.4297C164.814 37.6152 165.249 37.8081 165.615 38.0083C165.981 38.2036 166.262 38.4429 166.458 38.7261C166.658 39.0044 166.758 39.3633 166.758 39.8027ZM171.804 33.8262C172.488 33.8262 173.074 33.9775 173.562 34.2803C174.05 34.583 174.424 35.0078 174.683 35.5547C174.941 36.0967 175.071 36.7314 175.071 37.459V38.2134H169.526C169.541 39.1558 169.775 39.8735 170.229 40.3667C170.684 40.8599 171.323 41.1064 172.148 41.1064C172.656 41.1064 173.105 41.0601 173.496 40.9673C173.887 40.8745 174.292 40.7378 174.712 40.5571V41.6265C174.307 41.8071 173.904 41.939 173.503 42.022C173.108 42.105 172.639 42.1465 172.097 42.1465C171.326 42.1465 170.652 41.9902 170.076 41.6777C169.504 41.3604 169.06 40.8965 168.743 40.2861C168.425 39.6758 168.267 38.9287 168.267 38.0449C168.267 37.1807 168.411 36.4336 168.699 35.8037C168.992 35.1689 169.402 34.6807 169.929 34.3389C170.461 33.9971 171.086 33.8262 171.804 33.8262ZM171.79 34.8223C171.14 34.8223 170.623 35.0347 170.237 35.4595C169.851 35.8843 169.622 36.4775 169.548 37.2393H173.796C173.792 36.7607 173.716 36.3408 173.569 35.9795C173.428 35.6133 173.21 35.3301 172.917 35.1299C172.625 34.9248 172.249 34.8223 171.79 34.8223ZM182.329 39.8027C182.329 40.3154 182.2 40.7476 181.941 41.0991C181.687 41.4458 181.321 41.707 180.842 41.8828C180.369 42.0586 179.802 42.1465 179.143 42.1465C178.582 42.1465 178.096 42.1025 177.686 42.0146C177.275 41.9268 176.917 41.8022 176.609 41.6411V40.5205C176.936 40.6816 177.327 40.8281 177.781 40.96C178.235 41.0918 178.699 41.1577 179.172 41.1577C179.866 41.1577 180.369 41.0454 180.681 40.8208C180.994 40.5962 181.15 40.291 181.15 39.9053C181.15 39.6855 181.086 39.4927 180.959 39.3267C180.837 39.1558 180.63 38.9922 180.337 38.8359C180.044 38.6748 179.639 38.499 179.121 38.3086C178.608 38.1133 178.164 37.9204 177.788 37.73C177.417 37.5347 177.129 37.2979 176.924 37.0195C176.724 36.7412 176.624 36.3799 176.624 35.9355C176.624 35.2568 176.897 34.7368 177.444 34.3755C177.996 34.0093 178.718 33.8262 179.612 33.8262C180.095 33.8262 180.547 33.875 180.967 33.9727C181.392 34.0654 181.787 34.1924 182.153 34.3535L181.743 35.3276C181.411 35.186 181.057 35.0664 180.681 34.9688C180.305 34.8711 179.922 34.8223 179.531 34.8223C178.97 34.8223 178.538 34.915 178.235 35.1006C177.937 35.2861 177.788 35.54 177.788 35.8623C177.788 36.1113 177.856 36.3164 177.993 36.4775C178.135 36.6387 178.359 36.79 178.667 36.9316C178.975 37.0732 179.38 37.2393 179.883 37.4297C180.386 37.6152 180.82 37.8081 181.187 38.0083C181.553 38.2036 181.833 38.4429 182.029 38.7261C182.229 39.0044 182.329 39.3633 182.329 39.8027ZM189.478 39.8027C189.478 40.3154 189.348 40.7476 189.089 41.0991C188.835 41.4458 188.469 41.707 187.991 41.8828C187.517 42.0586 186.951 42.1465 186.292 42.1465C185.73 42.1465 185.244 42.1025 184.834 42.0146C184.424 41.9268 184.065 41.8022 183.757 41.6411V40.5205C184.084 40.6816 184.475 40.8281 184.929 40.96C185.383 41.0918 185.847 41.1577 186.321 41.1577C187.014 41.1577 187.517 41.0454 187.83 40.8208C188.142 40.5962 188.298 40.291 188.298 39.9053C188.298 39.6855 188.235 39.4927 188.108 39.3267C187.986 39.1558 187.778 38.9922 187.485 38.8359C187.192 38.6748 186.787 38.499 186.27 38.3086C185.757 38.1133 185.312 37.9204 184.937 37.73C184.565 37.5347 184.277 37.2979 184.072 37.0195C183.872 36.7412 183.772 36.3799 183.772 35.9355C183.772 35.2568 184.045 34.7368 184.592 34.3755C185.144 34.0093 185.867 33.8262 186.76 33.8262C187.244 33.8262 187.695 33.875 188.115 33.9727C188.54 34.0654 188.936 34.1924 189.302 34.3535L188.892 35.3276C188.56 35.186 188.206 35.0664 187.83 34.9688C187.454 34.8711 187.07 34.8223 186.68 34.8223C186.118 34.8223 185.686 34.915 185.383 35.1006C185.085 35.2861 184.937 35.54 184.937 35.8623C184.937 36.1113 185.005 36.3164 185.142 36.4775C185.283 36.6387 185.508 36.79 185.815 36.9316C186.123 37.0732 186.528 37.2393 187.031 37.4297C187.534 37.6152 187.969 37.8081 188.335 38.0083C188.701 38.2036 188.982 38.4429 189.177 38.7261C189.377 39.0044 189.478 39.3633 189.478 39.8027ZM192.649 33.9727V42H191.433V33.9727H192.649ZM192.056 30.9697C192.256 30.9697 192.427 31.0356 192.568 31.1675C192.715 31.2944 192.788 31.4946 192.788 31.7681C192.788 32.0366 192.715 32.2368 192.568 32.3687C192.427 32.5005 192.256 32.5664 192.056 32.5664C191.846 32.5664 191.67 32.5005 191.528 32.3687C191.392 32.2368 191.323 32.0366 191.323 31.7681C191.323 31.4946 191.392 31.2944 191.528 31.1675C191.67 31.0356 191.846 30.9697 192.056 30.9697ZM202.148 37.9717C202.148 38.6309 202.063 39.2192 201.892 39.7368C201.721 40.2544 201.475 40.6914 201.152 41.0479C200.83 41.4043 200.439 41.6777 199.98 41.8682C199.526 42.0537 199.011 42.1465 198.435 42.1465C197.898 42.1465 197.405 42.0537 196.956 41.8682C196.511 41.6777 196.125 41.4043 195.798 41.0479C195.476 40.6914 195.225 40.2544 195.044 39.7368C194.868 39.2192 194.78 38.6309 194.78 37.9717C194.78 37.0928 194.929 36.3457 195.227 35.7305C195.525 35.1104 195.95 34.6392 196.501 34.3169C197.058 33.9897 197.72 33.8262 198.486 33.8262C199.219 33.8262 199.858 33.9897 200.405 34.3169C200.957 34.644 201.384 35.1177 201.687 35.7378C201.995 36.353 202.148 37.0977 202.148 37.9717ZM196.04 37.9717C196.04 38.6162 196.125 39.1753 196.296 39.6489C196.467 40.1226 196.731 40.4888 197.087 40.7476C197.444 41.0063 197.903 41.1357 198.464 41.1357C199.021 41.1357 199.478 41.0063 199.834 40.7476C200.195 40.4888 200.461 40.1226 200.632 39.6489C200.803 39.1753 200.889 38.6162 200.889 37.9717C200.889 37.332 200.803 36.7803 200.632 36.3164C200.461 35.8477 200.198 35.4863 199.841 35.2324C199.485 34.9785 199.023 34.8516 198.457 34.8516C197.622 34.8516 197.009 35.1274 196.619 35.6792C196.233 36.231 196.04 36.9951 196.04 37.9717ZM208.052 33.8262C209.004 33.8262 209.724 34.0605 210.212 34.5293C210.701 34.9932 210.945 35.7402 210.945 36.7705V42H209.744V36.8511C209.744 36.1821 209.59 35.6816 209.282 35.3496C208.979 35.0176 208.513 34.8516 207.883 34.8516C206.995 34.8516 206.37 35.103 206.008 35.606C205.647 36.1089 205.466 36.8389 205.466 37.7959V42H204.25V33.9727H205.232L205.415 35.1299H205.481C205.652 34.8467 205.869 34.6099 206.133 34.4194C206.396 34.2241 206.692 34.0776 207.019 33.98C207.346 33.8774 207.69 33.8262 208.052 33.8262Z" fill="white"/>
</svg>
