<svg width="311" height="43" viewBox="0 0 311 43" fill="none" xmlns="http://www.w3.org/2000/svg">
<path d="M311 42H0" stroke="#1A242D"/>
<path d="M7.58789 15.085C7.58789 15.7197 7.43164 16.2666 7.11914 16.7256C6.81152 17.1846 6.36719 17.5361 5.78613 17.7803C5.20996 18.0244 4.52148 18.1465 3.7207 18.1465C3.33008 18.1465 2.95654 18.1245 2.6001 18.0806C2.24365 18.0366 1.90674 17.9731 1.58936 17.8901C1.27686 17.8022 0.991211 17.6973 0.732422 17.5752V15.9199C1.16699 16.1104 1.65283 16.2837 2.18994 16.4399C2.72705 16.5913 3.27393 16.667 3.83057 16.667C4.28467 16.667 4.66064 16.6084 4.9585 16.4912C5.26123 16.3691 5.48584 16.1982 5.63232 15.9785C5.77881 15.7539 5.85205 15.4927 5.85205 15.1948C5.85205 14.8774 5.7666 14.6089 5.5957 14.3892C5.4248 14.1694 5.16602 13.9692 4.81934 13.7886C4.47754 13.603 4.04785 13.4053 3.53027 13.1953C3.17871 13.0537 2.8418 12.8926 2.51953 12.7119C2.20215 12.5312 1.91895 12.3188 1.66992 12.0747C1.4209 11.8306 1.22314 11.5425 1.07666 11.2104C0.935059 10.8735 0.864258 10.478 0.864258 10.0239C0.864258 9.41846 1.0083 8.90088 1.29639 8.47119C1.58936 8.0415 1.99951 7.71191 2.52686 7.48242C3.05908 7.25293 3.6792 7.13818 4.38721 7.13818C4.94873 7.13818 5.47607 7.19678 5.96924 7.31396C6.46729 7.43115 6.95557 7.59717 7.43408 7.81201L6.87744 9.22559C6.43799 9.04492 6.01074 8.90088 5.5957 8.79346C5.18555 8.68604 4.76562 8.63232 4.33594 8.63232C3.96484 8.63232 3.6499 8.68848 3.39111 8.80078C3.13232 8.91309 2.93457 9.07178 2.79785 9.27686C2.66602 9.47705 2.6001 9.71631 2.6001 9.99463C2.6001 10.3071 2.67578 10.5708 2.82715 10.7856C2.9834 10.9956 3.22266 11.1885 3.54492 11.3643C3.87207 11.54 4.29199 11.7354 4.80469 11.9502C5.39551 12.1943 5.896 12.4507 6.30615 12.7192C6.72119 12.9878 7.03857 13.3101 7.2583 13.686C7.47803 14.0571 7.58789 14.5234 7.58789 15.085ZM12.7075 9.73828C13.4302 9.73828 14.0503 9.88721 14.5679 10.1851C15.0854 10.4829 15.4834 10.9053 15.7617 11.4521C16.04 11.999 16.1792 12.6533 16.1792 13.415V14.3379H10.7666C10.7861 15.124 10.9961 15.7295 11.3965 16.1543C11.8018 16.5791 12.3682 16.7915 13.0957 16.7915C13.6133 16.7915 14.0771 16.7427 14.4873 16.645C14.9023 16.5425 15.3296 16.3936 15.769 16.1982V17.5972C15.3638 17.7876 14.9512 17.9268 14.5312 18.0146C14.1113 18.1025 13.6084 18.1465 13.0225 18.1465C12.2266 18.1465 11.5259 17.9927 10.9204 17.6851C10.3198 17.3726 9.84863 16.9087 9.50684 16.2935C9.16992 15.6782 9.00146 14.9141 9.00146 14.001C9.00146 13.0928 9.15527 12.3213 9.46289 11.6865C9.77051 11.0518 10.2026 10.5684 10.7593 10.2363C11.3159 9.9043 11.9653 9.73828 12.7075 9.73828ZM12.7075 11.0347C12.1655 11.0347 11.7261 11.2104 11.3892 11.562C11.0571 11.9136 10.8618 12.4287 10.8032 13.1074H14.4946C14.4897 12.7021 14.4214 12.3433 14.2896 12.0308C14.1626 11.7183 13.9673 11.4741 13.7036 11.2983C13.4448 11.1226 13.1128 11.0347 12.7075 11.0347ZM21.1377 16.7549C21.3623 16.7549 21.5845 16.7354 21.8042 16.6963C22.0239 16.6523 22.2241 16.6011 22.4048 16.5425V17.8462C22.2144 17.9292 21.9678 18 21.665 18.0586C21.3623 18.1172 21.0474 18.1465 20.7202 18.1465C20.2612 18.1465 19.8486 18.0708 19.4824 17.9194C19.1162 17.7632 18.8257 17.4971 18.6108 17.1211C18.396 16.7451 18.2886 16.2251 18.2886 15.561V11.2031H17.1826V10.4341L18.3691 9.82617L18.9331 8.09033H20.0171V9.89209H22.3389V11.2031H20.0171V15.5391C20.0171 15.9492 20.1196 16.2544 20.3247 16.4546C20.5298 16.6548 20.8008 16.7549 21.1377 16.7549ZM27.0703 16.7549C27.2949 16.7549 27.5171 16.7354 27.7368 16.6963C27.9565 16.6523 28.1567 16.6011 28.3374 16.5425V17.8462C28.147 17.9292 27.9004 18 27.5977 18.0586C27.2949 18.1172 26.98 18.1465 26.6528 18.1465C26.1938 18.1465 25.7812 18.0708 25.415 17.9194C25.0488 17.7632 24.7583 17.4971 24.5435 17.1211C24.3286 16.7451 24.2212 16.2251 24.2212 15.561V11.2031H23.1152V10.4341L24.3018 9.82617L24.8657 8.09033H25.9497V9.89209H28.2715V11.2031H25.9497V15.5391C25.9497 15.9492 26.0522 16.2544 26.2573 16.4546C26.4624 16.6548 26.7334 16.7549 27.0703 16.7549ZM31.7065 9.89209V18H29.9854V9.89209H31.7065ZM30.8569 6.78662C31.1206 6.78662 31.3477 6.85742 31.5381 6.99902C31.7334 7.14062 31.8311 7.38477 31.8311 7.73145C31.8311 8.07324 31.7334 8.31738 31.5381 8.46387C31.3477 8.60547 31.1206 8.67627 30.8569 8.67627C30.5835 8.67627 30.3516 8.60547 30.1611 8.46387C29.9756 8.31738 29.8828 8.07324 29.8828 7.73145C29.8828 7.38477 29.9756 7.14062 30.1611 6.99902C30.3516 6.85742 30.5835 6.78662 30.8569 6.78662ZM38.4009 9.73828C39.314 9.73828 40.0244 9.9751 40.5322 10.4487C41.0449 10.9175 41.3013 11.6719 41.3013 12.7119V18H39.5801V13.0342C39.5801 12.4043 39.4507 11.9331 39.1919 11.6206C38.9331 11.3032 38.5327 11.1445 37.9907 11.1445C37.2046 11.1445 36.6577 11.3862 36.3501 11.8696C36.0474 12.353 35.896 13.0537 35.896 13.9717V18H34.1748V9.89209H35.5151L35.7568 10.9907H35.8521C36.0278 10.7075 36.2451 10.4756 36.5039 10.2949C36.7676 10.1094 37.0605 9.97021 37.3828 9.87744C37.71 9.78467 38.0493 9.73828 38.4009 9.73828ZM46.0254 21.6035C44.9268 21.6035 44.0845 21.4058 43.4985 21.0103C42.9126 20.6147 42.6196 20.0605 42.6196 19.3477C42.6196 18.8496 42.7759 18.4272 43.0884 18.0806C43.4009 17.7388 43.8477 17.502 44.4287 17.3701C44.209 17.2725 44.0186 17.1211 43.8574 16.916C43.7012 16.7061 43.623 16.4741 43.623 16.2202C43.623 15.9175 43.7085 15.6587 43.8794 15.4438C44.0503 15.229 44.3066 15.0215 44.6484 14.8213C44.2236 14.6406 43.8818 14.3477 43.623 13.9424C43.3691 13.5322 43.2422 13.0513 43.2422 12.4995C43.2422 11.9136 43.3667 11.4155 43.6157 11.0054C43.8647 10.5903 44.2285 10.2754 44.707 10.0605C45.1855 9.84082 45.7642 9.73096 46.4429 9.73096C46.5894 9.73096 46.748 9.74072 46.9189 9.76025C47.0947 9.7749 47.2559 9.79443 47.4023 9.81885C47.5537 9.83838 47.6685 9.86035 47.7466 9.88477H50.5518V10.8442L49.1748 11.1006C49.3066 11.2861 49.4116 11.4985 49.4897 11.7378C49.5679 11.9722 49.6069 12.2285 49.6069 12.5068C49.6069 13.3467 49.3164 14.0083 48.7354 14.4917C48.1592 14.9702 47.3633 15.2095 46.3477 15.2095C46.1035 15.1997 45.8667 15.1802 45.6372 15.1509C45.4614 15.2583 45.3271 15.3779 45.2344 15.5098C45.1416 15.6367 45.0952 15.7808 45.0952 15.9419C45.0952 16.0737 45.1416 16.1812 45.2344 16.2642C45.3271 16.3423 45.4639 16.4009 45.6445 16.4399C45.8301 16.479 46.0547 16.4985 46.3184 16.4985H47.7173C48.606 16.4985 49.2847 16.6865 49.7534 17.0625C50.2222 17.4385 50.4565 17.9902 50.4565 18.7178C50.4565 19.6406 50.0757 20.3511 49.314 20.8491C48.5522 21.3521 47.4561 21.6035 46.0254 21.6035ZM46.0913 20.395C46.6919 20.395 47.1973 20.3364 47.6074 20.2192C48.0176 20.1021 48.3276 19.9336 48.5376 19.7139C48.7476 19.499 48.8525 19.2427 48.8525 18.9448C48.8525 18.6812 48.7866 18.4785 48.6548 18.3369C48.5229 18.1953 48.3252 18.0977 48.0615 18.0439C47.7979 17.9902 47.4707 17.9634 47.0801 17.9634H45.8057C45.4883 17.9634 45.2075 18.0122 44.9634 18.1099C44.7192 18.2124 44.5288 18.3589 44.3921 18.5493C44.2603 18.7397 44.1943 18.9692 44.1943 19.2378C44.1943 19.6089 44.3579 19.8945 44.6851 20.0947C45.0171 20.2949 45.4858 20.395 46.0913 20.395ZM46.4282 14.0815C46.9312 14.0815 47.3047 13.9448 47.5488 13.6714C47.793 13.3931 47.915 13.0024 47.915 12.4995C47.915 11.9526 47.7881 11.5425 47.5342 11.269C47.2852 10.9956 46.9141 10.8589 46.4209 10.8589C45.9375 10.8589 45.5688 10.998 45.3149 11.2764C45.0659 11.5547 44.9414 11.9673 44.9414 12.5142C44.9414 13.0073 45.0659 13.3931 45.3149 13.6714C45.5688 13.9448 45.9399 14.0815 46.4282 14.0815ZM57.4805 15.6855C57.4805 16.2178 57.3511 16.667 57.0923 17.0332C56.8335 17.3994 56.4551 17.6777 55.957 17.8682C55.4639 18.0537 54.8584 18.1465 54.1406 18.1465C53.5742 18.1465 53.0859 18.105 52.6758 18.022C52.2705 17.9438 51.8872 17.8218 51.5259 17.6558V16.1689C51.9116 16.3496 52.3438 16.5059 52.8223 16.6377C53.3057 16.7695 53.7622 16.8354 54.1919 16.8354C54.7583 16.8354 55.166 16.7476 55.415 16.5718C55.6641 16.3911 55.7886 16.1519 55.7886 15.854C55.7886 15.6782 55.7373 15.522 55.6348 15.3853C55.5371 15.2437 55.3516 15.0996 55.0781 14.9531C54.8096 14.8018 54.4141 14.6211 53.8916 14.4111C53.3789 14.2061 52.9468 14.001 52.5952 13.7959C52.2437 13.5908 51.9775 13.3442 51.7969 13.0562C51.6162 12.7632 51.5259 12.3896 51.5259 11.9355C51.5259 11.2178 51.8091 10.6733 52.3755 10.3022C52.9468 9.92627 53.7012 9.73828 54.6387 9.73828C55.1367 9.73828 55.6055 9.78955 56.0449 9.89209C56.4893 9.98975 56.9238 10.1338 57.3486 10.3242L56.8066 11.6206C56.4404 11.4595 56.0718 11.3276 55.7007 11.2251C55.3345 11.1177 54.9609 11.064 54.5801 11.064C54.1357 11.064 53.7964 11.1323 53.562 11.269C53.3325 11.4058 53.2178 11.6011 53.2178 11.855C53.2178 12.0454 53.2739 12.2065 53.3862 12.3384C53.4985 12.4702 53.6914 12.6021 53.9648 12.7339C54.2432 12.8657 54.6289 13.0293 55.1221 13.2246C55.6055 13.4102 56.0229 13.6055 56.3745 13.8105C56.731 14.0107 57.0044 14.2573 57.1948 14.5503C57.3853 14.8433 57.4805 15.2217 57.4805 15.6855Z" fill="white"/>
<path d="M296 18L302 12L296 6" stroke="#E5E5E5" stroke-width="2" stroke-linecap="round" stroke-linejoin="round"/>
</svg>
