<svg width="311" height="43" viewBox="0 0 311 43" fill="none" xmlns="http://www.w3.org/2000/svg">
<path d="M311 42H0" stroke="#1A242D"/>
<path d="M9.81445 7.29199V14.2207C9.81445 14.9678 9.65576 15.6367 9.33838 16.2275C9.02588 16.8184 8.55225 17.2871 7.91748 17.6338C7.28271 17.9756 6.48438 18.1465 5.52246 18.1465C4.15039 18.1465 3.10547 17.7876 2.3877 17.0698C1.6748 16.3472 1.31836 15.3877 1.31836 14.1914V7.29199H3.07617V14.0376C3.07617 14.9312 3.28613 15.5903 3.70605 16.0151C4.12598 16.4399 4.75342 16.6523 5.58838 16.6523C6.16455 16.6523 6.6333 16.5522 6.99463 16.3521C7.36084 16.147 7.62939 15.8491 7.80029 15.4585C7.97607 15.063 8.06396 14.5869 8.06396 14.0303V7.29199H9.81445ZM16.604 9.73828C17.5171 9.73828 18.2275 9.9751 18.7354 10.4487C19.248 10.9175 19.5044 11.6719 19.5044 12.7119V18H17.7832V13.0342C17.7832 12.4043 17.6538 11.9331 17.395 11.6206C17.1362 11.3032 16.7358 11.1445 16.1938 11.1445C15.4077 11.1445 14.8608 11.3862 14.5532 11.8696C14.2505 12.353 14.0991 13.0537 14.0991 13.9717V18H12.3779V9.89209H13.7183L13.96 10.9907H14.0552C14.231 10.7075 14.4482 10.4756 14.707 10.2949C14.9707 10.1094 15.2637 9.97021 15.5859 9.87744C15.9131 9.78467 16.2524 9.73828 16.604 9.73828ZM23.6353 9.89209V18H21.9141V9.89209H23.6353ZM22.7856 6.78662C23.0493 6.78662 23.2764 6.85742 23.4668 6.99902C23.6621 7.14062 23.7598 7.38477 23.7598 7.73145C23.7598 8.07324 23.6621 8.31738 23.4668 8.46387C23.2764 8.60547 23.0493 8.67627 22.7856 8.67627C22.5122 8.67627 22.2803 8.60547 22.0898 8.46387C21.9043 8.31738 21.8115 8.07324 21.8115 7.73145C21.8115 7.38477 21.9043 7.14062 22.0898 6.99902C22.2803 6.85742 22.5122 6.78662 22.7856 6.78662ZM29.1211 16.7549C29.3457 16.7549 29.5679 16.7354 29.7876 16.6963C30.0073 16.6523 30.2075 16.6011 30.3882 16.5425V17.8462C30.1978 17.9292 29.9512 18 29.6484 18.0586C29.3457 18.1172 29.0308 18.1465 28.7036 18.1465C28.2446 18.1465 27.832 18.0708 27.4658 17.9194C27.0996 17.7632 26.8091 17.4971 26.5942 17.1211C26.3794 16.7451 26.272 16.2251 26.272 15.561V11.2031H25.166V10.4341L26.3525 9.82617L26.9165 8.09033H28.0005V9.89209H30.3223V11.2031H28.0005V15.5391C28.0005 15.9492 28.103 16.2544 28.3081 16.4546C28.5132 16.6548 28.7842 16.7549 29.1211 16.7549ZM37.4854 15.6855C37.4854 16.2178 37.356 16.667 37.0972 17.0332C36.8384 17.3994 36.46 17.6777 35.9619 17.8682C35.4688 18.0537 34.8633 18.1465 34.1455 18.1465C33.5791 18.1465 33.0908 18.105 32.6807 18.022C32.2754 17.9438 31.8921 17.8218 31.5308 17.6558V16.1689C31.9165 16.3496 32.3486 16.5059 32.8271 16.6377C33.3105 16.7695 33.7671 16.8354 34.1968 16.8354C34.7632 16.8354 35.1709 16.7476 35.4199 16.5718C35.6689 16.3911 35.7935 16.1519 35.7935 15.854C35.7935 15.6782 35.7422 15.522 35.6396 15.3853C35.542 15.2437 35.3564 15.0996 35.083 14.9531C34.8145 14.8018 34.4189 14.6211 33.8965 14.4111C33.3838 14.2061 32.9517 14.001 32.6001 13.7959C32.2485 13.5908 31.9824 13.3442 31.8018 13.0562C31.6211 12.7632 31.5308 12.3896 31.5308 11.9355C31.5308 11.2178 31.814 10.6733 32.3804 10.3022C32.9517 9.92627 33.7061 9.73828 34.6436 9.73828C35.1416 9.73828 35.6104 9.78955 36.0498 9.89209C36.4941 9.98975 36.9287 10.1338 37.3535 10.3242L36.8115 11.6206C36.4453 11.4595 36.0767 11.3276 35.7056 11.2251C35.3394 11.1177 34.9658 11.064 34.585 11.064C34.1406 11.064 33.8013 11.1323 33.5669 11.269C33.3374 11.4058 33.2227 11.6011 33.2227 11.855C33.2227 12.0454 33.2788 12.2065 33.3911 12.3384C33.5034 12.4702 33.6963 12.6021 33.9697 12.7339C34.248 12.8657 34.6338 13.0293 35.127 13.2246C35.6104 13.4102 36.0278 13.6055 36.3794 13.8105C36.7358 14.0107 37.0093 14.2573 37.1997 14.5503C37.3901 14.8433 37.4854 15.2217 37.4854 15.6855ZM50.4199 13.9277C50.4199 14.6016 50.332 15.1997 50.1562 15.7222C49.9805 16.2446 49.7241 16.6865 49.3872 17.0479C49.0503 17.4043 48.645 17.6777 48.1714 17.8682C47.6978 18.0537 47.1631 18.1465 46.5674 18.1465C46.0107 18.1465 45.5005 18.0537 45.0366 17.8682C44.5728 17.6777 44.1699 17.4043 43.8281 17.0479C43.4912 16.6865 43.23 16.2446 43.0444 15.7222C42.8589 15.1997 42.7661 14.6016 42.7661 13.9277C42.7661 13.0342 42.9199 12.2773 43.2275 11.6572C43.54 11.0322 43.9844 10.5562 44.5605 10.229C45.1367 9.90186 45.8228 9.73828 46.6187 9.73828C47.3657 9.73828 48.0249 9.90186 48.5962 10.229C49.1675 10.5562 49.6143 11.0322 49.9365 11.6572C50.2588 12.2822 50.4199 13.0391 50.4199 13.9277ZM44.5386 13.9277C44.5386 14.5186 44.6094 15.0239 44.751 15.4438C44.8975 15.8638 45.1221 16.186 45.4248 16.4106C45.7275 16.6304 46.1182 16.7402 46.5967 16.7402C47.0752 16.7402 47.4658 16.6304 47.7686 16.4106C48.0713 16.186 48.2935 15.8638 48.4351 15.4438C48.5767 15.0239 48.6475 14.5186 48.6475 13.9277C48.6475 13.3369 48.5767 12.8364 48.4351 12.4263C48.2935 12.0112 48.0713 11.6963 47.7686 11.4814C47.4658 11.2617 47.0728 11.1519 46.5894 11.1519C45.8765 11.1519 45.3564 11.3911 45.0293 11.8696C44.7021 12.3481 44.5386 13.0342 44.5386 13.9277ZM56.4478 11.2031H54.4775V18H52.7563V11.2031H51.4307V10.3755L52.7563 9.87012V9.30615C52.7563 8.61768 52.8638 8.0708 53.0786 7.66553C53.2983 7.26025 53.6108 6.96973 54.0161 6.79395C54.4263 6.61328 54.9146 6.52295 55.481 6.52295C55.8521 6.52295 56.1914 6.55469 56.499 6.61816C56.8066 6.67676 57.0654 6.74512 57.2754 6.82324L56.8286 8.12695C56.6626 8.07324 56.4771 8.02441 56.272 7.98047C56.0669 7.93164 55.8472 7.90723 55.6128 7.90723C55.2222 7.90723 54.9341 8.0293 54.7485 8.27344C54.5679 8.51758 54.4775 8.87402 54.4775 9.34277V9.89209H56.4478V11.2031ZM66.5259 18L63.4424 9.05713H63.3765C63.3911 9.25732 63.4082 9.53076 63.4277 9.87744C63.4473 10.2241 63.4644 10.5952 63.479 10.9907C63.4937 11.3862 63.501 11.7646 63.501 12.126V18H61.9043V7.29199H64.3726L67.3389 15.8394H67.3828L70.4517 7.29199H72.9126V18H71.2354V12.0381C71.2354 11.7109 71.2402 11.3569 71.25 10.9761C71.2646 10.5952 71.2793 10.2339 71.2939 9.89209C71.3135 9.55029 71.3281 9.27686 71.3379 9.07178H71.2793L68.0786 18H66.5259ZM78.7866 9.73828C79.5093 9.73828 80.1294 9.88721 80.647 10.1851C81.1646 10.4829 81.5625 10.9053 81.8408 11.4521C82.1191 11.999 82.2583 12.6533 82.2583 13.415V14.3379H76.8457C76.8652 15.124 77.0752 15.7295 77.4756 16.1543C77.8809 16.5791 78.4473 16.7915 79.1748 16.7915C79.6924 16.7915 80.1562 16.7427 80.5664 16.645C80.9814 16.5425 81.4087 16.3936 81.8481 16.1982V17.5972C81.4429 17.7876 81.0303 17.9268 80.6104 18.0146C80.1904 18.1025 79.6875 18.1465 79.1016 18.1465C78.3057 18.1465 77.605 17.9927 76.9995 17.6851C76.3989 17.3726 75.9277 16.9087 75.5859 16.2935C75.249 15.6782 75.0806 14.9141 75.0806 14.001C75.0806 13.0928 75.2344 12.3213 75.542 11.6865C75.8496 11.0518 76.2817 10.5684 76.8384 10.2363C77.395 9.9043 78.0444 9.73828 78.7866 9.73828ZM78.7866 11.0347C78.2446 11.0347 77.8052 11.2104 77.4683 11.562C77.1362 11.9136 76.9409 12.4287 76.8823 13.1074H80.5737C80.5688 12.7021 80.5005 12.3433 80.3687 12.0308C80.2417 11.7183 80.0464 11.4741 79.7827 11.2983C79.5239 11.1226 79.1919 11.0347 78.7866 11.0347ZM87.3779 9.73828C88.4033 9.73828 89.1772 9.96533 89.6997 10.4194C90.2271 10.8735 90.4907 11.5815 90.4907 12.5435V18H89.2676L88.938 16.8501H88.8794C88.6499 17.1431 88.4131 17.3848 88.1689 17.5752C87.9248 17.7656 87.6416 17.9072 87.3193 18C87.002 18.0977 86.6138 18.1465 86.1548 18.1465C85.6714 18.1465 85.2393 18.0586 84.8584 17.8828C84.4775 17.7021 84.1772 17.4287 83.9575 17.0625C83.7378 16.6963 83.6279 16.2324 83.6279 15.6709C83.6279 14.8359 83.938 14.2085 84.5581 13.7886C85.1831 13.3687 86.1255 13.1367 87.3853 13.0928L88.7915 13.0415V12.6167C88.7915 12.0552 88.6597 11.6548 88.396 11.4155C88.1372 11.1763 87.771 11.0566 87.2974 11.0566C86.8921 11.0566 86.499 11.1152 86.1182 11.2324C85.7373 11.3496 85.3662 11.4937 85.0049 11.6646L84.4482 10.4487C84.8438 10.2388 85.293 10.0679 85.7959 9.93604C86.3037 9.8042 86.8311 9.73828 87.3779 9.73828ZM88.7842 14.1255L87.7368 14.1621C86.8774 14.1914 86.2744 14.3379 85.9277 14.6016C85.5811 14.8652 85.4077 15.2266 85.4077 15.6855C85.4077 16.0859 85.5273 16.3789 85.7666 16.5645C86.0059 16.7451 86.3208 16.8354 86.7114 16.8354C87.3071 16.8354 87.8003 16.667 88.1909 16.3301C88.5864 15.9883 88.7842 15.4878 88.7842 14.8286V14.1255ZM98.3496 15.6855C98.3496 16.2178 98.2202 16.667 97.9614 17.0332C97.7026 17.3994 97.3242 17.6777 96.8262 17.8682C96.333 18.0537 95.7275 18.1465 95.0098 18.1465C94.4434 18.1465 93.9551 18.105 93.5449 18.022C93.1396 17.9438 92.7563 17.8218 92.395 17.6558V16.1689C92.7808 16.3496 93.2129 16.5059 93.6914 16.6377C94.1748 16.7695 94.6313 16.8354 95.061 16.8354C95.6274 16.8354 96.0352 16.7476 96.2842 16.5718C96.5332 16.3911 96.6577 16.1519 96.6577 15.854C96.6577 15.6782 96.6064 15.522 96.5039 15.3853C96.4062 15.2437 96.2207 15.0996 95.9473 14.9531C95.6787 14.8018 95.2832 14.6211 94.7607 14.4111C94.248 14.2061 93.8159 14.001 93.4644 13.7959C93.1128 13.5908 92.8467 13.3442 92.666 13.0562C92.4854 12.7632 92.395 12.3896 92.395 11.9355C92.395 11.2178 92.6782 10.6733 93.2446 10.3022C93.8159 9.92627 94.5703 9.73828 95.5078 9.73828C96.0059 9.73828 96.4746 9.78955 96.9141 9.89209C97.3584 9.98975 97.793 10.1338 98.2178 10.3242L97.6758 11.6206C97.3096 11.4595 96.9409 11.3276 96.5698 11.2251C96.2036 11.1177 95.8301 11.064 95.4492 11.064C95.0049 11.064 94.6655 11.1323 94.4312 11.269C94.2017 11.4058 94.0869 11.6011 94.0869 11.855C94.0869 12.0454 94.1431 12.2065 94.2554 12.3384C94.3677 12.4702 94.5605 12.6021 94.834 12.7339C95.1123 12.8657 95.498 13.0293 95.9912 13.2246C96.4746 13.4102 96.8921 13.6055 97.2437 13.8105C97.6001 14.0107 97.8735 14.2573 98.064 14.5503C98.2544 14.8433 98.3496 15.2217 98.3496 15.6855ZM107.278 9.89209V18H105.923L105.688 16.9087H105.593C105.422 17.187 105.205 17.4189 104.941 17.6045C104.678 17.7852 104.385 17.9194 104.062 18.0073C103.74 18.1001 103.401 18.1465 103.044 18.1465C102.434 18.1465 101.912 18.0439 101.477 17.8389C101.047 17.6289 100.718 17.3066 100.488 16.8721C100.259 16.4375 100.144 15.876 100.144 15.1875V9.89209H101.873V14.8652C101.873 15.4951 102 15.9663 102.253 16.2788C102.512 16.5913 102.913 16.7476 103.455 16.7476C103.977 16.7476 104.392 16.6401 104.7 16.4253C105.007 16.2104 105.225 15.8931 105.352 15.4731C105.483 15.0532 105.549 14.5381 105.549 13.9277V9.89209H107.278ZM113.855 9.73828C113.992 9.73828 114.141 9.74561 114.302 9.76025C114.463 9.7749 114.602 9.79443 114.719 9.81885L114.558 11.4302C114.456 11.4009 114.329 11.3789 114.177 11.3643C114.031 11.3496 113.899 11.3423 113.782 11.3423C113.474 11.3423 113.181 11.3936 112.903 11.4961C112.625 11.5938 112.378 11.7451 112.163 11.9502C111.948 12.1504 111.78 12.4019 111.658 12.7046C111.536 13.0073 111.475 13.3589 111.475 13.7593V18H109.746V9.89209H111.094L111.328 11.3203H111.409C111.57 11.0322 111.77 10.7686 112.009 10.5293C112.249 10.29 112.522 10.0996 112.83 9.95801C113.142 9.81152 113.484 9.73828 113.855 9.73828ZM119.451 9.73828C120.173 9.73828 120.793 9.88721 121.311 10.1851C121.829 10.4829 122.227 10.9053 122.505 11.4521C122.783 11.999 122.922 12.6533 122.922 13.415V14.3379H117.51C117.529 15.124 117.739 15.7295 118.14 16.1543C118.545 16.5791 119.111 16.7915 119.839 16.7915C120.356 16.7915 120.82 16.7427 121.23 16.645C121.646 16.5425 122.073 16.3936 122.512 16.1982V17.5972C122.107 17.7876 121.694 17.9268 121.274 18.0146C120.854 18.1025 120.352 18.1465 119.766 18.1465C118.97 18.1465 118.269 17.9927 117.664 17.6851C117.063 17.3726 116.592 16.9087 116.25 16.2935C115.913 15.6782 115.745 14.9141 115.745 14.001C115.745 13.0928 115.898 12.3213 116.206 11.6865C116.514 11.0518 116.946 10.5684 117.502 10.2363C118.059 9.9043 118.708 9.73828 119.451 9.73828ZM119.451 11.0347C118.909 11.0347 118.469 11.2104 118.132 11.562C117.8 11.9136 117.605 12.4287 117.546 13.1074H121.238C121.233 12.7021 121.165 12.3433 121.033 12.0308C120.906 11.7183 120.71 11.4741 120.447 11.2983C120.188 11.1226 119.856 11.0347 119.451 11.0347Z" fill="white"/>
<path d="M296 18L302 12L296 6" stroke="white" stroke-width="2" stroke-linecap="round" stroke-linejoin="round"/>
</svg>
