<svg width="311" height="43" viewBox="0 0 311 43" fill="none" xmlns="http://www.w3.org/2000/svg">
<path d="M311 42H0" stroke="#1A242D"/>
<path d="M10.3418 18H8.18115L2.93701 9.45264H2.87109C2.89062 9.74072 2.90771 10.0459 2.92236 10.3682C2.94189 10.6904 2.95654 11.0225 2.96631 11.3643C2.98096 11.7061 2.99316 12.0527 3.00293 12.4043V18H1.40625V7.29199H3.55225L8.78906 15.7808H8.84033C8.83057 15.5317 8.81836 15.2461 8.80371 14.9238C8.78906 14.6016 8.77441 14.2695 8.75977 13.9277C8.75 13.5811 8.74268 13.2466 8.73779 12.9243V7.29199H10.3418V18ZM20.1562 13.9277C20.1562 14.6016 20.0684 15.1997 19.8926 15.7222C19.7168 16.2446 19.4604 16.6865 19.1235 17.0479C18.7866 17.4043 18.3813 17.6777 17.9077 17.8682C17.4341 18.0537 16.8994 18.1465 16.3037 18.1465C15.7471 18.1465 15.2368 18.0537 14.7729 17.8682C14.3091 17.6777 13.9062 17.4043 13.5645 17.0479C13.2275 16.6865 12.9663 16.2446 12.7808 15.7222C12.5952 15.1997 12.5024 14.6016 12.5024 13.9277C12.5024 13.0342 12.6562 12.2773 12.9639 11.6572C13.2764 11.0322 13.7207 10.5562 14.2969 10.229C14.873 9.90186 15.5591 9.73828 16.355 9.73828C17.1021 9.73828 17.7612 9.90186 18.3325 10.229C18.9038 10.5562 19.3506 11.0322 19.6729 11.6572C19.9951 12.2822 20.1562 13.0391 20.1562 13.9277ZM14.2749 13.9277C14.2749 14.5186 14.3457 15.0239 14.4873 15.4438C14.6338 15.8638 14.8584 16.186 15.1611 16.4106C15.4639 16.6304 15.8545 16.7402 16.333 16.7402C16.8115 16.7402 17.2021 16.6304 17.5049 16.4106C17.8076 16.186 18.0298 15.8638 18.1714 15.4438C18.313 15.0239 18.3838 14.5186 18.3838 13.9277C18.3838 13.3369 18.313 12.8364 18.1714 12.4263C18.0298 12.0112 17.8076 11.6963 17.5049 11.4814C17.2021 11.2617 16.8091 11.1519 16.3257 11.1519C15.6128 11.1519 15.0928 11.3911 14.7656 11.8696C14.4385 12.3481 14.2749 13.0342 14.2749 13.9277ZM25.1514 16.7549C25.376 16.7549 25.5981 16.7354 25.8179 16.6963C26.0376 16.6523 26.2378 16.6011 26.4185 16.5425V17.8462C26.228 17.9292 25.9814 18 25.6787 18.0586C25.376 18.1172 25.061 18.1465 24.7339 18.1465C24.2749 18.1465 23.8623 18.0708 23.4961 17.9194C23.1299 17.7632 22.8394 17.4971 22.6245 17.1211C22.4097 16.7451 22.3022 16.2251 22.3022 15.561V11.2031H21.1963V10.4341L22.3828 9.82617L22.9468 8.09033H24.0308V9.89209H26.3525V11.2031H24.0308V15.5391C24.0308 15.9492 24.1333 16.2544 24.3384 16.4546C24.5435 16.6548 24.8145 16.7549 25.1514 16.7549ZM29.7876 9.89209V18H28.0664V9.89209H29.7876ZM28.938 6.78662C29.2017 6.78662 29.4287 6.85742 29.6191 6.99902C29.8145 7.14062 29.9121 7.38477 29.9121 7.73145C29.9121 8.07324 29.8145 8.31738 29.6191 8.46387C29.4287 8.60547 29.2017 8.67627 28.938 8.67627C28.6646 8.67627 28.4326 8.60547 28.2422 8.46387C28.0566 8.31738 27.9639 8.07324 27.9639 7.73145C27.9639 7.38477 28.0566 7.14062 28.2422 6.99902C28.4326 6.85742 28.6646 6.78662 28.938 6.78662ZM36.3062 11.2031H34.3359V18H32.6147V11.2031H31.2891V10.3755L32.6147 9.87012V9.30615C32.6147 8.61768 32.7222 8.0708 32.937 7.66553C33.1567 7.26025 33.4692 6.96973 33.8745 6.79395C34.2847 6.61328 34.7729 6.52295 35.3394 6.52295C35.7104 6.52295 36.0498 6.55469 36.3574 6.61816C36.665 6.67676 36.9238 6.74512 37.1338 6.82324L36.687 8.12695C36.521 8.07324 36.3354 8.02441 36.1304 7.98047C35.9253 7.93164 35.7056 7.90723 35.4712 7.90723C35.0806 7.90723 34.7925 8.0293 34.6069 8.27344C34.4263 8.51758 34.3359 8.87402 34.3359 9.34277V9.89209H36.3062V11.2031ZM39.4043 9.89209V18H37.6831V9.89209H39.4043ZM38.5547 6.78662C38.8184 6.78662 39.0454 6.85742 39.2358 6.99902C39.4312 7.14062 39.5288 7.38477 39.5288 7.73145C39.5288 8.07324 39.4312 8.31738 39.2358 8.46387C39.0454 8.60547 38.8184 8.67627 38.5547 8.67627C38.2812 8.67627 38.0493 8.60547 37.8589 8.46387C37.6733 8.31738 37.5806 8.07324 37.5806 7.73145C37.5806 7.38477 37.6733 7.14062 37.8589 6.99902C38.0493 6.85742 38.2812 6.78662 38.5547 6.78662ZM45.1318 18.1465C44.3652 18.1465 43.7012 17.9976 43.1396 17.6997C42.5781 17.4019 42.146 16.9453 41.8433 16.3301C41.5405 15.7148 41.3892 14.9336 41.3892 13.9863C41.3892 13 41.5552 12.1943 41.8872 11.5693C42.2192 10.9443 42.6782 10.4829 43.2642 10.1851C43.855 9.88721 44.5312 9.73828 45.293 9.73828C45.7764 9.73828 46.2134 9.78711 46.604 9.88477C46.9995 9.97754 47.334 10.0923 47.6074 10.229L47.0947 11.606C46.7969 11.4839 46.4917 11.3813 46.1792 11.2983C45.8667 11.2153 45.5664 11.1738 45.2783 11.1738C44.8047 11.1738 44.4092 11.2788 44.0918 11.4888C43.7793 11.6987 43.5449 12.0112 43.3887 12.4263C43.2373 12.8413 43.1616 13.3564 43.1616 13.9717C43.1616 14.5674 43.2397 15.0703 43.396 15.4805C43.5522 15.8857 43.7842 16.1934 44.0918 16.4033C44.3994 16.6084 44.7778 16.7109 45.2271 16.7109C45.6714 16.7109 46.0693 16.6572 46.4209 16.5498C46.7725 16.4424 47.1045 16.3032 47.417 16.1323V17.6265C47.1094 17.8022 46.7798 17.9316 46.4282 18.0146C46.0767 18.1025 45.6445 18.1465 45.1318 18.1465ZM52.5 9.73828C53.5254 9.73828 54.2993 9.96533 54.8218 10.4194C55.3491 10.8735 55.6128 11.5815 55.6128 12.5435V18H54.3896L54.0601 16.8501H54.0015C53.772 17.1431 53.5352 17.3848 53.291 17.5752C53.0469 17.7656 52.7637 17.9072 52.4414 18C52.124 18.0977 51.7358 18.1465 51.2769 18.1465C50.7935 18.1465 50.3613 18.0586 49.9805 17.8828C49.5996 17.7021 49.2993 17.4287 49.0796 17.0625C48.8599 16.6963 48.75 16.2324 48.75 15.6709C48.75 14.8359 49.0601 14.2085 49.6802 13.7886C50.3052 13.3687 51.2476 13.1367 52.5073 13.0928L53.9136 13.0415V12.6167C53.9136 12.0552 53.7817 11.6548 53.5181 11.4155C53.2593 11.1763 52.8931 11.0566 52.4194 11.0566C52.0142 11.0566 51.6211 11.1152 51.2402 11.2324C50.8594 11.3496 50.4883 11.4937 50.127 11.6646L49.5703 10.4487C49.9658 10.2388 50.415 10.0679 50.918 9.93604C51.4258 9.8042 51.9531 9.73828 52.5 9.73828ZM53.9062 14.1255L52.8589 14.1621C51.9995 14.1914 51.3965 14.3379 51.0498 14.6016C50.7031 14.8652 50.5298 15.2266 50.5298 15.6855C50.5298 16.0859 50.6494 16.3789 50.8887 16.5645C51.1279 16.7451 51.4429 16.8354 51.8335 16.8354C52.4292 16.8354 52.9224 16.667 53.313 16.3301C53.7085 15.9883 53.9062 15.4878 53.9062 14.8286V14.1255ZM61.04 16.7549C61.2646 16.7549 61.4868 16.7354 61.7065 16.6963C61.9263 16.6523 62.1265 16.6011 62.3071 16.5425V17.8462C62.1167 17.9292 61.8701 18 61.5674 18.0586C61.2646 18.1172 60.9497 18.1465 60.6226 18.1465C60.1636 18.1465 59.751 18.0708 59.3848 17.9194C59.0186 17.7632 58.728 17.4971 58.5132 17.1211C58.2983 16.7451 58.1909 16.2251 58.1909 15.561V11.2031H57.085V10.4341L58.2715 9.82617L58.8354 8.09033H59.9194V9.89209H62.2412V11.2031H59.9194V15.5391C59.9194 15.9492 60.022 16.2544 60.2271 16.4546C60.4321 16.6548 60.7031 16.7549 61.04 16.7549ZM65.6763 9.89209V18H63.9551V9.89209H65.6763ZM64.8267 6.78662C65.0903 6.78662 65.3174 6.85742 65.5078 6.99902C65.7031 7.14062 65.8008 7.38477 65.8008 7.73145C65.8008 8.07324 65.7031 8.31738 65.5078 8.46387C65.3174 8.60547 65.0903 8.67627 64.8267 8.67627C64.5532 8.67627 64.3213 8.60547 64.1309 8.46387C63.9453 8.31738 63.8525 8.07324 63.8525 7.73145C63.8525 7.38477 63.9453 7.14062 64.1309 6.99902C64.3213 6.85742 64.5532 6.78662 64.8267 6.78662ZM75.3223 13.9277C75.3223 14.6016 75.2344 15.1997 75.0586 15.7222C74.8828 16.2446 74.6265 16.6865 74.2896 17.0479C73.9526 17.4043 73.5474 17.6777 73.0737 17.8682C72.6001 18.0537 72.0654 18.1465 71.4697 18.1465C70.9131 18.1465 70.4028 18.0537 69.939 17.8682C69.4751 17.6777 69.0723 17.4043 68.7305 17.0479C68.3936 16.6865 68.1323 16.2446 67.9468 15.7222C67.7612 15.1997 67.6685 14.6016 67.6685 13.9277C67.6685 13.0342 67.8223 12.2773 68.1299 11.6572C68.4424 11.0322 68.8867 10.5562 69.4629 10.229C70.0391 9.90186 70.7251 9.73828 71.521 9.73828C72.2681 9.73828 72.9272 9.90186 73.4985 10.229C74.0698 10.5562 74.5166 11.0322 74.8389 11.6572C75.1611 12.2822 75.3223 13.0391 75.3223 13.9277ZM69.4409 13.9277C69.4409 14.5186 69.5117 15.0239 69.6533 15.4438C69.7998 15.8638 70.0244 16.186 70.3271 16.4106C70.6299 16.6304 71.0205 16.7402 71.499 16.7402C71.9775 16.7402 72.3682 16.6304 72.6709 16.4106C72.9736 16.186 73.1958 15.8638 73.3374 15.4438C73.479 15.0239 73.5498 14.5186 73.5498 13.9277C73.5498 13.3369 73.479 12.8364 73.3374 12.4263C73.1958 12.0112 72.9736 11.6963 72.6709 11.4814C72.3682 11.2617 71.9751 11.1519 71.4917 11.1519C70.7788 11.1519 70.2588 11.3911 69.9316 11.8696C69.6045 12.3481 69.4409 13.0342 69.4409 13.9277ZM81.5259 9.73828C82.439 9.73828 83.1494 9.9751 83.6572 10.4487C84.1699 10.9175 84.4263 11.6719 84.4263 12.7119V18H82.7051V13.0342C82.7051 12.4043 82.5757 11.9331 82.3169 11.6206C82.0581 11.3032 81.6577 11.1445 81.1157 11.1445C80.3296 11.1445 79.7827 11.3862 79.4751 11.8696C79.1724 12.353 79.021 13.0537 79.021 13.9717V18H77.2998V9.89209H78.6401L78.8818 10.9907H78.9771C79.1528 10.7075 79.3701 10.4756 79.6289 10.2949C79.8926 10.1094 80.1855 9.97021 80.5078 9.87744C80.835 9.78467 81.1743 9.73828 81.5259 9.73828ZM92.2852 15.6855C92.2852 16.2178 92.1558 16.667 91.897 17.0332C91.6382 17.3994 91.2598 17.6777 90.7617 17.8682C90.2686 18.0537 89.6631 18.1465 88.9453 18.1465C88.3789 18.1465 87.8906 18.105 87.4805 18.022C87.0752 17.9438 86.6919 17.8218 86.3306 17.6558V16.1689C86.7163 16.3496 87.1484 16.5059 87.627 16.6377C88.1104 16.7695 88.5669 16.8354 88.9966 16.8354C89.563 16.8354 89.9707 16.7476 90.2197 16.5718C90.4688 16.3911 90.5933 16.1519 90.5933 15.854C90.5933 15.6782 90.542 15.522 90.4395 15.3853C90.3418 15.2437 90.1562 15.0996 89.8828 14.9531C89.6143 14.8018 89.2188 14.6211 88.6963 14.4111C88.1836 14.2061 87.7515 14.001 87.3999 13.7959C87.0483 13.5908 86.7822 13.3442 86.6016 13.0562C86.4209 12.7632 86.3306 12.3896 86.3306 11.9355C86.3306 11.2178 86.6138 10.6733 87.1802 10.3022C87.7515 9.92627 88.5059 9.73828 89.4434 9.73828C89.9414 9.73828 90.4102 9.78955 90.8496 9.89209C91.2939 9.98975 91.7285 10.1338 92.1533 10.3242L91.6113 11.6206C91.2451 11.4595 90.8765 11.3276 90.5054 11.2251C90.1392 11.1177 89.7656 11.064 89.3848 11.064C88.9404 11.064 88.6011 11.1323 88.3667 11.269C88.1372 11.4058 88.0225 11.6011 88.0225 11.855C88.0225 12.0454 88.0786 12.2065 88.1909 12.3384C88.3032 12.4702 88.4961 12.6021 88.7695 12.7339C89.0479 12.8657 89.4336 13.0293 89.9268 13.2246C90.4102 13.4102 90.8276 13.6055 91.1792 13.8105C91.5356 14.0107 91.8091 14.2573 91.9995 14.5503C92.1899 14.8433 92.2852 15.2217 92.2852 15.6855Z" fill="white"/>
<path d="M296 18L302 12L296 6" stroke="white" stroke-width="2" stroke-linecap="round" stroke-linejoin="round"/>
</svg>
