<svg width="311" height="43" viewBox="0 0 311 43" fill="none" xmlns="http://www.w3.org/2000/svg">
<path d="M311 42H0" stroke="#1A242D"/>
<path d="M6.02783 16L2.94434 7.05713H2.87842C2.89307 7.25732 2.91016 7.53076 2.92969 7.87744C2.94922 8.22412 2.96631 8.59521 2.98096 8.99072C2.99561 9.38623 3.00293 9.76465 3.00293 10.126V16H1.40625V5.29199H3.87451L6.84082 13.8394H6.88477L9.95361 5.29199H12.4146V16H10.7373V10.0381C10.7373 9.71094 10.7422 9.35693 10.752 8.97607C10.7666 8.59521 10.7812 8.23389 10.7959 7.89209C10.8154 7.55029 10.8301 7.27686 10.8398 7.07178H10.7812L7.58057 16H6.02783ZM18.2886 7.73828C19.0112 7.73828 19.6313 7.88721 20.1489 8.18506C20.6665 8.48291 21.0645 8.90527 21.3428 9.45215C21.6211 9.99902 21.7603 10.6533 21.7603 11.415V12.3379H16.3477C16.3672 13.124 16.5771 13.7295 16.9775 14.1543C17.3828 14.5791 17.9492 14.7915 18.6768 14.7915C19.1943 14.7915 19.6582 14.7427 20.0684 14.645C20.4834 14.5425 20.9106 14.3936 21.3501 14.1982V15.5972C20.9448 15.7876 20.5322 15.9268 20.1123 16.0146C19.6924 16.1025 19.1895 16.1465 18.6035 16.1465C17.8076 16.1465 17.1069 15.9927 16.5015 15.6851C15.9009 15.3726 15.4297 14.9087 15.0879 14.2935C14.751 13.6782 14.5825 12.9141 14.5825 12.001C14.5825 11.0928 14.7363 10.3213 15.0439 9.68652C15.3516 9.05176 15.7837 8.56836 16.3403 8.23633C16.897 7.9043 17.5464 7.73828 18.2886 7.73828ZM18.2886 9.03467C17.7466 9.03467 17.3071 9.21045 16.9702 9.56201C16.6382 9.91357 16.4429 10.4287 16.3843 11.1074H20.0757C20.0708 10.7021 20.0024 10.3433 19.8706 10.0308C19.7437 9.71826 19.5483 9.47412 19.2847 9.29834C19.0259 9.12256 18.6938 9.03467 18.2886 9.03467ZM26.7188 14.7549C26.9434 14.7549 27.1655 14.7354 27.3853 14.6963C27.605 14.6523 27.8052 14.6011 27.9858 14.5425V15.8462C27.7954 15.9292 27.5488 16 27.2461 16.0586C26.9434 16.1172 26.6284 16.1465 26.3013 16.1465C25.8423 16.1465 25.4297 16.0708 25.0635 15.9194C24.6973 15.7632 24.4067 15.4971 24.1919 15.1211C23.9771 14.7451 23.8696 14.2251 23.8696 13.561V9.20312H22.7637V8.43408L23.9502 7.82617L24.5142 6.09033H25.5981V7.89209H27.9199V9.20312H25.5981V13.5391C25.5981 13.9492 25.7007 14.2544 25.9058 14.4546C26.1108 14.6548 26.3818 14.7549 26.7188 14.7549ZM33.7427 7.73828C33.8794 7.73828 34.0283 7.74561 34.1895 7.76025C34.3506 7.7749 34.4897 7.79443 34.6069 7.81885L34.4458 9.43018C34.3433 9.40088 34.2163 9.37891 34.0649 9.36426C33.9185 9.34961 33.7866 9.34229 33.6694 9.34229C33.3618 9.34229 33.0688 9.39355 32.7905 9.49609C32.5122 9.59375 32.2656 9.74512 32.0508 9.9502C31.8359 10.1504 31.6675 10.4019 31.5454 10.7046C31.4233 11.0073 31.3623 11.3589 31.3623 11.7593V16H29.6338V7.89209H30.9814L31.2158 9.32031H31.2964C31.4575 9.03223 31.6577 8.76855 31.897 8.5293C32.1362 8.29004 32.4097 8.09961 32.7173 7.95801C33.0298 7.81152 33.3716 7.73828 33.7427 7.73828ZM37.8296 7.89209V16H36.1084V7.89209H37.8296ZM36.98 4.78662C37.2437 4.78662 37.4707 4.85742 37.6611 4.99902C37.8564 5.14062 37.9541 5.38477 37.9541 5.73145C37.9541 6.07324 37.8564 6.31738 37.6611 6.46387C37.4707 6.60547 37.2437 6.67627 36.98 6.67627C36.7065 6.67627 36.4746 6.60547 36.2842 6.46387C36.0986 6.31738 36.0059 6.07324 36.0059 5.73145C36.0059 5.38477 36.0986 5.14062 36.2842 4.99902C36.4746 4.85742 36.7065 4.78662 36.98 4.78662ZM43.5645 16.1465C42.7979 16.1465 42.1338 15.9976 41.5723 15.6997C41.0107 15.4019 40.5786 14.9453 40.2759 14.3301C39.9731 13.7148 39.8218 12.9336 39.8218 11.9863C39.8218 11 39.9878 10.1943 40.3198 9.56934C40.6519 8.94434 41.1108 8.48291 41.6968 8.18506C42.2876 7.88721 42.9639 7.73828 43.7256 7.73828C44.209 7.73828 44.646 7.78711 45.0366 7.88477C45.4321 7.97754 45.7666 8.09229 46.04 8.229L45.5273 9.60596C45.2295 9.48389 44.9243 9.38135 44.6118 9.29834C44.2993 9.21533 43.999 9.17383 43.7109 9.17383C43.2373 9.17383 42.8418 9.27881 42.5244 9.48877C42.2119 9.69873 41.9775 10.0112 41.8213 10.4263C41.6699 10.8413 41.5942 11.3564 41.5942 11.9717C41.5942 12.5674 41.6724 13.0703 41.8286 13.4805C41.9849 13.8857 42.2168 14.1934 42.5244 14.4033C42.832 14.6084 43.2104 14.7109 43.6597 14.7109C44.104 14.7109 44.502 14.6572 44.8535 14.5498C45.2051 14.4424 45.5371 14.3032 45.8496 14.1323V15.6265C45.542 15.8022 45.2124 15.9316 44.8608 16.0146C44.5093 16.1025 44.0771 16.1465 43.5645 16.1465Z" fill="white"/>
<circle cx="299" cy="12" r="7" fill="#5E5CE6" fill-opacity="0.3" stroke="#F12C4C" stroke-width="6"/>
</svg>
