<svg width="311" height="43" viewBox="0 0 311 43" fill="none" xmlns="http://www.w3.org/2000/svg">
<path d="M311 42H0" stroke="#1A242D"/>
<path d="M1.40625 16V5.29199H3.16406V16H1.40625ZM14.978 7.73828C15.8862 7.73828 16.5698 7.97266 17.0288 8.44141C17.4927 8.91016 17.7246 9.66211 17.7246 10.6973V16H16.0034V11.0049C16.0034 10.3896 15.8838 9.92578 15.6445 9.61328C15.4053 9.30078 15.0415 9.14453 14.5532 9.14453C13.8696 9.14453 13.3765 9.36426 13.0737 9.80371C12.7759 10.2383 12.627 10.8706 12.627 11.7007V16H10.9058V11.0049C10.9058 10.5947 10.8521 10.2529 10.7446 9.97949C10.6421 9.70117 10.4834 9.49365 10.2686 9.35693C10.0537 9.21533 9.78271 9.14453 9.45557 9.14453C8.98193 9.14453 8.60352 9.25195 8.32031 9.4668C8.04199 9.68164 7.8418 9.99902 7.71973 10.4189C7.59766 10.834 7.53662 11.3442 7.53662 11.9497V16H5.81543V7.89209H7.15576L7.39746 8.9834H7.49268C7.65869 8.7002 7.86377 8.46826 8.10791 8.2876C8.35693 8.10205 8.63281 7.96533 8.93555 7.87744C9.23828 7.78467 9.55322 7.73828 9.88037 7.73828C10.4858 7.73828 10.9961 7.8457 11.4111 8.06055C11.8262 8.27051 12.1362 8.59277 12.3413 9.02734H12.4731C12.7271 8.58789 13.0811 8.26318 13.5352 8.05322C13.9893 7.84326 14.4702 7.73828 14.978 7.73828ZM24.2871 7.73828C25.249 7.73828 26.0205 8.08984 26.6016 8.79297C27.1875 9.49609 27.4805 10.541 27.4805 11.9277C27.4805 12.8457 27.3438 13.6196 27.0703 14.2495C26.8018 14.8745 26.4233 15.3481 25.9351 15.6704C25.4517 15.9878 24.8877 16.1465 24.2432 16.1465C23.833 16.1465 23.4766 16.0928 23.1738 15.9854C22.8711 15.8779 22.6123 15.7388 22.3975 15.5679C22.1826 15.3921 22.002 15.2017 21.8555 14.9966H21.7529C21.7773 15.1919 21.7993 15.4092 21.8188 15.6484C21.8433 15.8828 21.8555 16.0977 21.8555 16.293V19.5962H20.127V7.89209H21.5332L21.7749 9.0127H21.8555C22.0068 8.7832 22.1899 8.5708 22.4048 8.37549C22.6245 8.18018 22.8882 8.02637 23.1958 7.91406C23.5083 7.79688 23.8721 7.73828 24.2871 7.73828ZM23.8257 9.14453C23.3521 9.14453 22.9712 9.23975 22.6831 9.43018C22.3999 9.61572 22.1924 9.89648 22.0605 10.2725C21.9336 10.6484 21.8652 11.1196 21.8555 11.686V11.9277C21.8555 12.5283 21.9165 13.0386 22.0386 13.4585C22.1655 13.8735 22.373 14.1909 22.6611 14.4106C22.9541 14.6255 23.3496 14.7329 23.8477 14.7329C24.2676 14.7329 24.6143 14.6182 24.8877 14.3887C25.166 14.1592 25.3735 13.832 25.5103 13.4072C25.647 12.9824 25.7153 12.4819 25.7153 11.9058C25.7153 11.0317 25.5591 10.353 25.2466 9.86963C24.939 9.38623 24.4653 9.14453 23.8257 9.14453ZM32.7026 7.73828C33.4253 7.73828 34.0454 7.88721 34.563 8.18506C35.0806 8.48291 35.4785 8.90527 35.7568 9.45215C36.0352 9.99902 36.1743 10.6533 36.1743 11.415V12.3379H30.7617C30.7812 13.124 30.9912 13.7295 31.3916 14.1543C31.7969 14.5791 32.3633 14.7915 33.0908 14.7915C33.6084 14.7915 34.0723 14.7427 34.4824 14.645C34.8975 14.5425 35.3247 14.3936 35.7642 14.1982V15.5972C35.3589 15.7876 34.9463 15.9268 34.5264 16.0146C34.1064 16.1025 33.6035 16.1465 33.0176 16.1465C32.2217 16.1465 31.521 15.9927 30.9155 15.6851C30.3149 15.3726 29.8438 14.9087 29.502 14.2935C29.165 13.6782 28.9966 12.9141 28.9966 12.001C28.9966 11.0928 29.1504 10.3213 29.458 9.68652C29.7656 9.05176 30.1978 8.56836 30.7544 8.23633C31.311 7.9043 31.9604 7.73828 32.7026 7.73828ZM32.7026 9.03467C32.1606 9.03467 31.7212 9.21045 31.3843 9.56201C31.0522 9.91357 30.8569 10.4287 30.7983 11.1074H34.4897C34.4849 10.7021 34.4165 10.3433 34.2847 10.0308C34.1577 9.71826 33.9624 9.47412 33.6987 9.29834C33.4399 9.12256 33.1079 9.03467 32.7026 9.03467ZM42.2241 7.73828C42.3608 7.73828 42.5098 7.74561 42.6709 7.76025C42.832 7.7749 42.9712 7.79443 43.0884 7.81885L42.9272 9.43018C42.8247 9.40088 42.6978 9.37891 42.5464 9.36426C42.3999 9.34961 42.2681 9.34229 42.1509 9.34229C41.8433 9.34229 41.5503 9.39355 41.272 9.49609C40.9937 9.59375 40.7471 9.74512 40.5322 9.9502C40.3174 10.1504 40.1489 10.4019 40.0269 10.7046C39.9048 11.0073 39.8438 11.3589 39.8438 11.7593V16H38.1152V7.89209H39.4629L39.6973 9.32031H39.7778C39.939 9.03223 40.1392 8.76855 40.3784 8.5293C40.6177 8.29004 40.8911 8.09961 41.1987 7.95801C41.5112 7.81152 41.853 7.73828 42.2241 7.73828ZM46.311 7.89209V16H44.5898V7.89209H46.311ZM45.4614 4.78662C45.7251 4.78662 45.9521 4.85742 46.1426 4.99902C46.3379 5.14062 46.4355 5.38477 46.4355 5.73145C46.4355 6.07324 46.3379 6.31738 46.1426 6.46387C45.9521 6.60547 45.7251 6.67627 45.4614 6.67627C45.188 6.67627 44.9561 6.60547 44.7656 6.46387C44.5801 6.31738 44.4873 6.07324 44.4873 5.73145C44.4873 5.38477 44.5801 5.14062 44.7656 4.99902C44.9561 4.85742 45.188 4.78662 45.4614 4.78662ZM51.958 7.73828C52.9834 7.73828 53.7573 7.96533 54.2798 8.41943C54.8071 8.87354 55.0708 9.58154 55.0708 10.5435V16H53.8477L53.5181 14.8501H53.4595C53.23 15.1431 52.9932 15.3848 52.749 15.5752C52.5049 15.7656 52.2217 15.9072 51.8994 16C51.582 16.0977 51.1938 16.1465 50.7349 16.1465C50.2515 16.1465 49.8193 16.0586 49.4385 15.8828C49.0576 15.7021 48.7573 15.4287 48.5376 15.0625C48.3179 14.6963 48.208 14.2324 48.208 13.6709C48.208 12.8359 48.5181 12.2085 49.1382 11.7886C49.7632 11.3687 50.7056 11.1367 51.9653 11.0928L53.3716 11.0415V10.6167C53.3716 10.0552 53.2397 9.65479 52.9761 9.41553C52.7173 9.17627 52.3511 9.05664 51.8774 9.05664C51.4722 9.05664 51.0791 9.11523 50.6982 9.23242C50.3174 9.34961 49.9463 9.49365 49.585 9.66455L49.0283 8.44873C49.4238 8.23877 49.873 8.06787 50.376 7.93604C50.8838 7.8042 51.4111 7.73828 51.958 7.73828ZM53.3643 12.1255L52.3169 12.1621C51.4575 12.1914 50.8545 12.3379 50.5078 12.6016C50.1611 12.8652 49.9878 13.2266 49.9878 13.6855C49.9878 14.0859 50.1074 14.3789 50.3467 14.5645C50.5859 14.7451 50.9009 14.8354 51.2915 14.8354C51.8872 14.8354 52.3804 14.667 52.771 14.3301C53.1665 13.9883 53.3643 13.4878 53.3643 12.8286V12.1255ZM59.209 16H57.4805V4.60352H59.209V16Z" fill="white"/>
<circle cx="299" cy="12" r="9.5" stroke="#1A242D"/>
</svg>
