<svg width="311" height="45" viewBox="0 0 311 45" fill="none" xmlns="http://www.w3.org/2000/svg">
<path d="M311 44H0" stroke="#1A242D"/>
<rect x="271" y="1" width="40" height="24" rx="12" fill="#1A242D"/>
<g filter="url(#filter0_dd_1_542)">
<path fill-rule="evenodd" clip-rule="evenodd" d="M283 24.2C289.186 24.2 294.2 19.1856 294.2 13C294.2 6.81446 289.186 1.80005 283 1.80005C276.814 1.80005 271.8 6.81446 271.8 13C271.8 19.1856 276.814 24.2 283 24.2Z" fill="white"/>
<path d="M283 24.4C289.296 24.4 294.4 19.2961 294.4 13C294.4 6.704 289.296 1.60005 283 1.60005C276.704 1.60005 271.6 6.704 271.6 13C271.6 19.2961 276.704 24.4 283 24.4Z" stroke="black" stroke-opacity="0.04" stroke-width="0.4"/>
</g>
<path d="M4.51904 7.29199C5.90088 7.29199 6.90918 7.5752 7.54395 8.1416C8.17871 8.70801 8.49609 9.50146 8.49609 10.522C8.49609 10.9858 8.42285 11.4277 8.27637 11.8477C8.13477 12.2627 7.90039 12.6313 7.57324 12.9536C7.24609 13.271 6.81396 13.5225 6.27686 13.708C5.74463 13.8936 5.08789 13.9863 4.30664 13.9863H3.16406V18H1.40625V7.29199H4.51904ZM4.40186 8.74951H3.16406V12.5215H4.12354C4.67529 12.5215 5.14404 12.458 5.52979 12.3311C5.91553 12.1992 6.2085 11.9917 6.40869 11.7085C6.60889 11.4253 6.70898 11.0518 6.70898 10.5879C6.70898 9.96777 6.521 9.50635 6.14502 9.20361C5.77393 8.90088 5.19287 8.74951 4.40186 8.74951ZM14.5679 9.73828C14.7046 9.73828 14.8535 9.74561 15.0146 9.76025C15.1758 9.7749 15.3149 9.79443 15.4321 9.81885L15.271 11.4302C15.1685 11.4009 15.0415 11.3789 14.8901 11.3643C14.7437 11.3496 14.6118 11.3423 14.4946 11.3423C14.187 11.3423 13.894 11.3936 13.6157 11.4961C13.3374 11.5938 13.0908 11.7451 12.876 11.9502C12.6611 12.1504 12.4927 12.4019 12.3706 12.7046C12.2485 13.0073 12.1875 13.3589 12.1875 13.7593V18H10.459V9.89209H11.8066L12.041 11.3203H12.1216C12.2827 11.0322 12.4829 10.7686 12.7222 10.5293C12.9614 10.29 13.2349 10.0996 13.5425 9.95801C13.855 9.81152 14.1968 9.73828 14.5679 9.73828ZM24.1113 13.9277C24.1113 14.6016 24.0234 15.1997 23.8477 15.7222C23.6719 16.2446 23.4155 16.6865 23.0786 17.0479C22.7417 17.4043 22.3364 17.6777 21.8628 17.8682C21.3892 18.0537 20.8545 18.1465 20.2588 18.1465C19.7021 18.1465 19.1919 18.0537 18.728 17.8682C18.2642 17.6777 17.8613 17.4043 17.5195 17.0479C17.1826 16.6865 16.9214 16.2446 16.7358 15.7222C16.5503 15.1997 16.4575 14.6016 16.4575 13.9277C16.4575 13.0342 16.6113 12.2773 16.9189 11.6572C17.2314 11.0322 17.6758 10.5562 18.252 10.229C18.8281 9.90186 19.5142 9.73828 20.3101 9.73828C21.0571 9.73828 21.7163 9.90186 22.2876 10.229C22.8589 10.5562 23.3057 11.0322 23.6279 11.6572C23.9502 12.2822 24.1113 13.0391 24.1113 13.9277ZM18.23 13.9277C18.23 14.5186 18.3008 15.0239 18.4424 15.4438C18.5889 15.8638 18.8135 16.186 19.1162 16.4106C19.4189 16.6304 19.8096 16.7402 20.2881 16.7402C20.7666 16.7402 21.1572 16.6304 21.46 16.4106C21.7627 16.186 21.9849 15.8638 22.1265 15.4438C22.2681 15.0239 22.3389 14.5186 22.3389 13.9277C22.3389 13.3369 22.2681 12.8364 22.1265 12.4263C21.9849 12.0112 21.7627 11.6963 21.46 11.4814C21.1572 11.2617 20.7642 11.1519 20.2808 11.1519C19.5679 11.1519 19.0479 11.3911 18.7207 11.8696C18.3936 12.3481 18.23 13.0342 18.23 13.9277ZM28.4033 21.6035C27.3047 21.6035 26.4624 21.4058 25.8765 21.0103C25.2905 20.6147 24.9976 20.0605 24.9976 19.3477C24.9976 18.8496 25.1538 18.4272 25.4663 18.0806C25.7788 17.7388 26.2256 17.502 26.8066 17.3701C26.5869 17.2725 26.3965 17.1211 26.2354 16.916C26.0791 16.7061 26.001 16.4741 26.001 16.2202C26.001 15.9175 26.0864 15.6587 26.2573 15.4438C26.4282 15.229 26.6846 15.0215 27.0264 14.8213C26.6016 14.6406 26.2598 14.3477 26.001 13.9424C25.7471 13.5322 25.6201 13.0513 25.6201 12.4995C25.6201 11.9136 25.7446 11.4155 25.9937 11.0054C26.2427 10.5903 26.6064 10.2754 27.085 10.0605C27.5635 9.84082 28.1421 9.73096 28.8208 9.73096C28.9673 9.73096 29.126 9.74072 29.2969 9.76025C29.4727 9.7749 29.6338 9.79443 29.7803 9.81885C29.9316 9.83838 30.0464 9.86035 30.1245 9.88477H32.9297V10.8442L31.5527 11.1006C31.6846 11.2861 31.7896 11.4985 31.8677 11.7378C31.9458 11.9722 31.9849 12.2285 31.9849 12.5068C31.9849 13.3467 31.6943 14.0083 31.1133 14.4917C30.5371 14.9702 29.7412 15.2095 28.7256 15.2095C28.4814 15.1997 28.2446 15.1802 28.0151 15.1509C27.8394 15.2583 27.7051 15.3779 27.6123 15.5098C27.5195 15.6367 27.4731 15.7808 27.4731 15.9419C27.4731 16.0737 27.5195 16.1812 27.6123 16.2642C27.7051 16.3423 27.8418 16.4009 28.0225 16.4399C28.208 16.479 28.4326 16.4985 28.6963 16.4985H30.0952C30.9839 16.4985 31.6626 16.6865 32.1313 17.0625C32.6001 17.4385 32.8345 17.9902 32.8345 18.7178C32.8345 19.6406 32.4536 20.3511 31.6919 20.8491C30.9302 21.3521 29.834 21.6035 28.4033 21.6035ZM28.4692 20.395C29.0698 20.395 29.5752 20.3364 29.9854 20.2192C30.3955 20.1021 30.7056 19.9336 30.9155 19.7139C31.1255 19.499 31.2305 19.2427 31.2305 18.9448C31.2305 18.6812 31.1646 18.4785 31.0327 18.3369C30.9009 18.1953 30.7031 18.0977 30.4395 18.0439C30.1758 17.9902 29.8486 17.9634 29.458 17.9634H28.1836C27.8662 17.9634 27.5854 18.0122 27.3413 18.1099C27.0972 18.2124 26.9067 18.3589 26.77 18.5493C26.6382 18.7397 26.5723 18.9692 26.5723 19.2378C26.5723 19.6089 26.7358 19.8945 27.063 20.0947C27.395 20.2949 27.8638 20.395 28.4692 20.395ZM28.8062 14.0815C29.3091 14.0815 29.6826 13.9448 29.9268 13.6714C30.1709 13.3931 30.293 13.0024 30.293 12.4995C30.293 11.9526 30.166 11.5425 29.9121 11.269C29.6631 10.9956 29.292 10.8589 28.7988 10.8589C28.3154 10.8589 27.9468 10.998 27.6929 11.2764C27.4438 11.5547 27.3193 11.9673 27.3193 12.5142C27.3193 13.0073 27.4438 13.3931 27.6929 13.6714C27.9468 13.9448 28.3179 14.0815 28.8062 14.0815ZM38.5181 9.73828C38.6548 9.73828 38.8037 9.74561 38.9648 9.76025C39.126 9.7749 39.2651 9.79443 39.3823 9.81885L39.2212 11.4302C39.1187 11.4009 38.9917 11.3789 38.8403 11.3643C38.6938 11.3496 38.562 11.3423 38.4448 11.3423C38.1372 11.3423 37.8442 11.3936 37.5659 11.4961C37.2876 11.5938 37.041 11.7451 36.8262 11.9502C36.6113 12.1504 36.4429 12.4019 36.3208 12.7046C36.1987 13.0073 36.1377 13.3589 36.1377 13.7593V18H34.4092V9.89209H35.7568L35.9912 11.3203H36.0718C36.2329 11.0322 36.4331 10.7686 36.6724 10.5293C36.9116 10.29 37.1851 10.0996 37.4927 9.95801C37.8052 9.81152 38.147 9.73828 38.5181 9.73828ZM44.0625 9.73828C45.0879 9.73828 45.8618 9.96533 46.3843 10.4194C46.9116 10.8735 47.1753 11.5815 47.1753 12.5435V18H45.9521L45.6226 16.8501H45.564C45.3345 17.1431 45.0977 17.3848 44.8535 17.5752C44.6094 17.7656 44.3262 17.9072 44.0039 18C43.6865 18.0977 43.2983 18.1465 42.8394 18.1465C42.356 18.1465 41.9238 18.0586 41.543 17.8828C41.1621 17.7021 40.8618 17.4287 40.6421 17.0625C40.4224 16.6963 40.3125 16.2324 40.3125 15.6709C40.3125 14.8359 40.6226 14.2085 41.2427 13.7886C41.8677 13.3687 42.8101 13.1367 44.0698 13.0928L45.4761 13.0415V12.6167C45.4761 12.0552 45.3442 11.6548 45.0806 11.4155C44.8218 11.1763 44.4556 11.0566 43.9819 11.0566C43.5767 11.0566 43.1836 11.1152 42.8027 11.2324C42.4219 11.3496 42.0508 11.4937 41.6895 11.6646L41.1328 10.4487C41.5283 10.2388 41.9775 10.0679 42.4805 9.93604C42.9883 9.8042 43.5156 9.73828 44.0625 9.73828ZM45.4688 14.1255L44.4214 14.1621C43.562 14.1914 42.959 14.3379 42.6123 14.6016C42.2656 14.8652 42.0923 15.2266 42.0923 15.6855C42.0923 16.0859 42.2119 16.3789 42.4512 16.5645C42.6904 16.7451 43.0054 16.8354 43.396 16.8354C43.9917 16.8354 44.4849 16.667 44.8755 16.3301C45.271 15.9883 45.4688 15.4878 45.4688 14.8286V14.1255ZM58.7476 9.73828C59.6558 9.73828 60.3394 9.97266 60.7983 10.4414C61.2622 10.9102 61.4941 11.6621 61.4941 12.6973V18H59.7729V13.0049C59.7729 12.3896 59.6533 11.9258 59.4141 11.6133C59.1748 11.3008 58.811 11.1445 58.3228 11.1445C57.6392 11.1445 57.146 11.3643 56.8433 11.8037C56.5454 12.2383 56.3965 12.8706 56.3965 13.7007V18H54.6753V13.0049C54.6753 12.5947 54.6216 12.2529 54.5142 11.9795C54.4116 11.7012 54.2529 11.4937 54.0381 11.3569C53.8232 11.2153 53.5522 11.1445 53.2251 11.1445C52.7515 11.1445 52.373 11.252 52.0898 11.4668C51.8115 11.6816 51.6113 11.999 51.4893 12.4189C51.3672 12.834 51.3062 13.3442 51.3062 13.9497V18H49.585V9.89209H50.9253L51.167 10.9834H51.2622C51.4282 10.7002 51.6333 10.4683 51.8774 10.2876C52.1265 10.1021 52.4023 9.96533 52.7051 9.87744C53.0078 9.78467 53.3228 9.73828 53.6499 9.73828C54.2554 9.73828 54.7656 9.8457 55.1807 10.0605C55.5957 10.2705 55.9058 10.5928 56.1108 11.0273H56.2427C56.4966 10.5879 56.8506 10.2632 57.3047 10.0532C57.7588 9.84326 58.2397 9.73828 58.7476 9.73828ZM76.9043 18H74.7437L69.4995 9.45264H69.4336C69.4531 9.74072 69.4702 10.0459 69.4849 10.3682C69.5044 10.6904 69.519 11.0225 69.5288 11.3643C69.5435 11.7061 69.5557 12.0527 69.5654 12.4043V18H67.9688V7.29199H70.1147L75.3516 15.7808H75.4028C75.3931 15.5317 75.3809 15.2461 75.3662 14.9238C75.3516 14.6016 75.3369 14.2695 75.3223 13.9277C75.3125 13.5811 75.3052 13.2466 75.3003 12.9243V7.29199H76.9043V18ZM86.7188 13.9277C86.7188 14.6016 86.6309 15.1997 86.4551 15.7222C86.2793 16.2446 86.0229 16.6865 85.686 17.0479C85.3491 17.4043 84.9438 17.6777 84.4702 17.8682C83.9966 18.0537 83.4619 18.1465 82.8662 18.1465C82.3096 18.1465 81.7993 18.0537 81.3354 17.8682C80.8716 17.6777 80.4688 17.4043 80.127 17.0479C79.79 16.6865 79.5288 16.2446 79.3433 15.7222C79.1577 15.1997 79.0649 14.6016 79.0649 13.9277C79.0649 13.0342 79.2188 12.2773 79.5264 11.6572C79.8389 11.0322 80.2832 10.5562 80.8594 10.229C81.4355 9.90186 82.1216 9.73828 82.9175 9.73828C83.6646 9.73828 84.3237 9.90186 84.895 10.229C85.4663 10.5562 85.9131 11.0322 86.2354 11.6572C86.5576 12.2822 86.7188 13.0391 86.7188 13.9277ZM80.8374 13.9277C80.8374 14.5186 80.9082 15.0239 81.0498 15.4438C81.1963 15.8638 81.4209 16.186 81.7236 16.4106C82.0264 16.6304 82.417 16.7402 82.8955 16.7402C83.374 16.7402 83.7646 16.6304 84.0674 16.4106C84.3701 16.186 84.5923 15.8638 84.7339 15.4438C84.8755 15.0239 84.9463 14.5186 84.9463 13.9277C84.9463 13.3369 84.8755 12.8364 84.7339 12.4263C84.5923 12.0112 84.3701 11.6963 84.0674 11.4814C83.7646 11.2617 83.3716 11.1519 82.8882 11.1519C82.1753 11.1519 81.6553 11.3911 81.3281 11.8696C81.001 12.3481 80.8374 13.0342 80.8374 13.9277ZM91.7139 16.7549C91.9385 16.7549 92.1606 16.7354 92.3804 16.6963C92.6001 16.6523 92.8003 16.6011 92.981 16.5425V17.8462C92.7905 17.9292 92.5439 18 92.2412 18.0586C91.9385 18.1172 91.6235 18.1465 91.2964 18.1465C90.8374 18.1465 90.4248 18.0708 90.0586 17.9194C89.6924 17.7632 89.4019 17.4971 89.187 17.1211C88.9722 16.7451 88.8647 16.2251 88.8647 15.561V11.2031H87.7588V10.4341L88.9453 9.82617L89.5093 8.09033H90.5933V9.89209H92.915V11.2031H90.5933V15.5391C90.5933 15.9492 90.6958 16.2544 90.9009 16.4546C91.106 16.6548 91.377 16.7549 91.7139 16.7549ZM96.3501 9.89209V18H94.6289V9.89209H96.3501ZM95.5005 6.78662C95.7642 6.78662 95.9912 6.85742 96.1816 6.99902C96.377 7.14062 96.4746 7.38477 96.4746 7.73145C96.4746 8.07324 96.377 8.31738 96.1816 8.46387C95.9912 8.60547 95.7642 8.67627 95.5005 8.67627C95.2271 8.67627 94.9951 8.60547 94.8047 8.46387C94.6191 8.31738 94.5264 8.07324 94.5264 7.73145C94.5264 7.38477 94.6191 7.14062 94.8047 6.99902C94.9951 6.85742 95.2271 6.78662 95.5005 6.78662ZM102.869 11.2031H100.898V18H99.1772V11.2031H97.8516V10.3755L99.1772 9.87012V9.30615C99.1772 8.61768 99.2847 8.0708 99.4995 7.66553C99.7192 7.26025 100.032 6.96973 100.437 6.79395C100.847 6.61328 101.335 6.52295 101.902 6.52295C102.273 6.52295 102.612 6.55469 102.92 6.61816C103.228 6.67676 103.486 6.74512 103.696 6.82324L103.25 8.12695C103.083 8.07324 102.898 8.02441 102.693 7.98047C102.488 7.93164 102.268 7.90723 102.034 7.90723C101.643 7.90723 101.355 8.0293 101.169 8.27344C100.989 8.51758 100.898 8.87402 100.898 9.34277V9.89209H102.869V11.2031ZM105.967 9.89209V18H104.246V9.89209H105.967ZM105.117 6.78662C105.381 6.78662 105.608 6.85742 105.798 6.99902C105.994 7.14062 106.091 7.38477 106.091 7.73145C106.091 8.07324 105.994 8.31738 105.798 8.46387C105.608 8.60547 105.381 8.67627 105.117 8.67627C104.844 8.67627 104.612 8.60547 104.421 8.46387C104.236 8.31738 104.143 8.07324 104.143 7.73145C104.143 7.38477 104.236 7.14062 104.421 6.99902C104.612 6.85742 104.844 6.78662 105.117 6.78662ZM111.694 18.1465C110.928 18.1465 110.264 17.9976 109.702 17.6997C109.141 17.4019 108.708 16.9453 108.406 16.3301C108.103 15.7148 107.952 14.9336 107.952 13.9863C107.952 13 108.118 12.1943 108.45 11.5693C108.782 10.9443 109.241 10.4829 109.827 10.1851C110.417 9.88721 111.094 9.73828 111.855 9.73828C112.339 9.73828 112.776 9.78711 113.167 9.88477C113.562 9.97754 113.896 10.0923 114.17 10.229L113.657 11.606C113.359 11.4839 113.054 11.3813 112.742 11.2983C112.429 11.2153 112.129 11.1738 111.841 11.1738C111.367 11.1738 110.972 11.2788 110.654 11.4888C110.342 11.6987 110.107 12.0112 109.951 12.4263C109.8 12.8413 109.724 13.3564 109.724 13.9717C109.724 14.5674 109.802 15.0703 109.958 15.4805C110.115 15.8857 110.347 16.1934 110.654 16.4033C110.962 16.6084 111.34 16.7109 111.79 16.7109C112.234 16.7109 112.632 16.6572 112.983 16.5498C113.335 16.4424 113.667 16.3032 113.979 16.1323V17.6265C113.672 17.8022 113.342 17.9316 112.991 18.0146C112.639 18.1025 112.207 18.1465 111.694 18.1465ZM119.062 9.73828C120.088 9.73828 120.862 9.96533 121.384 10.4194C121.912 10.8735 122.175 11.5815 122.175 12.5435V18H120.952L120.623 16.8501H120.564C120.334 17.1431 120.098 17.3848 119.854 17.5752C119.609 17.7656 119.326 17.9072 119.004 18C118.687 18.0977 118.298 18.1465 117.839 18.1465C117.356 18.1465 116.924 18.0586 116.543 17.8828C116.162 17.7021 115.862 17.4287 115.642 17.0625C115.422 16.6963 115.312 16.2324 115.312 15.6709C115.312 14.8359 115.623 14.2085 116.243 13.7886C116.868 13.3687 117.81 13.1367 119.07 13.0928L120.476 13.0415V12.6167C120.476 12.0552 120.344 11.6548 120.081 11.4155C119.822 11.1763 119.456 11.0566 118.982 11.0566C118.577 11.0566 118.184 11.1152 117.803 11.2324C117.422 11.3496 117.051 11.4937 116.689 11.6646L116.133 10.4487C116.528 10.2388 116.978 10.0679 117.48 9.93604C117.988 9.8042 118.516 9.73828 119.062 9.73828ZM120.469 14.1255L119.421 14.1621C118.562 14.1914 117.959 14.3379 117.612 14.6016C117.266 14.8652 117.092 15.2266 117.092 15.6855C117.092 16.0859 117.212 16.3789 117.451 16.5645C117.69 16.7451 118.005 16.8354 118.396 16.8354C118.992 16.8354 119.485 16.667 119.875 16.3301C120.271 15.9883 120.469 15.4878 120.469 14.8286V14.1255ZM127.603 16.7549C127.827 16.7549 128.049 16.7354 128.269 16.6963C128.489 16.6523 128.689 16.6011 128.87 16.5425V17.8462C128.679 17.9292 128.433 18 128.13 18.0586C127.827 18.1172 127.512 18.1465 127.185 18.1465C126.726 18.1465 126.313 18.0708 125.947 17.9194C125.581 17.7632 125.291 17.4971 125.076 17.1211C124.861 16.7451 124.753 16.2251 124.753 15.561V11.2031H123.647V10.4341L124.834 9.82617L125.398 8.09033H126.482V9.89209H128.804V11.2031H126.482V15.5391C126.482 15.9492 126.584 16.2544 126.79 16.4546C126.995 16.6548 127.266 16.7549 127.603 16.7549ZM132.239 9.89209V18H130.518V9.89209H132.239ZM131.389 6.78662C131.653 6.78662 131.88 6.85742 132.07 6.99902C132.266 7.14062 132.363 7.38477 132.363 7.73145C132.363 8.07324 132.266 8.31738 132.07 8.46387C131.88 8.60547 131.653 8.67627 131.389 8.67627C131.116 8.67627 130.884 8.60547 130.693 8.46387C130.508 8.31738 130.415 8.07324 130.415 7.73145C130.415 7.38477 130.508 7.14062 130.693 6.99902C130.884 6.85742 131.116 6.78662 131.389 6.78662ZM141.885 13.9277C141.885 14.6016 141.797 15.1997 141.621 15.7222C141.445 16.2446 141.189 16.6865 140.852 17.0479C140.515 17.4043 140.11 17.6777 139.636 17.8682C139.163 18.0537 138.628 18.1465 138.032 18.1465C137.476 18.1465 136.965 18.0537 136.501 17.8682C136.038 17.6777 135.635 17.4043 135.293 17.0479C134.956 16.6865 134.695 16.2446 134.509 15.7222C134.324 15.1997 134.231 14.6016 134.231 13.9277C134.231 13.0342 134.385 12.2773 134.692 11.6572C135.005 11.0322 135.449 10.5562 136.025 10.229C136.602 9.90186 137.288 9.73828 138.083 9.73828C138.831 9.73828 139.49 9.90186 140.061 10.229C140.632 10.5562 141.079 11.0322 141.401 11.6572C141.724 12.2822 141.885 13.0391 141.885 13.9277ZM136.003 13.9277C136.003 14.5186 136.074 15.0239 136.216 15.4438C136.362 15.8638 136.587 16.186 136.89 16.4106C137.192 16.6304 137.583 16.7402 138.062 16.7402C138.54 16.7402 138.931 16.6304 139.233 16.4106C139.536 16.186 139.758 15.8638 139.9 15.4438C140.042 15.0239 140.112 14.5186 140.112 13.9277C140.112 13.3369 140.042 12.8364 139.9 12.4263C139.758 12.0112 139.536 11.6963 139.233 11.4814C138.931 11.2617 138.538 11.1519 138.054 11.1519C137.341 11.1519 136.821 11.3911 136.494 11.8696C136.167 12.3481 136.003 13.0342 136.003 13.9277ZM148.088 9.73828C149.001 9.73828 149.712 9.9751 150.22 10.4487C150.732 10.9175 150.989 11.6719 150.989 12.7119V18H149.268V13.0342C149.268 12.4043 149.138 11.9331 148.879 11.6206C148.621 11.3032 148.22 11.1445 147.678 11.1445C146.892 11.1445 146.345 11.3862 146.038 11.8696C145.735 12.353 145.583 13.0537 145.583 13.9717V18H143.862V9.89209H145.203L145.444 10.9907H145.54C145.715 10.7075 145.933 10.4756 146.191 10.2949C146.455 10.1094 146.748 9.97021 147.07 9.87744C147.397 9.78467 147.737 9.73828 148.088 9.73828ZM158.848 15.6855C158.848 16.2178 158.718 16.667 158.459 17.0332C158.201 17.3994 157.822 17.6777 157.324 17.8682C156.831 18.0537 156.226 18.1465 155.508 18.1465C154.941 18.1465 154.453 18.105 154.043 18.022C153.638 17.9438 153.254 17.8218 152.893 17.6558V16.1689C153.279 16.3496 153.711 16.5059 154.189 16.6377C154.673 16.7695 155.129 16.8354 155.559 16.8354C156.125 16.8354 156.533 16.7476 156.782 16.5718C157.031 16.3911 157.156 16.1519 157.156 15.854C157.156 15.6782 157.104 15.522 157.002 15.3853C156.904 15.2437 156.719 15.0996 156.445 14.9531C156.177 14.8018 155.781 14.6211 155.259 14.4111C154.746 14.2061 154.314 14.001 153.962 13.7959C153.611 13.5908 153.345 13.3442 153.164 13.0562C152.983 12.7632 152.893 12.3896 152.893 11.9355C152.893 11.2178 153.176 10.6733 153.743 10.3022C154.314 9.92627 155.068 9.73828 156.006 9.73828C156.504 9.73828 156.973 9.78955 157.412 9.89209C157.856 9.98975 158.291 10.1338 158.716 10.3242L158.174 11.6206C157.808 11.4595 157.439 11.3276 157.068 11.2251C156.702 11.1177 156.328 11.064 155.947 11.064C155.503 11.064 155.164 11.1323 154.929 11.269C154.7 11.4058 154.585 11.6011 154.585 11.855C154.585 12.0454 154.641 12.2065 154.753 12.3384C154.866 12.4702 155.059 12.6021 155.332 12.7339C155.61 12.8657 155.996 13.0293 156.489 13.2246C156.973 13.4102 157.39 13.6055 157.742 13.8105C158.098 14.0107 158.372 14.2573 158.562 14.5503C158.752 14.8433 158.848 15.2217 158.848 15.6855Z" fill="white"/>
<defs>
<filter id="filter0_dd_1_542" x="269.8" y="0.600024" width="26.4001" height="26.4001" filterUnits="userSpaceOnUse" color-interpolation-filters="sRGB">
<feFlood flood-opacity="0" result="BackgroundImageFix"/>
<feColorMatrix in="SourceAlpha" type="matrix" values="0 0 0 0 0 0 0 0 0 0 0 0 0 0 0 0 0 0 127 0" result="hardAlpha"/>
<feOffset dy="0.8"/>
<feGaussianBlur stdDeviation="0.8"/>
<feColorMatrix type="matrix" values="0 0 0 0 0 0 0 0 0 0 0 0 0 0 0 0 0 0 0.2 0"/>
<feBlend mode="normal" in2="BackgroundImageFix" result="effect1_dropShadow_1_542"/>
<feColorMatrix in="SourceAlpha" type="matrix" values="0 0 0 0 0 0 0 0 0 0 0 0 0 0 0 0 0 0 127 0" result="hardAlpha"/>
<feOffset dy="0.08"/>
<feGaussianBlur stdDeviation="0.12"/>
<feColorMatrix type="matrix" values="0 0 0 0 0 0 0 0 0 0 0 0 0 0 0 0 0 0 0.1 0"/>
<feBlend mode="normal" in2="effect1_dropShadow_1_542" result="effect2_dropShadow_1_542"/>
<feBlend mode="normal" in="SourceGraphic" in2="effect2_dropShadow_1_542" result="shape"/>
</filter>
</defs>
</svg>
