<svg width="312" height="44" viewBox="0 0 312 44" fill="none" xmlns="http://www.w3.org/2000/svg">
<path d="M311 43H0" stroke="#1A242D"/>
<rect x="271" width="40" height="24" rx="12" fill="#F12C4C"/>
<g filter="url(#filter0_dd_1_541)">
<path fill-rule="evenodd" clip-rule="evenodd" d="M299 23.2C305.186 23.2 310.2 18.1856 310.2 12C310.2 5.81446 305.186 0.800049 299 0.800049C292.814 0.800049 287.8 5.81446 287.8 12C287.8 18.1856 292.814 23.2 299 23.2Z" fill="white"/>
</g>
<path d="M14.0698 6.29199L11.272 17H9.35303L7.56592 10.584C7.52197 10.4277 7.47314 10.2422 7.41943 10.0273C7.36572 9.8125 7.31201 9.59277 7.2583 9.36816C7.20947 9.14355 7.16553 8.93848 7.12646 8.75293C7.09229 8.5625 7.06787 8.41602 7.05322 8.31348C7.04346 8.41602 7.02148 8.56006 6.9873 8.74561C6.95312 8.93115 6.91162 9.13623 6.86279 9.36084C6.81885 9.58057 6.77002 9.80029 6.71631 10.02C6.6626 10.2349 6.61377 10.4253 6.56982 10.5913L4.81201 17H2.90039L0.109863 6.29199H1.875L3.42041 12.5688C3.46924 12.769 3.51807 12.9863 3.56689 13.2207C3.62061 13.4502 3.66943 13.6821 3.71338 13.9165C3.76221 14.1509 3.80615 14.3804 3.84521 14.605C3.88428 14.8247 3.91602 15.0249 3.94043 15.2056C3.96484 15.02 3.99658 14.8149 4.03564 14.5903C4.07471 14.3608 4.11621 14.1289 4.16016 13.8945C4.20898 13.6553 4.25781 13.4258 4.30664 13.2061C4.36035 12.9863 4.41406 12.7886 4.46777 12.6128L6.21094 6.29199H7.9248L9.70459 12.6348C9.7583 12.8154 9.80957 13.0181 9.8584 13.2427C9.91211 13.4673 9.96338 13.6968 10.0122 13.9312C10.061 14.1655 10.105 14.3926 10.144 14.6123C10.1831 14.832 10.2148 15.0298 10.2393 15.2056C10.2734 14.9663 10.3174 14.6929 10.3711 14.3853C10.4248 14.0776 10.4858 13.7651 10.5542 13.4478C10.6226 13.1304 10.6909 12.8374 10.7593 12.5688L12.2974 6.29199H14.0698ZM22.5879 12.9277C22.5879 13.6016 22.5 14.1997 22.3242 14.7222C22.1484 15.2446 21.8921 15.6865 21.5552 16.0479C21.2183 16.4043 20.813 16.6777 20.3394 16.8682C19.8657 17.0537 19.3311 17.1465 18.7354 17.1465C18.1787 17.1465 17.6685 17.0537 17.2046 16.8682C16.7407 16.6777 16.3379 16.4043 15.9961 16.0479C15.6592 15.6865 15.3979 15.2446 15.2124 14.7222C15.0269 14.1997 14.9341 13.6016 14.9341 12.9277C14.9341 12.0342 15.0879 11.2773 15.3955 10.6572C15.708 10.0322 16.1523 9.55615 16.7285 9.229C17.3047 8.90186 17.9907 8.73828 18.7866 8.73828C19.5337 8.73828 20.1929 8.90186 20.7642 9.229C21.3354 9.55615 21.7822 10.0322 22.1045 10.6572C22.4268 11.2822 22.5879 12.0391 22.5879 12.9277ZM16.7065 12.9277C16.7065 13.5186 16.7773 14.0239 16.9189 14.4438C17.0654 14.8638 17.29 15.186 17.5928 15.4106C17.8955 15.6304 18.2861 15.7402 18.7646 15.7402C19.2432 15.7402 19.6338 15.6304 19.9365 15.4106C20.2393 15.186 20.4614 14.8638 20.603 14.4438C20.7446 14.0239 20.8154 13.5186 20.8154 12.9277C20.8154 12.3369 20.7446 11.8364 20.603 11.4263C20.4614 11.0112 20.2393 10.6963 19.9365 10.4814C19.6338 10.2617 19.2407 10.1519 18.7573 10.1519C18.0444 10.1519 17.5244 10.3911 17.1973 10.8696C16.8701 11.3481 16.7065 12.0342 16.7065 12.9277ZM28.6743 8.73828C28.811 8.73828 28.96 8.74561 29.1211 8.76025C29.2822 8.7749 29.4214 8.79443 29.5386 8.81885L29.3774 10.4302C29.2749 10.4009 29.1479 10.3789 28.9966 10.3643C28.8501 10.3496 28.7183 10.3423 28.6011 10.3423C28.2935 10.3423 28.0005 10.3936 27.7222 10.4961C27.4438 10.5938 27.1973 10.7451 26.9824 10.9502C26.7676 11.1504 26.5991 11.4019 26.4771 11.7046C26.355 12.0073 26.2939 12.3589 26.2939 12.7593V17H24.5654V8.89209H25.9131L26.1475 10.3203H26.228C26.3892 10.0322 26.5894 9.76855 26.8286 9.5293C27.0679 9.29004 27.3413 9.09961 27.6489 8.95801C27.9614 8.81152 28.3032 8.73828 28.6743 8.73828ZM32.7612 5.60352V11.1113C32.7612 11.3604 32.7515 11.6338 32.7319 11.9316C32.7124 12.2246 32.6929 12.5005 32.6733 12.7593H32.71C32.8369 12.5884 32.9883 12.3882 33.1641 12.1587C33.3447 11.9292 33.5156 11.729 33.6768 11.5581L36.1523 8.89209H38.1299L34.8853 12.3784L38.3423 17H36.3208L33.728 13.4404L32.7612 14.2681V17H31.04V5.60352H32.7612ZM46.8164 12.9277C46.8164 13.6016 46.7285 14.1997 46.5527 14.7222C46.377 15.2446 46.1206 15.6865 45.7837 16.0479C45.4468 16.4043 45.0415 16.6777 44.5679 16.8682C44.0942 17.0537 43.5596 17.1465 42.9639 17.1465C42.4072 17.1465 41.897 17.0537 41.4331 16.8682C40.9692 16.6777 40.5664 16.4043 40.2246 16.0479C39.8877 15.6865 39.6265 15.2446 39.4409 14.7222C39.2554 14.1997 39.1626 13.6016 39.1626 12.9277C39.1626 12.0342 39.3164 11.2773 39.624 10.6572C39.9365 10.0322 40.3809 9.55615 40.957 9.229C41.5332 8.90186 42.2192 8.73828 43.0151 8.73828C43.7622 8.73828 44.4214 8.90186 44.9927 9.229C45.564 9.55615 46.0107 10.0322 46.333 10.6572C46.6553 11.2822 46.8164 12.0391 46.8164 12.9277ZM40.9351 12.9277C40.9351 13.5186 41.0059 14.0239 41.1475 14.4438C41.2939 14.8638 41.5186 15.186 41.8213 15.4106C42.124 15.6304 42.5146 15.7402 42.9932 15.7402C43.4717 15.7402 43.8623 15.6304 44.165 15.4106C44.4678 15.186 44.6899 14.8638 44.8315 14.4438C44.9731 14.0239 45.0439 13.5186 45.0439 12.9277C45.0439 12.3369 44.9731 11.8364 44.8315 11.4263C44.6899 11.0112 44.4678 10.6963 44.165 10.4814C43.8623 10.2617 43.4692 10.1519 42.9858 10.1519C42.2729 10.1519 41.7529 10.3911 41.4258 10.8696C41.0986 11.3481 40.9351 12.0342 40.9351 12.9277ZM55.8618 8.89209V17H54.5068L54.2725 15.9087H54.1772C54.0063 16.187 53.7891 16.4189 53.5254 16.6045C53.2617 16.7852 52.9688 16.9194 52.6465 17.0073C52.3242 17.1001 51.9849 17.1465 51.6284 17.1465C51.0181 17.1465 50.4956 17.0439 50.061 16.8389C49.6313 16.6289 49.3018 16.3066 49.0723 15.8721C48.8428 15.4375 48.728 14.876 48.728 14.1875V8.89209H50.4565V13.8652C50.4565 14.4951 50.5835 14.9663 50.8374 15.2788C51.0962 15.5913 51.4966 15.7476 52.0386 15.7476C52.561 15.7476 52.9761 15.6401 53.2837 15.4253C53.5913 15.2104 53.8086 14.8931 53.9355 14.4731C54.0674 14.0532 54.1333 13.5381 54.1333 12.9277V8.89209H55.8618ZM61.3477 15.7549C61.5723 15.7549 61.7944 15.7354 62.0142 15.6963C62.2339 15.6523 62.4341 15.6011 62.6147 15.5425V16.8462C62.4243 16.9292 62.1777 17 61.875 17.0586C61.5723 17.1172 61.2573 17.1465 60.9302 17.1465C60.4712 17.1465 60.0586 17.0708 59.6924 16.9194C59.3262 16.7632 59.0356 16.4971 58.8208 16.1211C58.606 15.7451 58.4985 15.2251 58.4985 14.561V10.2031H57.3926V9.43408L58.5791 8.82617L59.1431 7.09033H60.2271V8.89209H62.5488V10.2031H60.2271V14.5391C60.2271 14.9492 60.3296 15.2544 60.5347 15.4546C60.7397 15.6548 61.0107 15.7549 61.3477 15.7549ZM71.3452 6.29199C72.2681 6.29199 73.0298 6.4043 73.6304 6.62891C74.2358 6.85352 74.6851 7.19531 74.978 7.6543C75.2759 8.11328 75.4248 8.69678 75.4248 9.40479C75.4248 9.93213 75.3271 10.3813 75.1318 10.7524C74.9365 11.1235 74.6802 11.4312 74.3628 11.6753C74.0454 11.9194 73.7061 12.1147 73.3447 12.2612L76.3843 17H74.3994L71.814 12.708H70.0928V17H68.335V6.29199H71.3452ZM71.228 7.75684H70.0928V11.2578H71.3086C72.124 11.2578 72.7148 11.1064 73.0811 10.8037C73.4521 10.501 73.6377 10.0542 73.6377 9.46338C73.6377 8.84326 73.4399 8.40381 73.0444 8.14502C72.6538 7.88623 72.0483 7.75684 71.228 7.75684ZM80.9692 8.73828C81.6919 8.73828 82.312 8.88721 82.8296 9.18506C83.3472 9.48291 83.7451 9.90527 84.0234 10.4521C84.3018 10.999 84.4409 11.6533 84.4409 12.415V13.3379H79.0283C79.0479 14.124 79.2578 14.7295 79.6582 15.1543C80.0635 15.5791 80.6299 15.7915 81.3574 15.7915C81.875 15.7915 82.3389 15.7427 82.749 15.645C83.1641 15.5425 83.5913 15.3936 84.0308 15.1982V16.5972C83.6255 16.7876 83.2129 16.9268 82.793 17.0146C82.373 17.1025 81.8701 17.1465 81.2842 17.1465C80.4883 17.1465 79.7876 16.9927 79.1821 16.6851C78.5815 16.3726 78.1104 15.9087 77.7686 15.2935C77.4316 14.6782 77.2632 13.9141 77.2632 13.001C77.2632 12.0928 77.417 11.3213 77.7246 10.6865C78.0322 10.0518 78.4644 9.56836 79.021 9.23633C79.5776 8.9043 80.2271 8.73828 80.9692 8.73828ZM80.9692 10.0347C80.4272 10.0347 79.9878 10.2104 79.6509 10.562C79.3188 10.9136 79.1235 11.4287 79.0649 12.1074H82.7563C82.7515 11.7021 82.6831 11.3433 82.5513 11.0308C82.4243 10.7183 82.229 10.4741 81.9653 10.2983C81.7065 10.1226 81.3745 10.0347 80.9692 10.0347ZM95.5444 8.73828C96.4526 8.73828 97.1362 8.97266 97.5952 9.44141C98.0591 9.91016 98.291 10.6621 98.291 11.6973V17H96.5698V12.0049C96.5698 11.3896 96.4502 10.9258 96.2109 10.6133C95.9717 10.3008 95.6079 10.1445 95.1196 10.1445C94.436 10.1445 93.9429 10.3643 93.6401 10.8037C93.3423 11.2383 93.1934 11.8706 93.1934 12.7007V17H91.4722V12.0049C91.4722 11.5947 91.4185 11.2529 91.311 10.9795C91.2085 10.7012 91.0498 10.4937 90.835 10.3569C90.6201 10.2153 90.3491 10.1445 90.022 10.1445C89.5483 10.1445 89.1699 10.252 88.8867 10.4668C88.6084 10.6816 88.4082 10.999 88.2861 11.4189C88.1641 11.834 88.103 12.3442 88.103 12.9497V17H86.3818V8.89209H87.7222L87.9639 9.9834H88.0591C88.2251 9.7002 88.4302 9.46826 88.6743 9.2876C88.9233 9.10205 89.1992 8.96533 89.502 8.87744C89.8047 8.78467 90.1196 8.73828 90.4468 8.73828C91.0522 8.73828 91.5625 8.8457 91.9775 9.06055C92.3926 9.27051 92.7026 9.59277 92.9077 10.0273H93.0396C93.2935 9.58789 93.6475 9.26318 94.1016 9.05322C94.5557 8.84326 95.0366 8.73828 95.5444 8.73828ZM102.415 8.89209V17H100.693V8.89209H102.415ZM101.565 5.78662C101.829 5.78662 102.056 5.85742 102.246 5.99902C102.441 6.14062 102.539 6.38477 102.539 6.73145C102.539 7.07324 102.441 7.31738 102.246 7.46387C102.056 7.60547 101.829 7.67627 101.565 7.67627C101.292 7.67627 101.06 7.60547 100.869 7.46387C100.684 7.31738 100.591 7.07324 100.591 6.73145C100.591 6.38477 100.684 6.14062 100.869 5.99902C101.06 5.85742 101.292 5.78662 101.565 5.78662ZM109.109 8.73828C110.022 8.73828 110.732 8.9751 111.24 9.44873C111.753 9.91748 112.009 10.6719 112.009 11.7119V17H110.288V12.0342C110.288 11.4043 110.159 10.9331 109.9 10.6206C109.641 10.3032 109.241 10.1445 108.699 10.1445C107.913 10.1445 107.366 10.3862 107.058 10.8696C106.755 11.353 106.604 12.0537 106.604 12.9717V17H104.883V8.89209H106.223L106.465 9.99072H106.56C106.736 9.70752 106.953 9.47559 107.212 9.29492C107.476 9.10938 107.769 8.97021 108.091 8.87744C108.418 8.78467 108.757 8.73828 109.109 8.73828ZM117.144 17.1465C116.177 17.1465 115.4 16.7949 114.814 16.0918C114.233 15.3838 113.943 14.3413 113.943 12.9644C113.943 11.5728 114.238 10.5205 114.829 9.80762C115.425 9.09473 116.208 8.73828 117.18 8.73828C117.59 8.73828 117.949 8.79443 118.257 8.90674C118.564 9.01416 118.828 9.16064 119.048 9.34619C119.272 9.53174 119.463 9.73926 119.619 9.96875H119.7C119.675 9.81738 119.646 9.6001 119.612 9.31689C119.583 9.02881 119.568 8.7627 119.568 8.51855V5.60352H121.296V17H119.949L119.641 15.894H119.568C119.421 16.1284 119.236 16.3408 119.011 16.5312C118.792 16.7168 118.528 16.8657 118.22 16.978C117.917 17.0903 117.559 17.1465 117.144 17.1465ZM117.627 15.7476C118.364 15.7476 118.884 15.5352 119.187 15.1104C119.49 14.6855 119.646 14.0483 119.656 13.1987V12.9717C119.656 12.0635 119.509 11.3677 119.216 10.8843C118.923 10.396 118.389 10.1519 117.612 10.1519C116.992 10.1519 116.519 10.4033 116.191 10.9062C115.869 11.4043 115.708 12.1001 115.708 12.9937C115.708 13.8872 115.869 14.5708 116.191 15.0444C116.519 15.5132 116.997 15.7476 117.627 15.7476ZM126.995 8.73828C127.717 8.73828 128.337 8.88721 128.855 9.18506C129.373 9.48291 129.771 9.90527 130.049 10.4521C130.327 10.999 130.466 11.6533 130.466 12.415V13.3379H125.054C125.073 14.124 125.283 14.7295 125.684 15.1543C126.089 15.5791 126.655 15.7915 127.383 15.7915C127.9 15.7915 128.364 15.7427 128.774 15.645C129.189 15.5425 129.617 15.3936 130.056 15.1982V16.5972C129.651 16.7876 129.238 16.9268 128.818 17.0146C128.398 17.1025 127.896 17.1465 127.31 17.1465C126.514 17.1465 125.813 16.9927 125.208 16.6851C124.607 16.3726 124.136 15.9087 123.794 15.2935C123.457 14.6782 123.289 13.9141 123.289 13.001C123.289 12.0928 123.442 11.3213 123.75 10.6865C124.058 10.0518 124.49 9.56836 125.046 9.23633C125.603 8.9043 126.252 8.73828 126.995 8.73828ZM126.995 10.0347C126.453 10.0347 126.013 10.2104 125.676 10.562C125.344 10.9136 125.149 11.4287 125.09 12.1074H128.782C128.777 11.7021 128.708 11.3433 128.577 11.0308C128.45 10.7183 128.254 10.4741 127.991 10.2983C127.732 10.1226 127.4 10.0347 126.995 10.0347ZM136.516 8.73828C136.653 8.73828 136.802 8.74561 136.963 8.76025C137.124 8.7749 137.263 8.79443 137.38 8.81885L137.219 10.4302C137.117 10.4009 136.99 10.3789 136.838 10.3643C136.692 10.3496 136.56 10.3423 136.443 10.3423C136.135 10.3423 135.842 10.3936 135.564 10.4961C135.286 10.5938 135.039 10.7451 134.824 10.9502C134.609 11.1504 134.441 11.4019 134.319 11.7046C134.197 12.0073 134.136 12.3589 134.136 12.7593V17H132.407V8.89209H133.755L133.989 10.3203H134.07C134.231 10.0322 134.431 9.76855 134.67 9.5293C134.91 9.29004 135.183 9.09961 135.491 8.95801C135.803 8.81152 136.145 8.73828 136.516 8.73828ZM144.331 14.6855C144.331 15.2178 144.202 15.667 143.943 16.0332C143.684 16.3994 143.306 16.6777 142.808 16.8682C142.314 17.0537 141.709 17.1465 140.991 17.1465C140.425 17.1465 139.937 17.105 139.526 17.022C139.121 16.9438 138.738 16.8218 138.376 16.6558V15.1689C138.762 15.3496 139.194 15.5059 139.673 15.6377C140.156 15.7695 140.613 15.8354 141.042 15.8354C141.609 15.8354 142.017 15.7476 142.266 15.5718C142.515 15.3911 142.639 15.1519 142.639 14.854C142.639 14.6782 142.588 14.522 142.485 14.3853C142.388 14.2437 142.202 14.0996 141.929 13.9531C141.66 13.8018 141.265 13.6211 140.742 13.4111C140.229 13.2061 139.797 13.001 139.446 12.7959C139.094 12.5908 138.828 12.3442 138.647 12.0562C138.467 11.7632 138.376 11.3896 138.376 10.9355C138.376 10.2178 138.66 9.67334 139.226 9.30225C139.797 8.92627 140.552 8.73828 141.489 8.73828C141.987 8.73828 142.456 8.78955 142.896 8.89209C143.34 8.98975 143.774 9.13379 144.199 9.32422L143.657 10.6206C143.291 10.4595 142.922 10.3276 142.551 10.2251C142.185 10.1177 141.812 10.064 141.431 10.064C140.986 10.064 140.647 10.1323 140.413 10.269C140.183 10.4058 140.068 10.6011 140.068 10.855C140.068 11.0454 140.125 11.2065 140.237 11.3384C140.349 11.4702 140.542 11.6021 140.815 11.7339C141.094 11.8657 141.479 12.0293 141.973 12.2246C142.456 12.4102 142.874 12.6055 143.225 12.8105C143.582 13.0107 143.855 13.2573 144.045 13.5503C144.236 13.8433 144.331 14.2217 144.331 14.6855Z" fill="white"/>
<defs>
<filter id="filter0_dd_1_541" x="286.2" y="4.88162e-05" width="25.6" height="25.6" filterUnits="userSpaceOnUse" color-interpolation-filters="sRGB">
<feFlood flood-opacity="0" result="BackgroundImageFix"/>
<feColorMatrix in="SourceAlpha" type="matrix" values="0 0 0 0 0 0 0 0 0 0 0 0 0 0 0 0 0 0 127 0" result="hardAlpha"/>
<feOffset dy="0.8"/>
<feGaussianBlur stdDeviation="0.8"/>
<feColorMatrix type="matrix" values="0 0 0 0 0 0 0 0 0 0 0 0 0 0 0 0 0 0 0.2 0"/>
<feBlend mode="normal" in2="BackgroundImageFix" result="effect1_dropShadow_1_541"/>
<feColorMatrix in="SourceAlpha" type="matrix" values="0 0 0 0 0 0 0 0 0 0 0 0 0 0 0 0 0 0 127 0" result="hardAlpha"/>
<feOffset dy="0.08"/>
<feGaussianBlur stdDeviation="0.12"/>
<feColorMatrix type="matrix" values="0 0 0 0 0 0 0 0 0 0 0 0 0 0 0 0 0 0 0.1 0"/>
<feBlend mode="normal" in2="effect1_dropShadow_1_541" result="effect2_dropShadow_1_541"/>
<feBlend mode="normal" in="SourceGraphic" in2="effect2_dropShadow_1_541" result="shape"/>
</filter>
</defs>
</svg>
