<svg width="97" height="97" viewBox="0 0 97 97" fill="none" xmlns="http://www.w3.org/2000/svg">
<circle cx="48.5" cy="48.5" r="46.5" stroke="#1A242D" stroke-width="4"/>
<path d="M48.5 2C74.1812 2 95 22.8188 95 48.5C95 74.1812 74.1812 95 48.5 95C36.5905 95 25.7267 90.5228 17.5 83.1597" stroke="#F12C4C" stroke-width="4"/>
<path d="M20.0098 60.3076C20.0098 59.3838 20.0742 58.4743 20.2031 57.5791C20.3392 56.6839 20.5684 55.846 20.8906 55.0654C21.2129 54.2848 21.6569 53.5973 22.2227 53.0029C22.7956 52.4085 23.5153 51.943 24.3818 51.6064C25.2484 51.2627 26.2904 51.0908 27.5078 51.0908C27.8229 51.0908 28.1774 51.1051 28.5713 51.1338C28.9652 51.1624 29.291 51.209 29.5488 51.2734V53.3682C29.2695 53.2894 28.9616 53.2285 28.625 53.1855C28.2956 53.1426 27.9661 53.1211 27.6367 53.1211C26.319 53.1211 25.2913 53.3717 24.5537 53.873C23.8161 54.3672 23.2897 55.0475 22.9746 55.9141C22.6595 56.7734 22.4769 57.7581 22.4268 58.8682H22.5557C22.7705 58.5101 23.0391 58.1914 23.3613 57.9121C23.6836 57.6328 24.0775 57.4108 24.543 57.2461C25.0085 57.0742 25.5492 56.9883 26.165 56.9883C27.0817 56.9883 27.8802 57.1816 28.5605 57.5684C29.2409 57.9479 29.7637 58.4993 30.1289 59.2227C30.5013 59.946 30.6875 60.8232 30.6875 61.8545C30.6875 62.9645 30.4762 63.9206 30.0537 64.7227C29.6383 65.5247 29.0439 66.1406 28.2705 66.5703C27.5042 67 26.5911 67.2148 25.5312 67.2148C24.7507 67.2148 24.0238 67.0716 23.3506 66.7852C22.6846 66.4987 22.1009 66.069 21.5996 65.4961C21.0983 64.9232 20.708 64.207 20.4287 63.3477C20.1494 62.4811 20.0098 61.4678 20.0098 60.3076ZM25.4883 65.1309C26.3047 65.1309 26.96 64.8659 27.4541 64.3359C27.9554 63.7988 28.2061 62.9788 28.2061 61.876C28.2061 60.9808 27.984 60.2718 27.54 59.749C27.1032 59.2262 26.4443 58.9648 25.5635 58.9648C24.9619 58.9648 24.4355 59.0938 23.9844 59.3516C23.5332 59.6094 23.1823 59.9352 22.9316 60.3291C22.6882 60.723 22.5664 61.124 22.5664 61.5322C22.5664 61.9476 22.6273 62.3665 22.749 62.7891C22.8708 63.2116 23.0534 63.6019 23.2969 63.96C23.5404 64.3109 23.8447 64.5938 24.21 64.8086C24.5752 65.0234 25.0013 65.1309 25.4883 65.1309ZM37.917 57.1816C38.9268 57.1816 39.8148 57.3643 40.5811 57.7295C41.3545 58.0876 41.9561 58.6175 42.3857 59.3193C42.8154 60.014 43.0303 60.8662 43.0303 61.876C43.0303 62.9788 42.7975 63.9313 42.332 64.7334C41.8665 65.5283 41.1826 66.1406 40.2803 66.5703C39.3779 67 38.2786 67.2148 36.9824 67.2148C36.1589 67.2148 35.389 67.1432 34.6729 67C33.9639 66.8568 33.3516 66.6419 32.8359 66.3555V64.0781C33.373 64.3789 34.0176 64.626 34.7695 64.8193C35.5215 65.0055 36.2412 65.0986 36.9287 65.0986C37.6592 65.0986 38.2858 64.9912 38.8086 64.7764C39.3314 64.5615 39.7324 64.2321 40.0117 63.7881C40.2982 63.3441 40.4414 62.7819 40.4414 62.1016C40.4414 61.1992 40.1514 60.5046 39.5713 60.0176C38.9984 59.5234 38.0996 59.2764 36.875 59.2764C36.4453 59.2764 35.987 59.3158 35.5 59.3945C35.0202 59.4661 34.6191 59.5449 34.2969 59.6309L33.1904 58.9756L33.7812 51.2949H41.9453V53.5186H36.0049L35.6611 57.4287C35.9189 57.3714 36.2269 57.3177 36.585 57.2676C36.943 57.2103 37.387 57.1816 37.917 57.1816ZM56.3721 63.5518H54.2451V67H51.7529V63.5518H44.6094V61.6396L51.7852 51.252H54.2451V61.457H56.3721V63.5518ZM51.7529 61.457V57.5576C51.7529 57.2354 51.7565 56.9095 51.7637 56.5801C51.778 56.2435 51.7923 55.9212 51.8066 55.6133C51.821 55.3053 51.8353 55.0225 51.8496 54.7646C51.8639 54.4997 51.8747 54.2812 51.8818 54.1094H51.7959C51.6598 54.3958 51.5094 54.6895 51.3447 54.9902C51.18 55.2839 51.0046 55.5703 50.8184 55.8496L46.9512 61.457H51.7529ZM68.3926 59.1367C68.3926 60.4043 68.2923 61.5394 68.0918 62.542C67.8984 63.5374 67.5905 64.3825 67.168 65.0771C66.7454 65.7718 66.194 66.3018 65.5137 66.667C64.8333 67.0322 64.0098 67.2148 63.043 67.2148C61.8327 67.2148 60.8337 66.8962 60.0459 66.2588C59.2581 65.6143 58.6745 64.6904 58.2949 63.4873C57.9154 62.277 57.7256 60.8268 57.7256 59.1367C57.7256 57.4466 57.8975 56 58.2412 54.7969C58.5921 53.5866 59.1579 52.6592 59.9385 52.0146C60.7191 51.3701 61.7539 51.0479 63.043 51.0479C64.2604 51.0479 65.263 51.3701 66.0508 52.0146C66.8457 52.652 67.4329 53.5758 67.8125 54.7861C68.1992 55.9893 68.3926 57.4395 68.3926 59.1367ZM60.2715 59.1367C60.2715 60.4616 60.3574 61.568 60.5293 62.4561C60.7083 63.3441 61.002 64.0101 61.4102 64.4541C61.8184 64.891 62.3626 65.1094 63.043 65.1094C63.7233 65.1094 64.2676 64.891 64.6758 64.4541C65.084 64.0173 65.3776 63.3548 65.5566 62.4668C65.7428 61.5788 65.8359 60.4688 65.8359 59.1367C65.8359 57.819 65.7464 56.7161 65.5674 55.8281C65.3883 54.9401 65.0947 54.2741 64.6865 53.8301C64.2783 53.3789 63.7305 53.1533 63.043 53.1533C62.3555 53.1533 61.8076 53.3789 61.3994 53.8301C60.9984 54.2741 60.7083 54.9401 60.5293 55.8281C60.3574 56.7161 60.2715 57.819 60.2715 59.1367Z" fill="white"/>
<path d="M32.5063 26.5308C32.5063 27.0809 32.3688 27.5506 32.0938 27.9399C31.8229 28.325 31.4421 28.6191 30.9512 28.8223C30.4603 29.0254 29.8826 29.127 29.2183 29.127C28.867 29.127 28.5348 29.11 28.2217 29.0762C27.9085 29.0423 27.6208 28.9937 27.3584 28.9302C27.096 28.8667 26.8654 28.7884 26.6665 28.6953V27.6606C26.9839 27.7918 27.3711 27.9146 27.8281 28.0288C28.2852 28.1388 28.7633 28.1938 29.2627 28.1938C29.7282 28.1938 30.1217 28.1325 30.4434 28.0098C30.765 27.8828 31.0083 27.703 31.1733 27.4702C31.3426 27.2332 31.4272 26.9497 31.4272 26.6196C31.4272 26.3022 31.3574 26.0378 31.2178 25.8262C31.0781 25.6104 30.8454 25.4157 30.5195 25.2422C30.1979 25.0645 29.7578 24.8761 29.1992 24.6772C28.8057 24.5376 28.4587 24.3853 28.1582 24.2202C27.8577 24.0509 27.606 23.8605 27.4028 23.6489C27.1997 23.4373 27.0452 23.1919 26.9395 22.9126C26.8379 22.6333 26.7871 22.3138 26.7871 21.9541C26.7871 21.459 26.9119 21.0358 27.1616 20.6846C27.4155 20.3291 27.7646 20.0583 28.209 19.8721C28.6576 19.6816 29.1717 19.5864 29.7515 19.5864C30.2466 19.5864 30.7036 19.633 31.1226 19.7261C31.5457 19.8192 31.9329 19.944 32.2842 20.1006L31.9478 21.0273C31.6134 20.8877 31.258 20.7713 30.8813 20.6782C30.509 20.5851 30.1239 20.5386 29.7261 20.5386C29.3283 20.5386 28.9919 20.5978 28.7168 20.7163C28.446 20.8306 28.2386 20.9935 28.0947 21.2051C27.9508 21.4167 27.8789 21.6685 27.8789 21.9604C27.8789 22.2863 27.9466 22.5571 28.082 22.7729C28.2217 22.9888 28.4417 23.1813 28.7422 23.3506C29.0469 23.5156 29.4489 23.6891 29.9482 23.8711C30.4941 24.07 30.9575 24.2816 31.3384 24.5059C31.7192 24.7259 32.0091 24.9967 32.208 25.3184C32.4069 25.6357 32.5063 26.0399 32.5063 26.5308ZM36.4927 28.2637C36.6662 28.2637 36.8439 28.2489 37.0259 28.2192C37.2078 28.1896 37.356 28.1536 37.4702 28.1113V28.9302C37.3475 28.9852 37.1761 29.0317 36.9561 29.0698C36.7402 29.1079 36.5286 29.127 36.3213 29.127C35.9531 29.127 35.6188 29.0635 35.3184 28.9365C35.0179 28.8053 34.7767 28.5853 34.5947 28.2764C34.417 27.9674 34.3281 27.54 34.3281 26.9941V22.8682H33.3379V22.354L34.3345 21.9414L34.7534 20.4307H35.3882V22.043H37.4258V22.8682H35.3882V26.9624C35.3882 27.3983 35.4876 27.7241 35.6865 27.9399C35.8896 28.1558 36.1584 28.2637 36.4927 28.2637ZM41.5581 21.916C42.1506 21.916 42.6584 22.0472 43.0815 22.3096C43.5047 22.5719 43.8285 22.9401 44.0527 23.4141C44.277 23.8838 44.3892 24.4339 44.3892 25.0645V25.7183H39.584C39.5967 26.535 39.7998 27.1571 40.1934 27.5845C40.5869 28.0119 41.1413 28.2256 41.8564 28.2256C42.2965 28.2256 42.6859 28.1854 43.0244 28.105C43.363 28.0246 43.7142 27.9061 44.0781 27.7495V28.6763C43.7269 28.8328 43.3778 28.9471 43.0308 29.019C42.688 29.091 42.2817 29.127 41.812 29.127C41.1434 29.127 40.5594 28.9915 40.0601 28.7207C39.5649 28.4456 39.1799 28.0436 38.9048 27.5146C38.6297 26.9857 38.4922 26.3382 38.4922 25.5723C38.4922 24.8232 38.617 24.1758 38.8667 23.6299C39.1206 23.0798 39.4761 22.6566 39.9331 22.3604C40.3944 22.0641 40.936 21.916 41.5581 21.916ZM41.5454 22.7793C40.9826 22.7793 40.534 22.9634 40.1997 23.3315C39.8654 23.6997 39.6665 24.2139 39.603 24.874H43.2847C43.2804 24.4593 43.2148 24.0954 43.0879 23.7822C42.9652 23.4648 42.7769 23.2194 42.5229 23.0459C42.269 22.8682 41.9432 22.7793 41.5454 22.7793ZM49.4482 21.916C50.3158 21.916 51.0076 22.2144 51.5239 22.811C52.0402 23.4077 52.2983 24.3049 52.2983 25.5024C52.2983 26.2938 52.1799 26.9582 51.9429 27.4956C51.7059 28.033 51.3716 28.4393 50.9399 28.7144C50.5125 28.9894 50.0068 29.127 49.4229 29.127C49.0547 29.127 48.731 29.0783 48.4517 28.981C48.1724 28.8836 47.9333 28.7524 47.7344 28.5874C47.5355 28.4224 47.3704 28.2425 47.2393 28.0479H47.1631C47.1758 28.2129 47.1906 28.4118 47.2075 28.6445C47.2287 28.8773 47.2393 29.0804 47.2393 29.2539V32.1104H46.1792V22.043H47.0488L47.1885 23.0713H47.2393C47.3747 22.8597 47.5397 22.6672 47.7344 22.4937C47.929 22.3159 48.166 22.1763 48.4453 22.0747C48.7288 21.9689 49.0632 21.916 49.4482 21.916ZM49.2642 22.8047C48.7817 22.8047 48.3924 22.8978 48.0962 23.084C47.8042 23.2702 47.5905 23.5495 47.4551 23.9219C47.3197 24.29 47.2477 24.7534 47.2393 25.312V25.5151C47.2393 26.1034 47.3027 26.6006 47.4297 27.0068C47.5609 27.4131 47.7746 27.722 48.0708 27.9336C48.3713 28.1452 48.7733 28.251 49.2769 28.251C49.7085 28.251 50.0682 28.1346 50.356 27.9019C50.6437 27.6691 50.8574 27.3454 50.9971 26.9307C51.141 26.5117 51.2129 26.0314 51.2129 25.4897C51.2129 24.6688 51.0521 24.0171 50.7305 23.5347C50.4131 23.048 49.9243 22.8047 49.2642 22.8047ZM58.6396 27.0957C58.6396 27.54 58.5275 27.9146 58.3032 28.2192C58.0832 28.5197 57.7658 28.7461 57.3511 28.8984C56.9406 29.0508 56.4497 29.127 55.8784 29.127C55.3918 29.127 54.9707 29.0889 54.6152 29.0127C54.2598 28.9365 53.9487 28.8286 53.6821 28.689V27.7178C53.9657 27.8574 54.3042 27.9844 54.6978 28.0986C55.0913 28.2129 55.4933 28.27 55.9038 28.27C56.5047 28.27 56.9406 28.1727 57.2114 27.978C57.4823 27.7834 57.6177 27.5189 57.6177 27.1846C57.6177 26.9941 57.5627 26.827 57.4526 26.6831C57.3468 26.535 57.167 26.3932 56.9131 26.2578C56.6592 26.1182 56.3079 25.9658 55.8594 25.8008C55.415 25.6315 55.0299 25.4644 54.7041 25.2993C54.3825 25.13 54.1328 24.9248 53.9551 24.6836C53.7816 24.4424 53.6948 24.1292 53.6948 23.7441C53.6948 23.1559 53.9318 22.7052 54.4058 22.3921C54.884 22.0747 55.5103 21.916 56.2847 21.916C56.7036 21.916 57.0951 21.9583 57.459 22.043C57.8271 22.1234 58.1699 22.2334 58.4873 22.373L58.1318 23.2173C57.8441 23.0946 57.5373 22.9909 57.2114 22.9062C56.8856 22.8216 56.5534 22.7793 56.2148 22.7793C55.7282 22.7793 55.3537 22.8597 55.0913 23.0205C54.8332 23.1813 54.7041 23.4014 54.7041 23.6807C54.7041 23.8965 54.7633 24.0742 54.8818 24.2139C55.0046 24.3535 55.1992 24.4847 55.4658 24.6074C55.7324 24.7301 56.0837 24.874 56.5195 25.0391C56.9554 25.1999 57.332 25.367 57.6494 25.5405C57.9668 25.7098 58.2101 25.9172 58.3794 26.1626C58.5529 26.4038 58.6396 26.7148 58.6396 27.0957Z" fill="white"/>
</svg>
