<svg width="97" height="97" viewBox="0 0 97 97" fill="none" xmlns="http://www.w3.org/2000/svg">
<circle cx="48.5" cy="48.5" r="46.5" stroke="#1A242D" stroke-width="4"/>
<path d="M48.5 2C74.1812 2 95 22.8188 95 48.5C95 64.9788 86.4281 79.4556 73.5 87.7147" stroke="#FF2424" stroke-width="4"/>
<path d="M33.1196 29H32.0342V20.6719H29.1143V19.7197H36.0269V20.6719H33.1196V29ZM38.3247 22.043V29H37.271V22.043H38.3247ZM37.8105 19.4404C37.984 19.4404 38.1322 19.4976 38.2549 19.6118C38.3818 19.7218 38.4453 19.8953 38.4453 20.1323C38.4453 20.3651 38.3818 20.5386 38.2549 20.6528C38.1322 20.7671 37.984 20.8242 37.8105 20.8242C37.6286 20.8242 37.4762 20.7671 37.3535 20.6528C37.235 20.5386 37.1758 20.3651 37.1758 20.1323C37.1758 19.8953 37.235 19.7218 37.3535 19.6118C37.4762 19.4976 37.6286 19.4404 37.8105 19.4404ZM48.1128 21.916C48.8787 21.916 49.4564 22.117 49.8457 22.519C50.235 22.9168 50.4297 23.5579 50.4297 24.4424V29H49.3887V24.4932C49.3887 23.9303 49.266 23.5093 49.0205 23.23C48.7793 22.9465 48.4196 22.8047 47.9414 22.8047C47.2686 22.8047 46.7798 22.9993 46.4751 23.3887C46.1704 23.778 46.0181 24.3514 46.0181 25.1089V29H44.9707V24.4932C44.9707 24.1165 44.9157 23.8034 44.8057 23.5537C44.6999 23.304 44.5391 23.1178 44.3232 22.9951C44.1117 22.8682 43.8429 22.8047 43.5171 22.8047C43.0558 22.8047 42.6855 22.8999 42.4062 23.0903C42.127 23.2808 41.9238 23.5643 41.7969 23.9409C41.6742 24.3133 41.6128 24.7725 41.6128 25.3184V29H40.5591V22.043H41.4097L41.5684 23.0269H41.6255C41.7651 22.7856 41.9408 22.5825 42.1523 22.4175C42.3639 22.2524 42.6009 22.1276 42.8633 22.043C43.1257 21.9583 43.4049 21.916 43.7012 21.916C44.2301 21.916 44.6724 22.0155 45.0278 22.2144C45.3875 22.409 45.6478 22.7074 45.8086 23.1094H45.8657C46.0942 22.7074 46.4074 22.409 46.8052 22.2144C47.203 22.0155 47.6388 21.916 48.1128 21.916ZM55.2729 21.916C55.8654 21.916 56.3732 22.0472 56.7964 22.3096C57.2196 22.5719 57.5433 22.9401 57.7676 23.4141C57.9919 23.8838 58.104 24.4339 58.104 25.0645V25.7183H53.2988C53.3115 26.535 53.5146 27.1571 53.9082 27.5845C54.3018 28.0119 54.8561 28.2256 55.5713 28.2256C56.0114 28.2256 56.4007 28.1854 56.7393 28.105C57.0778 28.0246 57.429 27.9061 57.793 27.7495V28.6763C57.4417 28.8328 57.0926 28.9471 56.7456 29.019C56.4028 29.091 55.9966 29.127 55.5269 29.127C54.8582 29.127 54.2743 28.9915 53.7749 28.7207C53.2798 28.4456 52.8947 28.0436 52.6196 27.5146C52.3446 26.9857 52.207 26.3382 52.207 25.5723C52.207 24.8232 52.3319 24.1758 52.5815 23.6299C52.8354 23.0798 53.1909 22.6566 53.6479 22.3604C54.1092 22.0641 54.6509 21.916 55.2729 21.916ZM55.2603 22.7793C54.6974 22.7793 54.2489 22.9634 53.9146 23.3315C53.5802 23.6997 53.3813 24.2139 53.3179 24.874H56.9995C56.9953 24.4593 56.9297 24.0954 56.8027 23.7822C56.68 23.4648 56.4917 23.2194 56.2378 23.0459C55.9839 22.8682 55.658 22.7793 55.2603 22.7793Z" fill="white"/>
<path d="M34.1924 63.5518H32.0654V67H29.5732V63.5518H22.4297V61.6396L29.6055 51.252H32.0654V61.457H34.1924V63.5518ZM29.5732 61.457V57.5576C29.5732 57.2354 29.5768 56.9095 29.584 56.5801C29.5983 56.2435 29.6126 55.9212 29.627 55.6133C29.6413 55.3053 29.6556 55.0225 29.6699 54.7646C29.6842 54.4997 29.695 54.2812 29.7021 54.1094H29.6162C29.4801 54.3958 29.3298 54.6895 29.165 54.9902C29.0003 55.2839 28.8249 55.5703 28.6387 55.8496L24.7715 61.457H29.5732ZM40.917 57.1816C41.9268 57.1816 42.8148 57.3643 43.5811 57.7295C44.3545 58.0876 44.9561 58.6175 45.3857 59.3193C45.8154 60.014 46.0303 60.8662 46.0303 61.876C46.0303 62.9788 45.7975 63.9313 45.332 64.7334C44.8665 65.5283 44.1826 66.1406 43.2803 66.5703C42.3779 67 41.2786 67.2148 39.9824 67.2148C39.1589 67.2148 38.389 67.1432 37.6729 67C36.9639 66.8568 36.3516 66.6419 35.8359 66.3555V64.0781C36.373 64.3789 37.0176 64.626 37.7695 64.8193C38.5215 65.0055 39.2412 65.0986 39.9287 65.0986C40.6592 65.0986 41.2858 64.9912 41.8086 64.7764C42.3314 64.5615 42.7324 64.2321 43.0117 63.7881C43.2982 63.3441 43.4414 62.7819 43.4414 62.1016C43.4414 61.1992 43.1514 60.5046 42.5713 60.0176C41.9984 59.5234 41.0996 59.2764 39.875 59.2764C39.4453 59.2764 38.987 59.3158 38.5 59.3945C38.0202 59.4661 37.6191 59.5449 37.2969 59.6309L36.1904 58.9756L36.7812 51.2949H44.9453V53.5186H39.0049L38.6611 57.4287C38.9189 57.3714 39.2269 57.3177 39.585 57.2676C39.943 57.2103 40.387 57.1816 40.917 57.1816Z" fill="white"/>
<path d="M61.6646 58.916C62.4305 58.916 63.0081 59.117 63.3975 59.519C63.7868 59.9168 63.9814 60.5579 63.9814 61.4424V66H62.9404V61.4932C62.9404 60.9303 62.8177 60.5093 62.5723 60.23C62.3311 59.9465 61.9714 59.8047 61.4932 59.8047C60.8203 59.8047 60.3315 59.9993 60.0269 60.3887C59.7222 60.778 59.5698 61.3514 59.5698 62.1089V66H58.5225V61.4932C58.5225 61.1165 58.4674 60.8034 58.3574 60.5537C58.2516 60.304 58.0908 60.1178 57.875 59.9951C57.6634 59.8682 57.3947 59.8047 57.0688 59.8047C56.6076 59.8047 56.2373 59.8999 55.958 60.0903C55.6787 60.2808 55.4756 60.5643 55.3486 60.9409C55.2259 61.3133 55.1646 61.7725 55.1646 62.3184V66H54.1108V59.043H54.9614L55.1201 60.0269H55.1772C55.3169 59.7856 55.4925 59.5825 55.7041 59.4175C55.9157 59.2524 56.1527 59.1276 56.415 59.043C56.6774 58.9583 56.9567 58.916 57.2529 58.916C57.7819 58.916 58.2241 59.0155 58.5796 59.2144C58.9393 59.409 59.1995 59.7074 59.3604 60.1094H59.4175C59.646 59.7074 59.9591 59.409 60.3569 59.2144C60.7547 59.0155 61.1906 58.916 61.6646 58.916ZM67.1997 59.043V66H66.146V59.043H67.1997ZM66.6855 56.4404C66.859 56.4404 67.0072 56.4976 67.1299 56.6118C67.2568 56.7218 67.3203 56.8953 67.3203 57.1323C67.3203 57.3651 67.2568 57.5386 67.1299 57.6528C67.0072 57.7671 66.859 57.8242 66.6855 57.8242C66.5036 57.8242 66.3512 57.7671 66.2285 57.6528C66.11 57.5386 66.0508 57.3651 66.0508 57.1323C66.0508 56.8953 66.11 56.7218 66.2285 56.6118C66.3512 56.4976 66.5036 56.4404 66.6855 56.4404ZM72.7285 58.916C73.5537 58.916 74.1779 59.1191 74.6011 59.5254C75.0243 59.9274 75.2358 60.5749 75.2358 61.4678V66H74.1948V61.5376C74.1948 60.9578 74.0615 60.5241 73.7949 60.2363C73.5326 59.9486 73.1284 59.8047 72.5825 59.8047C71.8123 59.8047 71.2707 60.0226 70.9575 60.4585C70.6444 60.8944 70.4878 61.527 70.4878 62.3564V66H69.4341V59.043H70.2847L70.4434 60.0459H70.5005C70.6486 59.8005 70.8369 59.5952 71.0654 59.4302C71.2939 59.2609 71.55 59.134 71.8335 59.0493C72.117 58.9604 72.4154 58.916 72.7285 58.916Z" fill="white"/>
</svg>
